<svg xmlns="http://www.w3.org/2000/svg" width="14.465" height="14.873" viewBox="0 0 14.465 14.873">
    <g>
        <path fill="#282c47" d="M17.143 7.886V1.2H7.161v12.475h4.592a.6.6 0 1 1 0 1.2H6.562a.6.6 0 0 1-.6-.6V.6a.6.6 0 0 1 .6-.6h11.18a.6.6 0 0 1 .6.6v7.286a.6.6 0 1 1-1.2 0zm3.084 1.457a.6.6 0 0 0-.848.05l-3.284 3.653-1.647-1.587a.6.6 0 1 0-.829.868l2.1 2.016a.588.588 0 0 0 .419.17h.02a.6.6 0 0 0 .419-.2l3.69-4.113a.6.6 0 0 0-.04-.857zm-5.28-5.849h-5.39a.6.6 0 0 0 0 1.2h5.39a.6.6 0 0 0 0-1.2zm.6 3.893a.6.6 0 0 0-.6-.6h-5.39a.6.6 0 0 0 0 1.2h5.39a.6.6 0 0 0 .599-.6zm-5.989 2.6a.6.6 0 0 0 0 1.2h1.6a.6.6 0 0 0 0-1.2z" transform="translate(-5.963)"/>
    </g>
</svg>
