<svg xmlns="http://www.w3.org/2000/svg" width="18.492" height="18.5" viewBox="0 0 18.492 18.5">
    <g>
        <path fill="#e4e3e5" d="M18.492 1.5c0 .828-4.14 1.5-9.246 1.5S0 2.328 0 1.5 4.14 0 9.246 0s9.246.672 9.246 1.5" transform="translate(-31 -309.5) translate(31 325)"/>
        <g>
            <path fill="rgba(56,85,114,0.5)" d="M4.048 8.1A4.048 4.048 0 1 1 8.1 4.048 4.052 4.052 0 0 1 4.048 8.1zm0-6.774a2.731 2.731 0 1 0 2.731 2.726 2.734 2.734 0 0 0-2.731-2.731z" transform="translate(-31 -309.5) translate(32 309.5) translate(3.976)"/>
            <path fill="#363954" d="M11.868 8.368H4.182a4.184 4.184 0 0 1 0-8.368h7.682a4.184 4.184 0 0 1 0 8.368zM4.182 1.317a2.867 2.867 0 1 0 0 5.734h7.682a2.867 2.867 0 1 0 0-5.734z" transform="translate(-31 -309.5) translate(32 309.5) translate(0 8.829)"/>
        </g>
    </g>
</svg>
