<svg xmlns="http://www.w3.org/2000/svg" width="41.941" height="41.466" viewBox="0 0 41.941 41.466">
    <defs>
        <style>
            .cls-5{fill:#e7a52e}.cls-7{fill:#e7ecf6}.cls-8{fill:#d8e2f1}.cls-13{fill:#ffcbbe}.cls-14{fill:#ffddce}
        </style>
    </defs>
    <g id="Group_9013" transform="translate(-27 -143.3)">
        <g id="paper_2_" transform="translate(-33.452 143.3)">
            <g id="Group_8988" transform="translate(74.844)">
                <path id="Path_19192" fill="#00b3b5" d="M99.125 33.05l-18.667-4.289a1.154 1.154 0 0 1-.866-1.383L85.677.9A1.154 1.154 0 0 1 87.06.029l18.667 4.289a1.154 1.154 0 0 1 .866 1.383l-6.085 26.482a1.154 1.154 0 0 1-1.383.867z" transform="translate(-79.562)"/>
            </g>
            <g id="Group_8989" transform="translate(74.844 4.088)">
                <path id="Path_19193" fill="#168794" d="M105.728 53.361l-1-.231-5.851 25.446a1.187 1.187 0 0 1-1.422.891l-17.632-4.051-.231 1a1.154 1.154 0 0 0 .866 1.383l18.667 4.29a1.154 1.154 0 0 0 1.383-.866l6.085-26.482a1.154 1.154 0 0 0-.865-1.38z" transform="translate(-79.563 -53.13)"/>
            </g>
            <g id="Group_8990" transform="translate(74.451 5.765)">
                <path id="Path_19194" fill="#fec10d" d="M94.759 104.4H75.605a1.154 1.154 0 0 1-1.154-1.154V76.069a1.154 1.154 0 0 1 1.154-1.154h19.154a1.154 1.154 0 0 1 1.154 1.154v27.172a1.154 1.154 0 0 1-1.154 1.159z" transform="translate(-74.451 -74.915)"/>
            </g>
            <g id="Group_8991" transform="translate(74.451 5.765)">
                <path id="Path_19195" fill="#eab14d" d="M94.759 74.915h-1.03v26.109a1.187 1.187 0 0 1-1.187 1.187H74.451v1.03a1.154 1.154 0 0 0 1.154 1.154h19.154a1.154 1.154 0 0 0 1.154-1.154V76.069a1.154 1.154 0 0 0-1.154-1.154z" transform="translate(-74.451 -74.915)"/>
            </g>
            <g id="Group_8998" transform="translate(76.77 11.318)">
                <g id="Group_8992">
                    <path id="Path_19196" d="M110.421 148.262h-5.234a.593.593 0 1 1 0-1.187h5.234a.593.593 0 1 1 0 1.187z" class="cls-5" transform="translate(-104.593 -147.075)"/>
                </g>
                <g id="Group_8993" transform="translate(0 3.267)">
                    <path id="Path_19197" d="M110.421 190.721h-5.234a.593.593 0 1 1 0-1.187h5.234a.593.593 0 1 1 0 1.187z" class="cls-5" transform="translate(-104.593 -189.534)"/>
                </g>
                <g id="Group_8994" transform="translate(0 6.535)">
                    <path id="Path_19198" d="M110.421 233.182h-5.234a.593.593 0 1 1 0-1.187h5.234a.593.593 0 1 1 0 1.187z" class="cls-5" transform="translate(-104.593 -231.995)"/>
                </g>
                <g id="Group_8995" transform="translate(0 9.802)">
                    <path id="Path_19199" d="M110.421 275.643h-5.234a.593.593 0 1 1 0-1.187h5.234a.593.593 0 1 1 0 1.187z" class="cls-5" transform="translate(-104.593 -274.456)"/>
                </g>
                <g id="Group_8996" transform="translate(0 13.07)">
                    <path id="Path_19200" d="M110.421 318.1h-5.234a.593.593 0 1 1 0-1.187h5.234a.593.593 0 1 1 0 1.187z" class="cls-5" transform="translate(-104.593 -316.915)"/>
                </g>
                <g id="Group_8997" transform="translate(0 16.337)">
                    <path id="Path_19201" d="M110.421 360.563h-5.234a.593.593 0 0 1 0-1.187h5.234a.593.593 0 0 1 0 1.187z" class="cls-5" transform="translate(-104.593 -359.376)"/>
                </g>
            </g>
            <g id="Group_9007" transform="translate(80.93 9.919)">
                <g id="Group_9000">
                    <g id="Group_8999">
                        <path id="Path_19202" fill="#f9f6f9" d="M172.313 128.9h-12.478a1.187 1.187 0 0 0-1.187 1.187v27.106a1.187 1.187 0 0 0 1.187 1.187h19.088a1.187 1.187 0 0 0 1.187-1.187V136.7a1.583 1.583 0 0 0-.464-1.119l-6.214-6.214a1.583 1.583 0 0 0-1.119-.467z" transform="translate(-158.648 -128.9)"/>
                    </g>
                </g>
                <g id="Group_9002" transform="translate(0 4.546)">
                    <g id="Group_9001">
                        <path id="Path_19203" d="M179.646 190.11l-2.131-2.131a1.583 1.583 0 0 1 .464 1.119v20.5a1.187 1.187 0 0 1-1.187 1.187h-18.144v.944a1.187 1.187 0 0 0 1.187 1.187h19.088a1.187 1.187 0 0 0 1.187-1.187v-20.5a1.583 1.583 0 0 0-.464-1.119z" class="cls-7" transform="translate(-158.648 -187.979)"/>
                    </g>
                </g>
                <g id="Group_9004" transform="translate(13.992 .035)">
                    <g id="Group_9003">
                        <path id="Path_19204" d="M347.484 136l-6.214-6.214a1.582 1.582 0 0 0-.792-.429V136a.791.791 0 0 0 .791.791h6.644a1.582 1.582 0 0 0-.429-.791z" class="cls-7" transform="translate(-340.478 -129.354)"/>
                    </g>
                </g>
                <g id="Group_9006" transform="translate(13.992 5.297)">
                    <g id="Group_9005">
                        <path id="Path_19205" d="M347.484 199.12l-1.38-1.38h-5.626v1.381a.791.791 0 0 0 .791.791h6.644a1.583 1.583 0 0 0-.429-.792z" class="cls-8" transform="translate(-340.478 -197.74)"/>
                    </g>
                </g>
            </g>
            <path id="Path_19206" d="M201.008 267.676a.593.593 0 1 0 0-1.187H189.26v-2.081h11.747a.593.593 0 0 0 0-1.187H189.26v-.79a.593.593 0 1 0-1.187 0v.79h-1.728a.593.593 0 0 0 0 1.187h1.728v2.081h-1.728a.593.593 0 1 0 0 1.187h1.728v2.081h-1.728a.593.593 0 1 0 0 1.187h1.728v2.081h-1.728a.593.593 0 0 0 0 1.187h1.728V275a.593.593 0 1 0 1.187 0v-.789h11.747a.593.593 0 0 0 0-1.187H189.26v-2.081h11.747a.593.593 0 1 0 0-1.187H189.26v-2.081z" class="cls-8" transform="translate(-102.736 -241.689)"/>
        </g>
        <g id="Group_9008" transform="translate(0 -.489)">
            <path id="Path_18982" fill="#393e64" d="M38.428 372.464a4.128 4.128 0 0 0-2.306-2.843l-5.057-2.04v-.125a9.484 9.484 0 0 1-7.629 0v.125l-5.057 2.04A4.094 4.094 0 0 0 16 372.94v5.2h22.5v-5.2a3.6 3.6 0 0 0-.072-.476z" transform="translate(11 -192.879)"/>
            <path id="Path_18983" fill="#2d303e" d="M21.355 369.62l3.9-1.575a9.354 9.354 0 0 1-1.823-.59v.125l-5.057 2.04A4.094 4.094 0 0 0 16 372.939v5.2h2.977v-5.2a4.094 4.094 0 0 1 2.378-3.319z" transform="translate(11 -192.878)"/>
            <path id="Path_18986" fill="#3a3a3b" d="M59.523 110.592v.086s-7.026 1.17-11.737-2.8a26.235 26.235 0 0 1-2.909.069l-.219 3.4a.157.157 0 0 1-.085.125.175.175 0 0 1-.157 0l-.972-.472a.636.636 0 0 1-.363-.52v-2.862a8.235 8.235 0 0 1 16.443 0z" transform="translate(-13.393 49.632)"/>
            <path id="Path_18987" fill="#0f0f12" d="M47.472 102.132a8.392 8.392 0 0 1 4.828-2.218 8.783 8.783 0 0 0-1-.057 8 8 0 0 0-8.221 7.768v2.862a.636.636 0 0 0 .363.52l.972.472a.175.175 0 0 0 .157 0 .157.157 0 0 0 .085-.125s-.426-6.154 2.816-9.222z" transform="translate(-13.393 49.632)"/>
            <path id="Path_18988" d="M98.569 332.247v3.3a9.485 9.485 0 0 1-7.629 0v-3.055a8.48 8.48 0 0 0 7.629-.245z" class="cls-13" transform="translate(-56.505 -160.971)"/>
            <path id="Path_18989" d="M92.924 337.922v-2.416a8.329 8.329 0 0 1-1.984-.64v3.055a9.472 9.472 0 0 0 4.807.749 9.408 9.408 0 0 1-2.823-.748z" class="cls-14" transform="translate(-56.505 -163.345)"/>
            <path id="Path_18990" d="M42.36 199.219a8.465 8.465 0 0 1-8.071.022 7.547 7.547 0 0 1-4.041-6.6v-.964a2.081 2.081 0 0 1-1.371-.857 1.867 1.867 0 0 1-.278-1.531 1.533 1.533 0 0 1 1.392-1.119H30a.642.642 0 0 0 .346.417l.972.472a.175.175 0 0 0 .157 0 .157.157 0 0 0 .085-.125l.219-3.4a26.234 26.234 0 0 0 2.909-.069c4.711 3.967 11.737 2.8 11.737 2.8v-.086h.194a1.532 1.532 0 0 1 1.391 1.119 1.863 1.863 0 0 1-.276 1.532 2.077 2.077 0 0 1-1.372.857v.964a7.363 7.363 0 0 1-2.2 5.223c-.053.054-.108.108-.164.16a8.026 8.026 0 0 1-1.638 1.185z" class="cls-14" transform="translate(-.296 -27.943)"/>
            <path id="Path_18991" d="M36.708 225.648a7.583 7.583 0 0 1-4.484-6.825v-.964a2.082 2.082 0 0 1-1.371-.859 1.867 1.867 0 0 1-.278-1.531 1.439 1.439 0 0 1 .225-.48l-.462-.224a.642.642 0 0 1-.346-.417h-.009a1.533 1.533 0 0 0-1.392 1.119 1.864 1.864 0 0 0 .276 1.533 2.078 2.078 0 0 0 1.373.857v.964a7.841 7.841 0 0 0 8.058 7.613 8.607 8.607 0 0 0 .991-.058 8.359 8.359 0 0 1-2.581-.728z" class="cls-13" transform="translate(-.288 -54.127)"/>
        </g>
    </g>
</svg>
