<svg xmlns="http://www.w3.org/2000/svg" width="15.856" height="15.937" viewBox="0 0 15.856 15.937">
    <g>
        <g>
            <path fill="#282c47" d="M250.976 188.109a.461.461 0 0 1 .5.415.376.376 0 0 0 .753 0 1.182 1.182 0 0 0-.872-1.114v-.052a.376.376 0 0 0-.753 0v.052a1.182 1.182 0 0 0-.872 1.114 1.212 1.212 0 0 0 1.249 1.168.422.422 0 1 1-.5.415.376.376 0 1 0-.753 0 1.182 1.182 0 0 0 .872 1.114v.052a.376.376 0 0 0 .753 0v-.052a1.182 1.182 0 0 0 .872-1.114 1.212 1.212 0 0 0-1.249-1.168.422.422 0 1 1 0-.83z" transform="translate(.1 .189) translate(0 .001) translate(-242.33 -181.707)"/>
            <path fill="#282c47" stroke="#282c47" stroke-width="0.2px" d="M15.6 10.21a1.168 1.168 0 0 0-1.672-.71 5.385 5.385 0 0 0-.221-2.6.306.306 0 0 0-.578.2 4.771 4.771 0 0 1 .01 3.056L10.7 12.323a2.456 2.456 0 0 1-.49.338 1.173 1.173 0 0 0-.632-1.34l-2.154-1.033a3.922 3.922 0 0 0-3.029-.144l-.219.081a4.72 4.72 0 0 1 1.119-4.93l2.156-2.158H9.84l1.828 1.828a.306.306 0 1 0 .432-.432l-1.746-1.747.631-1.817A.55.55 0 0 0 10.077.4a.324.324 0 0 1-.458 0 1.377 1.377 0 0 0-1.95 0 .324.324 0 0 1-.458 0A.55.55 0 0 0 6.3.974l.634 1.812-2.072 2.076A5.353 5.353 0 0 0 3.6 10.436l-.482.177a.875.875 0 0 0-.695-.343H.876a.877.877 0 0 0-.876.876v3.627a.877.877 0 0 0 .876.876h8.055a4.809 4.809 0 0 0 3.369-1.368l2.993-2.908a1.167 1.167 0 0 0 .307-1.163zm-8.16-9.1A.929.929 0 0 0 8.1.836a.765.765 0 0 1 1.081 0 .936.936 0 0 0 1.155.133L9.8 2.526H7.5L6.95.971a.929.929 0 0 0 .49.139zM.611 14.772v-3.626a.265.265 0 0 1 .265-.265h1.549a.265.265 0 0 1 .265.265v3.627a.265.265 0 0 1-.265.265H.876a.265.265 0 0 1-.265-.266zm14.255-3.838l-2.993 2.908a4.2 4.2 0 0 1-2.943 1.195H3.26a.873.873 0 0 0 .041-.265V11.2l1.3-.479a3.307 3.307 0 0 1 2.554.121l2.158 1.033a.562.562 0 0 1 .236.8.562.562 0 0 1-.65.242L6.037 12a.306.306 0 0 0-.185.583l2.866.911a1.177 1.177 0 0 0 .357.056h.043a3.061 3.061 0 0 0 1.991-.772l3-2.663a.56.56 0 0 1 .486-.129.558.558 0 0 1 .273.945z" transform="translate(.1 .189) translate(0 .001) translate(0 -.001)"/>
            <path fill="#fff" stroke="#282c47" stroke-linecap="round" stroke-width="0.8px" d="M11.91 4.7a17.387 17.387 0 0 1 1.59 2.456" transform="translate(.1 .189) translate(0 .001)"/>
        </g>
    </g>
</svg>
