<svg xmlns="http://www.w3.org/2000/svg" width="181.029" height="115.71" viewBox="0 0 181.029 115.71">
    <defs>
        <style>
            .cls-2{fill:#455a64}.cls-3{fill:#263238}.cls-4{fill:#fafafa}.cls-5{fill:#fff}.cls-6{fill:#ff725e}.cls-7{fill:#e0e0e0}.cls-8{fill:#f36f21}.cls-9{fill:#f5f5f5}.cls-10{fill:#fec10d}.cls-11{fill:#ffb27d}.cls-12{fill:#ed975d}.cls-14{fill:#168794}.cls-15{opacity:.3}.cls-16{fill:#00b3b5}
        </style>
    </defs>
    <g id="Group_9109" transform="translate(-12801.934 -641.74)">
        <path id="Path_19190" fill="#f5f9fc" d="M152.554 115.711l60.663-.312H250.944l74.016-.02s16.93-21.536-1.154-41.991c-18.749-21.208-27.866-3.936-33.63-33.788C275.67-35.554 132.24 8.181 169.861 72.124c13.546 23.024-26.664 10.786-17.307 43.588" transform="translate(12650.808 641.739)"/>
        <g id="Device" transform="translate(12853.001 642.832)">
            <g id="Group_191">
                <g id="Group_128">
                    <g id="Group_94" transform="translate(.385)">
                        <path id="Path_31" d="M168.566 185.242l-44.671.023a6.512 6.512 0 0 1-6.516-6.509l-.053-100.619a7.424 7.424 0 0 1 7.42-7.428l43.842-.023a6.583 6.583 0 0 1 6.586 6.579l.054 101.307a6.666 6.666 0 0 1-6.662 6.67z" class="cls-2" transform="translate(-117.326 -70.686)"/>
                    </g>
                    <g id="Group_95" transform="translate(1.297 .913)">
                        <path id="Path_32" d="M120.563 178.711l-.051-96.89a7.921 7.921 0 0 1 7.917-7.926l40.184-.021a7.921 7.921 0 0 1 7.925 7.917l.052 96.89a7.921 7.921 0 0 1-7.917 7.925l-40.184.021a7.921 7.921 0 0 1-7.926-7.916z" class="cls-3" transform="translate(-120.512 -73.874)"/>
                    </g>
                    <g id="Group_107" transform="translate(20.074 3.242)">
                        <g id="Group_97" transform="translate(4.436 .003)">
                            <g id="Group_96">
                                <path id="Path_33" d="M202.225 83.31a.643.643 0 0 1 0-1.287h8.273a.643.643 0 0 1 0 1.286z" class="cls-2" transform="translate(-201.581 -82.019)"/>
                            </g>
                        </g>
                        <g id="Group_106">
                            <g id="Group_99" transform="translate(0 .009)">
                                <g id="Group_98">
                                    <path id="Path_34" d="M186.733 83.329a.643.643 0 1 1 .643-.644.644.644 0 0 1-.643.644z" class="cls-2" transform="translate(-186.089 -82.042)"/>
                                </g>
                            </g>
                            <g id="Group_101" transform="translate(2.368 .008)">
                                <g id="Group_100">
                                    <path id="Path_35" d="M195 83.325a.643.643 0 1 1 .643-.644.644.644 0 0 1-.643.644z" class="cls-2" transform="translate(-194.358 -82.038)"/>
                                </g>
                            </g>
                            <g id="Group_103" transform="translate(17.181)">
                                <g id="Group_102">
                                    <path id="Path_36" d="M246.739 83.3a.643.643 0 1 1 .643-.644.644.644 0 0 1-.643.644z" class="cls-2" transform="translate(-246.095 -82.01)"/>
                                </g>
                            </g>
                            <g id="Group_105" transform="translate(14.813 .001)">
                                <g id="Group_104">
                                    <path id="Path_37" d="M238.469 83.3a.643.643 0 1 1 .642-.644.644.644 0 0 1-.642.644z" class="cls-2" transform="translate(-237.825 -82.015)"/>
                                </g>
                            </g>
                        </g>
                    </g>
                    <g id="Group_108" transform="translate(2.602 2.239)">
                        <path id="Path_38" d="M172.284 78.5h-7.788a1.7 1.7 0 0 0-1.63 1.219l-.636 2.183a1.9 1.9 0 0 1-1.826 1.365l-17.254.009a1.9 1.9 0 0 1-1.827-1.363l-.638-2.182a1.7 1.7 0 0 0-1.631-1.217h-7.788a6.185 6.185 0 0 0-6.2 6.172l.052 97.529a6.185 6.185 0 0 0 6.2 6.166l41.016-.021a6.186 6.186 0 0 0 6.2-6.173l-.052-97.529a6.185 6.185 0 0 0-6.198-6.158z" class="cls-4" transform="translate(-125.07 -78.505)"/>
                    </g>
                    <g id="Group_109" transform="translate(58.242 24.895)">
                        <path id="Path_39" d="M319.392 157.633a.379.379 0 0 1 .379.379l.007 12.408a.379.379 0 0 1-.379.379z" class="cls-2" transform="translate(-319.392 -157.633)"/>
                    </g>
                    <g id="Group_110" transform="translate(.006 33.04)">
                        <path id="Path_40" d="M116.394 186.079a.393.393 0 0 0-.393.393v7.55a.393.393 0 0 0 .393.393z" class="cls-2" transform="translate(-116.001 -186.079)"/>
                    </g>
                    <g id="Group_111" transform="translate(0 22.15)">
                        <path id="Path_41" d="M116.374 148.044a.393.393 0 0 0-.393.393v7.55a.393.393 0 0 0 .393.393z" class="cls-2" transform="translate(-115.981 -148.044)"/>
                    </g>
                    <g id="Group_112" transform="translate(.05 13.975)">
                        <path id="Path_42" d="M116.494 119.494a.339.339 0 0 0-.339.339v3.2a.339.339 0 0 0 .339.339z" class="cls-2" transform="translate(-116.155 -119.494)"/>
                    </g>
                    <g id="Group_127" transform="translate(43.05 4.523)">
                        <g id="Group_117" transform="translate(0 .098)">
                            <g id="Group_113" transform="translate(0 .795)">
                                <path id="Rectangle_4" d="M0 0H0.397V0.557H0z" class="cls-5"/>
                            </g>
                            <g id="Group_114" transform="translate(.647 .547)">
                                <path id="Rectangle_5" d="M0 0H0.397V0.805H0z" class="cls-5"/>
                            </g>
                            <g id="Group_115" transform="translate(1.293 .36)">
                                <path id="Rectangle_6" d="M0 0H0.397V0.991H0z" class="cls-5"/>
                            </g>
                            <g id="Group_116" transform="translate(1.94)">
                                <path id="Rectangle_7" d="M0 0H0.397V1.351H0z" class="cls-5"/>
                            </g>
                        </g>
                        <g id="Group_120" transform="translate(6.066 .197)">
                            <g id="Group_118">
                                <path id="Path_43" d="M289.656 88.447h-1.994a.143.143 0 0 1-.143-.143v-.991a.143.143 0 0 1 .141-.143h2a.036.036 0 0 1 .037.037v.327h.214a.036.036 0 0 1 .036.036v.478a.036.036 0 0 1-.036.036h-.214v.327a.037.037 0 0 1-.041.036zm-.037-1.2h-1.959a.068.068 0 0 0-.069.07v.983a.07.07 0 0 0 .07.07h1.958v-.327a.036.036 0 0 1 .036-.036h.214v-.4h-.213a.037.037 0 0 1-.037-.036z" class="cls-5" transform="translate(-287.518 -87.169)"/>
                            </g>
                            <g id="Group_119" transform="translate(.236 .236)">
                                <path id="Path_44" d="M288.342 88.8v-.805h1.7v.805z" class="cls-5" transform="translate(-288.342 -87.994)"/>
                            </g>
                        </g>
                        <g id="Group_126" transform="translate(3)">
                            <g id="Group_121" transform="translate(.947 1.255)">
                                <path id="Path_45" d="M280.413 91.009a.146.146 0 1 0-.146.146.146.146 0 0 0 .146-.146z" class="cls-5" transform="translate(-280.121 -90.863)"/>
                            </g>
                            <g id="Group_125">
                                <g id="Group_122" transform="translate(.596 .843)">
                                    <path id="Path_46" d="M278.894 89.631l.186.186a.44.44 0 0 1 .622 0l.186-.186a.7.7 0 0 0-.994 0z" class="cls-5" transform="translate(-278.894 -89.424)"/>
                                </g>
                                <g id="Group_123" transform="translate(.303 .428)">
                                    <path id="Path_47" d="M278.66 87.976a1.114 1.114 0 0 0-.79.328l.186.186a.853.853 0 0 1 1.208 0l.186-.186a1.115 1.115 0 0 0-.79-.328z" class="cls-5" transform="translate(-277.87 -87.976)"/>
                                </g>
                                <g id="Group_124">
                                    <path id="Path_48" d="M276.812 86.935l.186.186a1.281 1.281 0 0 1 1.814 0l.186-.186a1.544 1.544 0 0 0-2.186 0z" class="cls-5" transform="translate(-276.812 -86.481)"/>
                                </g>
                            </g>
                        </g>
                    </g>
                </g>
                <g id="Group_135" transform="translate(2.382 19.352)">
                    <path id="Path_49" d="M145.072 164.42a3.691 3.691 0 1 1-3.661-3.721 3.691 3.691 0 0 1 3.661 3.721z" class="cls-6" transform="translate(-133.856 -154.277)"/>
                    <g id="Group_129" transform="translate(14.372 7.141)">
                        <path id="Path_50" d="M189.787 163.372c0 .041-3.424.047-7.647.012s-7.647-.1-7.646-.137 3.423-.047 7.647-.012 7.646.096 7.646.137z" class="cls-3" transform="translate(-174.494 -163.212)"/>
                    </g>
                    <g id="Group_130" transform="translate(14.263 10.551)">
                        <path id="Path_51" d="M201.995 175.374c0 .041-6.242.023-13.94-.04s-13.941-.148-13.94-.189 6.241-.023 13.942.04 13.943.147 13.938.189z" class="cls-7" transform="translate(-174.114 -175.123)"/>
                    </g>
                    <g id="Group_131" transform="translate(14.241 13.302)">
                        <path id="Path_52" d="M201.916 184.982c0 .041-6.243.023-13.94-.04s-13.941-.147-13.94-.189 6.241-.023 13.942.04 13.938.148 13.938.189z" class="cls-7" transform="translate(-174.035 -184.731)"/>
                    </g>
                    <g id="Group_132" transform="translate(44.323 6.668)">
                        <path id="Path_53" d="M285.126 161.665c0 .041-1.35.064-3.014.05s-3.014-.058-3.013-.1 1.35-.064 3.014-.05 3.014.059 3.013.1z" class="cls-3" transform="translate(-279.099 -161.562)"/>
                    </g>
                    <path id="Path_55" d="M238.7 161.452a.693.693 0 1 1-.687-.7.693.693 0 0 1 .687.7z" class="cls-6" transform="translate(-204.958 -154.316)"/>
                    <g id="Group_133" transform="translate(.156)">
                        <path id="Path_56" d="M178.12 138.722c0 .041-11.927-.023-26.636-.144s-26.638-.251-26.637-.293 11.925.023 26.639.144 26.634.251 26.634.293z" class="cls-7" transform="translate(-124.846 -138.273)"/>
                    </g>
                    <g id="Group_134" transform="translate(0 19.076)">
                        <path id="Path_57" d="M177.574 205.344c0 .041-11.927-.023-26.636-.143s-26.638-.252-26.638-.293 11.925.023 26.639.143 26.635.249 26.635.293z" class="cls-7" transform="translate(-124.3 -204.895)"/>
                    </g>
                </g>
                <g id="Group_142" transform="translate(2.226 57.439)">
                    <circle id="Ellipse_1" cx="3.691" cy="3.691" r="3.691" class="cls-8" transform="rotate(-45 13.28 2.463)"/>
                    <g id="Group_136" transform="translate(14.215 7.141)">
                        <path id="Path_58" d="M188.7 296.392c0 .041-3.424.047-7.647.012s-7.647-.1-7.646-.137 3.424-.047 7.648-.012 7.645.096 7.645.137z" class="cls-3" transform="translate(-173.404 -296.232)"/>
                    </g>
                    <g id="Group_137" transform="translate(14.107 10.551)">
                        <path id="Path_59" d="M200.906 308.394c0 .041-6.243.023-13.94-.04s-13.941-.148-13.94-.189 6.241-.023 13.942.04 13.938.147 13.938.189z" class="cls-7" transform="translate(-173.025 -308.143)"/>
                    </g>
                    <g id="Group_138" transform="translate(14.084 13.302)">
                        <path id="Path_60" d="M200.827 318c0 .041-6.243.023-13.94-.04s-13.941-.147-13.94-.189 6.241-.023 13.942.039 13.938.15 13.938.19z" class="cls-7" transform="translate(-172.946 -317.751)"/>
                    </g>
                    <g id="Group_139" transform="translate(44.167 6.668)">
                        <path id="Path_61" d="M284.036 294.685c0 .041-1.35.063-3.014.05s-3.014-.058-3.013-.1 1.35-.064 3.015-.05 3.013.059 3.012.1z" class="cls-3" transform="translate(-278.009 -294.582)"/>
                    </g>
                    <path id="Path_62" d="M286.28 307.929l.249.516a.3.3 0 0 0 .225.166l.567.087a.3.3 0 0 1 .162.514l-.414.4a.3.3 0 0 0-.088.265l.092.566a.3.3 0 0 1-.439.313l-.505-.271a.3.3 0 0 0-.28 0l-.509.263a.3.3 0 0 1-.434-.32l.1-.564a.3.3 0 0 0-.084-.267l-.407-.4a.3.3 0 0 1 .171-.511l.568-.078a.3.3 0 0 0 .228-.163l.258-.512a.3.3 0 0 1 .54-.004z" class="cls-6" transform="translate(-238.423 -297.318)"/>
                    <circle id="Ellipse_2" cx=".693" cy=".693" r=".693" class="cls-6" transform="rotate(-78.764 20.715 -15.704)"/>
                    <g id="Group_140">
                        <path id="Path_63" d="M177.031 271.742c0 .041-11.927-.023-26.636-.143s-26.638-.252-26.637-.293 11.925.023 26.639.144 26.634.25 26.634.292z" class="cls-7" transform="translate(-123.757 -271.293)"/>
                    </g>
                    <g id="Group_141" transform="translate(.669 19.02)">
                        <path id="Path_64" d="M178.541 338.224c0 .041-11.743-.036-26.224-.172s-26.225-.28-26.225-.322 11.74.036 26.226.172 26.224.281 26.223.322z" class="cls-7" transform="translate(-126.093 -337.719)"/>
                    </g>
                </g>
                <g id="Group_147" transform="translate(5.607 100.083)">
                    <path id="Path_65" d="M142.947 423.947a3.691 3.691 0 1 1-3.661-3.721 3.691 3.691 0 0 1 3.661 3.721z" class="cls-8" transform="translate(-135.565 -420.226)"/>
                    <g id="Group_143" transform="translate(10.538 .72)">
                        <path id="Path_66" d="M187.662 422.9c0 .041-3.424.046-7.647.012s-7.647-.1-7.646-.137 3.423-.046 7.647-.012 7.646.096 7.646.137z" class="cls-3" transform="translate(-172.369 -422.74)"/>
                    </g>
                    <g id="Group_144" transform="translate(10.429 4.13)">
                        <path id="Path_67" d="M199.87 434.9c0 .041-6.243.023-13.94-.039s-13.941-.147-13.94-.189 6.241-.023 13.942.039 13.938.149 13.938.189z" class="cls-7" transform="translate(-171.989 -434.65)"/>
                    </g>
                    <g id="Group_145" transform="translate(10.407 6.881)">
                        <path id="Path_68" d="M199.791 444.509c0 .041-6.243.023-13.94-.04s-13.941-.147-13.94-.189 6.241-.023 13.942.04 13.938.148 13.938.189z" class="cls-7" transform="translate(-171.91 -444.259)"/>
                    </g>
                    <g id="Group_146" transform="translate(40.489 .247)">
                        <path id="Path_69" d="M283 421.193c0 .041-1.35.064-3.014.05s-3.014-.058-3.013-.1 1.35-.064 3.014-.05 3.013.059 3.013.1z" class="cls-3" transform="translate(-276.974 -421.09)"/>
                    </g>
                    <path id="Path_70" d="M236.579 420.979a.693.693 0 1 1-.687-.7.693.693 0 0 1 .687.7z" class="cls-6" transform="translate(-206.667 -420.265)"/>
                </g>
                <path id="Rectangle_8" d="M0 0H53.098V19.076H0z" class="cls-9" transform="rotate(.469 -4695.09 368.004)"/>
                <g id="Group_153" transform="translate(4.641 42.916)">
                    <circle id="Ellipse_3" cx="3.691" cy="3.691" r="3.691" class="cls-10" transform="rotate(-45 6.301 2.61)"/>
                    <g id="Group_148" transform="translate(12.067 2.249)">
                        <path id="Path_71" d="M189.626 228.586c0 .041-3.424.046-7.647.012s-7.646-.1-7.646-.137 3.424-.046 7.647-.012 7.646.096 7.646.137z" class="cls-3" transform="translate(-174.333 -228.426)"/>
                    </g>
                    <g id="Group_149" transform="translate(11.958 5.659)">
                        <path id="Path_72" d="M201.834 240.587c0 .041-6.242.023-13.94-.04s-13.941-.147-13.94-.189 6.241-.023 13.942.04 13.938.147 13.938.189z" class="cls-7" transform="translate(-173.953 -240.336)"/>
                    </g>
                    <g id="Group_150" transform="translate(11.936 8.41)">
                        <path id="Path_73" d="M201.755 250.195c0 .041-6.242.023-13.94-.039s-13.941-.147-13.941-.189 6.241-.023 13.942.04 13.939.147 13.939.188z" class="cls-7" transform="translate(-173.874 -249.944)"/>
                    </g>
                    <g id="Group_151" transform="translate(42.018 1.776)">
                        <path id="Path_74" d="M284.965 226.879c0 .041-1.35.064-3.014.05s-3.014-.058-3.013-.1 1.35-.063 3.014-.05 3.014.058 3.013.1z" class="cls-3" transform="translate(-278.938 -226.775)"/>
                    </g>
                    <path id="Path_76" d="M238.543 226.665a.693.693 0 1 1-.687-.7.693.693 0 0 1 .687.7z" class="cls-6" transform="translate(-207.102 -224.422)"/>
                </g>
                <path id="Rectangle_9" d="M0 0H53.098V19.076H0z" class="cls-9" transform="rotate(.469 -9340.522 391.903)"/>
                <g id="Group_159" transform="translate(4.681 80.942)">
                    <circle id="Ellipse_4" cx="3.691" cy="3.691" r="3.691" class="cls-10" transform="rotate(-45 6.301 2.61)"/>
                    <g id="Group_154" transform="translate(12.067 2.249)">
                        <path id="Path_77" d="M189.766 361.392c0 .041-3.424.047-7.647.012s-7.647-.1-7.646-.137 3.424-.046 7.648-.012 7.645.096 7.645.137z" class="cls-3" transform="translate(-174.473 -361.232)"/>
                    </g>
                    <g id="Group_155" transform="translate(11.958 5.659)">
                        <path id="Path_78" d="M201.974 373.393c0 .041-6.242.023-13.94-.04s-13.941-.147-13.941-.189 6.241-.023 13.942.039 13.939.149 13.939.19z" class="cls-7" transform="translate(-174.093 -373.142)"/>
                    </g>
                    <g id="Group_156" transform="translate(11.936 8.41)">
                        <path id="Path_79" d="M201.9 383c0 .041-6.242.023-13.94-.04s-13.941-.147-13.94-.189 6.241-.023 13.942.039 13.938.15 13.938.19z" class="cls-7" transform="translate(-174.015 -382.75)"/>
                    </g>
                    <g id="Group_157" transform="translate(42.018 1.776)">
                        <path id="Path_80" d="M285.105 359.685c0 .041-1.35.064-3.014.05s-3.014-.058-3.013-.1 1.35-.063 3.014-.05 3.014.058 3.013.1z" class="cls-3" transform="translate(-279.078 -359.581)"/>
                    </g>
                    <g id="Group_158" transform="translate(43.793 5.524)">
                        <path id="Path_81" d="M287.192 372.864c-.006 0-.023-.031-.073-.075a.289.289 0 0 0-.266-.057.267.267 0 0 0-.153.118c-.035.064-.072.15-.113.234l-.131.273a.364.364 0 0 1-.29.23l-.37.055-.195.03a.242.242 0 0 0-.14.079.238.238 0 0 0 0 .313l.325.32.085.083a.387.387 0 0 1 .085.116.423.423 0 0 1 .019.281l-.087.5a.228.228 0 0 0 .214.275.423.423 0 0 0 .212-.077l.241-.124a1.394 1.394 0 0 1 .264-.121.415.415 0 0 1 .3.064l.459.247a.23.23 0 0 0 .317-.123.36.36 0 0 0 0-.2l-.037-.236-.036-.23a.371.371 0 0 1 .049-.263 1.119 1.119 0 0 1 .164-.171l.155-.147.151-.141a.24.24 0 0 0 .079-.138.247.247 0 0 0-.12-.259 1.45 1.45 0 0 0-.313-.069l-.3-.052a.352.352 0 0 1-.248-.138 1.491 1.491 0 0 1-.1-.205 2.17 2.17 0 0 1-.154-.385 2.218 2.218 0 0 1 .206.36 1.772 1.772 0 0 0 .1.187.278.278 0 0 0 .205.1l.3.04a1.387 1.387 0 0 1 .349.07.357.357 0 0 1 .074.576l-.148.144-.153.149a1.127 1.127 0 0 0-.14.147.238.238 0 0 0-.028.173l.039.23.04.236a.489.489 0 0 1 0 .277.374.374 0 0 1-.516.2l-.463-.246a.261.261 0 0 0-.2-.049 1.482 1.482 0 0 0-.226.107l-.241.124c-.042.021-.074.04-.125.062a.353.353 0 0 1-.162.031.376.376 0 0 1-.352-.449l.091-.5a.28.28 0 0 0-.006-.2.683.683 0 0 0-.14-.161l-.326-.33a.361.361 0 0 1 .214-.6l.2-.026.371-.046a.262.262 0 0 0 .219-.168l.141-.268c.046-.084.082-.159.128-.235a.328.328 0 0 1 .2-.136.316.316 0 0 1 .3.092c.052.062.058.101.056.102z" class="cls-3" transform="translate(-285.276 -372.669)"/>
                    </g>
                    <path id="Path_82" d="M238.684 359.471a.693.693 0 1 1-.687-.7.693.693 0 0 1 .687.7z" class="cls-6" transform="translate(-207.242 -357.228)"/>
                </g>
                <g id="Group_179" transform="translate(6.444 14.544)">
                    <g id="Group_168">
                        <g id="Group_167">
                            <g id="Group_166">
                                <g id="Group_165">
                                    <g id="Group_164">
                                        <path id="Path_86" d="M142.865 121.527c0 .025-.98.046-2.188.046s-2.188-.021-2.188-.046.979-.046 2.188-.046 2.188.019 2.188.046z" class="cls-3" transform="translate(-138.488 -121.481)"/>
                                    </g>
                                </g>
                            </g>
                        </g>
                    </g>
                    <g id="Group_173" transform="translate(0 1.12)">
                        <g id="Group_172">
                            <g id="Group_171">
                                <g id="Group_170">
                                    <g id="Group_169">
                                        <path id="Path_87" d="M142.865 125.439c0 .025-.98.046-2.188.046s-2.189-.021-2.189-.046.979-.046 2.188-.046 2.189.02 2.189.046z" class="cls-3" transform="translate(-138.488 -125.393)"/>
                                    </g>
                                </g>
                            </g>
                        </g>
                    </g>
                    <g id="Group_178" transform="translate(0 2.24)">
                        <g id="Group_177">
                            <g id="Group_176">
                                <g id="Group_175">
                                    <g id="Group_174">
                                        <path id="Path_88" d="M142.865 129.35c0 .025-.98.046-2.188.046s-2.189-.02-2.189-.046.98-.046 2.189-.046 2.188.02 2.188.046z" class="cls-3" transform="translate(-138.488 -129.304)"/>
                                    </g>
                                </g>
                            </g>
                        </g>
                    </g>
                </g>
                <g id="Group_190" transform="translate(49.407 14.031)">
                    <g id="Group_184">
                        <g id="Group_183">
                            <g id="Group_182">
                                <g id="Group_181">
                                    <g id="Group_180">
                                        <path id="Path_89" d="M291.009 120.959c-.013 0-.011-.107-.061-.288a1.2 1.2 0 0 0-.436-.634 1.145 1.145 0 1 0-.015 1.836 1.2 1.2 0 0 0 .446-.627c.053-.18.053-.287.066-.287s.008.027.009.078a.9.9 0 0 1-.024.222 1.2 1.2 0 0 1-.44.691 1.247 1.247 0 0 1-1.19.184 1.261 1.261 0 0 1 .019-2.378 1.248 1.248 0 0 1 1.187.2 1.2 1.2 0 0 1 .428.7.9.9 0 0 1 .02.223c-.001.053-.005.08-.009.08z" class="cls-3" transform="translate(-288.534 -119.688)"/>
                                    </g>
                                </g>
                            </g>
                        </g>
                    </g>
                    <g id="Group_189" transform="translate(2.049 2.174)">
                        <g id="Group_188">
                            <g id="Group_187">
                                <g id="Group_186">
                                    <g id="Group_185">
                                        <path id="Path_90" d="M296.762 128.458a4.679 4.679 0 0 1-1.068-1.175 4.68 4.68 0 0 1 1.068 1.175z" class="cls-3" transform="translate(-295.692 -127.281)"/>
                                    </g>
                                </g>
                            </g>
                        </g>
                    </g>
                </g>
            </g>
        </g>
        <g id="Character" transform="translate(12881.663 658.075)">
            <g id="Group_361">
                <path id="Path_91" d="M256.5 333.033l-.039 15.388-6.8-1.4-5.722-1.2s7.839 15.459 16.366 15.459 9.63-12.864 9.63-12.864l.5-15.388z" class="cls-11" transform="translate(-235.963 -273.159)"/>
                <g id="Group_329" transform="translate(24.896)">
                    <g id="Group_192">
                        <path id="Path_92" d="M334 144.093a1.357 1.357 0 0 1-1.77-.771 3.085 3.085 0 0 1 .065-2.128 8.865 8.865 0 0 0 .566-2.094 3.088 3.088 0 0 0-2.073-3.035 2.888 2.888 0 0 0 .2-4.16 11.619 11.619 0 0 0-1.849-1.188 6.438 6.438 0 0 1-.975-.8 3.954 3.954 0 0 0 1.678.052 2.715 2.715 0 0 0 1.971-1.726 2.464 2.464 0 0 0-.6-2.524 2.257 2.257 0 0 0-2.537-.376 4.259 4.259 0 0 0-1.619 2.1l-.359.755c-1.12-1.484-2.173-3.017-3.9-3.538-1.566-.473-3.251.055-4.882-.064-1.189-.086-2.33-.515-3.514-.645a3.474 3.474 0 0 0-3.233 1.088c-.411.566-.54 1.3-.955 1.862-.858 1.162-2.707 1.321-3.413 2.581-.573 1.025-.132 2.319-.378 3.467-.268 1.249-1.3 2.161-2.14 3.12s-1.576 2.277-1.1 3.463c.415 1.044 1.633 1.605 2.03 2.656a6.545 6.545 0 0 1 .064 2.437c-.015.819.314 1.791 1.111 1.977l9.086 2.4c3.129 1.273 6.357 2.566 9.735 2.561s6.984-1.626 8.317-4.73a1.942 1.942 0 0 1-1.3-.584 3.249 3.249 0 0 0 1.774-2.156z" class="cls-3" transform="translate(-303.035 -123.923)"/>
                    </g>
                    <g id="Group_318" transform="translate(3.514 1.001)">
                        <g id="Group_317">
                            <g id="Group_312" transform="translate(0 .782)">
                                <g id="Group_311">
                                    <g id="Group_196" transform="translate(18.497 4.423)">
                                        <g id="Group_195">
                                            <g id="Group_194">
                                                <g id="Group_193">
                                                    <path id="Path_93" d="M381.415 162.411a42.062 42.062 0 0 0 1.83-7.025 14.7 14.7 0 0 0-.576-7.171c-.128-.344-1.219-2.654-1.585-2.618-.261.026.411 2.181.279 2.407a12.464 12.464 0 0 0-1.4 7.267 32.823 32.823 0 0 0 1.454 7.14" class="cls-3" transform="translate(-379.907 -145.596)"/>
                                                </g>
                                            </g>
                                        </g>
                                    </g>
                                    <g id="Group_201" transform="translate(0 .712)">
                                        <g id="Group_200">
                                            <g id="Group_199">
                                                <g id="Group_198">
                                                    <g id="Group_197">
                                                        <path id="Path_94" d="M327.286 173.3c3.756-.079 8.019-8.289 8.019-8.289l.245-21.094c.2-6.074-3.173-11.252-9.251-11.281l-.562.03a10.864 10.864 0 0 0-10.281 10.555c-.142 5.266-.231 11.085-.045 13.9.384 5.819 6.257 6.412 6.257 6.412s.033 1.351.05 3.063c.04 3.844 4.063 6.839 5.568 6.708z" class="cls-11" transform="translate(-315.306 -132.636)"/>
                                                    </g>
                                                </g>
                                            </g>
                                        </g>
                                    </g>
                                    <g id="Group_207" transform="translate(6.362 28.958)">
                                        <g id="Group_206">
                                            <g id="Group_205">
                                                <g id="Group_204">
                                                    <g id="Group_203">
                                                        <g id="Group_202">
                                                            <path id="Path_95" d="M337.525 233.932a14.088 14.088 0 0 0 7.461-2.648s-1.621 4.334-7.46 4.121z" class="cls-12" transform="translate(-337.525 -231.284)"/>
                                                        </g>
                                                    </g>
                                                </g>
                                            </g>
                                        </g>
                                    </g>
                                    <g id="Group_219" transform="translate(2.663 15.07)">
                                        <g id="Group_218">
                                            <g id="Group_217">
                                                <g id="Group_216">
                                                    <g id="Group_215">
                                                        <g id="Group_214">
                                                            <g id="Group_213">
                                                                <g id="Group_212">
                                                                    <g id="Group_211">
                                                                        <g id="Group_210">
                                                                            <g id="Group_209">
                                                                                <g id="Group_208">
                                                                                    <path id="Path_96" d="M324.608 183.579a.833.833 0 0 0 .847.8.8.8 0 0 0 .817-.8.833.833 0 0 0-.846-.8.8.8 0 0 0-.818.8z" class="cls-3" transform="translate(-324.608 -182.783)"/>
                                                                                </g>
                                                                            </g>
                                                                        </g>
                                                                    </g>
                                                                </g>
                                                            </g>
                                                        </g>
                                                    </g>
                                                </g>
                                            </g>
                                        </g>
                                    </g>
                                    <g id="Group_232" transform="translate(1.509 12.682)">
                                        <g id="Group_231">
                                            <g id="Group_230">
                                                <g id="Group_229">
                                                    <g id="Group_228">
                                                        <g id="Group_227">
                                                            <g id="Group_226">
                                                                <g id="Group_225">
                                                                    <g id="Group_224">
                                                                        <g id="Group_223">
                                                                            <g id="Group_222">
                                                                                <g id="Group_221">
                                                                                    <g id="Group_220">
                                                                                        <path id="Path_97" d="M320.591 175.407c.109.1.714-.4 1.609-.443s1.575.367 1.666.252c.045-.051-.07-.241-.367-.434a2.285 2.285 0 0 0-1.341-.336 2.2 2.2 0 0 0-1.274.488c-.263.226-.346.427-.293.473z" class="cls-3" transform="translate(-320.576 -174.442)"/>
                                                                                    </g>
                                                                                </g>
                                                                            </g>
                                                                        </g>
                                                                    </g>
                                                                </g>
                                                            </g>
                                                        </g>
                                                    </g>
                                                </g>
                                            </g>
                                        </g>
                                    </g>
                                    <g id="Group_244" transform="translate(10.725 14.855)">
                                        <g id="Group_243">
                                            <g id="Group_242">
                                                <g id="Group_241">
                                                    <g id="Group_240">
                                                        <g id="Group_239">
                                                            <g id="Group_238">
                                                                <g id="Group_237">
                                                                    <g id="Group_236">
                                                                        <g id="Group_235">
                                                                            <g id="Group_234">
                                                                                <g id="Group_233">
                                                                                    <path id="Path_98" d="M352.762 182.829a.833.833 0 0 0 .847.8.8.8 0 0 0 .817-.8.833.833 0 0 0-.846-.8.8.8 0 0 0-.818.8z" class="cls-3" transform="translate(-352.761 -182.032)"/>
                                                                                </g>
                                                                            </g>
                                                                        </g>
                                                                    </g>
                                                                </g>
                                                            </g>
                                                        </g>
                                                    </g>
                                                </g>
                                            </g>
                                        </g>
                                    </g>
                                    <g id="Group_257" transform="translate(10.294 12.574)">
                                        <g id="Group_256">
                                            <g id="Group_255">
                                                <g id="Group_254">
                                                    <g id="Group_253">
                                                        <g id="Group_252">
                                                            <g id="Group_251">
                                                                <g id="Group_250">
                                                                    <g id="Group_249">
                                                                        <g id="Group_248">
                                                                            <g id="Group_247">
                                                                                <g id="Group_246">
                                                                                    <g id="Group_245">
                                                                                        <path id="Path_99" d="M351.272 175.03c.109.1.715-.4 1.609-.443s1.575.367 1.666.252c.045-.051-.07-.241-.368-.434a2.285 2.285 0 0 0-1.341-.336 2.2 2.2 0 0 0-1.273.488c-.265.226-.346.427-.293.473z" class="cls-3" transform="translate(-351.257 -174.066)"/>
                                                                                    </g>
                                                                                </g>
                                                                            </g>
                                                                        </g>
                                                                    </g>
                                                                </g>
                                                            </g>
                                                        </g>
                                                    </g>
                                                </g>
                                            </g>
                                        </g>
                                    </g>
                                    <g id="Group_269" transform="translate(5.152 13.109)">
                                        <g id="Group_268">
                                            <g id="Group_267">
                                                <g id="Group_266">
                                                    <g id="Group_265">
                                                        <g id="Group_264">
                                                            <g id="Group_263">
                                                                <g id="Group_262">
                                                                    <g id="Group_261">
                                                                        <g id="Group_260">
                                                                            <g id="Group_259">
                                                                                <g id="Group_258">
                                                                                    <path id="Path_100" d="M335.615 183.411a5.921 5.921 0 0 0-1.467-.184c-.23-.011-.448-.045-.5-.2a1.165 1.165 0 0 1 .116-.685l.582-1.776a29.943 29.943 0 0 0 1.274-4.633 29.95 29.95 0 0 0-1.643 4.519l-.554 1.785a1.325 1.325 0 0 0-.07.9.573.573 0 0 0 .393.314 1.57 1.57 0 0 0 .391.033 5.846 5.846 0 0 0 1.478-.073z" class="cls-3" transform="translate(-333.299 -175.933)"/>
                                                                                </g>
                                                                            </g>
                                                                        </g>
                                                                    </g>
                                                                </g>
                                                            </g>
                                                        </g>
                                                    </g>
                                                </g>
                                            </g>
                                        </g>
                                    </g>
                                    <g id="Group_281" transform="translate(7.41 21.064)">
                                        <g id="Group_280">
                                            <g id="Group_279">
                                                <g id="Group_278">
                                                    <g id="Group_277">
                                                        <g id="Group_276">
                                                            <g id="Group_275">
                                                                <g id="Group_274">
                                                                    <g id="Group_273">
                                                                        <g id="Group_272">
                                                                            <g id="Group_271">
                                                                                <g id="Group_270">
                                                                                    <path id="Path_101" d="M343.909 203.717c-.146 0-.1.971-.89 1.7s-1.834.683-1.834.819c-.01.062.241.176.678.165a2.423 2.423 0 0 0 1.534-.629 2.109 2.109 0 0 0 .684-1.426c.019-.403-.106-.638-.172-.629z" class="cls-3" transform="translate(-341.184 -203.717)"/>
                                                                                </g>
                                                                            </g>
                                                                        </g>
                                                                    </g>
                                                                </g>
                                                            </g>
                                                        </g>
                                                    </g>
                                                </g>
                                            </g>
                                        </g>
                                    </g>
                                    <g id="Group_289" transform="translate(10.157 9.136)">
                                        <g id="Group_288">
                                            <g id="Group_287">
                                                <g id="Group_286">
                                                    <g id="Group_285">
                                                        <g id="Group_284">
                                                            <g id="Group_283">
                                                                <g id="Group_282">
                                                                    <path id="Path_102" d="M350.787 162.827c.1.239.988.075 2.045.145 1.058.049 1.921.311 2.049.085.056-.108-.1-.329-.458-.546a3.563 3.563 0 0 0-3.119-.176c-.378.177-.562.379-.517.492z" class="cls-3" transform="translate(-350.78 -162.058)"/>
                                                                </g>
                                                            </g>
                                                        </g>
                                                    </g>
                                                </g>
                                            </g>
                                        </g>
                                    </g>
                                    <g id="Group_297" transform="translate(1.707 9.639)">
                                        <g id="Group_296">
                                            <g id="Group_295">
                                                <g id="Group_294">
                                                    <g id="Group_293">
                                                        <g id="Group_292">
                                                            <g id="Group_291">
                                                                <g id="Group_290">
                                                                    <path id="Path_103" d="M321.3 164.826c.168.195.773-.049 1.514-.1.739-.076 1.376.063 1.509-.157.058-.107-.052-.3-.336-.483a2.2 2.2 0 0 0-2.436.206c-.251.225-.331.439-.251.534z" class="cls-3" transform="translate(-321.267 -163.813)"/>
                                                                </g>
                                                            </g>
                                                        </g>
                                                    </g>
                                                </g>
                                            </g>
                                        </g>
                                    </g>
                                    <g id="Group_301" transform="translate(19.999 16.072)">
                                        <g id="Group_300">
                                            <g id="Group_299">
                                                <g id="Group_298">
                                                    <path id="Path_104" d="M385.152 186.538c.1-.048 3.938-1.4 4.024 2.59s-3.935 3.252-3.944 3.138-.08-5.728-.08-5.728z" class="cls-11" transform="translate(-385.152 -186.28)"/>
                                                </g>
                                            </g>
                                        </g>
                                    </g>
                                    <g id="Group_306" transform="translate(21.26 17.349)">
                                        <g id="Group_305">
                                            <g id="Group_304">
                                                <g id="Group_303">
                                                    <g id="Group_302">
                                                        <path id="Path_105" d="M389.561 193.912c.017-.013.07.047.189.1a.693.693 0 0 0 .52 0 1.719 1.719 0 0 0 .762-1.559 2.3 2.3 0 0 0-.216-.99.8.8 0 0 0-.534-.522.354.354 0 0 0-.406.2c-.051.113-.024.192-.045.2s-.087-.065-.058-.23a.444.444 0 0 1 .152-.253.524.524 0 0 1 .382-.11.976.976 0 0 1 .739.6 2.363 2.363 0 0 1 .265 1.106 1.8 1.8 0 0 1-.976 1.744.745.745 0 0 1-.638-.092c-.127-.097-.15-.186-.136-.194z" class="cls-12" transform="translate(-389.558 -190.741)"/>
                                                    </g>
                                                </g>
                                            </g>
                                        </g>
                                    </g>
                                    <g id="Group_310" transform="translate(2.516)">
                                        <g id="Group_309">
                                            <g id="Group_308">
                                                <g id="Group_307">
                                                    <path id="Path_106" d="M324.222 134.806c-.65-.348 1.26-2.463 2.837-3.2 2.384-1.118 6.036-1.835 8.255-1.237a9.61 9.61 0 0 1 6.266 4.421 15.686 15.686 0 0 1 1.864 7.987 4.766 4.766 0 0 1-.531 2.444c-.546.889-1.608 1.458-1.545 2.674a1.67 1.67 0 0 1-.4 1.223c-.72.786-1.622.068-2.042-.658a11.544 11.544 0 0 1-1.118-5.2 11.656 11.656 0 0 1 .2-3.8c.186-.667.492-1.3.641-1.976a2.4 2.4 0 0 0-.308-1.987 2.493 2.493 0 0 0-.328-.324 4.16 4.16 0 0 0-4.137-.733c-2.236.823-6.056 2.059-7.067 1.31a6.145 6.145 0 0 1-1.809-1.791z" class="cls-3" transform="translate(-324.091 -130.15)"/>
                                                </g>
                                            </g>
                                        </g>
                                    </g>
                                </g>
                            </g>
                            <g id="Group_316" transform="translate(4.327)">
                                <g id="Group_315">
                                    <g id="Group_314">
                                        <g id="Group_313">
                                            <path id="Path_107" d="M339.614 127.879a8.762 8.762 0 0 0-6.733.456 4.559 4.559 0 0 0-2.371 2.679 2.614 2.614 0 0 0 1.348 3.08l.079.048a6.071 6.071 0 0 0 4.5-.3c1.421-.512 2.68-1.41 4.1-1.915a8.107 8.107 0 0 1 4.742-.2 13.231 13.231 0 0 0-5.665-3.848z" class="cls-3" transform="translate(-330.419 -127.419)"/>
                                        </g>
                                    </g>
                                </g>
                            </g>
                        </g>
                    </g>
                    <g id="Group_320" transform="translate(17.062 3.409)">
                        <g id="Group_319">
                            <path id="Path_108" d="M370.182 137.823c-.034.031-.355-.351-1-.8a5.8 5.8 0 0 0-1.21-.647 3.729 3.729 0 0 0-1.622-.272 5.427 5.427 0 0 0-2.781 1.146c-.617.49-.9.9-.941.871-.014-.009.042-.122.173-.306a4.288 4.288 0 0 1 .646-.709 5.153 5.153 0 0 1 2.88-1.268 3.777 3.777 0 0 1 1.735.309 5.258 5.258 0 0 1 1.231.724 3 3 0 0 1 .889.952z" class="cls-2" transform="translate(-362.624 -135.828)"/>
                        </g>
                    </g>
                    <g id="Group_322" transform="translate(19.897 6.817)">
                        <g id="Group_321">
                            <path id="Path_109" d="M377.645 147.731a3.373 3.373 0 0 1-.3 1.138 8.285 8.285 0 0 1-3.723 4.195 3.375 3.375 0 0 1-1.094.437 10.282 10.282 0 0 0 5.121-5.77z" class="cls-2" transform="translate(-372.524 -147.73)"/>
                        </g>
                    </g>
                    <g id="Group_324" transform="translate(19.658 7.463)">
                        <g id="Group_323">
                            <path id="Path_110" d="M378.674 149.988a1.356 1.356 0 0 1 .016.454 7.046 7.046 0 0 1-.174 1.225 8.33 8.33 0 0 1-5.182 5.945 7.052 7.052 0 0 1-1.19.34 1.359 1.359 0 0 1-.452.046c-.011-.047.626-.157 1.571-.561a8.772 8.772 0 0 0 5.07-5.816c.267-.991.294-1.637.341-1.633z" class="cls-2" transform="translate(-371.692 -149.988)"/>
                        </g>
                    </g>
                    <g id="Group_326" transform="translate(6.723 1.089)">
                        <g id="Group_325">
                            <path id="Path_111" d="M332.261 127.733a10.878 10.878 0 0 1-1.057.4 8.667 8.667 0 0 0-4.092 3.372 10.841 10.841 0 0 1-.593.961 3.12 3.12 0 0 1 .431-1.058 7.557 7.557 0 0 1 4.189-3.452 3.126 3.126 0 0 1 1.122-.223z" class="cls-2" transform="translate(-326.516 -127.725)"/>
                        </g>
                    </g>
                    <g id="Group_328" transform="translate(24.869 1.597)">
                        <g id="Group_327">
                            <path id="Path_112" d="M392.912 129.5a4.558 4.558 0 0 1-3.022 3.6 7.346 7.346 0 0 0 3.022-3.6z" class="cls-2" transform="translate(-389.889 -129.499)"/>
                        </g>
                    </g>
                </g>
                <g id="Group_343" transform="translate(0 67.325)">
                    <g id="Group_341">
                        <g id="Group_334">
                            <g id="Group_331" transform="translate(4.988 3.636)">
                                <g id="Group_330">
                                    <path id="Path_113" d="M238.931 373.58l2.367-1.451a2.542 2.542 0 0 1 1.329-.375h4.573l4.731 4.307 1.412.706-.525 7.437-3.076-.376s-6.567.282-7.2-.141a8.865 8.865 0 0 1-1.553-1.765 34.275 34.275 0 0 1-3.954-1.483c-1.337-1.2-.8-1.485-.8-1.485l-.615-.281c-.115.217-1.012-1.244-.918-1.977.055-.426-.07-.423-.07-.423a2.351 2.351 0 0 1-1.132-1.628c-.065-.434 1.715-.122 1.715-.122l4.447.059z" class="cls-11" transform="translate(-233.503 -371.755)"/>
                                </g>
                            </g>
                            <g id="Group_333">
                                <g id="Group_332">
                                    <path id="Path_114" fill="#282c47" d="M230.454 365.42l-4.183-5.7a1.633 1.633 0 0 0-1.316-.667h-8.269a.6.6 0 0 0-.6.6.6.6 0 0 0 .146.392l4.739 5.5z" transform="translate(-216.084 -359.057)"/>
                                </g>
                            </g>
                        </g>
                        <g id="Group_335" transform="translate(5.997 8.143)">
                            <path id="Path_115" d="M243.374 388.05a3.631 3.631 0 0 1-.933.123 15.707 15.707 0 0 1-4.513-.389 3.657 3.657 0 0 1-.9-.281 5.406 5.406 0 0 1 .927.142c.568.1 1.355.221 2.231.3s1.672.091 2.249.089a5.477 5.477 0 0 1 .939.016z" class="cls-12" transform="translate(-237.03 -387.497)"/>
                        </g>
                        <g id="Group_336" transform="translate(7.185 10.637)">
                            <path id="Path_116" d="M247.522 396.76a3.651 3.651 0 0 1-.933.123 15.709 15.709 0 0 1-4.513-.389 3.632 3.632 0 0 1-.9-.281 5.47 5.47 0 0 1 .927.142c.568.1 1.355.221 2.231.3s1.672.091 2.249.089a5.388 5.388 0 0 1 .939.016z" class="cls-12" transform="translate(-241.178 -396.206)"/>
                        </g>
                        <g id="Group_337" transform="translate(4.987 6.527)">
                            <path id="Path_117" d="M233.5 381.851a4.663 4.663 0 0 0 .137.52 1.953 1.953 0 0 0 1.014 1.06l.032.015v.034a3.179 3.179 0 0 0 .322 1.456 2.761 2.761 0 0 0 1.295 1.264l.077.036-.035.072a.655.655 0 0 0-.006.568 1.461 1.461 0 0 0 .406.5 5.326 5.326 0 0 0 1.237.711 17.7 17.7 0 0 0 3.031.949l.04.009.022.034a5.508 5.508 0 0 0 .93 1.044 2.88 2.88 0 0 0 1.215.716 3.941 3.941 0 0 0 1.078.111l1.089.028 2.1.056 3.779.107h.014l4.5.918 1.252.269.328.076a.058.058 0 1 1 0 .025l-.332-.052-1.261-.224-4.518-.849h.014l-3.78-.081-2.1-.048-1.089-.026a4.122 4.122 0 0 1-1.128-.118 3.081 3.081 0 0 1-1.294-.761 5.693 5.693 0 0 1-.961-1.086l.062.043a17.524 17.524 0 0 1-3.063-.975 5.451 5.451 0 0 1-1.274-.747 1.616 1.616 0 0 1-.447-.562.817.817 0 0 1 .015-.7l.042.107a2.875 2.875 0 0 1-1.352-1.351 3.251 3.251 0 0 1-.307-1.516l.032.049a1.97 1.97 0 0 1-1.027-1.137 1.454 1.454 0 0 1-.089-.544z" class="cls-12" transform="translate(-233.502 -381.851)"/>
                        </g>
                        <g id="Group_338" transform="translate(12.248 13.371)">
                            <path id="Path_118" d="M261.5 405.766a3.62 3.62 0 0 1-2.637.354c.006-.059.6-.025 1.325-.125s1.288-.284 1.312-.229z" class="cls-12" transform="translate(-258.861 -405.757)"/>
                        </g>
                        <g id="Group_339" transform="translate(12.931 6.302)">
                            <path id="Path_119" d="M265.326 381.119a20.722 20.722 0 0 1-4.079.149 20.785 20.785 0 0 1 4.079-.149z" class="cls-12" transform="translate(-261.247 -381.068)"/>
                        </g>
                        <g id="Group_340" transform="translate(18.644 3.676)">
                            <path id="Path_120" d="M287.3 376.258c.005.008-.086.082-.288.115a1.314 1.314 0 0 1-.825-.184 6.416 6.416 0 0 1-.965-.773l-1.126-.986-2.064-1.771a6.783 6.783 0 0 1-.836-.76 5.847 5.847 0 0 1 .925.649c.553.425 1.3 1.032 2.106 1.73.4.349.779.688 1.118 1a7.445 7.445 0 0 0 .914.789 1.335 1.335 0 0 0 .745.228c.19-.007.291-.054.296-.037z" class="cls-12" transform="translate(-281.198 -371.897)"/>
                        </g>
                    </g>
                    <g id="Group_342" transform="translate(0 .71)">
                        <path id="Path_121" d="M229.572 367.313a.674.674 0 0 1-.112-.122l-.3-.368-1.068-1.371-1.569-2.045-.922-1.207a1.407 1.407 0 0 0-.619-.433 1.458 1.458 0 0 0-.382-.078c-.129-.005-.275 0-.412 0l-5.734-.022-1.737-.024-.472-.014a.7.7 0 0 1-.165-.015.69.69 0 0 1 .165-.015l.472-.014 1.737-.024 5.734-.022h.421a1.593 1.593 0 0 1 .422.086 1.551 1.551 0 0 1 .682.481l.918 1.217 1.543 2.064 1.03 1.4.274.385a.72.72 0 0 1 .094.141z" class="cls-3" transform="translate(-216.084 -361.537)"/>
                    </g>
                    <path id="Path_122" d="M231.46 364.731a.338.338 0 1 1-.013.01" class="cls-9" transform="translate(-226.966 -363.06)"/>
                </g>
                <g id="Group_360" transform="translate(17.817 33.199)">
                    <path id="Path_123" d="M323.548 239.87l11.648 6.848 2.142 37.8 2.782 21.382h-41.862s.461-26.026.606-33.9c.1-5.517-.047-16.213 1.82-22.788.8-2.8 8.595-6.425 8.595-6.425 4.264 3.768 9.036 2.644 14.269-2.917z" class="cls-14" transform="translate(-292.546 -239.87)"/>
                    <g id="Group_344" transform="translate(5.97 56.5)">
                        <path id="Path_124" d="M339.532 437.27c0 .041-9.039.074-20.186.074s-20.187-.033-20.187-.074 9.036-.075 20.188-.075 20.185.034 20.185.075z" class="cls-5" transform="translate(-299.159 -437.195)"/>
                    </g>
                    <g id="Group_345" class="cls-15" transform="translate(5.944 50.113)">
                        <path id="Path_125" d="M299.069 414.911c3.241 2.716 8.278 4.189 12.423 5.026s8.381 1.138 12.539 1.91c2.908.54 5.957 1.3 8.76.358a7.733 7.733 0 0 0 5.109-6.605.72.72 0 0 0-.125-.563.76.76 0 0 0-.595-.143c-12.513.556-25.762.479-38.115.018" transform="translate(-299.069 -414.89)"/>
                    </g>
                    <g id="Group_347" transform="translate(3.729 5.552)">
                        <g id="Group_346">
                            <path id="Path_126" d="M291.332 344.885h29.25l.143-15.414 13.5-1.74s.062 15.653.062 20.788c0 6.16-5.327 10.445-9.8 9.784s-33.154-6-33.154-6z" class="cls-11" transform="translate(-291.332 -308.126)"/>
                            <path id="Path_127" d="M405.194 282.067l-15.73 1.633v-18.455s1.545-6.237 6.979-5.977 8.638 6.14 8.751 11.53 0 11.269 0 11.269z" class="cls-14" transform="translate(-361.366 -259.26)"/>
                        </g>
                    </g>
                    <path id="Path_128" d="M288.11 264.926s-5.041 3.321-6.393 6.982c-1.418 3.839-3.407 16.279-3.407 16.279h7.063z" class="cls-14" transform="translate(-278.31 -257.752)"/>
                    <g id="Group_348" transform="translate(31.344 12.269)">
                        <path id="Path_129" d="M388.126 282.718a4.315 4.315 0 0 1 0 .674l-.058 1.833c-.048 1.548-.1 3.686-.089 6.048s.069 4.5.127 6.049l.069 1.833a4.322 4.322 0 0 1 0 .674 4.31 4.31 0 0 1-.082-.669c-.04-.431-.086-1.057-.133-1.831-.094-1.547-.178-3.688-.186-6.055s.063-4.507.148-6.055c.042-.774.084-1.4.121-1.832a4.317 4.317 0 0 1 .083-.669z" class="cls-3" transform="translate(-387.779 -282.718)"/>
                    </g>
                    <g id="Group_349" transform="translate(32.306 5.628)">
                        <path id="Path_130" d="M398.446 259.757c-.007.038-.528-.1-1.38-.087a6.137 6.137 0 0 0-5.377 3.3c-.4.753-.511 1.28-.548 1.27a1.209 1.209 0 0 1 .063-.371 5.184 5.184 0 0 1 .358-.963 5.948 5.948 0 0 1 5.5-3.377 5.181 5.181 0 0 1 1.021.118 1.183 1.183 0 0 1 .363.11z" class="cls-3" transform="translate(-391.138 -259.525)"/>
                    </g>
                    <g id="Group_350" transform="translate(6.247 15.869)">
                        <path id="Path_131" d="M300.442 295.294a.812.812 0 0 1 .02.208c0 .159.011.357.018.6.012.519.018 1.269.018 2.2 0 1.855-.03 4.417-.084 7.246s-.106 5.365-.143 7.245l-.046 2.2-.02.6a.105.105 0 1 1-.041 0c0-.159-.011-.356-.017-.6-.012-.519-.018-1.269-.018-2.2 0-1.855.03-4.417.084-7.247s.106-5.364.144-7.244l.046-2.2.02-.6a.835.835 0 0 1 .019-.208z" class="cls-3" transform="translate(-300.128 -295.294)"/>
                    </g>
                    <g id="Group_351" transform="translate(1.595 21.951)">
                        <path id="Path_132" d="M288.668 316.632a38.457 38.457 0 0 1-4.789-.042 38.457 38.457 0 0 1 4.789.042z" class="cls-5" transform="translate(-283.879 -316.534)"/>
                    </g>
                    <g id="Group_352" transform="translate(7.168 17.707)">
                        <path id="Path_133" d="M327.6 301.785c0 .041-5.431.074-12.128.074s-12.129-.033-12.129-.074 5.43-.075 12.129-.075 12.128.033 12.128.075z" class="cls-5" transform="translate(-303.344 -301.71)"/>
                    </g>
                    <g id="Group_353" transform="translate(31.663 14.598)">
                        <path id="Path_134" d="M404.445 291.519a.657.657 0 0 1-.159 0l-.453-.036-1.662-.144c-1.4-.116-3.346-.245-5.494-.3s-4.1-.037-5.5 0l-1.668.052-.454.012a.661.661 0 0 1-.159-.006.617.617 0 0 1 .157-.024l.452-.04c.393-.032.963-.067 1.667-.1 1.409-.066 3.359-.1 5.511-.046s4.1.206 5.5.349c.7.071 1.268.137 1.659.191l.45.064a.623.623 0 0 1 .153.028z" class="cls-5" transform="translate(-388.894 -290.853)"/>
                    </g>
                    <g id="Group_354" transform="translate(31.501 25.825)">
                        <path id="Path_135" d="M404.192 330.44c0 .041-3.553-.006-7.933-.105s-7.931-.213-7.93-.255 3.552.006 7.934.105 7.93.215 7.929.255z" class="cls-5" transform="translate(-388.328 -330.065)"/>
                    </g>
                    <g id="Group_355" transform="translate(8.031 8.522)">
                        <path id="Path_136" d="M331.4 269.706c0 .041-5.606.075-12.521.075s-12.522-.034-12.522-.075 5.605-.074 12.522-.074 12.521.033 12.521.074z" class="cls-5" transform="translate(-306.36 -269.632)"/>
                    </g>
                    <g id="Group_356" transform="translate(6.383 29.325)">
                        <path id="Path_137" d="M325.724 342.362c0 .041-5.624.075-12.56.075s-12.561-.034-12.561-.075 5.623-.074 12.561-.074 12.56.033 12.56.074z" class="cls-5" transform="translate(-300.603 -342.288)"/>
                    </g>
                    <g id="Group_357" transform="translate(5.991 38.51)">
                        <path id="Path_138" d="M326.551 374.44c0 .041-6.116.075-13.659.075s-13.66-.034-13.66-.075 6.115-.074 13.66-.074 13.659.034 13.659.074z" class="cls-5" transform="translate(-299.232 -374.366)"/>
                    </g>
                    <g id="Group_358" transform="translate(5.944 64.996)">
                        <path id="Path_139" d="M340.259 466.944c0 .041-9.221.074-20.594.074s-20.6-.033-20.6-.074 9.219-.075 20.6-.075 20.594.031 20.594.075z" class="cls-5" transform="translate(-299.069 -466.87)"/>
                    </g>
                    <g id="Group_359" class="cls-15" transform="translate(29.642 19.46)">
                        <path id="Path_140" d="M383.827 318.542c-.184-3.647-.053-7.06-.237-10.707a67.588 67.588 0 0 0-1.747 16.332 12.516 12.516 0 0 0 .5 3.864 5.192 5.192 0 0 0 2.777 2.817l.116-12.45c-.536.026-.872.117-1.409.144z" transform="translate(-381.835 -307.835)"/>
                    </g>
                </g>
            </g>
        </g>
        <g id="Plant" transform="translate(12830.867 716.072)">
            <g id="Group_468">
                <g id="Group_363" transform="translate(2.355 27.774)">
                    <g id="Group_362">
                        <path id="Path_141" d="M63.742 423.478l-2.064 13.565H49.685L46.9 423.674z" class="cls-8" transform="translate(-46.901 -423.478)"/>
                    </g>
                </g>
                <g id="Group_397" transform="translate(3.985 34.977)">
                    <g id="Group_366" transform="translate(.047 1.42)">
                        <g id="Group_365">
                            <g id="Group_364">
                                <path id="Path_142" d="M52.758 453.665c0 .039 3.073.07 6.863.07s6.864-.032 6.864-.07-3.072-.07-6.864-.07-6.863.032-6.863.07z" class="cls-4" transform="translate(-52.758 -453.595)"/>
                            </g>
                        </g>
                    </g>
                    <g id="Group_369" transform="translate(0 .753)">
                        <g id="Group_368">
                            <g id="Group_367">
                                <path id="Path_143" d="M52.595 451.335c0 .039 3.094.07 6.909.07s6.91-.031 6.91-.07-3.093-.07-6.91-.07-6.909.035-6.909.07z" class="cls-4" transform="translate(-52.595 -451.265)"/>
                            </g>
                        </g>
                    </g>
                    <g id="Group_372" transform="translate(.024)">
                        <g id="Group_371">
                            <g id="Group_370">
                                <path id="Path_144" d="M52.678 448.7c0 .039 3.094.07 6.909.07s6.91-.031 6.91-.07-3.093-.071-6.91-.071-6.909.037-6.909.071z" class="cls-4" transform="translate(-52.678 -448.634)"/>
                            </g>
                        </g>
                    </g>
                    <g id="Group_375" transform="translate(11.76 2.148)">
                        <g id="Group_374">
                            <g id="Group_373">
                                <path id="Path_145" d="M93.675 459.577a21.655 21.655 0 0 0 .6-3.44 21.75 21.75 0 0 0-.6 3.44z" class="cls-4" transform="translate(-93.667 -456.137)"/>
                            </g>
                        </g>
                    </g>
                    <g id="Group_378" transform="translate(10.919 2.106)">
                        <g id="Group_377">
                            <g id="Group_376">
                                <path id="Path_146" d="M90.762 459.328a39.813 39.813 0 0 0 .227-3.338 13.319 13.319 0 0 0-.227 3.338z" class="cls-4" transform="translate(-90.728 -455.99)"/>
                            </g>
                        </g>
                    </g>
                    <g id="Group_381" transform="translate(9.457 2)">
                        <g id="Group_380">
                            <g id="Group_379">
                                <path id="Path_147" d="M85.631 459.063a13.57 13.57 0 0 0 .4-3.443 50.876 50.876 0 0 0-.4 3.443z" class="cls-4" transform="translate(-85.623 -455.62)"/>
                            </g>
                        </g>
                    </g>
                    <g id="Group_384" transform="translate(8.404 2.036)">
                        <g id="Group_383">
                            <g id="Group_382">
                                <path id="Path_148" d="M81.963 459.223a13.862 13.862 0 0 0 .113-3.479 49 49 0 0 0-.113 3.479z" class="cls-4" transform="translate(-81.945 -455.744)"/>
                            </g>
                        </g>
                    </g>
                    <g id="Group_387" transform="translate(6.54 2.144)">
                        <g id="Group_386">
                            <g id="Group_385">
                                <path id="Path_149" d="M75.47 459.422a19.417 19.417 0 0 0 .112-3.3 19.415 19.415 0 0 0-.112 3.3z" class="cls-4" transform="translate(-75.436 -456.122)"/>
                            </g>
                        </g>
                    </g>
                    <g id="Group_390" transform="translate(5.139 2.107)">
                        <g id="Group_389">
                            <g id="Group_388">
                                <path id="Path_150" d="M70.628 459.4a20.7 20.7 0 0 0-.028-3.408 20.7 20.7 0 0 0 .028 3.408z" class="cls-4" transform="translate(-70.542 -455.994)"/>
                            </g>
                        </g>
                    </g>
                    <g id="Group_393" transform="translate(3.601 1.785)">
                        <g id="Group_392">
                            <g id="Group_391">
                                <path id="Path_151" d="M65.529 458.418a22.6 22.6 0 0 0-.345-3.55 22.6 22.6 0 0 0 .345 3.55z" class="cls-4" transform="translate(-65.17 -454.868)"/>
                            </g>
                        </g>
                    </g>
                    <g id="Group_396" transform="translate(1.674 2.18)">
                        <g id="Group_395">
                            <g id="Group_394">
                                <path id="Path_152" d="M59.095 459.224a9.358 9.358 0 0 0-.648-2.977 73.083 73.083 0 0 0 .648 2.977z" class="cls-4" transform="translate(-58.442 -456.246)"/>
                            </g>
                        </g>
                    </g>
                </g>
                <g id="Group_419" transform="translate(5.96)">
                    <g id="Group_400" transform="translate(1.507 1.007)">
                        <g id="Group_399">
                            <g id="Group_398">
                                <path id="Path_153" d="M64.756 329.993a.25.25 0 0 0 .014.067l.056.192.228.732c.1.317.225.7.352 1.16s.29.969.433 1.547.317 1.206.467 1.889c.166.68.306 1.414.462 2.185.287 1.546.55 3.256.735 5.062s.257 3.536.28 5.109c0 .786.007 1.534-.022 2.233-.012.7-.049 1.35-.085 1.944s-.082 1.13-.118 1.6-.078.876-.116 1.207l-.079.763-.017.2a.256.256 0 0 0 0 .068.236.236 0 0 0 .015-.067l.031-.2.105-.76c.044-.321.1-.734.14-1.206s.107-1.007.139-1.6.085-1.246.1-1.947c.034-.7.03-1.45.035-2.238-.017-1.577-.094-3.31-.27-5.122s-.452-3.524-.748-5.073c-.16-.772-.3-1.507-.476-2.187-.155-.683-.326-1.314-.485-1.888s-.317-1.09-.453-1.543-.265-.84-.375-1.155l-.253-.724-.069-.187a.245.245 0 0 0-.026-.061z" class="cls-16" transform="translate(-64.755 -329.993)"/>
                            </g>
                        </g>
                    </g>
                    <g id="Group_402" transform="translate(.43 6.807)">
                        <g id="Group_401">
                            <path id="Path_154" d="M64.236 352.851a4.452 4.452 0 0 0-1.864-2.355 1.069 1.069 0 0 0-.986-.181c-.419.2-.452.791-.327 1.239a3.28 3.28 0 0 0 1.357 1.85 2.766 2.766 0 0 0 2.037.514" class="cls-16" transform="translate(-60.994 -350.253)"/>
                        </g>
                    </g>
                    <g id="Group_404" transform="translate(.985 11.23)">
                        <g id="Group_403">
                            <path id="Path_155" d="M66.347 369.547a7.507 7.507 0 0 0-2.214-3.56 1.427 1.427 0 0 0-.5-.268.584.584 0 0 0-.538.116.826.826 0 0 0-.12.777 4.72 4.72 0 0 0 3.5 3.522" class="cls-16" transform="translate(-62.932 -365.699)"/>
                        </g>
                    </g>
                    <g id="Group_406" transform="translate(1.006 16.975)">
                        <g id="Group_405">
                            <path id="Path_156" d="M66.6 388.859a6.853 6.853 0 0 0-2.233-2.809 1.067 1.067 0 0 0-.779-.278c-.423.077-.616.594-.578 1.023a3.307 3.307 0 0 0 1.448 2.14A8.972 8.972 0 0 0 66.522 390" class="cls-16" transform="translate(-63.004 -385.763)"/>
                        </g>
                    </g>
                    <g id="Group_408" transform="translate(1.379 21.234)">
                        <g id="Group_407">
                            <path id="Path_157" d="M67.416 403.064a6.6 6.6 0 0 0-1.9-2.163 1.372 1.372 0 0 0-.57-.256.581.581 0 0 0-.559.213c-.19.28-.009.658.2.928a5.418 5.418 0 0 0 2.711 1.989" class="cls-16" transform="translate(-64.306 -400.639)"/>
                        </g>
                    </g>
                    <g id="Group_410" transform="translate(4.489 19.213)">
                        <g id="Group_409">
                            <path id="Path_158" d="M75.262 396.569a21.154 21.154 0 0 1 2.717-2.768c.154-.131.349-.268.541-.2a.4.4 0 0 1 .249.365 1.027 1.027 0 0 1-.1.454 5.268 5.268 0 0 1-3.5 2.943" class="cls-16" transform="translate(-75.168 -393.58)"/>
                        </g>
                    </g>
                    <g id="Group_412" transform="translate(4.496 14.138)">
                        <g id="Group_411">
                            <path id="Path_159" d="M75.193 379.248l2.135-2.6a2.571 2.571 0 0 1 .693-.657.876.876 0 0 1 .911-.011.863.863 0 0 1 .292.859 2.259 2.259 0 0 1-.416.855 6.34 6.34 0 0 1-1.556 1.652 2.6 2.6 0 0 1-1.949.6" class="cls-16" transform="translate(-75.193 -375.854)"/>
                        </g>
                    </g>
                    <g id="Group_414" transform="translate(4.199 8.71)">
                        <g id="Group_413">
                            <path id="Path_160" d="M74.156 360.459a7.445 7.445 0 0 1 2.148-3.225 1.254 1.254 0 0 1 .56-.326.941.941 0 0 1 .979.688 1.764 1.764 0 0 1-.195 1.413 3.73 3.73 0 0 1-1 1.061 8.606 8.606 0 0 1-2.375 1.282" class="cls-16" transform="translate(-74.156 -356.896)"/>
                        </g>
                    </g>
                    <g id="Group_416" transform="translate(3.346 3.112)">
                        <g id="Group_415">
                            <path id="Path_161" d="M71.178 341.819a8.708 8.708 0 0 1 1.9-3.985c.192-.257.459-.53.777-.482a.616.616 0 0 1 .446.383 1.436 1.436 0 0 1 .084.6 4.661 4.661 0 0 1-3.024 4.163" class="cls-16" transform="translate(-71.178 -337.347)"/>
                        </g>
                    </g>
                    <g id="Group_418">
                        <g id="Group_417">
                            <path id="Path_162" d="M62.24 331.668a12.442 12.442 0 0 0 .078-2.332 4.174 4.174 0 0 0-.774-2.173 1.8 1.8 0 0 0-.775-.618.98.98 0 0 0-.951.126 1.034 1.034 0 0 0-.326.837 2.628 2.628 0 0 0 .241.894c.568 1.368 1.517 2.883 2.507 3.266" class="cls-16" transform="translate(-59.492 -326.478)"/>
                        </g>
                    </g>
                </g>
                <g id="Group_441" transform="translate(13.438 6.138)">
                    <g id="Group_422" transform="translate(.745 .85)">
                        <g id="Group_421">
                            <g id="Group_420">
                                <path id="Path_163" d="M92.037 350.884a.991.991 0 0 0-.012.191c0 .139 0 .321-.006.547s0 .528-.013.866-.013.722-.042 1.146c-.037.848-.119 1.857-.248 2.972s-.328 2.334-.591 3.6-.586 2.462-.907 3.537-.66 2.029-.967 2.821c-.145.4-.3.753-.422 1.066s-.239.581-.336.8l-.214.5a.938.938 0 0 0-.066.18 1 1 0 0 0 .092-.168l.239-.493c.1-.215.227-.478.358-.79s.292-.662.443-1.06c.32-.789.66-1.745 1-2.82s.651-2.274.921-3.546.45-2.5.582-3.617.194-2.132.219-2.983c.021-.425.017-.811.021-1.149s0-.629-.011-.867-.015-.408-.02-.548a.961.961 0 0 0-.02-.185z" class="cls-14" transform="translate(-88.213 -350.884)"/>
                            </g>
                        </g>
                    </g>
                    <g id="Group_424" transform="translate(2.349 4.69)">
                        <g id="Group_423">
                            <path id="Path_164" d="M95.7 366.639a3.18 3.18 0 0 0-.762-2 .763.763 0 0 0-.633-.336c-.328.048-.478.441-.489.773a2.341 2.341 0 0 0 .526 1.552 1.975 1.975 0 0 0 1.276.788" class="cls-14" transform="translate(-93.815 -364.294)"/>
                        </g>
                    </g>
                    <g id="Group_426" transform="translate(1.831 7.792)">
                        <g id="Group_425">
                            <path id="Path_165" d="M93.683 378.389a5.363 5.363 0 0 0-.741-2.9 1.019 1.019 0 0 0-.285-.291.418.418 0 0 0-.391-.037.59.59 0 0 0-.249.5 3.372 3.372 0 0 0 1.624 3.151" class="cls-14" transform="translate(-92.004 -375.128)"/>
                        </g>
                    </g>
                    <g id="Group_428" transform="translate(.538 11.743)">
                        <g id="Group_427">
                            <path id="Path_166" d="M89.523 391.679a4.892 4.892 0 0 0-.916-2.393.76.76 0 0 0-.471-.357c-.3-.039-.547.272-.614.572a2.362 2.362 0 0 0 .525 1.768 6.415 6.415 0 0 0 1.178 1.168" class="cls-14" transform="translate(-87.489 -388.926)"/>
                        </g>
                    </g>
                    <g id="Group_430" transform="translate(0 14.689)">
                        <g id="Group_429">
                            <path id="Path_167" d="M87.333 401.443a4.71 4.71 0 0 0-.828-1.882.985.985 0 0 0-.333-.3.415.415 0 0 0-.427.025c-.19.149-.147.446-.067.674a3.87 3.87 0 0 0 1.422 1.94" class="cls-14" transform="translate(-85.61 -399.217)"/>
                        </g>
                    </g>
                    <g id="Group_432" transform="translate(1.867 14.576)">
                        <g id="Group_431">
                            <path id="Path_168" d="M92.365 400.187a15.155 15.155 0 0 1 2.446-1.3.437.437 0 0 1 .413-.023.29.29 0 0 1 .091.3.737.737 0 0 1-.168.287 3.761 3.761 0 0 1-3.015 1.251" class="cls-14" transform="translate(-92.131 -398.82)"/>
                        </g>
                    </g>
                    <g id="Group_434" transform="translate(2.971 11.118)">
                        <g id="Group_433">
                            <path id="Path_169" d="M96.064 388.369l2.013-1.312a1.837 1.837 0 0 1 .613-.3.626.626 0 0 1 .622.189.616.616 0 0 1 .014.648 1.619 1.619 0 0 1-.468.492 4.518 4.518 0 0 1-1.414.79 1.856 1.856 0 0 1-1.456-.011" class="cls-14" transform="translate(-95.988 -386.743)"/>
                        </g>
                    </g>
                    <g id="Group_436" transform="translate(3.862 7.262)">
                        <g id="Group_435">
                            <path id="Path_170" d="M99.214 375.115a5.315 5.315 0 0 1 2.157-1.733.894.894 0 0 1 .451-.1.672.672 0 0 1 .519.679 1.259 1.259 0 0 1-.437.92 2.66 2.66 0 0 1-.912.507 6.147 6.147 0 0 1-1.893.362" class="cls-14" transform="translate(-99.1 -373.276)"/>
                        </g>
                    </g>
                    <g id="Group_438" transform="translate(4.384 3.223)">
                        <g id="Group_437">
                            <path id="Path_171" d="M100.944 361.673a6.219 6.219 0 0 1 2.153-2.3.653.653 0 0 1 .633-.161.441.441 0 0 1 .221.356 1.024 1.024 0 0 1-.072.429 3.327 3.327 0 0 1-2.955 2.184" class="cls-14" transform="translate(-100.923 -359.172)"/>
                        </g>
                    </g>
                    <g id="Group_440" transform="translate(3.495)">
                        <g id="Group_439">
                            <path id="Path_172" d="M98.835 351.88a8.9 8.9 0 0 0 .555-1.571 2.976 2.976 0 0 0-.06-1.646 1.279 1.279 0 0 0-.395-.588.7.7 0 0 0-.675-.119.739.739 0 0 0-.4.5 1.871 1.871 0 0 0-.029.66 4.4 4.4 0 0 0 1 2.763" class="cls-14" transform="translate(-97.815 -347.915)"/>
                        </g>
                    </g>
                </g>
                <g id="Group_463" transform="translate(0 6.007)">
                    <g id="Group_444" transform="translate(2.796 .85)">
                        <g id="Group_443">
                            <g id="Group_442">
                                <path id="Path_173" d="M48.492 350.424a.959.959 0 0 0-.017.191l-.02.548c-.008.227-.016.529-.011.867s0 .724.021 1.149c.025.851.1 1.863.219 2.983s.318 2.343.582 3.617.592 2.469.921 3.546.679 2.03 1 2.82c.151.4.31.749.443 1.06s.254.576.358.79l.239.493a.959.959 0 0 0 .092.168.949.949 0 0 0-.066-.18l-.214-.5c-.1-.217-.212-.484-.336-.8s-.278-.666-.422-1.065c-.307-.792-.637-1.749-.967-2.822s-.638-2.269-.907-3.537-.453-2.489-.591-3.6-.211-2.123-.248-2.972c-.028-.424-.03-.808-.042-1.146s-.014-.628-.013-.866 0-.408-.006-.548a1 1 0 0 0-.015-.196z" class="cls-14" transform="translate(-48.443 -350.424)"/>
                            </g>
                        </g>
                    </g>
                    <g id="Group_446" transform="translate(3.179 4.69)">
                        <g id="Group_445">
                            <path id="Path_174" d="M49.782 366.18a3.181 3.181 0 0 1 .762-2 .763.763 0 0 1 .633-.336c.328.047.478.441.489.773a2.343 2.343 0 0 1-.526 1.552 1.977 1.977 0 0 1-1.276.788" class="cls-14" transform="translate(-49.782 -363.835)"/>
                        </g>
                    </g>
                    <g id="Group_448" transform="translate(3.9 7.792)">
                        <g id="Group_447">
                            <path id="Path_175" d="M52.3 377.93a5.36 5.36 0 0 1 .741-2.9 1.019 1.019 0 0 1 .285-.291.418.418 0 0 1 .392-.037.59.59 0 0 1 .249.5 3.37 3.37 0 0 1-1.624 3.151" class="cls-14" transform="translate(-52.3 -374.669)"/>
                        </g>
                    </g>
                    <g id="Group_450" transform="translate(4.842 11.743)">
                        <g id="Group_449">
                            <path id="Path_176" d="M55.59 391.22a4.894 4.894 0 0 1 .916-2.393.761.761 0 0 1 .471-.357c.3-.039.547.272.614.572a2.363 2.363 0 0 1-.525 1.769 6.4 6.4 0 0 1-1.178 1.167" class="cls-14" transform="translate(-55.59 -388.467)"/>
                        </g>
                    </g>
                    <g id="Group_452" transform="translate(5.692 14.689)">
                        <g id="Group_451">
                            <path id="Path_177" d="M58.556 400.984a4.708 4.708 0 0 1 .828-1.882.979.979 0 0 1 .333-.3.416.416 0 0 1 .427.024c.19.15.147.446.067.674a3.869 3.869 0 0 1-1.418 1.938" class="cls-14" transform="translate(-58.556 -398.758)"/>
                        </g>
                    </g>
                    <g id="Group_454" transform="translate(2.355 14.576)">
                        <g id="Group_453">
                            <path id="Path_178" d="M49.861 399.728a15.129 15.129 0 0 0-2.446-1.3.436.436 0 0 0-.413-.023.29.29 0 0 0-.091.3.733.733 0 0 0 .168.286 3.762 3.762 0 0 0 3.016 1.251" class="cls-14" transform="translate(-46.901 -398.361)"/>
                        </g>
                    </g>
                    <g id="Group_456" transform="translate(1.02 11.117)">
                        <g id="Group_455">
                            <path id="Path_179" d="M45.588 387.909l-2.014-1.309a1.843 1.843 0 0 0-.613-.3.626.626 0 0 0-.622.189.617.617 0 0 0-.014.648 1.614 1.614 0 0 0 .468.492 4.517 4.517 0 0 0 1.415.79 1.857 1.857 0 0 0 1.456-.011" class="cls-14" transform="translate(-42.24 -386.283)"/>
                        </g>
                    </g>
                    <g id="Group_458" transform="translate(.311 7.262)">
                        <g id="Group_457">
                            <path id="Path_180" d="M42.891 374.655a5.314 5.314 0 0 0-2.157-1.733.9.9 0 0 0-.452-.1.672.672 0 0 0-.519.679 1.257 1.257 0 0 0 .437.92 2.661 2.661 0 0 0 .911.506 6.142 6.142 0 0 0 1.893.362" class="cls-14" transform="translate(-39.764 -372.817)"/>
                        </g>
                    </g>
                    <g id="Group_460" transform="translate(0 3.223)">
                        <g id="Group_459">
                            <path id="Path_181" d="M41.687 361.214a6.221 6.221 0 0 0-2.153-2.3.654.654 0 0 0-.632-.161.44.44 0 0 0-.221.357 1.024 1.024 0 0 0 .072.429 3.328 3.328 0 0 0 2.955 2.184" class="cls-14" transform="translate(-38.678 -358.713)"/>
                        </g>
                    </g>
                    <g id="Group_462" transform="translate(2.259)">
                        <g id="Group_461">
                            <path id="Path_182" d="M47.209 351.421a8.875 8.875 0 0 1-.555-1.571 2.976 2.976 0 0 1 .06-1.646 1.28 1.28 0 0 1 .395-.588.7.7 0 0 1 .675-.118.738.738 0 0 1 .4.5 1.872 1.872 0 0 1 .029.66 4.407 4.407 0 0 1-1 2.763" class="cls-14" transform="translate(-46.567 -347.456)"/>
                        </g>
                    </g>
                </g>
                <g id="Group_465" transform="translate(1.206 25.088)">
                    <g id="Group_464">
                        <path id="Path_183" d="M62.255 414.1v2.538a1 1 0 0 1-1 1H43.889a1 1 0 0 1-1-1V414.1z" class="cls-8" transform="translate(-42.89 -414.096)"/>
                    </g>
                </g>
                <g id="Group_467" opacity="0.4" transform="translate(2.491 28.625)">
                    <g id="Group_466">
                        <path id="Path_184" d="M63.952 426.451l-.144.808-16.024 1.141-.406-1.95z" transform="translate(-47.378 -426.451)"/>
                    </g>
                </g>
            </g>
        </g>
        <g id="Table" transform="translate(12828.074 757.28)">
            <g id="Group_469">
                <path id="Path_185" d="M155.523 470.47c0 .041-28.343.075-63.3.075s-63.3-.033-63.3-.075 28.337-.074 63.3-.074 63.3.034 63.3.074z" class="cls-3" transform="translate(-28.921 -470.396)"/>
            </g>
        </g>
    </g>
</svg>
