<svg xmlns="http://www.w3.org/2000/svg" width="20.015" height="17.624" viewBox="0 0 20.015 17.624">
    <defs>
        <style>
            .cls-3{fill:#414042}
        </style>
    </defs>
    <g id="bank" transform="translate(-27 -326)">
        <path id="Path_18643" fill="#fff" d="M5887.731 10206.217h-1.649v-4.707l2.463 1.23z" transform="translate(-5847.043 -9865.403)"/>
        <path id="Fill_1" fill="#e4e3e5" d="M20.015 1.692c0 .935-4.481 1.692-10.008 1.692S0 2.627 0 1.692 4.481 0 10.007 0s10.008.758 10.008 1.692" transform="translate(27 340.239)"/>
        <g id="bank-2" transform="translate(29 325.985)">
            <g id="Group_8897" transform="translate(4.534 6.415)">
                <g id="Group_8896">
                    <path id="Path_18954" d="M139.5 192.017a3.466 3.466 0 1 0 3.466 3.466 3.466 3.466 0 0 0-3.466-3.466zm0 6.4a2.933 2.933 0 1 1 2.933-2.933 2.933 2.933 0 0 1-2.933 2.933z" class="cls-3" transform="translate(-136.032 -192.017)"/>
                </g>
            </g>
            <g id="Group_8899" transform="translate(0 .015)">
                <g id="Group_8898">
                    <path id="Path_18955" d="M15.733 5.881A.267.267 0 0 0 16 5.615V4.548v-.01a.263.263 0 0 0-.017-.085.016.016 0 0 0 0-.01.267.267 0 0 0-.053-.078l-.025-.02a.268.268 0 0 0-.039-.03L8.129.048a.265.265 0 0 0-.258 0L.138 4.315a.268.268 0 0 0-.039.03l-.025.02a.267.267 0 0 0-.053.078.016.016 0 0 1 0 .01.263.263 0 0 0-.021.085v1.077a.267.267 0 0 0 .267.267h.8v8h-.8a.267.267 0 0 0-.267.265v1.6a.267.267 0 0 0 .267.267h15.466a.267.267 0 0 0 .267-.267v-1.6a.267.267 0 0 0-.267-.267h-.8v-8zM8 .586l6.7 3.7H1.3zm7.466 13.828v1.067H.534v-1.067zM1.6 13.881v-8h1.068v8zm1.6 0v-8h9.6v8zm10.133 0v-8H14.4v8zM.534 5.348v-.533h14.933v.533z" class="cls-3" transform="translate(0 -.015)"/>
                </g>
            </g>
            <path id="Path_18956" fill="#9ba9b8" d="M.231-10.049H2.47q.019 0 .019.019v.213a.017.017 0 0 1-.019.017h-.843v.019a.659.659 0 0 1 .279.4l.009.069h.555q.019 0 .019.019v.213a.017.017 0 0 1-.019.019h-.533a.922.922 0 0 1-.438.7 1.377 1.377 0 0 1-.552.222q0 .009-.019.009l1.2 1.557v.019h-.453S1.205-7.16.281-8.366v-.009h.144q.767 0 .921-.552a.791.791 0 0 0 .009-.107v-.028H.231a.017.017 0 0 1-.019-.019v-.213q0-.019.019-.019h1.115a.619.619 0 0 0-.241-.35A1.014 1.014 0 0 0 .638-9.8H.231a.017.017 0 0 1-.019-.019v-.213q.002-.017.019-.017z" transform="translate(6.482 18.015)"/>
        </g>
    </g>
</svg>
