<svg xmlns="http://www.w3.org/2000/svg" width="45" height="44.989" viewBox="0 0 45 44.989">
    <defs>
        <style>
            .cls-1{fill:#00b3b5}.cls-4{fill:#fec10d}
        </style>
    </defs>
    <g id="bank" transform="translate(0 -.063)">
        <g id="Group_8866" transform="translate(7.757 .063)">
            <path id="Path_18898" d="M117.729 85.631a1.823 1.823 0 0 0-.271-.962l-1.73-2.785a3.049 3.049 0 0 1-.328-1.384v-8.575a10.083 10.083 0 0 0-10.084-10.084h-4.654A10.083 10.083 0 0 0 90.58 71.925V80.5a3.047 3.047 0 0 1-.326 1.381l-1.73 2.785a1.823 1.823 0 0 0-.271.962 1.814 1.814 0 0 0 1.807 1.807h25.861a1.814 1.814 0 0 0 1.808-1.804z" class="cls-1" transform="translate(-88.253 -56.411)"/>
            <path id="Path_18899" d="M193.867 5.493l3.878-5.43h-12.41l3.878 5.43v1.551h4.654z" class="cls-1" transform="translate(-176.802 -.063)"/>
        </g>
        <path id="Path_18900" fill="#168794" d="M208.985 124.918l-1.73-2.785a3.049 3.049 0 0 1-.326-1.381v-8.579a10.081 10.081 0 0 0-2.118-6.205c-2.071 11.41-9.362 17.988-16.212 21.719h18.849a1.815 1.815 0 0 0 1.552-2.769z" transform="translate(-172.024 -96.597)"/>
        <path id="Path_18901" fill="#fff" d="M219.478 145.924v-.5a2.614 2.614 0 0 0-2.606-2.606h-.5v-1.548h-1.551v1.551h-.5a2.606 2.606 0 0 0-.915 5.05l1.412.527v2.955h-.5a1.055 1.055 0 0 1-1.055-1.055v-.5h-1.551v.5a2.614 2.614 0 0 0 2.606 2.606h2.544a2.606 2.606 0 0 0 .915-5.05l-1.412-.527v-2.955h.5a1.055 1.055 0 0 1 1.055 1.055v.5zm-2.234 3.382a1.071 1.071 0 0 1 .683.993 1.055 1.055 0 0 1-1.055 1.055h-.5v-2.374zm-2.42-2.56l-.869-.326a1.071 1.071 0 0 1-.683-.993 1.055 1.055 0 0 1 1.055-1.055h.5z" transform="translate(-193.105 -128.796)"/>
        <g id="Group_8867" transform="translate(0 1.614)">
            <path id="Path_18902" d="M400.248 23.918a3.77 3.77 0 0 0-3.1-3.1 3.77 3.77 0 0 0 3.1-3.1 3.77 3.77 0 0 0 3.1 3.1 3.77 3.77 0 0 0-3.1 3.1z" class="cls-4" transform="translate(-362.24 -17.713)"/>
            <path id="Path_18903" d="M3.1 200.428a3.769 3.769 0 0 0-3.1-3.1 3.77 3.77 0 0 0 3.1-3.1 3.77 3.77 0 0 0 3.1 3.1 3.769 3.769 0 0 0-3.1 3.1z" class="cls-4" transform="translate(0 -178.709)"/>
        </g>
        <path id="Path_18904" fill="#fec9a3" d="M84.9 268.619a2.327 2.327 0 0 0-3.1-.861l-11.007 4.7a1.557 1.557 0 0 1-.613.124H56.538a1.551 1.551 0 0 1 0-3.1h6.205a4.654 4.654 0 0 0 4.654-4.654H54.49a7.053 7.053 0 0 0-5.5 2.645l-4.863 5.887L49.6 283.4l21.075-5.065a11.2 11.2 0 0 0 2.622-.962l10.859-5.562a2.326 2.326 0 0 0 .744-3.192z" transform="translate(-40.249 -241.493)"/>
        <path id="Path_18905" fill="#f7bb8f" d="M86.578 379.052l1.745 3.2 21.075-5.065a11.193 11.193 0 0 0 2.622-.962l5.872-3.017c-9.758 2.981-22.712 4.843-31.314 5.844z" transform="translate(-78.969 -340.345)"/>
        <path id="Path_18906" fill="#414042" d="M0 328.932v13.962h10.084l2.327-2.327L3.1 326.605z" transform="translate(0 -297.842)"/>
        <path id="Path_18907" fill="#2b2a2c" d="M0 461.226h10.084l2.327-2.327-1.706-2.56A54.858 54.858 0 0 1 0 459.527z" transform="translate(0 -416.174)"/>
        <circle id="Ellipse_506" cx="1.551" cy="1.551" r="1.551" fill="#d9d9d9" transform="translate(5.43 39.625)"/>
    </g>
</svg>
