<svg xmlns="http://www.w3.org/2000/svg" width="14.45" height="15.745" viewBox="0 0 14.45 15.745">
    <defs>
        <style>
            .cls-1{fill:#282c47;stroke:#282c47;stroke-width:.2px}
        </style>
    </defs>
    <g id="bell_1_" transform="translate(.1 .1)">
        <path id="Path_18208" d="M368.165 30.1a.488.488 0 0 1-.488-.488 6.944 6.944 0 0 0-2.047-4.942.488.488 0 1 1 .69-.69 7.915 7.915 0 0 1 2.332 5.632.488.488 0 0 1-.487.488zm0 0" class="cls-1" transform="translate(-354.403 -23.11)"/>
        <path id="Path_18209" d="M.488 30.117A.488.488 0 0 1 0 29.63 7.911 7.911 0 0 1 2.333 24a.488.488 0 0 1 .69.69 6.94 6.94 0 0 0-2.048 4.94.488.488 0 0 1-.487.487zm0 0" class="cls-1" transform="translate(0 -23.128)"/>
        <path id="Path_18210" d="M157.106 418.926a2.441 2.441 0 0 1-2.438-2.438.488.488 0 0 1 .975 0 1.463 1.463 0 1 0 2.926 0 .488.488 0 0 1 .975 0 2.441 2.441 0 0 1-2.438 2.438zm0 0" class="cls-1" transform="translate(-149.981 -403.381)"/>
        <path id="Path_18211" d="M33.148 75.644H22.465a1.132 1.132 0 0 1-.737-1.992 4.334 4.334 0 0 0 1.546-3.32v-1.8a4.532 4.532 0 0 1 9.065 0v1.8a4.333 4.333 0 0 0 1.54 3.315 1.131 1.131 0 0 1-.73 2zM27.807 64.97a3.563 3.563 0 0 0-3.561 3.558v1.8a5.3 5.3 0 0 1-1.884 4.056.161.161 0 0 0-.058.124.164.164 0 0 0 .162.162h10.682a.164.164 0 0 0 .162-.162.159.159 0 0 0-.057-.123 5.3 5.3 0 0 1-1.885-4.057v-1.8a3.563 3.563 0 0 0-3.561-3.558zm0 0" class="cls-1" transform="translate(-20.682 -62.05)"/>
        <path id="Path_18212" d="M219.156 2.925a.488.488 0 0 1-.488-.488V.488a.488.488 0 1 1 .975 0v1.95a.488.488 0 0 1-.487.487zm0 0" class="cls-1" transform="translate(-212.031)"/>
    </g>
</svg>
