<svg xmlns="http://www.w3.org/2000/svg" width="20.015" height="17.374" viewBox="0 0 20.015 17.374">
    <defs>
        <style>
            .cls-2{fill:#363954}
        </style>
    </defs>
    <g id="Group_8839" transform="translate(-27 -664.25)">
        <path id="Fill_1" fill="#e4e3e5" d="M20.015 1.692c0 .935-4.481 1.692-10.008 1.692S0 2.627 0 1.692 4.481 0 10.007 0s10.008.758 10.008 1.692" transform="translate(27 678.239)"/>
        <g id="ebook" transform="translate(-44 501.285)">
            <path id="Path_18822" d="M89.384 162.965h-6.7a2.109 2.109 0 0 0-1.731.89 2.109 2.109 0 0 0-1.731-.89h-6.7a.353.353 0 0 0-.358.347v13.13a1.5 1.5 0 0 0 1.524 1.474h14.53a1.5 1.5 0 0 0 1.524-1.474v-8.837a.359.359 0 0 0-.717 0v7.944h-6.338a2.122 2.122 0 0 0-1.372.5v-11.064a1.352 1.352 0 0 1 1.372-1.327h6.338v2.334a.359.359 0 0 0 .717 0v-2.68a.353.353 0 0 0-.358-.347zm-16.5 13.477v-.2h1.505a.347.347 0 1 0 0-.693h-1.501v-11.891h6.338a1.352 1.352 0 0 1 1.372 1.327v11.062a2.122 2.122 0 0 0-1.372-.5h-3.178a.347.347 0 1 0 0 .693h3.178a1.368 1.368 0 0 1 1.325.981H73.7a.8.8 0 0 1-.812-.779zm9.8-.2h6.338v.2a.8.8 0 0 1-.808.781h-6.852a1.368 1.368 0 0 1 1.325-.981z" class="cls-2"/>
            <path id="Path_18823" d="M107.647 212.259h5.1a.4.4 0 1 0 0-.793h-5.1a.4.4 0 1 0 0 .793z" class="cls-2" transform="translate(-33.224 -45.978)"/>
            <path id="Path_18824" d="M107.647 256.493h5.1a.4.4 0 1 0 0-.793h-5.1a.4.4 0 1 0 0 .793z" class="cls-2" transform="translate(-33.224 -87.609)"/>
            <path id="Path_18825" d="M107.647 300.727h5.1a.4.4 0 1 0 0-.793h-5.1a.4.4 0 1 0 0 .793z" class="cls-2" transform="translate(-33.224 -129.239)"/>
            <path id="Path_18826" d="M107.647 344.961h5.1a.4.4 0 1 0 0-.793h-5.1a.4.4 0 1 0 0 .793z" class="cls-2" transform="translate(-33.224 -170.87)"/>
            <path id="Path_18828" d="M298.78 211.466h-5.1a.4.4 0 1 0 0 .793h5.1a.4.4 0 0 0 0-.793z" class="cls-2" transform="translate(-211.293 -45.978)"/>
            <path id="Path_18829" d="M298.78 255.7h-5.1a.4.4 0 1 0 0 .793h5.1a.4.4 0 0 0 0-.793z" class="cls-2" transform="translate(-211.293 -87.609)"/>
            <path id="Path_18830" d="M298.78 299.934h-5.1a.4.4 0 1 0 0 .793h5.1a.4.4 0 0 0 0-.793z" class="cls-2" transform="translate(-211.293 -129.239)"/>
            <path id="Path_18831" d="M298.78 344.168h-5.1a.4.4 0 1 0 0 .793h5.1a.4.4 0 0 0 0-.793z" class="cls-2" transform="translate(-211.293 -170.87)"/>
        </g>
    </g>
</svg>
