<svg xmlns="http://www.w3.org/2000/svg" width="16.893" height="21" viewBox="0 0 16.893 21">
    <g>
        <path fill="#e4e3e5" d="M16 1.5C16 2.328 12.418 3 8 3s-8-.672-8-1.5S3.582 0 8 0s8 .672 8 1.5" transform="translate(-29 -419.5) translate(29 437.5)"/>
        <path fill="#363954" d="M6.727 19h-.612a1.529 1.529 0 0 1-1.508-1.58v-6.789h-3.1A1.586 1.586 0 0 1 0 9.054v-4.7a1.529 1.529 0 0 1 1.509-1.58h3.1V1.58A1.529 1.529 0 0 1 6.115 0h.612a1.529 1.529 0 0 1 1.508 1.58v1.195h4.057a1.5 1.5 0 0 1 1.1.5l2.1 2.349a1.658 1.658 0 0 1 0 2.166l-2.1 2.349a1.491 1.491 0 0 1-1.1.5H8.235v6.781A1.529 1.529 0 0 1 6.727 19zm-1.142-8.369v6.832a.522.522 0 0 0 .495.513h.647a.531.531 0 0 0 .53-.555v-6.79zM1.509 3.8a.531.531 0 0 0-.53.555v4.7a.584.584 0 0 0 .535.555h10.778a.48.48 0 0 0 .365-.183l2.123-2.356a.609.609 0 0 0 0-.761l-2.12-2.345a.468.468 0 0 0-.369-.165zm4.568-2.775a.526.526 0 0 0-.492.549v1.2h1.672V1.58a.531.531 0 0 0-.53-.555z" transform="translate(-29 -419.5) translate(30 419.5)"/>
    </g>
</svg>
