<svg xmlns="http://www.w3.org/2000/svg" width="36.814" height="33.23" viewBox="0 0 36.814 33.23">
    <defs>
        <style>
            .cls-1{fill:#6bd1d3}.cls-2{fill:#168794}.cls-4{fill:#01c5c7}.cls-5{fill:#ffda6e}.cls-6{fill:#e6ffff}
        </style>
    </defs>
    <g id="certification" transform="translate(0 -24.927)">
        <path id="Path_18696" d="M358.392 371.941c-.411.3-.621 1.032-1.114 1.194-.476.156-1.069-.3-1.6-.3s-1.121.461-1.6.3c-.493-.162-.7-.892-1.114-1.194a2.09 2.09 0 0 0-.637-.266v7.792a.5.5 0 0 0 .789.411l2.271-1.627a.5.5 0 0 1 .578 0l2.271 1.627a.5.5 0 0 0 .789-.411v-7.792a2.087 2.087 0 0 0-.633.266z" class="cls-1" transform="translate(-326.998 -321.815)"/>
        <path id="Path_18697" d="M382.251 388.081c-.436.008-.942-.336-1.4-.336s-.962.344-1.4.336v5.88l1.109-.795a.5.5 0 0 1 .578 0l1.109.795v-5.88z" class="cls-2" transform="translate(-352.171 -336.73)"/>
        <path id="Path_18698" fill="#dfebfa" d="M34.478 24.927H2.336A2.343 2.343 0 0 0 0 27.263v20.142a2.343 2.343 0 0 0 2.336 2.336h32.142a2.343 2.343 0 0 0 2.336-2.336V27.263a2.343 2.343 0 0 0-2.336-2.336z"/>
        <path id="Path_18699" d="M34.478 24.927H2.336A2.343 2.343 0 0 0 0 27.263v20.142a2.343 2.343 0 0 0 2.336 2.336h32.142a2.343 2.343 0 0 0 2.336-2.336V27.263a2.343 2.343 0 0 0-2.336-2.336z" class="cls-1"/>
        <path id="Path_18700" d="M6.222 47.405V27.263a2.343 2.343 0 0 1 2.336-2.336H2.336A2.343 2.343 0 0 0 0 27.263v20.142a2.343 2.343 0 0 0 2.336 2.336h6.222a2.343 2.343 0 0 1-2.336-2.336z" class="cls-4"/>
        <path id="Path_18701" d="M62.749 59.156h-.025a2.773 2.773 0 0 1-2.773-2.773v-.025a.523.523 0 0 0-.525-.526H34.754a.523.523 0 0 0-.525.526v.025a2.773 2.773 0 0 1-2.773 2.773h-.025a.523.523 0 0 0-.526.525v12.672a.523.523 0 0 0 .526.525h.026a2.773 2.773 0 0 1 2.773 2.773v.025a.523.523 0 0 0 .525.526H52.77l8.93-3.127a2.762 2.762 0 0 1 1.028-.2h.025a.523.523 0 0 0 .526-.525V59.681a.523.523 0 0 0-.526-.525z" class="cls-4" transform="translate(-28.683 -28.683)"/>
        <path id="Path_18702" d="M37.538 75.677v-.025a2.773 2.773 0 0 0-2.773-2.773h-.026a.523.523 0 0 1-.526-.525V59.682a.523.523 0 0 1 .526-.525h.025a2.773 2.773 0 0 0 2.773-2.773v-.025a.523.523 0 0 1 .525-.526h-3.308a.523.523 0 0 0-.525.526v.025a2.773 2.773 0 0 1-2.773 2.773h-.025a.523.523 0 0 0-.526.525v12.672a.523.523 0 0 0 .526.525h.026a2.773 2.773 0 0 1 2.773 2.773v.025a.523.523 0 0 0 .525.526h3.309a.523.523 0 0 1-.526-.526z" class="cls-2" transform="translate(-28.683 -28.684)"/>
        <g id="Group_8756" transform="translate(13.101 31.774)">
            <path id="Path_18703" d="M192.265 121.27h-9.5a.556.556 0 0 1 0-1.111h9.5a.556.556 0 0 1 0 1.111z" class="cls-5" transform="translate(-182.209 -120.159)"/>
        </g>
        <g id="Group_8764" transform="translate(8.351 34.075)">
            <g id="Group_8757" transform="translate(7.126 9.223)">
                <path id="Path_18704" d="M220.547 281.533H215.8a.556.556 0 1 1 0-1.111h4.75a.556.556 0 1 1 0 1.111z" class="cls-6" transform="translate(-215.241 -280.422)"/>
            </g>
            <g id="Group_8758">
                <path id="Path_18705" d="M135.7 153.26h-19a.556.556 0 1 1 0-1.111h19a.556.556 0 1 1 0 1.111z" class="cls-6" transform="translate(-116.143 -152.149)"/>
            </g>
            <g id="Group_8759" transform="translate(0 2.3)">
                <path id="Path_18706" d="M135.7 185.25h-19a.556.556 0 1 1 0-1.111h19a.556.556 0 1 1 0 1.111z" class="cls-6" transform="translate(-116.143 -184.139)"/>
            </g>
            <g id="Group_8760" transform="translate(0 4.6)">
                <path id="Path_18707" d="M135.7 217.241h-19a.556.556 0 1 1 0-1.111h19a.556.556 0 1 1 0 1.111z" class="cls-6" transform="translate(-116.143 -216.13)"/>
            </g>
            <g id="Group_8761" transform="translate(0 6.9)">
                <path id="Path_18708" d="M135.122 249.232H116.7a.556.556 0 1 1 0-1.111h18.424a.556.556 0 0 1 0 1.111z" class="cls-6" transform="translate(-116.143 -248.121)"/>
            </g>
        </g>
        <path id="Path_18709" d="M337.384 260.705c0 .527-.623.95-.778 1.426-.16.493.09 1.2-.209 1.611s-1.054.394-1.468.7-.621 1.022-1.114 1.182c-.476.155-1.069-.3-1.6-.3s-1.121.456-1.6.3c-.493-.16-.7-.883-1.114-1.182s-1.167-.281-1.468-.7-.048-1.118-.208-1.611c-.155-.476-.778-.9-.778-1.426s.623-.95.778-1.426c.16-.493-.09-1.2.208-1.611s1.054-.394 1.468-.7.621-1.022 1.114-1.182c.476-.155 1.069.3 1.6.3s1.121-.456 1.6-.3c.493.16.7.883 1.114 1.182s1.167.281 1.468.7.048 1.118.208 1.611c.156.476.779.899.779 1.426z" class="cls-5" transform="translate(-303.536 -214.234)"/>
        <g id="Group_8763" transform="translate(23.516 41.525)">
            <g id="Group_8762">
                <path id="Path_18710" fill="#ffcb33" d="M331.979 264.437c-.415-.3-1.167-.281-1.468-.7s-.048-1.118-.209-1.611c-.155-.476-.778-.9-.778-1.426s.623-.95.778-1.426c.16-.493-.09-1.2.209-1.611s1.054-.394 1.468-.7c.323-.235.522-.731.832-1.01a1.873 1.873 0 0 1-.593.13c-.527 0-1.121-.456-1.6-.3-.493.16-.7.883-1.114 1.182s-1.167.281-1.468.7-.048 1.118-.209 1.611c-.155.476-.778.9-.778 1.426s.623.95.778 1.426c.16.493-.09 1.2.209 1.611s1.054.394 1.468.7.621 1.022 1.114 1.182c.476.155 1.069-.3 1.6-.3a1.874 1.874 0 0 1 .593.13c-.311-.283-.511-.779-.832-1.014z" transform="translate(-327.052 -255.759)"/>
            </g>
        </g>
        <circle id="Ellipse_489" cx="2.783" cy="2.783" r="2.783" fill="#fec458" transform="translate(25.899 43.688)"/>
        <path id="Path_18711" fill="#f9ab49" d="M362.665 288.625a2.783 2.783 0 0 1 1.547-2.494 2.783 2.783 0 1 0 0 4.987 2.783 2.783 0 0 1-1.547-2.493z" transform="translate(-334.294 -242.154)"/>
    </g>
</svg>
