<svg xmlns="http://www.w3.org/2000/svg" width="30" height="30.342" viewBox="0 0 30 30.342">
    <defs>
        <style>
            .cls-1{fill:#00b3b5}.cls-2{fill:#e6ffff}.cls-3{fill:#168794}
        </style>
    </defs>
    <g id="certificate" transform="translate(-2.883)">
        <g id="Group_891" transform="translate(2.883)">
            <g id="Group_885">
                <g id="Group_878">
                    <g id="Group_877">
                        <g id="Group_876">
                            <g id="Group_875">
                                <path id="Path_883" d="M21.653 0H9.411a1.807 1.807 0 0 0-.753.164.288.288 0 0 0-.168.262v4.06a1.121 1.121 0 0 1-1.121 1.121h-4.06a.288.288 0 0 0-.262.168 1.807 1.807 0 0 0-.164.753v22.006a1.807 1.807 0 0 0 1.807 1.808h16.963a1.807 1.807 0 0 0 1.807-1.807V1.807A1.808 1.808 0 0 0 21.653 0z" class="cls-1" transform="translate(-2.883)"/>
                                <path id="Path_884" d="M313.545 0h-3.881a1.807 1.807 0 0 1 1.807 1.807v26.727a1.807 1.807 0 0 1-1.807 1.807h3.881a1.807 1.807 0 0 0 1.807-1.807V1.807A1.807 1.807 0 0 0 313.545 0z" class="cls-1" transform="translate(-291.484)"/>
                                <path id="Path_885" d="M5.99 7.828l4.721-4.721a1.806 1.806 0 0 1 .529-.367v4.5a1.121 1.121 0 0 1-1.121 1.121h-4.5a1.807 1.807 0 0 1 .371-.533z" class="cls-1" transform="translate(-5.461 -2.578)"/>
                            </g>
                        </g>
                    </g>
                </g>
                <path id="Path_886" d="M172.333 55.891h-9.4a.569.569 0 0 1-.569-.568v-1.487a.569.569 0 0 1 .569-.568h9.4a.568.568 0 0 1 .568.568v1.486a.568.568 0 0 1-.568.569z" class="cls-2" transform="translate(-152.914 -50.111)"/>
                <g id="Group_884" transform="translate(2.991 10.623)">
                    <g id="Group_879">
                        <path id="Path_887" d="M65.536 180.173h-11.72a.458.458 0 1 1 0-.916h11.72a.458.458 0 0 1 0 .916z" class="cls-2" transform="translate(-53.358 -179.257)"/>
                    </g>
                    <g id="Group_880" transform="translate(0 3.217)">
                        <path id="Path_888" d="M65.536 234.46h-11.72a.458.458 0 1 1 0-.916h11.72a.458.458 0 0 1 0 .916z" class="cls-2" transform="translate(-53.358 -233.544)"/>
                    </g>
                    <g id="Group_881" transform="translate(0 6.434)">
                        <path id="Path_889" d="M65.536 288.745h-11.72a.458.458 0 1 1 0-.916h11.72a.458.458 0 0 1 0 .916z" class="cls-2" transform="translate(-53.358 -287.829)"/>
                    </g>
                    <g id="Group_882" transform="translate(0 9.651)">
                        <path id="Path_890" d="M65.536 343.031h-11.72a.458.458 0 1 1 0-.916h11.72a.458.458 0 0 1 0 .916z" class="cls-2" transform="translate(-53.358 -342.115)"/>
                    </g>
                    <g id="Group_883" transform="translate(0 14.366)">
                        <path id="Path_891" d="M59.691 422.589h-5.875a.458.458 0 0 1 0-.916h5.875a.458.458 0 0 1 0 .916z" class="cls-2" transform="translate(-53.358 -421.673)"/>
                    </g>
                </g>
            </g>
            <path id="Path_892" d="M364.239 341.166l-1.679-1.034a.514.514 0 0 0-.539 0l-1.679 1.034a.514.514 0 0 1-.783-.438v-6.65h5.464v6.65a.514.514 0 0 1-.784.438z" class="cls-3" transform="translate(-338.422 -314.281)"/>
            <g id="Group_890" transform="translate(17.738 10.043)">
                <g id="Group_889">
                    <g id="Group_888">
                        <g id="Group_887">
                            <g id="Group_886">
                                <path id="Path_893" fill="#ffd064" d="M307.231 190.34a6.542 6.542 0 0 0 0-11.66 1.373 1.373 0 0 1-1.46.465 1.373 1.373 0 0 0-1.757 1.276 1.373 1.373 0 0 1-.909 1.251 1.373 1.373 0 0 0-.671 2.065 1.373 1.373 0 0 1 0 1.546 1.373 1.373 0 0 0 .671 2.065 1.373 1.373 0 0 1 .909 1.251 1.373 1.373 0 0 0 1.757 1.276 1.373 1.373 0 0 1 1.46.465z" transform="translate(-302.196 -178.134)"/>
                                <path id="Path_894" fill="#fec10d" d="M390.109 176.622a1.373 1.373 0 0 1 0-1.546 1.373 1.373 0 0 0-.671-2.065 1.373 1.373 0 0 1-.909-1.251 1.373 1.373 0 0 0-1.757-1.276 1.373 1.373 0 0 1-1.47-.478 1.373 1.373 0 0 0-2.171 0 1.372 1.372 0 0 1-.265.26 6.134 6.134 0 0 1 0 11.165 1.371 1.371 0 0 1 .265.26 1.373 1.373 0 0 0 2.171 0 1.373 1.373 0 0 1 1.47-.478 1.373 1.373 0 0 0 1.757-1.276 1.373 1.373 0 0 1 .909-1.251 1.373 1.373 0 0 0 .671-2.064z" transform="translate(-378.085 -169.473)"/>
                                <circle id="Ellipse_110" cx="3.379" cy="3.379" r="3.379" fill="#3dafbc" transform="translate(2.752 2.996)"/>
                                <path id="Path_895" d="M431.585 228.364a3.38 3.38 0 0 0-1.959-3.067 6.139 6.139 0 0 1 0 6.134 3.38 3.38 0 0 0 1.959-3.067z" class="cls-3" transform="translate(-422.074 -221.989)"/>
                            </g>
                        </g>
                    </g>
                </g>
            </g>
        </g>
        <path id="Path_896" d="M5.99 7.828l4.721-4.721a1.806 1.806 0 0 1 .529-.367v4.5a1.121 1.121 0 0 1-1.121 1.121h-4.5a1.807 1.807 0 0 1 .371-.533z" class="cls-3" transform="translate(-2.578 -2.578)"/>
    </g>
</svg>
