<svg xmlns="http://www.w3.org/2000/svg" width="43.495" height="38.301" viewBox="0 0 43.495 38.301">
    <defs>
        <style>
            .cls-1{fill:#ffddce}.cls-2{fill:#168794}.cls-3{fill:#0b7480}.cls-6{fill:#686b7e}.cls-10{fill:#1b1b1c}.cls-12{fill:#16a1b1}
        </style>
    </defs>
    <g id="Group_1795" transform="translate(-17 -145.699)">
        <g id="graduated" transform="translate(-37.997 145.699)">
            <g id="Group_1002" transform="translate(54.997)">
                <g id="Group_991" transform="translate(0 18.197)">
                    <path id="Path_18432" d="M172.087 252.872l-3.968-4.337v-5.276H161.2v5.278l-3.924 4.336z" class="cls-1" transform="translate(-149.624 -243.258)"/>
                    <path id="Path_18433" d="M76.738 325.261l-3.558-1.044-3.148 3.609-5.442-6.241-5.785 1.7A5.3 5.3 0 0 0 55 328.371v5.582a1.876 1.876 0 0 0 1.877 1.876h2.545l.459-.327h.239l.459.327h18.91l.673-.48h.558v-4.767a5.544 5.544 0 0 0-3.982-5.321z" class="cls-2" transform="translate(-54.997 -315.726)"/>
                    <path id="Path_18434" d="M301.289 323.277l-5.784-1.7-2.689 3.083 3.593 1.055a5.3 5.3 0 0 1 3.809 5.088v4.538h.456v.48h2.548a1.876 1.876 0 0 0 1.876-1.876v-5.582a5.3 5.3 0 0 0-3.809-5.086z" class="cls-3" transform="translate(-275.026 -315.72)"/>
                    <g id="Group_990" transform="translate(4.421 16.456)">
                        <g id="Group_989">
                            <g id="Group_988">
                                <g id="Group_987">
                                    <path id="Path_18435" d="M115.259 466.892v-3.069a.578.578 0 0 0-1.156 0v3.069z" class="cls-3" transform="translate(-114.103 -463.245)"/>
                                    <path id="Path_18436" d="M383.567 466.892v-3.069a.578.578 0 0 0-1.156 0v3.069z" class="cls-3" transform="translate(-362.34 -463.245)"/>
                                </g>
                            </g>
                        </g>
                    </g>
                </g>
                <g id="Group_999" transform="translate(1.367)">
                    <g id="Group_998">
                        <path id="Path_18437" fill="#e4f6ff" d="M76.52 143.1l-.593-.653h-1.266l-.593.653-.781 4.583a.709.709 0 0 0 .7.827H76.6a.709.709 0 0 0 .7-.827z" transform="translate(-73.277 -131.795)"/>
                        <path id="Path_18438" fill="#086671" d="M93.67 57.463v-5.8a.578.578 0 0 0-1.156 0v5.8z" transform="translate(-91.075 -47.267)"/>
                        <g id="Group_995" transform="translate(6.27 3.935)">
                            <g id="Group_994">
                                <g id="Group_993">
                                    <g id="Group_992">
                                        <path id="Path_18439" d="M167.7 52.607h-6.407A4.194 4.194 0 0 0 157.1 56.8v4.045l.694.611h14.1V56.8a4.194 4.194 0 0 0-4.194-4.194z" class="cls-6" transform="translate(-157.1 -52.607)"/>
                                    </g>
                                </g>
                            </g>
                        </g>
                        <path id="Path_18440" d="M290.514 52.607h-.67v8.85h4.224l.64-.611V56.8a4.194 4.194 0 0 0-4.194-4.193z" class="cls-6" transform="translate(-273.644 -48.672)"/>
                        <g id="Group_996" transform="translate(6.272 8.979)">
                            <path id="Path_18441" d="M164.514 132.3h.208a6.208 6.208 0 0 0 2.879-4.944v-7.325h-7.957v1.928a1.268 1.268 0 0 1-1.268 1.268h-1.259v2.073a.959.959 0 0 0 .959.959.315.315 0 0 1 .314.3 6.137 6.137 0 0 0 6.124 5.741z" class="cls-1" transform="translate(-157.117 -120.025)"/>
                        </g>
                        <path id="Path_18442" fill="#ffcbbe" d="M253.8 123.22a1.268 1.268 0 0 1-1.268-1.268v-1.928h-2.338v7.136a6.138 6.138 0 0 1-3.206 5.1 6.13 6.13 0 0 0 6.8-5.708.315.315 0 0 1 .314-.3.959.959 0 0 0 .959-.959v-2.073z" transform="translate(-233.992 -111.046)"/>
                        <path id="Path_18443" fill="#3a3a3b" d="M106 6.518V5.089a1.283 1.283 0 0 1-1.273-1.283V1.239l-.54-.865-1.072-.343a.655.655 0 0 0-.4 0L91 3.759a.655.655 0 0 0 .088 1.269l11.831 2.015z" transform="translate(-89.249)"/>
                        <path id="Path_18444" fill="#2b2a2c" d="M161.722 64.658l-1.7-.211a11.267 11.267 0 0 0-2.767 0l-6.488.8v2.891a.567.567 0 0 0 .567.567h10.392z" transform="translate(-144.967 -59.547)"/>
                        <g id="Group_997" transform="translate(14.943 .373)">
                            <path id="Path_18445" d="M283.674 8.376L273.029 4.99v3.392a1.268 1.268 0 0 0 1.258 1.267v1.579l9.3-1.584a.655.655 0 0 0 .089-1.269z" class="cls-10" transform="translate(-273.029 -4.99)"/>
                        </g>
                        <path id="Path_18446" d="M289.845 67.4v4.119h4.773a.567.567 0 0 0 .567-.567v-2.889z" class="cls-10" transform="translate(-273.644 -62.36)"/>
                        <path id="Path_18447" fill="#fec10d" d="M86.305 123.625h-2.451v-1.609a.619.619 0 0 1 .619-.619h1.213a.619.619 0 0 1 .619.619v1.609z" transform="translate(-83.063 -112.316)"/>
                    </g>
                </g>
                <g id="Group_1000" transform="translate(6.206 21.542)">
                    <path id="Path_18448" d="M259.458 287.969a11.6 11.6 0 0 1-1.876 6.323L256 296.725l8.83-5.247z" class="cls-12" transform="translate(-247.17 -287.969)"/>
                    <path id="Path_18449" d="M143.332 287.969a11.6 11.6 0 0 0 1.876 6.323l1.583 2.433-8.83-5.247z" class="cls-12" transform="translate(-137.96 -287.969)"/>
                </g>
                <g id="Group_1001" transform="translate(12.089 24.941)">
                    <path id="Path_18450" d="M222.493 333.411a14.129 14.129 0 0 1-5.895 0 11.591 11.591 0 0 0 1.365 2.924l1.583 2.433 1.583-2.433a11.59 11.59 0 0 0 1.364-2.924z" class="cls-2" transform="translate(-216.598 -333.411)"/>
                </g>
            </g>
        </g>
        <g id="insurance" transform="translate(43.354 161.474)">
            <g id="Group_1764">
                <g id="Group_1763">
                    <g id="Path_18675" fill="#fec10d" stroke="none" stroke-linecap="round">
                        <path d="M69.57 22.002c-.02 0-.038-.003-.057-.01-1.488-.568-3.661-1.515-5.337-3.162-.832-.818-1.477-1.75-1.918-2.769-.503-1.163-.758-2.481-.758-3.92V4.248c0-.088.071-.16.16-.16 3.846 0 7.764-3.51 7.803-3.545.038-.035.08-.042.107-.042.028 0 .07.007.107.042.04.035 3.962 3.545 7.804 3.545.088 0 .16.072.16.16v7.895c0 2.47-.708 4.48-2.163 6.141-1.306 1.491-3.22 2.704-5.851 3.709-.018.007-.037.01-.057.01z" transform="translate(-61)"/>
                        <path fill="#fff" d="M69.57 1.109c-.381.32-1.215.982-2.301 1.639-1.885 1.14-3.655 1.755-5.269 1.831v7.563c0 2.588.827 4.66 2.527 6.331 1.564 1.538 3.602 2.448 5.043 3.005 2.49-.965 4.3-2.119 5.532-3.524 1.372-1.566 2.038-3.468 2.038-5.812V4.579c-1.61-.076-3.379-.691-5.265-1.831-1.088-.658-1.923-1.32-2.305-1.64m0-1.108c.159 0 .317.057.443.171.037.034 3.819 3.416 7.468 3.416.364 0 .66.296.66.66v7.895c0 5.414-3.319 8.402-8.336 10.317-.075.029-.155.043-.235.043-.08 0-.16-.014-.235-.043C65.757 21.093 61 18.537 61 12.142V4.247c0-.364.295-.66.66-.66 3.658 0 7.43-3.382 7.467-3.416.126-.114.285-.17.443-.17z" transform="translate(-61)"/>
                    </g>
                </g>
            </g>
            <g id="Group_1766" transform="translate(3.955 6.636)">
                <g id="Group_1765">
                    <path id="Path_18676" fill="#fff" d="M155.615 151a4.615 4.615 0 1 0 4.615 4.615 4.62 4.62 0 0 0-4.615-4.615zm1.785 4.422l-1.978 1.978a.659.659 0 0 1-.932 0l-.659-.659a.659.659 0 0 1 .932-.932l.193.193 1.512-1.512a.659.659 0 1 1 .932.932z" transform="translate(-151 -151)"/>
                </g>
            </g>
        </g>
    </g>
</svg>
