<svg xmlns="http://www.w3.org/2000/svg" width="20.015" height="22.67" viewBox="0 0 20.015 22.67">
    <defs>
        <style>
            .cls-2{fill:#363954;stroke:#363954;stroke-width:.2px}
        </style>
    </defs>
    <g id="Group_8841" transform="translate(-27 -528.954)">
        <path id="Fill_1" fill="#e4e3e5" d="M20.015 1.692c0 .935-4.481 1.692-10.008 1.692S0 2.627 0 1.692 4.481 0 10.007 0s10.008.758 10.008 1.692" transform="translate(27 548.239)"/>
        <g id="score_1_" transform="translate(-57.902 530.661)">
            <path id="Path_18811" d="M100.365 16.6a.3.3 0 0 0-.317.287v.7H91.39a.289.289 0 1 0 0 .575h8.657v.67a.229.229 0 0 1-.239.217H88.776a.229.229 0 0 1-.239-.217v-.67h1.348a.289.289 0 1 0 0-.575h-1.348V.791a.229.229 0 0 1 .239-.217h2.174l.229.756a.954.954 0 0 0 .927.64h4.372a.954.954 0 0 0 .927-.64l.229-.756h2.174a.229.229 0 0 1 .239.217v1.571a.319.319 0 0 0 .635 0V.791A.837.837 0 0 0 99.808 0H88.776a.837.837 0 0 0-.876.791v18.032a.837.837 0 0 0 .874.791h11.034a.837.837 0 0 0 .874-.791v-1.94a.3.3 0 0 0-.317-.283zM96.977.575l-.183.6a.324.324 0 0 1-.315.217h-4.373a.324.324 0 0 1-.315-.218l-.183-.6z" class="cls-2" transform="translate(0 -1.606)"/>
            <g id="Group_8828" transform="translate(91.774 2.22)">
                <path id="Path_18812" d="M169.037 83.5h-9.65a.279.279 0 0 0-.29.267v2.313a.29.29 0 0 0 .579 0v-2.046h9.071V94.9h-9.071v-7.577a.29.29 0 0 0-.579 0v7.841a.279.279 0 0 0 .29.267h9.65a.279.279 0 0 0 .29-.267v-11.4a.279.279 0 0 0-.29-.264z" class="cls-2" transform="translate(-159.098 -83.5)"/>
                <path id="Path_18813" d="M241.132 122.811h-3.619a.289.289 0 0 0 0 .579h3.619a.289.289 0 0 0 0-.579z" class="cls-2" transform="translate(-234.986 -121.294)"/>
                <path id="Path_18814" d="M255.5 178.484a1.215 1.215 0 0 0-1.21 1.087l-.3 2.765a.289.289 0 1 0 .576.062l.165-1.538h1.532l.165 1.538a.289.289 0 0 0 .287.259h.031a.289.289 0 0 0 .257-.319l-.3-2.765a1.215 1.215 0 0 0-1.203-1.089zm-.7 1.8l.07-.648a.638.638 0 0 1 1.269 0l.07.648z" class="cls-2" transform="translate(-251.13 -175.236)"/>
                <path id="Path_18815" d="M330.565 159.071a.289.289 0 0 0-.289.289v.282h-.282a.289.289 0 0 0 0 .579h.282v.283a.289.289 0 1 0 .579 0v-.283h.283a.289.289 0 0 0 0-.579h-.283v-.282a.289.289 0 0 0-.29-.289z" class="cls-2" transform="translate(-323.119 -156.414)"/>
                <path id="Path_18816" d="M237.4 327.652h3.627a.29.29 0 0 0 0-.579H237.4a.29.29 0 1 0 0 .579z" class="cls-2" transform="translate(-234.875 -318.432)"/>
                <path id="Path_18817" d="M250.048 364.189a.289.289 0 1 0 0 .579h2.652a.289.289 0 0 0 0-.579z" class="cls-2" transform="translate(-247.072 -354.354)"/>
            </g>
        </g>
    </g>
</svg>
