<svg xmlns="http://www.w3.org/2000/svg" width="20.015" height="18.624" viewBox="0 0 20.015 18.624">
    <g>
        <path fill="#e4e3e5" d="M20.015 1.692c0 .935-4.481 1.692-10.008 1.692S0 2.627 0 1.692 4.481 0 10.007 0s10.008.758 10.008 1.692" transform="translate(-27 -662) translate(27 677.239)"/>
        <g>
            <path fill="#414042" d="M586.29 22a.29.29 0 0 1-.29-.289V17.6a.29.29 0 0 1 .29-.289h1.944l.51-.645a4.046 4.046 0 0 1 1.9-1.276l.334-.105-.268-.225A5.137 5.137 0 0 1 594.014 6a5.194 5.194 0 0 1 1.373.187l.051.014.051-.014A5.2 5.2 0 0 1 596.862 6a5.134 5.134 0 1 1-.006 10.269h-.211l-.193-.008-.006.193a1.225 1.225 0 0 1-1.226 1.165h-1.173a.719.719 0 1 0 0 1.437h3.853a.579.579 0 0 0 .406-.168l1.48-1.476a1.3 1.3 0 0 1 1.829-.007l.006.008.009.007a1.294 1.294 0 0 1-.007 1.823l-2.359 2.353a1.39 1.39 0 0 1-.988.408zm.29-.577h11.694a.812.812 0 0 0 .578-.239l2.359-2.353a.718.718 0 0 0-1.015-1.014l-1.48 1.476a1.163 1.163 0 0 1-.816.337h-3.852a1.3 1.3 0 1 1 0-2.592h1.173a.641.641 0 0 0 .647-.612.59.59 0 0 0-.157-.443.931.931 0 0 0-.679-.205h-3.164a3.473 3.473 0 0 0-2.674 1.25l-.592.749a.288.288 0 0 1-.228.11h-1.794zm8.52-6.223a1.24 1.24 0 0 1 1.019.387l.047.05.068.009a4.685 4.685 0 0 0 .619.041 4.556 4.556 0 1 0-3.211-7.806 4.557 4.557 0 0 0 1.114 7.3l.041.021h.3zm-1.327-8.617a4.554 4.554 0 0 0-1.85 8.6l.041.021h1.711l-.353-.332a5.123 5.123 0 0 1 .571-7.938l.55-.385z" transform="translate(-27 -662) translate(-14 73) translate(-543 583)"/>
            <path fill="#9a9eb4" d="M.2-7.29h2.938v.006a4.558 4.558 0 0 1-.293.428h-.786a1.026 1.026 0 0 1 .22.461h.837q.015 0 .015.012-.281.422-.287.422H2.3a1.247 1.247 0 0 1-.208.522 1.277 1.277 0 0 1-.48.4 1.9 1.9 0 0 1-.819.2v.006a1.132 1.132 0 0 0 .192.254l1.453 1.756v.082q0 .012-.015.012h-.639Q.061-4.736.061-4.745v-.406l.006-.015a2.613 2.613 0 0 0 .357.021q.965 0 1.2-.626a.506.506 0 0 0 .037-.189H-.085A.011.011 0 0 1-.1-5.973q.29-.422.3-.422h1.386V-6.4a.813.813 0 0 0-.461-.376 1.44 1.44 0 0 0-.44-.079h-.777v-.015Q.19-7.29.2-7.29z" transform="translate(-27 -662) translate(-14 73) translate(52.454 598.774)"/>
        </g>
    </g>
</svg>
