<svg xmlns="http://www.w3.org/2000/svg" width="50" height="39.033" viewBox="0 0 50 39.033">
    <defs>
        <style>
            .cls-3{fill:#d8e2f1}.cls-6{fill:#393e64}.cls-7{fill:#2d303e}.cls-12{fill:#ffcbbe}.cls-13{fill:#ffddce}
        </style>
    </defs>
    <g id="Group_9164" transform="translate(-27 -145.733)">
        <g id="contract_1_" transform="translate(43 145.733)">
            <g id="Group_9015">
                <path id="Path_19207" fill="#f9f6f9" d="M43.625 7.438v18.2l-8.5 10.625H16V0h20.188l1.08 6.357z" transform="translate(-16)"/>
                <path id="Path_19208" fill="#e7ecf6" d="M210.875 7.438v18.2l-8.5 10.625H196V0h7.438l1.08 6.357z" transform="translate(-183.25)"/>
                <path id="Path_19209" d="M308.438 7.438L301 0v7.438z" class="cls-3" transform="translate(-280.813)"/>
            </g>
            <g id="Group_9016" transform="translate(4.25 12.892)">
                <path id="Path_19210" d="M76 182h8.5v2.125H76z" class="cls-3" transform="translate(-76 -182)"/>
            </g>
            <g id="Group_9017" transform="translate(4.25 17.142)">
                <path id="Path_19211" d="M76 242h12.75v2.125H76z" class="cls-3" transform="translate(-76 -242)"/>
            </g>
            <path id="Path_19212" d="M196 242h4.25v2.125H196z" class="cls-3" transform="translate(-183.25 -224.858)"/>
            <g id="Group_9019" transform="translate(4.25 25.642)">
                <g id="Group_9018">
                    <path id="Path_19213" fill="#168794" d="M79.188 368.375a3.188 3.188 0 1 1 3.188-3.187 3.191 3.191 0 0 1-3.188 3.187z" transform="translate(-76 -362)"/>
                    <circle id="Ellipse_537" cx="1.5" cy="1.5" r="1.5" fill="#00b3b5" transform="translate(1.75 1.625)"/>
                </g>
            </g>
            <g id="Group_9020" transform="translate(21.25 15.017)">
                <path id="Path_19214" d="M321.313 212a5.319 5.319 0 0 0-5.313 5.313v7.438h2.125v-7.438a3.188 3.188 0 1 1 6.375 0v7.438h2.125v-7.438a5.319 5.319 0 0 0-5.312-5.313z" class="cls-6" transform="translate(-316 -212)"/>
            </g>
            <path id="Path_19215" d="M396.313 217.313v7.438h-2.125v-7.438a3.191 3.191 0 0 0-3.188-3.188V212a5.319 5.319 0 0 1 5.313 5.313z" class="cls-7" transform="translate(-364.438 -196.983)"/>
            <g id="Group_9021" transform="translate(19.125 25.642)">
                <path id="Path_19216" fill="#fec10d" d="M286 362v10.625h14.875V362z" transform="translate(-286 -362)"/>
            </g>
            <path id="Path_19217" fill="#eab14d" d="M391 362h7.438v10.625H391z" transform="translate(-364.438 -336.358)"/>
            <g id="Group_9022" transform="translate(25.5 29.892)">
                <path id="Path_19218" d="M376 422h2.125v2.125H376z" class="cls-6" transform="translate(-376 -422)"/>
            </g>
            <path id="Path_19219" d="M391 422h1.063v2.125H391z" class="cls-7" transform="translate(-364.438 -392.108)"/>
        </g>
        <g id="Group_9008" transform="translate(0 -.489)">
            <path id="Path_18982" d="M38.428 372.464a4.128 4.128 0 0 0-2.306-2.843l-5.057-2.04v-.125a9.484 9.484 0 0 1-7.629 0v.125l-5.057 2.04A4.094 4.094 0 0 0 16 372.94v5.2h22.5v-5.2a3.6 3.6 0 0 0-.072-.476z" class="cls-6" transform="translate(11 -192.879)"/>
            <path id="Path_18983" d="M21.355 369.62l3.9-1.575a9.354 9.354 0 0 1-1.823-.59v.125l-5.057 2.04A4.094 4.094 0 0 0 16 372.939v5.2h2.977v-5.2a4.094 4.094 0 0 1 2.378-3.319z" class="cls-7" transform="translate(11 -192.878)"/>
            <path id="Path_18986" fill="#3a3a3b" d="M59.523 110.592v.086s-7.026 1.17-11.737-2.8a26.235 26.235 0 0 1-2.909.069l-.219 3.4a.157.157 0 0 1-.085.125.175.175 0 0 1-.157 0l-.972-.472a.636.636 0 0 1-.363-.52v-2.862a8.235 8.235 0 0 1 16.443 0z" transform="translate(-13.393 49.632)"/>
            <path id="Path_18987" fill="#0f0f12" d="M47.472 102.132a8.392 8.392 0 0 1 4.828-2.218 8.783 8.783 0 0 0-1-.057 8 8 0 0 0-8.221 7.768v2.862a.636.636 0 0 0 .363.52l.972.472a.175.175 0 0 0 .157 0 .157.157 0 0 0 .085-.125s-.426-6.154 2.816-9.222z" transform="translate(-13.393 49.632)"/>
            <path id="Path_18988" d="M98.569 332.247v3.3a9.485 9.485 0 0 1-7.629 0v-3.055a8.48 8.48 0 0 0 7.629-.245z" class="cls-12" transform="translate(-56.505 -160.971)"/>
            <path id="Path_18989" d="M92.924 337.922v-2.416a8.329 8.329 0 0 1-1.984-.64v3.055a9.472 9.472 0 0 0 4.807.749 9.408 9.408 0 0 1-2.823-.748z" class="cls-13" transform="translate(-56.505 -163.345)"/>
            <path id="Path_18990" d="M42.36 199.219a8.465 8.465 0 0 1-8.071.022 7.547 7.547 0 0 1-4.041-6.6v-.964a2.081 2.081 0 0 1-1.371-.857 1.867 1.867 0 0 1-.278-1.531 1.533 1.533 0 0 1 1.392-1.119H30a.642.642 0 0 0 .346.417l.972.472a.175.175 0 0 0 .157 0 .157.157 0 0 0 .085-.125l.219-3.4a26.234 26.234 0 0 0 2.909-.069c4.711 3.967 11.737 2.8 11.737 2.8v-.086h.194a1.532 1.532 0 0 1 1.391 1.119 1.863 1.863 0 0 1-.276 1.532 2.077 2.077 0 0 1-1.372.857v.964a7.363 7.363 0 0 1-2.2 5.223c-.053.054-.108.108-.164.16a8.026 8.026 0 0 1-1.638 1.185z" class="cls-13" transform="translate(-.296 -27.943)"/>
            <path id="Path_18991" d="M36.708 225.648a7.583 7.583 0 0 1-4.484-6.825v-.964a2.082 2.082 0 0 1-1.371-.859 1.867 1.867 0 0 1-.278-1.531 1.439 1.439 0 0 1 .225-.48l-.462-.224a.642.642 0 0 1-.346-.417h-.009a1.533 1.533 0 0 0-1.392 1.119 1.864 1.864 0 0 0 .276 1.533 2.078 2.078 0 0 0 1.373.857v.964a7.841 7.841 0 0 0 8.058 7.613 8.607 8.607 0 0 0 .991-.058 8.359 8.359 0 0 1-2.581-.728z" class="cls-12" transform="translate(-.288 -54.127)"/>
        </g>
    </g>
</svg>
