<svg xmlns="http://www.w3.org/2000/svg" width="20.015" height="18.981" viewBox="0 0 20.015 18.981">
    <g>
        <path fill="#e4e3e5" d="M20.015 1.692c0 .935-4.481 1.692-10.008 1.692S0 2.627 0 1.692 4.481 0 10.007 0s10.008.758 10.008 1.692" transform="translate(-27 -437.643) translate(27 453.239)"/>
        <path fill="#fff" d="M5886.277 10206.217h1.892l.132-4.7-2.832 1.394z" transform="translate(-27 -437.643) translate(-5849.469 -9752.403)"/>
        <g>
            <g>
                <path fill="#414042" d="M14.993 15.811V14.4a1.341 1.341 0 0 0 .818-1.315 1.251 1.251 0 0 0-1.09-1.363 1.251 1.251 0 0 0-1.09 1.363 1.341 1.341 0 0 0 .818 1.315v1.412h-1.364V7.36a.273.273 0 0 0-.151-.244L10.9 6.1V4.634a.273.273 0 0 0-.2-.262L7.088 3.338V.273A.273.273 0 0 0 6.815 0H1.363a.273.273 0 0 0-.273.273v15.538H0v.545h16.357v-.545zm-8.451 0H1.636v-.545h2.453v-.545H1.636V13.63h2.453v-.545H1.636v-1.09h2.453v-.545H1.636v-1.09h2.453v-.546H1.636V8.723h2.453v-.545H1.636v-1.09h2.453v-.545H1.636V5.452h2.453v-.545H1.636v-1.09h2.453v-.546H1.636v-1.09h2.453v-.545H1.636V.545h4.907zm3.817 0H7.088v-.545H9v-.545H7.088V13.63H9v-.545H7.088v-1.09H9v-.545H7.088v-1.09H9v-.546H7.088V8.723H9v-.545H7.088v-1.09H9v-.545H7.088V5.452H9v-.545H7.088v-1l3.271.935zm2.181 0H10.9v-.545h.818v-.545H10.9V13.63h.818v-.545H10.9v-1.09h.818v-.545H10.9v-1.09h.818v-.546H10.9V8.723h.818v-.545H10.9V6.711l1.636.818zm1.908-2.025a.953.953 0 0 1-.273-.7c0-.443.25-.818.545-.818s.545.375.545.818a.954.954 0 0 1-.273.7v-.428h-.545z" transform="translate(-27 -437.643) translate(29 437.643)"/>
            </g>
        </g>
    </g>
</svg>
