<svg xmlns="http://www.w3.org/2000/svg" width="13.743" height="13.767" viewBox="0 0 13.743 13.767">
    <path fill="none" stroke="#282c47" stroke-linecap="round" stroke-linejoin="round" d="M9.972 3.43a3.038 3.038 0 0 1 2.4 2.4M9.972 1A5.468 5.468 0 0 1 14.8 5.824m-.608 4.848v1.823a1.215 1.215 0 0 1-1.324 1.215 12.023 12.023 0 0 1-5.243-1.865A11.847 11.847 0 0 1 3.982 8.2a12.023 12.023 0 0 1-1.865-5.268 1.215 1.215 0 0 1 1.209-1.324h1.822a1.215 1.215 0 0 1 1.215 1.044 7.8 7.8 0 0 0 .426 1.708 1.215 1.215 0 0 1-.273 1.282l-.772.772a9.72 9.72 0 0 0 3.645 3.645l.772-.772a1.215 1.215 0 0 1 1.282-.273 7.8 7.8 0 0 0 1.707.425 1.215 1.215 0 0 1 1.044 1.233z" transform="translate(-1.611 -.448)"/>
</svg>
