<svg xmlns="http://www.w3.org/2000/svg" width="15.741" height="17.5" viewBox="0 0 15.741 17.5">
    <g>
        <path fill="#e4e3e5" d="M15.741 1.5c0 .828-3.524 1.5-7.871 1.5S0 2.328 0 1.5 3.524 0 7.87 0s7.871.672 7.871 1.5" transform="translate(-31 -570.5) translate(31 585)"/>
        <path fill="#363954" d="M12.779 15.739H2.961A2.964 2.964 0 0 1 0 12.778V4.664A2.964 2.964 0 0 1 2.961 1.7h.47V.405a.406.406 0 0 1 .813 0V1.7H11.5V.405a.405.405 0 0 1 .811 0V1.7h.471a2.965 2.965 0 0 1 2.962 2.961v8.114a2.965 2.965 0 0 1-2.965 2.964zM.813 6.245v6.533a2.151 2.151 0 0 0 2.148 2.149h9.818a2.151 2.151 0 0 0 2.148-2.149V6.245zm2.148-3.731a2.152 2.152 0 0 0-2.148 2.15v.77h14.114v-.77a2.152 2.152 0 0 0-2.148-2.15h-.471v1.3a.405.405 0 1 1-.811 0v-1.3H4.244v1.3a.406.406 0 1 1-.813 0v-1.3zm4.176 9.808a.4.4 0 0 1-.294-.127L4.91 10.171a.41.41 0 0 1 .017-.571.4.4 0 0 1 .281-.112.394.394 0 0 1 .292.125l1.663 1.744 3.109-2.724a.4.4 0 0 1 .264-.1.4.4 0 0 1 .305.139.4.4 0 0 1 .1.294.4.4 0 0 1-.136.276l-3.4 2.98a.388.388 0 0 1-.268.1z" transform="translate(-31 -570.5) translate(31 570.5)"/>
    </g>
</svg>
