<svg xmlns="http://www.w3.org/2000/svg" width="327.577" height="198.664" viewBox="0 0 327.577 198.664">
    <defs>
        <clipPath id="clip-path">
            <path id="Rectangle_244" fill="none" d="M0 0H86.716V179.13H0z"/>
        </clipPath>
        <style>
            .cls-3{fill:#163560}.cls-4{fill:#233862}.cls-5{fill:#2b2a2c}.cls-7{fill:#ffb27d}.cls-11{fill:#ebb000}.cls-12{fill:#168794}.cls-13{fill:#69b6bf}.cls-15{fill:#f36f21}.cls-16{fill:#01c5c7}.cls-19{fill:#300b39}.cls-20{fill:#fdab74}
        </style>
    </defs>
    <g id="Group_984" transform="translate(-3606.5 -11556.842)">
        <path id="Path_18386" fill="#f5f9fc" d="M153.5 177.9l100.9-.48 26.895-.007h8.91l26.946-.007 123.106-.031s28.158-33.11-1.92-64.557c-31.185-32.6-46.349-6.051-55.934-51.946-24.129-115.524-262.688-48.286-200.115 50.02 22.53 35.4-44.349 16.583-28.785 67.012" transform="translate(3469.342 11576.895)"/>
        <g id="Group_979" transform="translate(-50)">
            <path id="Path_18387" d="M1727.67 716.693s2.628 4.331-2.313 7.058c0 0 3.8 1.37 5.121.853a2.856 2.856 0 0 1-.577.466s3.57 1.133 5.349.515 5.611-17.9-4.925-18.814c0 0-8.311-2.976-10.068 6.3s-4.958 8.374-4.958 8.374a5 5 0 0 0 1.206.776s.69-.044.9-.33a2.046 2.046 0 0 1-.472.583s3.37 1.274 5.433.556 5.266-4.33 5.3-6.336" class="cls-3" transform="translate(2141.065 10902.365)"/>
            <path id="Path_18388" d="M1726.852 1612.883h13.442a7.381 7.381 0 0 0-.38-3.6c-.673-1.491-1.72-2.412-1.815-3.555a4.037 4.037 0 0 1-3.848 1.184 14.757 14.757 0 0 1-2.333 3.023c-.878.631-4.8.406-5.066 2.95" class="cls-4" transform="translate(2131.306 10142.623)"/>
            <path id="Path_18389" d="M1712.451 1143.135a12.187 12.187 0 0 1-2.344.478c-2.118.189-2.426-.442-2.426-.442s-2.1-18.73-8.915-54.532a99.5 99.5 0 0 1-1.725-12.629c-.106-1.376-.21-2.907-.323-4.7-.309-4.825.424-12.946 4.045-15.08 1.646-.972 3.889-.705 6.905 1.67.237.187.481.388.728.6 8.825 7.635 5.207 29.559 5.563 39.866a13.925 13.925 0 0 0 .581 4.051 22.4 22.4 0 0 1 1.655 4.546c1.853 13.369-3.744 36.172-3.744 36.172" class="cls-5" transform="translate(2156.814 10607.236)"/>
            <path id="Path_18390" fill="#1f1e21" d="M1713.96 1101.239l-16.918-22.355c-.106-1.376-.21-2.907-.323-4.7-.309-4.825.424-12.946 4.045-15.08l6.9 1.67c.237.187.481.388.728.6 8.825 7.635 5.207 29.559 5.563 39.866" transform="translate(2156.814 10604.363)"/>
            <path id="Path_18391" d="M2045.219 1403.157l-5.594-12.222a7.381 7.381 0 0 0-3.118 1.845c-1.076 1.232-1.856 1.013-4.307-.688a13.46 13.46 0 0 1 1.619 4.141c.45.056 3.013 2.536 5.639 3.219 1.047.272 3.336 4.518 5.762 3.705" class="cls-4" transform="translate(1873.375 10324.059)"/>
            <path id="Path_18392" d="M1738.171 1086.188s12.045 41.873 16.458 44.568 27.618 6.4 32.335 8.424a3.552 3.552 0 0 0 .237-2.583 15.442 15.442 0 0 0-.74-1.8s-14.41-10.832-23.894-11.926c-2.354-.271 4.792-36.214-11.113-37.65-14.529-1.311-13.283.964-13.283.964" class="cls-5" transform="translate(2121.767 10582.641)"/>
            <path id="Path_18393" d="M1609.226 610.6s.324-1.616.689-2.849c.162-.546-.964-4.129-1.742-4.57s-2.807 1.972-2.233 3.825c.295.952.779 4.049.779 4.049z" class="cls-7" transform="translate(2233.527 10989.527)"/>
            <path id="Path_18394" d="M1627.653 632.059s.423-.937.806-1.089.792-1.684 1.073-2.291c0 0-.271-.4-.745.114-.289.312-.934 1.226-.934 1.226z" class="cls-7" transform="translate(2215.101 10968.07)"/>
            <path id="Path_18395" d="M1981.294 668.071c.082.17.2.474.3.76v-.231c.005-.569 2.13-3.666 3-3.86s2.106 2.707 1.015 4.311c-.56.824-1.93 3.644-1.93 3.644l-2.264-1.169s-.131-1.02-.452-1.277-.264-1.842-.355-2.5c0 0 .376-.3.679.327" class="cls-7" transform="translate(1916.949 10937.493)"/>
            <path id="Path_18396" d="M1753.826 806.149c-.029.008 2.42 1.781 4.5 1.532 1.954-.233 3.542-2.485 3.517-2.494-.771-.276-.838-1.4-.123-6.1l-.37.017-6.222.3s-.145 1.922-.408 3.715c-.22 1.505-.523 2.918-.891 3.028" class="cls-7" transform="translate(2108.521 10823.997)"/>
            <path id="Path_18397" fill="#ed975d" d="M1759.976 799.5s-.145 1.922-.408 3.715c3.4.408 5.643-2.412 6.63-4.013z" transform="translate(2103.67 10823.902)"/>
            <path id="Path_18398" d="M1755.012 724.649a17.964 17.964 0 0 0 2.971-4.868c.558-1.664.63-8.131-5.874-8.165a8.749 8.749 0 0 0-3.79.823c-1.521.728-3.817 2.447-2.408 8.309l.3 1.954z" class="cls-3" transform="translate(2115.578 10897.892)"/>
            <path id="Path_18399" d="M1703.57 870.788s6.1 3.851 16.268 1.377c.12-.029 5.78-.932 5.78-.932-.142-.388-6.089-10.215-6.229-10.572-1.8-4.654 2.373-26.873-.381-28.119-.7.766-2.713 1.29-4.433 1.137-1.981-.175-2.644-1.031-2.479-1.951-2.192 1.036-3.876 2-3.876 2-2 3-4.65 37.06-4.65 37.06" class="cls-7" transform="translate(2150.973 10796.428)"/>
            <path id="Path_18400" d="M1744.81 739.127s7.982 1.322 8.729-3.661 2.28-8.169-2.785-9.224-6.343.7-7 2.3-1.005 10.113 1.052 10.585" class="cls-7" transform="translate(2117.455 10885.806)"/>
            <path id="Path_18401" d="M1768.225 719.6s1.321 6.174 4.555 7.539 4.826.681 4.826.681a9.627 9.627 0 0 1-2.277-6.089s-5.037-4.668-7.1-2.131" class="cls-3" transform="translate(2096.358 10891.785)"/>
            <path id="Path_18402" d="M1746.361 720.874a7.142 7.142 0 0 0-2.418 2.272c-.588 1.21-1.156 3.8-1.9 3.594 0 0-1.059-4.22 1.13-6.193 2.322-2.092 3.192.327 3.192.327" class="cls-3" transform="translate(2118.694 10891.064)"/>
            <path id="Path_18403" fill="#fec10d" d="M1667.974 659.483s-5.147 15.646-6.517 18.066c-.825 1.46-10.1 7.233-15.48 11.038a.916.916 0 0 0-.207.247.029.029 0 0 1-.006.008c-1.343 2.077-5.518 14.935-4.521 17.243 4.2 9.7 7.074 13.451 8.121 16.172a2.585 2.585 0 0 1-1.545 3.365 44.247 44.247 0 0 1-7.263 1.9q-.858.148-1.763.263c-8.272 1.05-13.873-.891-16.717-2.326a3.788 3.788 0 0 1-2.073-3.594c.171-3.069 1.706-6.106 2.4-13.485.524-5.6-4.307-14.12-4.1-17.1a9.962 9.962 0 0 1 1.51-3.5c.888-1.617 1.376-3.079.785-3.891-3.937-5.4-12.437-12.853-12.784-14.714-.508-2.734-.279-19.631-.279-19.631a5.1 5.1 0 0 1 1.427-.44 4.462 4.462 0 0 1 1.253.13s2.252 14 2.42 14.742 9.659 11.435 12.219 11.392c2.311-.039 5.569 1.746 6.077 2.089a24.56 24.56 0 0 0-2.592 8.641c-.361 3.473 1.959 1.929 3.416-.449a77.2 77.2 0 0 1 5.942-7.8 11.259 11.259 0 0 1 5.637.033c2.406.872 14.859-6.159 15.257-6.806s7.068-13.073 7.068-13.073a1.547 1.547 0 0 1 1.439.141 1.623 1.623 0 0 1 .881 1.349" transform="translate(2232.142 10950.705)"/>
            <path id="Path_18404" fill="#fff" d="M1753.107 791.581s-.342.689-.8.7a5.426 5.426 0 0 1-1.705-.217 6.6 6.6 0 0 1-.273-.839 7.758 7.758 0 0 1 2.779.354" transform="translate(2111.475 10830.645)"/>
            <path id="Path_18405" d="M1791.615 941.861a44.229 44.229 0 0 1-7.263 1.9c-2.854-3.935-7.685-8.886-6.442-17.993 1.285-9.414 10.539-19.321 11.651-20.687-1.343 2.077-5.519 14.935-4.521 17.243 4.2 9.7 7.074 13.451 8.121 16.172a2.586 2.586 0 0 1-1.545 3.365" class="cls-11" transform="translate(2088.346 10734.466)"/>
            <path id="Path_18406" d="M1621.6 797.005c.888-1.617 1.376-3.079.785-3.891-3.937-5.4-12.437-12.853-12.785-14.714.843 2.022 11.137 8.061 14.032 10.658 2.862 2.564-1.915 7.82-2.032 7.946" class="cls-11" transform="translate(2230.346 10841.475)"/>
        </g>
        <g id="Group_981" transform="translate(101 -3)">
            <path id="Path_18407" d="M571.1 418.381a9.706 9.706 0 0 1 1.722 5.657 8.789 8.789 0 0 1-2.282 4.59l3.148 1.679s2.335-4.144 1.548-7.607a8.854 8.854 0 0 0-2.177-3.515 3.023 3.023 0 0 0-1.958-.8" class="cls-12" transform="translate(3108.061 11145.588)"/>
            <path id="Path_18408" d="M521.856 396.213l-1.993-4.407s9.3.315 12.385 7.895c0 0-6.51-4.642-10.392-3.488" class="cls-13" transform="translate(3150.865 11168.036)"/>
        </g>
        <g id="Group_980" transform="translate(30 -10)">
            <path id="Path_18409" d="M277.624 1092.852a8.242 8.242 0 0 1-2.79-4.176 7.467 7.467 0 0 1 .728-4.292l-2.971-.592s-.88 3.943.61 6.564a7.521 7.521 0 0 0 2.633 2.323 2.568 2.568 0 0 0 1.79.173" class="cls-12" transform="translate(3359.957 10583.507)"/>
            <path id="Path_18410" d="M289.037 1128.953l2.7 3.093s-7.641 2.029-12.008-3.376c0 0 6.433 2.175 9.305.283" class="cls-13" transform="translate(3353.707 10545.598)"/>
        </g>
        <g id="Group_982" transform="translate(-69 13)">
            <path id="Path_18411" fill="#ff9252" d="M2496.151 1210.563s-.194-2.906 5.26-4.312c2.445-.63 7.889.49 4.438 5.846-3.589 5.571-6.79 3.56-6.79 3.56s7.486-5.86 4.491-8.539c-3.306-2.958-4.577 2.9-4.577 2.9a7.214 7.214 0 0 0-2.822.543" transform="translate(1481.47 10480.197)"/>
            <path id="Path_18412" d="M2500.89 1250.5a2.908 2.908 0 0 1-1.232-3.556l2.932.509s-1.127 2.654 1.631 2.975c0 0-2.654.63-3.331.073" class="cls-15" transform="translate(1478.667 10445.692)"/>
        </g>
        <g id="Group_983" transform="translate(-21 176)">
            <path id="Path_18413" d="M1273.316 241.377a5.447 5.447 0 0 1 7.722-1.281l2.847-2.722s-2.66-2.019-8.794 1.6c-4.014 2.369-1.775 2.4-1.775 2.4" class="cls-12" transform="translate(2514.94 11298.962)"/>
            <path id="Path_18414" d="M1257.28 249.41s-.6-5.039 7.831-8.182c0 0-3.048 1.478-3.989 6.5z" class="cls-16" transform="translate(2527.968 11295.231)"/>
        </g>
        <path id="Path_18415" d="M1475.542 102.918s2.492-1.574 2.755-3.476c0 0 2.427.131 2.952.918 0 0-1.115 3.148-2.427 3.739 0 0-2.952.2-3.28-1.181" class="cls-15" transform="translate(2190.591 11491)"/>
        <path id="Path_18416" d="M925.9 1258.295s-2.659-1.679-2.939-3.709c0 0-2.589.14-3.149.98 0 0 1.19 3.359 2.589 3.988 0 0 3.149.21 3.5-1.26" class="cls-15" transform="translate(2845.022 10411.234)"/>
        <path id="Path_18417" d="M1661.861 420.951s2.671-1.687 2.952-3.725c0 0 2.6.141 3.163.984 0 0-1.195 3.373-2.6 4.006 0 0-3.163.211-3.514-1.265" class="cls-16" transform="translate(2164.205 11177.563)"/>
        <path id="Path_18418" fill="#d6e2eb" d="M327.176 1644.576H.4a.478.478 0 0 1-.4-.526v-.28a.478.478 0 0 1 .4-.526h326.776a.478.478 0 0 1 .4.526v.28a.478.478 0 0 1-.4.526" transform="translate(3606.5 10110.93)"/>
        <g id="Group_978" transform="translate(3678.207 11574.896)">
            <g id="Group_977" clip-path="url(#clip-path)">
                <path id="Path_18375" d="M279.032 967.677c1.226 2.856 4.774 10.8 7.149 12.865 0 0 1.634-1.107.771-4.838s2.03-11.985.476-13.048-4.647.268-4.647.268l-3.355 2.986a1.547 1.547 0 0 0-.394 1.767" class="cls-19" transform="translate(-232.357 -801.412)"/>
                <path id="Path_18376" d="M1.668 748.811C1.049 751.823-.562 760.283.2 763.3c0 0 1.952.027 3.359-3.489s8.42-8.575 7.759-10.319-3.18-2.218-3.18-2.218l-5.152.323a1.528 1.528 0 0 0-1.318 1.211" class="cls-19" transform="translate(0 -622.375)"/>
                <path id="Path_18377" d="M316.149 495.966s2.164 40.795.023 50.681-14.836 31.422-14.836 31.422-4.849-.216-6.425-3.345c0 0 2.344-13.176 4.979-22.519 1.424-5.048 3.933-7.606 3.187-10.118-.7-2.347-8.9-32.576-8.9-32.576z" class="cls-12" transform="translate(-245.078 -413.069)"/>
                <path id="Path_18378" d="M108.392 468.964s-20.8 55.2-25.274 58.548-22.109.056-37.133-4.069c0 0-1.62-.99-1.62-4.521a33.5 33.5 0 0 1 .538-3.9s17.83-.77 26.315.136c2 .213 3.073-13.813 5.255-26.077 2.025-11.378 2.177-14.2 7.059-18.085s24.86-2.027 24.86-2.027" class="cls-12" transform="translate(-36.961 -390.211)"/>
                <path id="Path_18379" d="M467.57 8.476s-2.116-1.382-2.484-2.211-1.84-2.349-1.334-2.625 1.472.967 2.07.829S466.926.048 467.57 0a2.48 2.48 0 0 1 2.3 2.349c0 1.612-.506 5.757 0 6.54s-2.3-.415-2.3-.415" class="cls-20" transform="translate(-386.265)"/>
                <path id="Path_18380" d="M115.137 34.749a20.5 20.5 0 0 0-.018-3.155c-.16-.893.207-2.978-.367-2.923s-.676 1.627-1.249 1.849-3.391-3.04-3.949-2.717a2.484 2.484 0 0 0-.588 3.237c.9 1.334 3.644 4.482 3.663 5.414s2.507-1.705 2.507-1.705" class="cls-20" transform="translate(-90.467 -23.137)"/>
                <path id="Path_18381" d="M336.265 208.032a7.716 7.716 0 0 1-5.332.719 11.055 11.055 0 0 1-3.613-1.527 10.664 10.664 0 0 1-1.457-1.1s.064-.093.171-.274c.558-.956 2.251-4.394 1.5-9.918a3.913 3.913 0 0 1 1.362.226c2.456.582 7.394 1.985 7.612 2.047h.008s.061 1.162.264 3.244l.055.574c.025.244.051.5.081.769a17.245 17.245 0 0 1-.649 5.239" class="cls-20" transform="translate(-271.477 -163.164)"/>
                <path id="Path_18382" d="M332.059 132.767a18.625 18.625 0 0 1-3.43.8c-2.811.38-6.507.156-7.668-3.25-1.956-5.733-4.454-9.17 1.3-11.511 3.081-1.253 5.052-1.32 6.391-.841a4.63 4.63 0 0 1 2.368 2.053c1.118 1.755 3.366 11.745 1.038 12.748" class="cls-20" transform="translate(-265.512 -98.02)"/>
                <path id="Path_18383" d="M312.093 96.618c-3.332 2.4-7.942.04-9.375.679s-1.689 3.041-1.714 3.8-.126 1.409-2.07.952a.944.944 0 0 0-.706.042c-.806.479.224 2.8.535 3.3 0 0 .447 1.663-.545 2.473-.12.1-2.07.95-6.768-6.251a6.7 6.7 0 0 1-.3-6.129c1.139-2.452 5.9-4.822 9.939-6.078a5.4 5.4 0 0 1 3.513-.131c1.464.536 2.245 1.921 3.019 3.313 1.3 2.338 4.476 4.021 4.476 4.021" class="cls-19" transform="translate(-242.054 -74.166)"/>
                <path id="Path_18384" fill="#282c47" d="M193.521 65.787c.075-4.512-1.518-16.962-2.37-17.157l-4.45-.671s-1.166 10.311-1.868 14.841a25.365 25.365 0 0 1-12.682 18.086c-4.144 2.332-9.725-.818-9.725-.818-.128.022-.251.05-.373.077-3.211-.872-9.682-6.4-16.681-14.067-4.949-5.423-10.509-13.141-13.835-15.645 0 0-3.363 2.346-3.331 2.436 2.489 7.083 8.9 19.821 8.9 19.823.01.051 13.5 19.893 13.5 19.894 1.229 1.354 2.473 17.694-3.768 33.871-2.372 6.15 24.042 12.909 36.044 8.856 0 0 .485-15.9-.1-43.329 10.607-10.616 10.623-18.833 10.745-26.193" transform="translate(-106.807 -39.943)"/>
                <path id="Path_18385" fill="#0b717c" d="M332.9 609.7c-.188-.686 7.4-27.639 7.4-27.639l-8.962 21.944z" transform="translate(-276.042 -484.776)"/>
            </g>
        </g>
    </g>
</svg>
