<svg xmlns="http://www.w3.org/2000/svg" width="30" height="30" viewBox="0 0 30 30">
    <defs>
        <style>
            .cls-1{fill:#ffcb33}.cls-3{fill:#01c5c7}
        </style>
    </defs>
    <g id="earth" transform="translate(-11 -10.998)">
        <path id="Path_877" d="M356.016 78.346a15 15 0 0 1-.564 4.088l-.43.043c-.035 0-.07.006-.1.007l-.364.017a2.521 2.521 0 0 0-2.207 1.513l-.093.212a1.989 1.989 0 0 1-1.821 1.19h-1.547a.716.716 0 0 1-.715-.647l-.062-.618a2.507 2.507 0 0 0-1.142-1.869.884.884 0 0 1-.406-.745v-.62a1.214 1.214 0 0 1 .41-.909l2.642-2.334a2.6 2.6 0 0 0 .766-2.7 2.654 2.654 0 0 0-2.214-1.863l-.267-.033a1.3 1.3 0 0 1-.822-.435.737.737 0 0 1-.09-.846l.553-.947a19.082 19.082 0 0 1 2.406-3.257l.6-.833a14.967 14.967 0 0 1 5.467 11.586z" class="cls-1" transform="translate(-315.016 -52.348)"/>
        <path id="Path_878" fill="#1997a5" d="M40.006 30.129l.43-.043A15 15 0 0 1 11 26q0-.708.064-1.4l.181.017.2-.04a2.373 2.373 0 0 1 2.508 1.139 2.407 2.407 0 0 0 .431.541l1.067 1a1.6 1.6 0 0 0 .675.378l.124.034a2.169 2.169 0 0 1 1.514 1.507l.571 2.063a2.028 2.028 0 0 0 .34.684l1.738 2.277a2.193 2.193 0 0 1 .419.967l.471 2.825a.415.415 0 0 0 .146.259.4.4 0 0 0 .407.057.8.8 0 0 0 .486-.663A2.866 2.866 0 0 1 23 36.074l.5-.6a1.046 1.046 0 0 0 .2-.363l.516-1.673a2.494 2.494 0 0 1 .864-1.244l1.534-1.178a.548.548 0 0 0 .212-.342.52.52 0 0 0-.118-.424l-1.021-1.2c-.061-.072-.119-.146-.174-.223l-.781-1.088a2.259 2.259 0 0 0-1.864-.982.4.4 0 0 1-.212-.056l-1.6-.958a1.553 1.553 0 0 0-1.525-.037l-.841.451a1.653 1.653 0 0 1-2.177-.572l-.813-1.294a1.777 1.777 0 0 1 .03-1.946 2 2 0 0 1 1.917-.866l1.225.156a1.1 1.1 0 0 0 1.095-.525 1.935 1.935 0 0 1 1.919-.947l.536.069a1.09 1.09 0 0 0 1-.414l.472-.612a1.594 1.594 0 0 0 .048-1.888l-1.018-1.468a4.7 4.7 0 0 0-1.49-1.381 4.684 4.684 0 0 1-.449-.3l-.858-.644-1.086-.818a15.009 15.009 0 0 1 16.487 1.7l-.6.833a19.081 19.081 0 0 0-2.405 3.26l-.553.947a.737.737 0 0 0 .09.846 1.3 1.3 0 0 0 .822.435l.267.033a2.654 2.654 0 0 1 2.214 1.863 2.6 2.6 0 0 1-.766 2.7l-2.642 2.336a1.214 1.214 0 0 0-.41.909v.62a.884.884 0 0 0 .406.745 2.507 2.507 0 0 1 1.142 1.866l.062.618a.716.716 0 0 0 .715.647h1.547a1.989 1.989 0 0 0 1.821-1.189l.093-.212a2.521 2.521 0 0 1 2.207-1.513l.364-.017c.033.001.069-.002.104-.005z"/>
        <path id="Path_879" d="M27.7 56.46a.52.52 0 0 1 .118.424.548.548 0 0 1-.212.342L26.067 58.4a2.494 2.494 0 0 0-.864 1.244l-.516 1.673a1.046 1.046 0 0 1-.2.363l-.5.6a2.866 2.866 0 0 0-.662 1.567.8.8 0 0 1-.486.663.4.4 0 0 1-.407-.057.416.416 0 0 1-.146-.259l-.471-2.825a2.193 2.193 0 0 0-.419-.967l-1.732-2.271a2.028 2.028 0 0 1-.34-.684l-.571-2.063a2.169 2.169 0 0 0-1.514-1.507l-.124-.034a1.6 1.6 0 0 1-.675-.378l-1.067-1a2.407 2.407 0 0 1-.431-.541 2.373 2.373 0 0 0-2.508-1.139l-.2.04-.181-.017a15.005 15.005 0 0 1 7.973-11.888l1.086.818.858.644a4.684 4.684 0 0 0 .449.3 4.7 4.7 0 0 1 1.49 1.381l1.018 1.468a1.594 1.594 0 0 1-.048 1.888l-.472.612a1.09 1.09 0 0 1-1 .414l-.536-.069a1.935 1.935 0 0 0-1.919.947 1.1 1.1 0 0 1-1.095.525l-1.225-.156a2 2 0 0 0-1.917.866 1.777 1.777 0 0 0-.03 1.946l.817 1.289a1.653 1.653 0 0 0 2.177.572l.841-.451a1.553 1.553 0 0 1 1.525.037l1.6.958a.4.4 0 0 0 .212.056 2.259 2.259 0 0 1 1.864.982l.781 1.088c.054.077.113.151.174.223z" class="cls-1" transform="translate(-.986 -26.213)"/>
        <path id="Path_880" d="M149.28 11a14.933 14.933 0 0 0-6.96 1.709l1.086.818.858.644a4.688 4.688 0 0 0 .438.291l.067-.039a15.021 15.021 0 0 1 14 .043l.038-.053A14.931 14.931 0 0 0 149.28 11z" class="cls-3" transform="translate(-123.28 -.002)"/>
        <path id="Path_881" d="M13.449 235.215q0-.708.064-1.4l.141-1.011a2.367 2.367 0 0 0-2.2-.727l-.2.04-.181-.017q-.063.692-.064 1.4a14.994 14.994 0 0 0 7.673 13.09 14.965 14.965 0 0 1-5.233-11.375z" class="cls-3" transform="translate(0 -207.503)"/>
        <path id="Path_882" fill="#ffda6e" d="M14.629 51.5A15.015 15.015 0 0 1 22.4 40.672a4.7 4.7 0 0 1-.435-.289l-.858-.644-1.086-.818a15.005 15.005 0 0 0-7.971 11.89l.181.017.2-.04a2.367 2.367 0 0 1 2.198.712z" transform="translate(-.986 -26.213)"/>
    </g>
</svg>
