<svg xmlns="http://www.w3.org/2000/svg" width="20.015" height="18.624" viewBox="0 0 20.015 18.624">
    <g>
        <path fill="#e4e3e5" d="M20.015 1.692c0 .935-4.481 1.692-10.008 1.692S0 2.627 0 1.692 4.481 0 10.007 0s10.008.758 10.008 1.692" transform="translate(-27 -814) translate(27 829.239)"/>
        <g fill="#fff" stroke="#414042" stroke-width="0.7px" transform="translate(-27 -814) translate(29 814)">
            <circle cx="8" cy="8" r="8" stroke="none"/>
            <circle cx="8" cy="8" r="7.65" fill="none"/>
        </g>
        <path fill="#9a9eb4" d="M.36-7.29H4.9v.009a7.044 7.044 0 0 1-.453.661H3.236a1.585 1.585 0 0 1 .34.713h1.293q.024 0 .024.019-.434.652-.444.652h-.84a1.928 1.928 0 0 1-.321.807 1.973 1.973 0 0 1-.741.619 2.931 2.931 0 0 1-1.265.316v.009a1.75 1.75 0 0 0 .3.392L3.821-.387v.127q0 .019-.024.019h-.986Q.148-3.343.148-3.357v-.628l.009-.024a4.037 4.037 0 0 0 .552.033q1.492 0 1.856-.968a.781.781 0 0 0 .057-.293h-2.7A.017.017 0 0 1-.1-5.255q.449-.652.458-.652H2.5v-.009a1.257 1.257 0 0 0-.709-.584 2.225 2.225 0 0 0-.68-.123h-1.2v-.024Q.346-7.29.36-7.29z" transform="translate(-27 -814) translate(35.098 825.29)"/>
    </g>
</svg>
