<svg xmlns="http://www.w3.org/2000/svg" width="38.3" height="38.301" viewBox="0 0 38.3 38.301">
    <defs>
        <style>
            .cls-2{fill:#0b7480}.cls-3{fill:#fec9a3}.cls-4{fill:#feb784}.cls-5{fill:#fec093}.cls-6{fill:#1a1a1b}.cls-7{fill:#3a3a3b}.cls-8{fill:#f7a468}.cls-10{fill:#efb200}
        </style>
    </defs>
    <g id="Flat" transform="translate(-24 -23.998)">
        <path id="Path_18949" fill="#168794" d="M51.074 275.962l-3.962 4.622-1.321-1.321v10.566H29.283v-9.245H24v-4.306a3.962 3.962 0 0 1 3.6-3.946l3.664-.332h10.565l4.1.456a5.284 5.284 0 0 1 3.152 1.515z" transform="translate(0 -227.531)"/>
        <path id="Path_18950" d="M109.792 282.348l-3.962 4.622-1.321-1.321v10.566H88v-5.639a29.941 29.941 0 0 0 17.319-11.616 5.287 5.287 0 0 1 2.48 1.4z" class="cls-2" transform="translate(-58.717 -233.917)"/>
        <path id="Path_18951" d="M24 376h5.283v9.245H24z" class="cls-3" transform="translate(0 -322.947)"/>
        <path id="Path_18952" d="M304 324.622l5.943 6.6 4.622-3.962-6.6-7.264z" class="cls-4" transform="translate(-256.888 -271.569)"/>
        <path id="Path_18953" d="M280 344h1.321v11.886H280z" class="cls-2" transform="translate(-234.869 -293.588)"/>
        <path id="Path_18954" d="M80 344h1.321v11.886H80z" class="cls-2" transform="translate(-51.378 -293.588)"/>
        <path id="Path_18955" d="M122.566 213.283l-.232.813a5.253 5.253 0 0 1-10.1 0l-.232-.813 1.078-.359a1.322 1.322 0 0 0 .9-1.253V208h6.6v3.671a1.322 1.322 0 0 0 .9 1.253z" class="cls-3" transform="translate(-80.736 -168.814)"/>
        <g id="Group_8896" transform="translate(27.962 31.922)">
            <path id="Path_18956" d="M142.6 208v3.645a6.066 6.066 0 0 1-6.459.091l-.144-.091V208z" class="cls-4" transform="translate(-130.717 -200.736)"/>
            <path id="Path_18957" d="M248 120h.736a1.906 1.906 0 0 1 1.906 1.906v.151a1.906 1.906 0 0 1-1.906 1.906H248z" class="cls-4" transform="translate(-233.472 -120)"/>
            <path id="Path_18958" d="M74.6 120h-.651a1.981 1.981 0 0 0 0 3.962h.69z" class="cls-4" transform="translate(-72 -120)"/>
        </g>
        <path id="Path_18959" d="M109.207 30.654v2.6a16.012 16.012 0 0 1-.809 5.026 6.145 6.145 0 0 1-2.223 3.047 6.068 6.068 0 0 1-6.729.276 6.14 6.14 0 0 1-2.637-3.323A16.033 16.033 0 0 1 96 33.253v-2.6a6.653 6.653 0 0 1 4.656-6.362 6.575 6.575 0 0 1 6.617 1.656 6.664 6.664 0 0 1 1.934 4.707z" class="cls-3" transform="translate(-66.057)"/>
        <path id="Path_18960" d="M147.511 30.658v2.6a16.012 16.012 0 0 1-.809 5.026 6.145 6.145 0 0 1-2.223 3.047 6.068 6.068 0 0 1-6.729.276 7.3 7.3 0 0 0 6.057-7.192V31.17a7.3 7.3 0 0 0-4.846-6.874 6.575 6.575 0 0 1 6.616 1.656 6.664 6.664 0 0 1 1.934 4.707z" class="cls-5" transform="translate(-104.361 -.003)"/>
        <path id="Path_18961" d="M200.991 120a.991.991 0 1 0 .991.991.991.991 0 0 0-.991-.991z" class="cls-6" transform="translate(-161.472 -88.078)"/>
        <path id="Path_18962" d="M128.991 120a.991.991 0 1 0 .991.991.991.991 0 0 0-.991-.991z" class="cls-6" transform="translate(-95.415 -88.078)"/>
        <path id="Path_18963" d="M211.963 39.264v-2.906A4.175 4.175 0 0 0 208 32l.139.46a17.764 17.764 0 0 0 3.823 6.8z" class="cls-6" transform="translate(-168.812 -7.342)"/>
        <path id="Path_18964" d="M96 39.264v-2.906A4.174 4.174 0 0 1 99.962 32l-.139.46A17.764 17.764 0 0 1 96 39.264z" class="cls-7" transform="translate(-66.057 -7.342)"/>
        <path id="Path_18965" d="M104.848 27.962h-7.71A3.01 3.01 0 0 1 94.283 24h7.724a2.841 2.841 0 0 1 2.841 2.841z" class="cls-7" transform="translate(-64.34 -.002)"/>
        <path id="Path_18966" d="M152.605 170.545H152v-1.321h.605a8.136 8.136 0 0 0 3.1-.61l.508 1.219a9.468 9.468 0 0 1-3.608.712z" class="cls-8" transform="translate(-117.434 -132.68)"/>
        <path id="Path_18967" d="M342.6 315.962v3.962H336v-3.962a.66.66 0 0 0 .66-.66V312h5.283v3.3a.66.66 0 0 0 .657.662z" class="cls-3" transform="translate(-286.246 -264.229)"/>
        <path id="Path_18968" fill="#fec10d" d="M282.49 363.024v7.541H264v-7.541a2.641 2.641 0 0 1 2.35-2.625l3.594-.4a3.3 3.3 0 0 0 6.6 0l3.593.4a2.644 2.644 0 0 1 2.353 2.625z" transform="translate(-220.189 -308.267)"/>
        <path id="Path_18969" d="M349.283 312v2.6a5.291 5.291 0 0 1-5.283 0V312z" class="cls-4" transform="translate(-293.586 -264.229)"/>
        <path id="Path_18970" d="M282.49 373.915v7.541H264v-.31c6.6-.795 13.166-3.423 17.519-9.275a2.634 2.634 0 0 1 .971 2.044z" class="cls-10" transform="translate(-220.189 -319.157)"/>
        <path id="Path_18971" d="M440 440h3.962v3.962H440z" class="cls-3" transform="translate(-381.662 -381.664)"/>
        <path id="Path_18972" d="M264 440h3.962v3.962H264z" class="cls-3" transform="translate(-220.189 -381.664)"/>
        <path id="Path_18973" d="M432.991 243.3H432V240h.991a1.651 1.651 0 0 1 0 3.3z" class="cls-4" transform="translate(-374.322 -198.173)"/>
        <path id="Path_18974" d="M289.651 240h.991v3.3h-.991a1.651 1.651 0 0 1 0-3.3z" class="cls-4" transform="translate(-242.208 -198.173)"/>
        <path id="Path_18975" d="M322.566 181.283v2.641a5.283 5.283 0 0 1-5.283 5.283 5.406 5.406 0 0 1-.669-.041 5.284 5.284 0 0 1-4.614-5.242v-2.641a5.283 5.283 0 0 1 5.283-5.283c.116 0 .232 0 .346.012a5.281 5.281 0 0 1 4.937 5.271z" class="cls-3" transform="translate(-264.227 -139.455)"/>
        <path id="Path_18976" d="M373.846 181.411v2.641a5.283 5.283 0 0 1-5.283 5.283 5.409 5.409 0 0 1-.669-.041 6.8 6.8 0 0 0 2.817-5.515v-3.026a6.781 6.781 0 0 0-1.8-4.613 5.281 5.281 0 0 1 4.935 5.271z" class="cls-5" transform="translate(-315.508 -139.584)"/>
        <path id="Path_18977" d="M392.991 240a.991.991 0 1 0 .991.991.991.991 0 0 0-.991-.991z" class="cls-6" transform="translate(-337.624 -198.173)"/>
        <path id="Path_18978" d="M336.991 240a.991.991 0 1 0 .991.991.991.991 0 0 0-.991-.991z" class="cls-6" transform="translate(-286.246 -198.173)"/>
        <path id="Path_18979" d="M360.4 273.776h-.4v1.324h.4a4.888 4.888 0 0 0 2.588-.761l-.7-1.12a3.571 3.571 0 0 1-1.888.557z" class="cls-8" transform="translate(-308.265 -228.647)"/>
        <path id="Path_18980" d="M403.3 181.283a5.252 5.252 0 0 1-3.3-4.877V176a3.3 3.3 0 0 1 3.3 3.3z" class="cls-6" transform="translate(-344.964 -139.455)"/>
        <path id="Path_18981" fill="#2b2a2c" d="M312 181.283a5.252 5.252 0 0 0 3.3-4.877V176a3.3 3.3 0 0 0-3.3 3.3z" transform="translate(-264.227 -139.455)"/>
        <path id="Path_18982" d="M322.483 171.3h-7.842a2.641 2.641 0 0 1-2.641-2.64V168h7.181a3.316 3.316 0 0 1 3.318 3.3z" class="cls-7" transform="translate(-264.227 -132.116)"/>
        <path id="Path_18983" d="M304 416h1.321v5.943H304z" class="cls-10" transform="translate(-256.888 -359.645)"/>
        <path id="Path_18984" d="M432 416h1.321v5.943H432z" class="cls-10" transform="translate(-374.322 -359.645)"/>
        <path id="Path_18985" d="M429.283 347.962H424v-2.641a1.321 1.321 0 0 1 1.321-1.321h2.641a1.321 1.321 0 0 1 1.321 1.321z" class="cls-3" transform="translate(-366.982 -293.588)"/>
    </g>
</svg>
