<svg xmlns="http://www.w3.org/2000/svg" width="20" height="17.529" viewBox="0 0 20 17.529">
    <defs>
        <style>
            .cls-1{fill:#282c47}
        </style>
    </defs>
    <g id="gallery" transform="translate(0 -26.576)">
        <g id="Group_8815" transform="translate(0 26.576)">
            <g id="Group_8814">
                <path id="Path_18778" d="M176.029 159.668a2.04 2.04 0 1 0 2.04 2.04 2.04 2.04 0 0 0-2.04-2.04zm0 3.109a1.069 1.069 0 0 1 0-2.137 1.069 1.069 0 1 1 0 2.137z" class="cls-1" transform="translate(-165.901 -153.481)"/>
                <path id="Path_18779" d="M18.264 28.1L5 26.594a1.821 1.821 0 0 0-1.433.413 1.846 1.846 0 0 0-.7 1.263l-.243 1.992h-.753A1.952 1.952 0 0 0 0 32.277v9.933a1.846 1.846 0 0 0 1.8 1.89h13.4a1.994 1.994 0 0 0 2.04-1.894v-.389a2.429 2.429 0 0 0 .923-.389 2.016 2.016 0 0 0 .7-1.311l1.117-9.86a1.967 1.967 0 0 0-1.716-2.157zm-1.991 14.11a1.023 1.023 0 0 1-1.069.923H1.871a.874.874 0 0 1-.9-.848V40.41l3.764-2.769a1.166 1.166 0 0 1 1.506.073l2.649 2.335a2.283 2.283 0 0 0 1.433.534 2.21 2.21 0 0 0 1.166-.316l4.784-2.767v4.71zm0-5.853l-5.295 3.084a1.239 1.239 0 0 1-1.433-.121l-2.671-2.356a2.162 2.162 0 0 0-2.7-.1L.972 39.2v-6.923a.98.98 0 0 1 .9-1.044H15.2a1.117 1.117 0 0 1 1.069 1.044zm2.745-6.227v.01L17.876 40a.826.826 0 0 1-.316.656c-.1.1-.316.146-.316.194v-8.573a2.089 2.089 0 0 0-2.04-2.016H3.6l.219-1.894a1.117 1.117 0 0 1 .364-.631 1.117 1.117 0 0 1 .729-.194l13.236 1.53a.971.971 0 0 1 .87 1.058z" class="cls-1" transform="translate(0 -26.576)"/>
            </g>
        </g>
    </g>
</svg>
