<svg xmlns="http://www.w3.org/2000/svg" width="18.035" height="16.484" viewBox="0 0 18.035 16.484">
    <defs>
        <clipPath id="clip-path">
            <path id="Clip_2" d="M0 0h8.288v11.833H0z" class="cls-1" transform="translate(.274 .568)"/>
        </clipPath>
        <style>
            .cls-1{fill:none}
        </style>
    </defs>
    <g id="gender-icon" transform="translate(0 -.948)">
        <g id="Group_3" transform="translate(9.474 .379)">
            <path id="Clip_2-2" d="M0 0h8.288v11.833H0z" class="cls-1" transform="translate(.274 .568)"/>
            <g id="Group_3-2" clip-path="url(#clip-path)">
                <path id="Fill_1" fill="rgba(56,85,114,0.5)" d="M2.37 11.834A5.124 5.124 0 0 1 0 11.249a6.627 6.627 0 0 0 .665-.782 4.033 4.033 0 0 0 1.705.384 4.159 4.159 0 1 0 0-8.319 4.027 4.027 0 0 0-1.705.385A6.551 6.551 0 0 0 0 2.135a5.1 5.1 0 0 1 5 .148l.2.117L6.876.718 6.157 0h2.131v2.13l-.719-.718-1.6 1.6.185.2a5.135 5.135 0 0 1-3.78 8.618" transform="translate(.274 .568)"/>
            </g>
        </g>
        <path id="Fill_4" fill="#363954" d="M5.633 14.935H4.65v-1.551H3.1V12.4h1.55v-2.141l-.243-.035a5.138 5.138 0 1 1 1.469 0l-.243.035V12.4h1.55v.982h-1.55v1.55zM5.142.983A4.159 4.159 0 1 0 9.3 5.143 4.165 4.165 0 0 0 5.142.983z" transform="translate(0 2.498)"/>
    </g>
</svg>
