<svg xmlns="http://www.w3.org/2000/svg" width="18.815" height="17.156" viewBox="0 0 18.815 17.156">
    <path fill="#282c47" stroke="#282c47" stroke-width="0.2px" d="M14.242 20.171a1.544 1.544 0 0 1-.71 1.159c-.114.1-.325.269-.324.334a.454.454 0 0 1-.458.458.456.456 0 0 1-.461-.451 1.382 1.382 0 0 1 .654-1.045c.23-.193.381-.329.381-.453a.457.457 0 0 0-.913 0 .462.462 0 0 1-.923 0 1.38 1.38 0 0 1 2.759 0zm-1.484 2.377a.453.453 0 0 0-.451.462.451.451 0 0 0 .451.46.462.462 0 0 0 0-.925zm-9.3 3.215a.462.462 0 1 0 0 .923h.038a.462.462 0 1 0 0-.923zm1.6 0a.462.462 0 1 0 0 .923H5.1a.462.462 0 1 0 0-.923zm13.555-7.372v5.195a2.219 2.219 0 0 1-2.213 2.229H9.903c-.039.026-.133.112-.225.2l-.121.11-1.693 1.539a.472.472 0 0 1-.787-.341V22.43H2.242a1.322 1.322 0 0 0-1.319 1.312v5.195a1.3 1.3 0 0 0 1.319 1.288h6.686a.463.463 0 0 1 .308.131l1.38 1.272v-4.387a.462.462 0 0 1 .923 0v5.433a.455.455 0 0 1-.272.42.443.443 0 0 1-.183.037.466.466 0 0 1-.312-.131l-2.023-1.852H2.242A2.226 2.226 0 0 1 0 28.937v-5.195a2.247 2.247 0 0 1 2.242-2.235h4.835v-3.115a2.239 2.239 0 0 1 2.25-2.218H16.4a2.21 2.21 0 0 1 2.215 2.218zm-.923 0A1.286 1.286 0 0 0 16.4 17.1H9.327A1.315 1.315 0 0 0 8 18.392v7.885l.928-.839c.043-.039.091-.075.126-.108a1.165 1.165 0 0 1 1.085-.441H16.4a1.3 1.3 0 0 0 1.293-1.305z" transform="translate(.1 -16.074)"/>
</svg>
