<svg xmlns="http://www.w3.org/2000/svg" width="45" height="42.256" viewBox="0 0 45 42.256">
    <defs>
        <style>
            .cls-4{fill:#fec10d}.cls-8{fill:#ffcbbe}.cls-9{fill:#ffddce}.cls-10{fill:#fff}
        </style>
    </defs>
    <g id="immigration" transform="translate(-16 -30.637)">
        <path id="Path_18982" fill="#00b3b5" d="M37.191 372.464a4.088 4.088 0 0 0-2.179-2.843l-4.778-2.04v-.125a8.51 8.51 0 0 1-7.208 0v.125l-4.778 2.04A4.089 4.089 0 0 0 16 372.94v5.2h21.26v-5.2a3.792 3.792 0 0 0-.069-.476z" transform="translate(0 -305.242)"/>
        <path id="Path_18983" fill="#16a1b1" d="M21.06 369.62l3.689-1.575a8.5 8.5 0 0 1-1.723-.59v.125l-4.778 2.04A4.089 4.089 0 0 0 16 372.939v5.2h2.813v-5.2a4.089 4.089 0 0 1 2.247-3.319z" transform="translate(0 -305.241)"/>
        <path id="Path_18984" fill="#282c47" d="M213.215 49.047h-25.309a1.875 1.875 0 0 0-1.875 1.875v5.309a7.744 7.744 0 0 1 2.134 5.348v2.967h.184a1.469 1.469 0 0 1 1.314 1.119 1.953 1.953 0 0 1-1.557 2.389v.964a7.583 7.583 0 0 1-2.076 5.223v5.511l3.071 1.311a4.087 4.087 0 0 1 2.179 2.843h21.934a1.874 1.874 0 0 0 1.875-1.875V50.922a1.875 1.875 0 0 0-1.874-1.875z" transform="translate(-154.09 -16.684)"/>
        <circle id="Ellipse_532" cx="5.625" cy="5.625" r="5.625" class="cls-4" transform="translate(35.863 38.257)"/>
        <path id="Path_18985" fill="#e09200" d="M229.711 117.539a5.627 5.627 0 0 1 4.687-5.546 5.625 5.625 0 1 0 0 11.091 5.626 5.626 0 0 1-4.687-5.545z" transform="translate(-191.974 -73.658)"/>
        <path id="Path_18986" fill="#3a3a3b" d="M58.616 110.592v.086s-6.638 1.17-11.09-2.8a23.427 23.427 0 0 1-2.749.069l-.207 3.4a.157.157 0 0 1-.229.128l-.919-.472a.636.636 0 0 1-.343-.52v-2.862a7.768 7.768 0 1 1 15.536 0z" transform="translate(-24.541 -62.731)"/>
        <path id="Path_18987" fill="#0f0f12" d="M47.23 102.132a7.744 7.744 0 0 1 4.562-2.218 7.847 7.847 0 0 0-.944-.057 7.768 7.768 0 0 0-7.768 7.768v2.862a.636.636 0 0 0 .343.52l.919.472a.157.157 0 0 0 .229-.128s-.404-6.151 2.659-9.219z" transform="translate(-24.541 -62.731)"/>
        <path id="Path_18988" d="M98.148 332.247v3.3a8.511 8.511 0 0 1-7.208 0v-3.055a7.621 7.621 0 0 0 7.208-.245z" class="cls-8" transform="translate(-67.914 -273.334)"/>
        <path id="Path_18989" d="M92.815 337.922v-2.416a7.566 7.566 0 0 1-1.875-.64v3.055a8.509 8.509 0 0 0 4.542.749 8.5 8.5 0 0 1-2.667-.748z" class="cls-9" transform="translate(-67.914 -275.708)"/>
        <path id="Path_18990" d="M41.6 199.219a7.612 7.612 0 0 1-11.445-6.579v-.964a1.957 1.957 0 0 1-1.558-2.389 1.47 1.47 0 0 1 1.315-1.119h.008a.635.635 0 0 0 .327.417l.919.472a.157.157 0 0 0 .229-.128l.207-3.4a23.426 23.426 0 0 0 2.749-.069c4.451 3.967 11.09 2.8 11.09 2.8v-.086h.184a1.469 1.469 0 0 1 1.314 1.119 1.953 1.953 0 0 1-1.557 2.389v.964a7.583 7.583 0 0 1-2.076 5.223c-.05.054-.1.108-.155.16a7.619 7.619 0 0 1-1.551 1.19z" class="cls-9" transform="translate(-11.364 -140.306)"/>
        <path id="Path_18991" d="M36.257 225.648a7.613 7.613 0 0 1-4.237-6.825v-.964a1.957 1.957 0 0 1-1.558-2.389 1.478 1.478 0 0 1 .213-.48l-.437-.224a.635.635 0 0 1-.327-.417h-.008a1.47 1.47 0 0 0-1.315 1.119 1.954 1.954 0 0 0 1.558 2.389v.964a7.61 7.61 0 0 0 7.613 7.613 7.69 7.69 0 0 0 .936-.058 7.568 7.568 0 0 1-2.438-.728z" class="cls-8" transform="translate(-11.357 -166.49)"/>
        <g id="Group_8910" transform="translate(36.926 39.071)">
            <path id="Path_18992" d="M401.393 222.811h-4.112a.563.563 0 0 1 0-1.125h4.112a.562.562 0 0 1 0 1.125z" class="cls-10" transform="translate(-381.952 -212.209)"/>
            <path id="Path_18993" d="M358.1 222.811h-1.38a.562.562 0 0 1 0-1.125h1.38a.563.563 0 0 1 0 1.125z" class="cls-10" transform="translate(-345.193 -212.209)"/>
            <path id="Path_18994" d="M427.648 287.707h-1.4a.563.563 0 0 1 0-1.125h1.4a.563.563 0 0 1 0 1.125z" class="cls-10" transform="translate(-408.207 -271.021)"/>
            <path id="Path_18995" d="M333.49 287.707h-7.449a.563.563 0 0 1 0-1.125h7.449a.563.563 0 0 1 0 1.125z" class="cls-10" transform="translate(-317.391 -271.021)"/>
            <path id="Path_18996" d="M300.141 287.707h-.5a.563.563 0 0 1 0-1.125h.5a.562.562 0 0 1 0 1.125z" class="cls-10" transform="translate(-293.464 -271.021)"/>
            <path id="Path_18997" d="M242.964 287.707h-3.189a.563.563 0 0 1 0-1.125h3.189a.563.563 0 0 1 0 1.125z" class="cls-10" transform="translate(-239.212 -271.021)"/>
            <path id="Path_18998" d="M410.03 347.688h-3.219a.563.563 0 0 1 0-1.125h3.219a.563.563 0 0 1 0 1.125z" class="cls-10" transform="translate(-390.589 -325.379)"/>
            <path id="Path_18999" d="M381.367 347.688h-.4a.563.563 0 0 1 0-1.125h.4a.563.563 0 0 1 0 1.125z" class="cls-10" transform="translate(-367.164 -325.379)"/>
            <path id="Path_19000" d="M334.52 347.688h-3.058a.563.563 0 0 1 0-1.125h3.058a.563.563 0 0 1 0 1.125z" class="cls-10" transform="translate(-322.304 -325.379)"/>
            <path id="Path_19001" d="M245.889 347.688h-6.115a.563.563 0 1 1 0-1.125h6.115a.563.563 0 0 1 0 1.125z" class="cls-10" transform="translate(-239.212 -325.379)"/>
            <path id="Path_19002" d="M437.637 171.725h-.363a.562.562 0 0 1 0-1.125h.363a.563.563 0 0 1 0 1.125z" class="cls-10" transform="translate(-418.196 -165.913)"/>
            <path id="Path_19003" d="M372.888 171.725H368.9a.562.562 0 0 1 0-1.125h3.987a.562.562 0 0 1 0 1.125z" class="cls-10" transform="translate(-356.233 -165.913)"/>
            <path id="Path_19004" d="M402.3 121.725h-4.02a.563.563 0 0 1 0-1.125h4.02a.563.563 0 0 1 0 1.125z" class="cls-10" transform="translate(-382.857 -120.6)"/>
            <path id="Path_19005" d="M369.233 121.725h-.333a.563.563 0 0 1 0-1.125h.331a.563.563 0 0 1 0 1.125z" class="cls-10" transform="translate(-356.233 -120.6)"/>
        </g>
        <path id="Path_19006" fill="#f4f8fc" d="M253.576 149.239a.562.562 0 0 1-.4-.165l-1.6-1.6a.562.562 0 0 1 .8-.8l1.206 1.206 3.711-3.711a.562.562 0 0 1 .8.8l-4.109 4.109a.563.563 0 0 1-.408.161z" transform="translate(-213.341 -102.739)"/>
        <path id="Path_19007" d="M255.45 30.637h16.982v3.223H255.45z" class="cls-4" transform="translate(-217.002)"/>
    </g>
</svg>
