<svg xmlns="http://www.w3.org/2000/svg" width="45.267" height="40.941" viewBox="0 0 45.267 40.941">
    <defs>
        <style>
            .cls-4{fill:#fff}.cls-5{fill:#3b3e57}
        </style>
    </defs>
    <g id="Group_8865" transform="translate(-29.284 -142.059)">
        <g id="Group_8863" transform="translate(0 2.815)">
            <path id="Path_18885" fill="#00b3b5" d="M24.373 40.941l.96-.906a2.085 2.085 0 0 0 .28-1.052V7.126h-.52a1.5 1.5 0 0 1-1.426-1.56v-5.1A.319.319 0 0 0 23.5.178 1.661 1.661 0 0 0 22.757 0H2.99A1.88 1.88 0 0 0 1.2 1.958v37.025a1.88 1.88 0 0 0 1.79 1.958h21.383z" transform="translate(28.085 139.244)"/>
            <path id="Path_18886" fill="#199d9f" d="M334.4 124.711a1.948 1.948 0 0 0 .307-1.052V92.846a1.957 1.957 0 0 0-.176-.811h-5.036v31.624a1.949 1.949 0 0 1-.307 1.052z" transform="translate(-275.958 54.568)"/>
            <path id="Path_18888" fill="#168794" d="M306.163 2.2a1.963 1.963 0 0 1 .574.4l6.212 6.212a1.955 1.955 0 0 1 .4.574h-5.621a1.56 1.56 0 0 1-1.56-1.56V2.2z" transform="translate(-254.777 137.217)"/>
            <g id="Group_8862" transform="translate(32.983 144.687)">
                <path id="Path_18891" d="M67.157 68.071H51.632a.618.618 0 0 0 0 1.236h15.525a.618.618 0 0 0 0-1.236z" class="cls-4" transform="translate(-51.014 -68.071)"/>
                <path id="Path_18892" d="M67.157 121.153H51.632a.618.618 0 0 0 0 1.236h15.525a.618.618 0 0 0 0-1.236z" class="cls-4" transform="translate(-51.014 -116.908)"/>
                <path id="Path_18893" d="M59.395 174.235h-7.763a.618.618 0 1 0 0 1.236h7.763a.618.618 0 1 0 0-1.236z" class="cls-4" transform="translate(-51.014 -165.746)"/>
            </g>
        </g>
        <g id="Group_8864" transform="translate(4)">
            <path id="Path_18887" d="M189.659 271.48h-25.32a2.24 2.24 0 0 0-2.24 2.24v16.075a2.24 2.24 0 0 0 2.24 2.24h25.32a2.24 2.24 0 0 0 2.24-2.24V273.72a2.241 2.241 0 0 0-2.24-2.24z" class="cls-5" transform="translate(-121.349 -109.035)"/>
            <path id="Path_18889" fill="#fec10d" d="M236.225 178.75a10.036 10.036 0 0 0-6.8-9.5 9.785 9.785 0 0 0 0 19 10.035 10.035 0 0 0 6.8-9.5z" transform="translate(-176.111 -15.542)"/>
            <path id="Path_18890" fill="#ebb20b" d="M306.584 165.943a9.782 9.782 0 0 0-2.791.4 9.785 9.785 0 0 1 0 18.756 9.784 9.784 0 1 0 2.791-19.161z" transform="translate(-250.934 -12.518)"/>
            <path id="Path_18894" fill="#f7f4f7" d="M304.5 215.028c-.144-.051-.29-.1-.437-.159V212.5a1.529 1.529 0 0 1 .59.289.533.533 0 0 0 .719-.788 2.662 2.662 0 0 0-1.31-.589v-.475a.533.533 0 1 0-1.067 0v.515c-.071.016-.142.034-.216.056a2.1 2.1 0 0 0-1.441 1.65 1.855 1.855 0 0 0 .608 1.827 4.925 4.925 0 0 0 1.049.6v3.026a2.048 2.048 0 0 1-1.082-.413.533.533 0 1 0-.584.893 3.089 3.089 0 0 0 1.666.59v.532a.533.533 0 1 0 1.067 0v-.575a2.527 2.527 0 0 0 1.965-2.068 2.22 2.22 0 0 0-1.527-2.542zm-1.894-.885a.813.813 0 0 1-.218-.791 1.066 1.066 0 0 1 .609-.793v1.841a2.955 2.955 0 0 1-.39-.257zm2.37 3.248a1.483 1.483 0 0 1-.913 1.134V216l.081.029a1.171 1.171 0 0 1 .833 1.362z" transform="translate(-247.87 -51.944)"/>
            <path id="Path_18895" fill="#54597b" d="M186.33 301.44v-13.511l-6.875 4.865a4.25 4.25 0 0 1-4.91 0l-12.127-8.581a2.23 2.23 0 0 0-.319 1.152v16.075a2.24 2.24 0 0 0 2.24 2.24h19.75a2.24 2.24 0 0 0 2.241-2.24z" transform="translate(-121.349 -120.68)"/>
            <path id="Path_18896" d="M193.919 377.115v-2.7l-7.62-6.8a2.569 2.569 0 0 0-3.421 0L170.4 378.75a2.232 2.232 0 0 0 1.531.605h19.749a2.24 2.24 0 0 0 2.239-2.24z" class="cls-5" transform="translate(-128.938 -196.355)"/>
            <path id="Path_18897" fill="#282c47" d="M424.985 459.1a2.232 2.232 0 0 0 1.531-.605l-4.861-4.338v2.7a2.24 2.24 0 0 1-2.24 2.24z" transform="translate(-356.674 -276.103)"/>
        </g>
    </g>
</svg>
