<svg xmlns="http://www.w3.org/2000/svg" width="68.096" height="51.589" viewBox="0 0 68.096 51.589">
    <defs>
        <style>
            .cls-3{fill:#168794}.cls-4{fill:#0b717c}.cls-5{fill:#060633}.cls-7{fill:#050521}.cls-9{fill:#fff}.cls-10{fill:#282c47}.cls-11{fill:#fb9391}.cls-14{fill:#0b0755;stroke:#0b0755;stroke-width:.5px}
        </style>
    </defs>
    <g id="Group_9043" transform="translate(-85.086 -82.078)">
        <path id="Path_18986" fill="rgba(177,215,221,0.2)" d="M215.8 142.588c-2.008 1.356-50.992.98-53.063.489-9.508-2.251-8.533-13.567-7.055-21.043 2.016-10.2 4.4-20.835 13.026-23.449 35.3-10.7 47.927 6.157 50.772 15.619 4.093 13.604 6.036 21.826-3.68 28.384z" transform="translate(-69.657 -13.071)"/>
        <path id="Path_18987" fill="#b1d7dd" d="M355.748 1693.143c0 1.349-10.127 2.477-23.638 2.75-2.044.041-4.166.063-6.341.063q-2.215 0-4.347-.029c-14.5-.2-25.633-1.368-25.633-2.783 0-1.4 10.873-2.558 25.119-2.776l.592-.009q1.662-.022 3.38-.027h.889c2.806 0 5.521.036 8.1.1 12.62.334 21.879 1.422 21.879 2.711z" transform="translate(-206.638 -1562.29)"/>
        <g id="Group_8911" transform="translate(91.022 107.423)">
            <path id="Path_19007" d="M380.221 995.015s5.144-11.854-16.481-17.216c0 .001 3.16 22.73 16.481 17.216z" class="cls-3" transform="translate(-363.654 -977.711)"/>
            <path id="Path_19008" d="M362.679 976.665l16.893 15.664c.553-3.39-.067-11.492-16.893-15.664z" class="cls-4" transform="translate(-362.624 -976.61)"/>
            <path id="Path_19009" d="M377.006 989.862a.055.055 0 0 1-.046-.014l-16.179-15a.055.055 0 0 1 .075-.081l16.179 15a.055.055 0 0 1 0 .078.054.054 0 0 1-.029.017z" class="cls-5" transform="translate(-360.764 -974.749)"/>
            <path id="Path_19010" d="M447.383 1244.046h-.009l-6.129-.078a.055.055 0 1 1 0-.11l6.129.078a.055.055 0 0 1 .008.11z" class="cls-5" transform="translate(-438.873 -1236.104)"/>
            <path id="Path_19011" d="M710.193 1165.791a.055.055 0 0 1-.061-.037l-1.9-5.709a.055.055 0 0 1 .1-.035l1.9 5.709a.055.055 0 0 1-.035.07z" class="cls-5" transform="translate(-698.217 -1154.636)"/>
        </g>
        <g id="Group_8912" transform="translate(91.335 120.677)">
            <path id="Path_19012" d="M389.946 1441.354s-1.257-10.264-18.351-5.2c.005.004 11.395 14.406 18.351 5.2z" class="cls-4" transform="translate(-371.595 -1434.752)"/>
            <path id="Path_19013" d="M371.6 1483.55l18.351 5.2s-5.281 9.783-18.351-5.2z" class="cls-3" transform="translate(-371.595 -1482.144)"/>
        </g>
        <g id="Group_8914" transform="translate(125.602 109.356)">
            <path id="Path_19030" d="M1561.139 1059.465s-3.78-11.74 17.264-14.815c-.003 0-5.123 21.297-17.264 14.815z" class="cls-4" transform="translate(-1560.875 -1044.569)"/>
            <path id="Path_19031" d="M1579.52 1043.673l-17.509 13.3c-.211-3.273 1.136-10.908 17.509-13.3z" class="cls-3" transform="translate(-1561.96 -1043.62)"/>
            <path id="Path_19032" d="M1586.493 1054.689a.052.052 0 0 0 .045-.009l16.77-12.741a.053.053 0 1 0-.064-.084l-16.77 12.741a.053.053 0 0 0 .019.093z" class="cls-5" transform="translate(-1585.716 -1041.844)"/>
            <path id="Path_19033" d="M1864.666 1272.8h.009l5.829.5a.053.053 0 1 0 .009-.1l-5.829-.5a.053.053 0 0 0-.018.1z" class="cls-5" transform="translate(-1855.874 -1266.042)"/>
            <path id="Path_19034" d="M1740 1190.709a.053.053 0 0 0 .061-.03l2.338-5.246a.053.053 0 1 0-.1-.043l-2.338 5.246a.053.053 0 0 0 .027.07z" class="cls-5" transform="translate(-1734.796 -1181.225)"/>
        </g>
        <g id="Group_8915" transform="translate(124.73 120.677)">
            <path id="Path_19035" d="M1530.585 1441.354s1.257-10.264 18.352-5.2c0 .004-11.396 14.406-18.352 5.2z" class="cls-3" transform="translate(-1530.585 -1434.752)"/>
            <path id="Path_19036" d="M1548.937 1483.55l-18.352 5.2s5.276 9.783 18.352-5.2z" class="cls-4" transform="translate(-1530.585 -1482.144)"/>
        </g>
        <rect id="Rectangle_2528" width="22.53" height="37.911" fill="#fff2cb" rx="3" transform="translate(105.92 92.277)"/>
        <path id="Path_19067" d="M887.574 476.737h-18.2a2.478 2.478 0 0 1-2.478-2.478v-33.583a2.478 2.478 0 0 1 2.478-2.478h18.2a2.478 2.478 0 0 1 2.478 2.478v33.582a2.478 2.478 0 0 1-2.478 2.479zm-18.2-37.911a1.85 1.85 0 0 0-1.85 1.85v33.583a1.85 1.85 0 0 0 1.85 1.85h18.2a1.85 1.85 0 0 0 1.85-1.85v-33.583a1.85 1.85 0 0 0-1.85-1.85z" class="cls-7" transform="translate(-761.288 -346.236)"/>
        <path id="Rectangle_2529" d="M0 0h22.53v.584a2.028 2.028 0 0 1-2.03 2.028H2.612A2.612 2.612 0 0 1 0 0z" class="cls-7" transform="translate(105.92 127.576)"/>
        <g id="Group_9053" transform="translate(0 4)">
            <path id="Rectangle_2530" fill="#fec10d" d="M0 0H18.665V20.109H0z" transform="translate(107.788 96.618)"/>
            <g id="Group_8922" transform="translate(108.88 98.864)">
                <g id="Group_8921">
                    <path id="Path_19068" d="M982.6 1180.631s1.3-3.572 7.71-3.47 7.463 2.794 7.5 3.51c-.01-.001-15.073-.035-15.21-.04z" class="cls-9" transform="translate(-982.537 -1162.768)"/>
                    <path id="Path_19069" d="M990.246 677.744a2.8 2.8 0 0 1 2.929 1.573 4.3 4.3 0 0 0 .4 1.127c.474.656 1.569.617 2.009 1.3.449.7-.081 1.651.18 2.436.172.518.655.864.936 1.332a2.4 2.4 0 0 1-.082 2.38 4.571 4.571 0 0 1-1.838 1.645c-.343.187-.735.39-.844.766a3.326 3.326 0 0 0-.058.4 1.7 1.7 0 0 1-1.72 1.212 10.272 10.272 0 0 1-2.238-.431c-2.62-.544-5.463.583-7.966-.363a.939.939 0 0 1-.647-.557c-.1-.416.322-.766.433-1.179.2-.748-.618-1.331-1-2a1.967 1.967 0 0 1 .2-2.189c.342-.4.852-.667 1.084-1.141a4.121 4.121 0 0 0 .177-1.519 3.477 3.477 0 0 1 1.495-2.48 9.45 9.45 0 0 1 3.084-1.086c1.19-.352 2.205-1.112 3.466-1.226z" class="cls-10" transform="translate(-980.496 -677.731)"/>
                    <path id="Path_19070" d="M1184.531 1045.1a4.305 4.305 0 0 1 .6 3.094l-.082.428a.876.876 0 0 0 .521.971 3.135 3.135 0 0 0 2.467.165.849.849 0 0 0 .522-.745l-.007-2.9s-4.591-1.927-4.021-1.013z" class="cls-11" transform="translate(-1178.605 -1034.274)"/>
                    <path id="Path_19071" d="M1109.865 953.782a.641.641 0 0 0-.322-.321 1.084 1.084 0 0 0-1.192.053c-.556.505.444 1.963 1.533 1.315.001 0 .316-.287-.019-1.047z" class="cls-11" transform="translate(-1104.514 -945.366)"/>
                    <path id="Path_19072" d="M1376.808 953.782a.641.641 0 0 1 .322-.321 1.084 1.084 0 0 1 1.192.053c.556.505-.444 1.963-1.533 1.315 0 0-.316-.287.019-1.047z" class="cls-11" transform="translate(-1365.239 -945.366)"/>
                    <path id="Path_19073" d="M1147.54 804.176c.2 2.09-1.376 4.544-3.544 4.544s-3.817-3.612-3.68-4.407c.434-2.532 1.708-4.819 3.876-4.819s3.098 2.126 3.348 4.682z" class="cls-11" transform="translate(-1135.703 -795.986)"/>
                    <path id="Path_19074" d="M1067.177 720.838a20.228 20.228 0 0 0 1.046-2.277 1.024 1.024 0 0 1 .178-.307 1.133 1.133 0 0 1 .485-.254 1.349 1.349 0 0 1 1.215 0c.368.28.306.831.536 1.222.375.638 1.418.7 1.76 1.358.272.521-.008 1.242.408 1.668.17.174.425.256.6.428.562.559-.925 1.275.2 2.088.4-.792 1.163-1.136 1.471-1.965a3.737 3.737 0 0 0 .046-1.01 2.422 2.422 0 0 0-.609-1.126 9.41 9.41 0 0 1-.918-2.174 9.689 9.689 0 0 0-1.351-2.455 1.231 1.231 0 0 0-.337-.336 1.383 1.383 0 0 0-.568-.144 15.046 15.046 0 0 0-2.924-.094 5.729 5.729 0 0 0-2.732.9 3.379 3.379 0 0 0-.8.76 5.482 5.482 0 0 0-.573 1.078 4.32 4.32 0 0 0-.436 1.413 4.076 4.076 0 0 0 .156 1.209c.086.361.081.819.382 1.045 1.874 1.412 2.215-.09 2.765-1.027z" class="cls-10" transform="translate(-1061.457 -714.336)"/>
                    <path id="Path_19075" d="M1320.863 932.1a.378.378 0 1 0-.428.319.378.378 0 0 0 .428-.319z" class="cls-7" transform="translate(-1310.326 -924.35)"/>
                    <path id="Path_19076" d="M1196.659 940.027a.378.378 0 1 0-.428.319.378.378 0 0 0 .428-.319z" class="cls-7" transform="translate(-1189.701 -932.049)"/>
                    <path id="Path_19078" d="M1235.764 1036.413a2.234 2.234 0 0 0-1.6.419.053.053 0 0 0 .064.085c.052-.039 1.278-.954 2.183-.011a.053.053 0 0 0 .077-.074 1.411 1.411 0 0 0-.724-.419z" class="cls-7" transform="translate(-1226.835 -1026.046)"/>
                    <path id="Path_19079" d="M1175.065 914.983a.157.157 0 0 1-.072-.286 1.885 1.885 0 0 1 1.234-.252.157.157 0 0 1 .133.178.161.161 0 0 1-.178.133 1.569 1.569 0 0 0-1.013.2.157.157 0 0 1-.104.027z" class="cls-7" transform="translate(-1169.322 -907.606)"/>
                    <path id="Path_19080" d="M1310.263 903.432a.157.157 0 0 1-.02-.295 1.865 1.865 0 0 1 1.259-.026.157.157 0 0 1-.1.3 1.562 1.562 0 0 0-1.033.016.157.157 0 0 1-.106.005z" class="cls-7" transform="translate(-1300.65 -896.524)"/>
                    <path id="Path_19081" fill="#ea6868" d="M1269.312 941.16a.931.931 0 0 1-.379.032.056.056 0 0 1 .011-.111c.534.052.643-.291.662-.381a2.118 2.118 0 0 1-.322-1.34.055.055 0 1 1 .11.013 2.032 2.032 0 0 0 .315 1.281.055.055 0 0 1 .011.04.6.6 0 0 1-.408.466z" transform="translate(-1260.574 -931.773)"/>
                </g>
            </g>
            <g id="Group_8937" opacity="0.8" transform="translate(113.202 102.363)">
                <g id="Group_8923" transform="translate(3.346 8.211)">
                    <path id="Path_19082" d="M1246.635 1085.016l.212-.888 1.83-.025.248.894h-.025zm.242-.851l-.194.813 2.193-.018-.227-.819z" class="cls-9" transform="translate(-1246.635 -1084.103)"/>
                </g>
                <g id="Group_8924" transform="translate(2.325 1.904)">
                    <path id="Path_19083" d="M1212.486 866.606l-1.293-.931 2.907-.463-.671 1.343zm-1.2-.908l1.208.87.908-.049.629-1.258z" class="cls-9" transform="translate(-1211.193 -865.212)"/>
                </g>
                <g id="Group_8925" transform="translate(3.604 3.209)">
                    <path id="Path_19084" d="M1255.6 911.164l-.013-.6.956-.052.254.536zm.025-.566l.012.524 1.1-.108-.221-.465z" class="cls-9" transform="translate(-1255.585 -910.511)"/>
                </g>
                <g id="Group_8926" transform="translate(3.61 3.708)">
                    <path id="Path_19085" d="M1256.394 929.612l-.614-1.663 1.193-.117.179 1.623zm-.562-1.631l.586 1.588.693-.143-.171-1.553z" class="cls-9" transform="translate(-1255.78 -927.832)"/>
                </g>
                <g id="Group_8927" transform="translate(3.927 5.293)">
                    <path id="Path_19086" d="M1266.8 983.5l.3-.5.757-.157-.04.629zm.321-.466l-.254.426.912-.024.035-.546z" class="cls-9" transform="translate(-1266.803 -982.842)"/>
                </g>
                <g id="Group_8928" transform="translate(3.142 5.885)">
                    <path id="Path_19087" d="M1239.535 1004.278l.811-.863.98-.026.641.852zm.828-.826l-.74.787 2.27-.035-.585-.777z" class="cls-9" transform="translate(-1239.535 -1003.389)"/>
                </g>
                <g id="Group_8929" transform="translate(2.058 5.002)">
                    <path id="Path_19088" d="M1202.013 974.774l-.009-.036 1.038-.269-1.1-1.741 2.181.446-.008.037-2.095-.429 1.078 1.71z" class="cls-9" transform="translate(-1201.944 -972.728)"/>
                </g>
                <g id="Group_8930" transform="translate(.479 .07)">
                    <path id="Path_19089" d="M1153.622 806.181l-.035-.013.428-1.211-.89-1.5-1.273-.012-.005-.006-1.781-1.806c-.108.237-.944 2.088-1.014 2.25v.01l-1.274.15-.6 1.964-.036-.011.6-1.987 1.277-.15c.1-.231 1.012-2.245 1.021-2.266l.011-.025 1.814 1.84 1.278.012.005.009.9 1.527z" class="cls-9" transform="translate(-1147.141 -801.566)"/>
                </g>
                <g id="Group_8931" transform="translate(4.955 4.644)">
                    <path id="Path_19090" d="M1303.948 963.036l-.916-.654 1.39-2-1.929.621-.011-.036 2.035-.655-1.432 2.061.857.612 1.293-1.626-.686-1.02.031-.021.7 1.043-.009.011z" class="cls-9" transform="translate(-1302.482 -960.313)"/>
                </g>
                <g id="Group_8932" transform="translate(.074 3.826)">
                    <path id="Path_19091" d="M1135.04 936.862l.051-1.718-2.03-1.779.415-.777 1.606.527 1.53-1.182.023.03-1.546 1.194-1.595-.523-.386.723 2.021 1.772-.049 1.683 1.459-.462-.16-.724.958.366 1.037-.4.006.73.915.12.092-.993h.037l-.1 1.032-.986-.13-.006-.708-1 .387h-.007l-.9-.344.152.689z" class="cls-9" transform="translate(-1133.06 -931.933)"/>
                </g>
                <g id="Group_8933" transform="translate(5.598 5.683)">
                    <path id="Path_19092" d="M1324.807 999.784l-.027-.026.711-.729 1.405-2.661.033.018-1.408 2.666z" class="cls-9" transform="translate(-1324.78 -996.367)"/>
                </g>
                <g id="Group_8934" transform="translate(.081 5.245)">
                    <path id="Path_19093" d="M1136.6 985.04l-1.3-.377v-.007l-1.976-3.476.032-.019 1.972 3.469 1.29.373z" class="cls-9" transform="translate(-1133.312 -981.162)"/>
                </g>
                <path id="Path_19094" d="M1143.99 951.54a.14.14 0 1 1 .166.108.14.14 0 0 1-.166-.108z" class="cls-9" transform="translate(-1143.598 -946.985)"/>
                <path id="Path_19095" d="M1368.031 956.7a.14.14 0 1 1 .115.161.14.14 0 0 1-.115-.161z" class="cls-9" transform="translate(-1361.185 -952.043)"/>
                <path id="Path_19096" d="M1272.183 983.384a.14.14 0 1 1 .115.161.14.14 0 0 1-.115-.161z" class="cls-9" transform="translate(-1268.099 -977.961)"/>
                <path id="Path_19097" d="M1210.129 876.064a.14.14 0 1 1 .115.161.14.14 0 0 1-.115-.161z" class="cls-9" transform="translate(-1207.833 -873.734)"/>
                <path id="Path_19098" d="M1305.6 862.612a.14.14 0 1 1 .115.161.14.14 0 0 1-.115-.161z" class="cls-9" transform="translate(-1300.55 -860.669)"/>
                <path id="Path_19099" d="M1244.845 799.256a.14.14 0 1 1 .115.161.14.14 0 0 1-.115-.161z" class="cls-9" transform="translate(-1241.549 -799.139)"/>
                <path id="Path_19100" d="M1299.557 979.125a.14.14 0 1 1 .115.161.14.14 0 0 1-.115-.161z" class="cls-9" transform="translate(-1294.684 -973.826)"/>
                <path id="Path_19101" d="M1249.606 1080.914a.14.14 0 1 1 .083.18.14.14 0 0 1-.083-.18z" class="cls-9" transform="translate(-1246.166 -1072.706)"/>
                <path id="Path_19102" d="M1200.3 1037.791a.14.14 0 1 1 .083.18.14.14 0 0 1-.083-.18z" class="cls-9" transform="translate(-1198.28 -1030.825)"/>
                <path id="Path_19103" d="M1348.383 1048.205a.14.14 0 1 1 .083.18.14.14 0 0 1-.083-.18z" class="cls-9" transform="translate(-1342.096 -1040.939)"/>
                <path id="Path_19104" d="M1312.094 1080.914a.14.14 0 1 1 .083.18.14.14 0 0 1-.083-.18z" class="cls-9" transform="translate(-1306.853 -1072.706)"/>
                <path id="Path_19105" d="M1199.317 968.057a.14.14 0 1 1 .166.108.14.14 0 0 1-.166-.108z" class="cls-9" transform="translate(-1197.332 -963.026)"/>
                <path id="Path_19106" d="M1130.51 976.546a.14.14 0 1 1 .166.108.14.14 0 0 1-.166-.108z" class="cls-9" transform="translate(-1130.507 -971.27)"/>
                <path id="Path_19107" d="M1393.616 992.494a.14.14 0 1 1 .166.108.14.14 0 0 1-.166-.108z" class="cls-9" transform="translate(-1386.032 -986.758)"/>
                <g id="Group_8935" transform="translate(2.051 6.951)">
                    <path id="Path_19108" d="M1203.187 1041.707l-1.508-1.319 1.373.58-.015.035-1.159-.489 1.333 1.166z" class="cls-9" transform="translate(-1201.679 -1040.388)"/>
                </g>
                <g id="Group_8936" transform="translate(5.343 6.705)">
                    <path id="Path_19109" d="M1315.994 1033.417l-.025-.028 1-.9-1.012.19.17-.829.037.008-.158.774 1.088-.2z" class="cls-9" transform="translate(-1315.953 -1031.853)"/>
                </g>
            </g>
            <g id="Group_8942" transform="translate(109.377 98.693)">
                <g id="Group_8938">
                    <path id="Path_19110" d="M997.956 674.381h-.2v-2.607h2.5v.2h-2.3z" class="cls-14" transform="translate(-997.752 -671.774)"/>
                </g>
                <g id="Group_8939" transform="translate(12.88 .051)">
                    <path id="Path_19111" d="M1447.378 676.052h-.2v-2.3h-2.4v-.2h2.607z" class="cls-14" transform="translate(-1444.771 -673.548)"/>
                </g>
                <g id="Group_8940" transform="translate(12.983 13.596)">
                    <path id="Path_19112" d="M1450.824 1146.235h-2.5v-.2h2.3v-2.4h.2z" class="cls-14" transform="translate(-1448.319 -1143.628)"/>
                </g>
                <g id="Group_8941" transform="translate(0 13.647)">
                    <path id="Path_19113" d="M1000.359 1147.907h-2.607v-2.5h.2v2.3h2.4z" class="cls-14" transform="translate(-997.752 -1145.402)"/>
                </g>
            </g>
            <g id="Group_8950" transform="translate(111.151 97.085)">
                <path id="Path_19115" d="M1166.248 660.2h-.52l-.26.45.26.451h.52l.26-.451z" class="cls-9" transform="translate(-1162.41 -658.923)"/>
                <path id="Path_19116" d="M1276.6 615.989h-.26l-.13.225.13.225h.26l.13-.225z" class="cls-9" transform="translate(-1269.966 -615.989)"/>
                <path id="Path_19117" d="M1234.029 668.518h-.26l-.13.225.13.225h.26l.13-.225z" class="cls-9" transform="translate(-1228.618 -667.005)"/>
                <path id="Path_19118" d="M1093.441 711.192h-.26l-.13.225.13.225h.26l.13-.225z" class="cls-9" transform="translate(-1092.081 -708.449)"/>
                <path id="Path_19119" d="M1059.736 638.459h-.26l-.13.225.13.225h.26l.13-.225z" class="cls-9" transform="translate(-1059.346 -637.812)"/>
                <g id="Group_8946" transform="translate(3.822 .189)">
                    <path id="Path_19120" d="M1192.032 623.647l-.031-.02.7-1.075h1.833v.038h-1.813z" class="cls-9" transform="translate(-1192.001 -622.552)"/>
                </g>
                <g id="Group_8947" transform="translate(1.329 1.706)">
                    <path id="Path_19121" d="M1105.494 676.263l-.034-.015.465-1.068h1.264v.037h-1.24z" class="cls-9" transform="translate(-1105.46 -675.18)"/>
                </g>
                <g id="Group_8948" transform="translate(.272 .854)">
                    <path id="Path_19122" d="M1070.321 646.5l-.608-.844h-.91v-.037h.93l.619.86z" class="cls-9" transform="translate(-1068.803 -645.614)"/>
                </g>
                <g id="Group_8949" transform="translate(4.098 1.706)">
                    <path id="Rectangle_2533" d="M0 0H1.064V0.037H0z" class="cls-9"/>
                </g>
            </g>
            <g id="Group_8955" transform="translate(108.454 102.003)">
                <g id="Group_8951" transform="translate(.123 .248)">
                    <path id="Path_19123" d="M970.725 796.95l-.732-.732v-.939h.037v.924l.721.721z" class="cls-9" transform="translate(-969.992 -795.278)"/>
                </g>
                <path id="Path_19124" d="M990.43 851.415h-.26l-.13.225.13.225h.26l.13-.225z" class="cls-9" transform="translate(-989.34 -849.549)"/>
                <path id="Path_19125" d="M999.209 801.74h-.147l-.073.127.073.127h.147l.073-.127z" class="cls-9" transform="translate(-998.031 -801.306)"/>
                <path id="Path_19126" d="M965.947 786.662h-.147l-.073.127.073.127h.147l.073-.127z" class="cls-9" transform="translate(-965.727 -786.662)"/>
                <path id="Path_19127" d="M965.947 909.657h-.147l-.073.127.073.127h.147l.073-.127z" class="cls-9" transform="translate(-965.727 -906.113)"/>
                <g id="Group_8952" transform="translate(.123 2.301)">
                    <path id="Path_19128" d="M970.03 867.886h-.037v-.758l.7-.6.024.029-.682.585z" class="cls-9" transform="translate(-969.992 -866.531)"/>
                </g>
                <g id="Group_8953" transform="translate(.133 .641)">
                    <path id="Rectangle_2534" d="M0 0H1.058V0.038H0z" class="cls-9" transform="rotate(-29.621 .989 .261)"/>
                </g>
                <g id="Group_8954" transform="translate(.134 .095)">
                    <path id="Rectangle_2535" d="M0 0H0.038V1.08H0z" class="cls-9" transform="rotate(-64.8 .027 .017)"/>
                </g>
            </g>
            <g id="Group_8958" transform="translate(123.538 100.324)">
                <g id="Group_8956" transform="translate(.203 .121)">
                    <path id="Path_19129" d="M1498.337 737.59h-.037v-.841l-.971-.511v-.011c0-.4 0-1-.014-1.063l-1.042-1.042V732.6h.038v1.509l1.03 1.03c.017.009.021.073.025.554v.526l.971.511z" class="cls-9" transform="translate(-1496.272 -732.598)"/>
                </g>
                <path id="Path_19130" d="M1525.5 814.871h-.26l-.13.225.13.225h.26l.13-.225z" class="cls-9" transform="translate(-1524.08 -812.379)"/>
                <path id="Path_19131" d="M1489.63 777.026h-.26l-.13.225.13.225h.26l.13-.225z" class="cls-9" transform="translate(-1489.24 -775.625)"/>
                <path id="Path_19132" d="M1549.649 757.217h-.26l-.13.225.13.225h.26l.13-.225z" class="cls-9" transform="translate(-1547.53 -756.386)"/>
                <path id="Path_19133" d="M1558.617 867.3h-.26l-.13.225.13.225h.26l.13-.225z" class="cls-9" transform="translate(-1556.24 -863.299)"/>
                <path id="Path_19134" d="M1562.593 906.379h-.14l-.07.121.07.121h.14l.07-.121z" class="cls-9" transform="translate(-1560.275 -901.251)"/>
                <path id="Path_19135" d="M1492.993 728.391h-.14l-.07.121.07.121h.14l.07-.121z" class="cls-9" transform="translate(-1492.681 -728.391)"/>
                <g id="Group_8957" transform="translate(1.247 1.212)">
                    <path id="Path_19136" d="M1532.538 771.921l-.028-.025.739-.824v-.629h.038v.643l-.005.005z" class="cls-9" transform="translate(-1532.51 -770.443)"/>
                </g>
            </g>
        </g>
        <g id="Group_9052" transform="translate(8 -36.922)">
            <circle id="Ellipse_538" cx="7.961" cy="7.961" r="7.961" fill="#26a506" transform="translate(114.086 119)"/>
            <path id="Path_19229" fill="none" stroke="#fff" stroke-linecap="round" stroke-linejoin="round" d="M0 1.155L1.544 3.78 7.436 0" transform="rotate(-11 715.344 -549.89)"/>
        </g>
    </g>
</svg>
