<svg xmlns="http://www.w3.org/2000/svg" width="195.327" height="147.977" viewBox="0 0 195.327 147.977">
    <defs>
        <style>
            .cls-3{fill:#168794}.cls-4{fill:#0b717c}.cls-5{fill:#060633}.cls-6{fill:#fff2cb}.cls-7{fill:#050521}.cls-9{fill:#fff}.cls-10{fill:#282c47}.cls-11{fill:#fb9391}.cls-14{fill:#0b0755;stroke:#0b0755;stroke-width:.5px}.cls-15{fill:#e50000}
        </style>
    </defs>
    <g id="Group_8963" transform="translate(-85.086 -82.078)">
        <path id="Path_18986" fill="rgba(177,215,221,0.2)" d="M329.885 231.222c-5.759 3.888-146.266 2.81-152.206 1.4-27.274-6.457-24.476-38.917-20.235-60.36C163.227 143.02 170.07 112.5 194.809 105c101.265-30.692 137.475 17.66 145.634 44.8 11.731 39.029 17.303 62.612-10.558 81.422z" transform="translate(-69.657 -13.071)"/>
        <path id="Path_18987" fill="#b1d7dd" d="M467.777 1698.4c0 3.87-29.048 7.1-67.8 7.887-5.863.119-11.949.181-18.19.181q-6.353 0-12.47-.084c-41.584-.567-73.525-3.925-73.525-7.983 0-4.009 31.189-7.337 72.052-7.961l1.7-.025q4.768-.064 9.695-.077h2.55c8.048 0 15.836.1 23.224.3 36.205.942 62.764 4.062 62.764 7.762z" transform="translate(-199.044 -1476.411)"/>
        <g id="Group_8911" transform="translate(102.114 154.777)">
            <path id="Path_19007" d="M411.015 1027.181s14.756-34-47.275-49.382c0 .001 9.06 65.201 47.275 49.382z" class="cls-3" transform="translate(-363.494 -977.547)"/>
            <path id="Path_19008" d="M362.679 976.665l48.455 44.932c1.588-9.726-.191-32.965-48.455-44.932z" class="cls-4" transform="translate(-362.521 -976.507)"/>
            <path id="Path_19009" d="M407.355 1018.1a.157.157 0 0 1-.132-.04l-46.409-43.034a.158.158 0 1 1 .215-.232l46.409 43.034a.158.158 0 0 1 .008.224.155.155 0 0 1-.091.048z" class="cls-5" transform="translate(-360.764 -974.749)"/>
            <path id="Path_19010" d="M458.954 1244.4h-.026l-17.58-.224a.158.158 0 0 1 0-.317l17.58.224a.158.158 0 0 1 .022.315z" class="cls-5" transform="translate(-434.544 -1221.616)"/>
            <path id="Path_19011" d="M713.862 1176.663a.158.158 0 0 1-.174-.107l-5.451-16.375a.158.158 0 0 1 .3-.1l5.451 16.376a.159.159 0 0 1-.1.2z" class="cls-5" transform="translate(-679.511 -1144.664)"/>
        </g>
        <g id="Group_8912" transform="translate(103.009 192.796)">
            <path id="Path_19012" d="M424.234 1453.689s-3.6-29.442-52.639-14.9c.005-.004 32.686 41.311 52.639 14.9z" class="cls-4" transform="translate(-371.595 -1434.752)"/>
            <path id="Path_19013" d="M371.6 1483.55l52.639 14.9s-15.139 28.078-52.639-14.9z" class="cls-3" transform="translate(-371.595 -1479.517)"/>
        </g>
        <g id="Group_8914" transform="translate(201.303 160.322)">
            <path id="Path_19030" d="M1561.633 1087.147s-10.843-33.677 49.518-42.5c0 .003-14.693 61.092-49.518 42.5z" class="cls-4" transform="translate(-1560.875 -1044.418)"/>
            <path id="Path_19031" d="M1612.268 1043.673l-50.224 38.159c-.6-9.387 3.256-31.297 50.224-38.159z" class="cls-3" transform="translate(-1561.9 -1043.522)"/>
            <path id="Path_19032" d="M1586.567 1078.689a.15.15 0 0 0 .129-.026l48.1-36.548a.151.151 0 1 0-.183-.24l-48.1 36.548a.151.151 0 0 0 .054.267z" class="cls-5" transform="translate(-1584.339 -1041.844)"/>
            <path id="Path_19033" d="M1864.74 1272.991a.119.119 0 0 0 .025 0l16.721 1.428a.151.151 0 1 0 .026-.3l-16.721-1.428a.151.151 0 0 0-.051.3z" class="cls-5" transform="translate(-1839.521 -1253.614)"/>
            <path id="Path_19034" d="M1740.069 1200.7a.152.152 0 0 0 .176-.085l6.706-15.047a.151.151 0 1 0-.276-.123l-6.706 15.047a.151.151 0 0 0 .077.2z" class="cls-5" transform="translate(-1725.155 -1173.498)"/>
        </g>
        <g id="Group_8915" transform="translate(198.8 192.796)">
            <path id="Path_19035" d="M1530.585 1453.689s3.6-29.442 52.639-14.9c0-.004-32.686 41.311-52.639 14.9z" class="cls-3" transform="translate(-1530.585 -1434.752)"/>
            <path id="Path_19036" d="M1583.224 1483.55l-52.639 14.9s15.134 28.078 52.639-14.9z" class="cls-4" transform="translate(-1530.585 -1479.517)"/>
        </g>
        <rect id="Rectangle_2528" width="64.625" height="108.743" class="cls-6" rx="3" transform="translate(144.846 111.332)"/>
        <path id="Path_19067" d="M926.212 548.744H874a7.108 7.108 0 0 1-7.108-7.108v-96.329A7.109 7.109 0 0 1 874 438.2h52.209a7.109 7.109 0 0 1 7.109 7.109v96.328a7.109 7.109 0 0 1-7.106 7.107zM874 440a5.306 5.306 0 0 0-5.306 5.306v96.328a5.307 5.307 0 0 0 5.306 5.307h52.209a5.307 5.307 0 0 0 5.307-5.307v-96.327a5.307 5.307 0 0 0-5.304-5.307z" class="cls-7" transform="translate(-722.948 -327.767)"/>
        <path id="Rectangle_2529" d="M0 0h64.625v1.674a5.817 5.817 0 0 1-5.817 5.817H7.491A7.491 7.491 0 0 1 0 0z" class="cls-7" transform="translate(144.846 212.584)"/>
        <path id="Rectangle_2530" fill="#fec10d" d="M0 0H53.538V57.682H0z" transform="translate(150.204 123.785)"/>
        <g id="Group_8922" transform="translate(153.335 130.228)">
            <g id="Group_8921">
                <path id="Path_19068" d="M982.6 1187.118s3.739-10.247 22.115-9.954 21.406 8.015 21.5 10.068c.002 0-43.215-.097-43.615-.114z" class="cls-9" transform="translate(-982.424 -1135.881)"/>
                <path id="Path_19069" d="M1008.463 677.768c3.409-.308 7.248 1.291 8.4 4.512a12.342 12.342 0 0 0 1.142 3.234c1.36 1.883 4.5 1.771 5.762 3.722 1.289 1.995-.232 4.735.517 6.988.494 1.484 1.878 2.479 2.684 3.819a6.877 6.877 0 0 1-.234 6.828 13.114 13.114 0 0 1-5.273 4.717c-.985.535-2.108 1.119-2.42 2.2a9.551 9.551 0 0 0-.165 1.148c-.349 2.158-2.748 3.435-4.934 3.476s-4.279-.793-6.419-1.238c-7.515-1.56-15.67 1.672-22.851-1.041a2.694 2.694 0 0 1-1.856-1.6c-.294-1.192.923-2.2 1.242-3.382.577-2.145-1.774-3.818-2.873-5.748a5.641 5.641 0 0 1 .588-6.279c.98-1.153 2.442-1.914 3.11-3.273.65-1.323.39-2.888.506-4.357a9.975 9.975 0 0 1 4.288-7.115c2.678-1.908 5.788-2.228 8.847-3.115 3.41-.989 6.321-3.164 9.939-3.496z" class="cls-10" transform="translate(-980.496 -677.731)"/>
                <path id="Path_19070" d="M1184.623 1045.556a12.349 12.349 0 0 1 1.734 8.875l-.236 1.229a2.512 2.512 0 0 0 1.494 2.786c3.376 1.422 5.715 1.038 7.075.474a2.436 2.436 0 0 0 1.5-2.137l-.019-8.32s-13.184-5.523-11.548-2.907z" class="cls-11" transform="translate(-1167.623 -1014.51)"/>
                <path id="Path_19071" d="M1112.989 954.672a1.842 1.842 0 0 0-.923-.921c-.84-.386-2.331-.836-3.418.153-1.6 1.449 1.274 5.632 4.4 3.771-.003 0 .904-.823-.059-3.003z" class="cls-11" transform="translate(-1097.639 -930.53)"/>
                <path id="Path_19072" d="M1377.1 954.672a1.841 1.841 0 0 1 .923-.921c.839-.386 2.33-.836 3.418.153 1.6 1.449-1.274 5.632-4.4 3.771 0 0-.907-.823.059-3.003z" class="cls-11" transform="translate(-1343.912 -930.53)"/>
                <path id="Path_19073" d="M1161.052 812.924c.586 5.995-3.947 13.033-10.166 13.033s-10.948-10.361-10.557-12.642c1.245-7.262 4.9-13.821 11.119-13.821s8.887 6.097 9.604 13.43z" class="cls-11" transform="translate(-1127.099 -789.43)"/>
                <path id="Path_19074" d="M1073.376 730.956a57.942 57.942 0 0 0 3-6.53 2.944 2.944 0 0 1 .512-.88 3.255 3.255 0 0 1 1.391-.728c1.147-.38 2.533-.726 3.486 0 1.057.8.878 2.383 1.539 3.506 1.076 1.829 4.069 2.019 5.049 3.9.781 1.494-.023 3.561 1.169 4.785.488.5 1.218.734 1.714 1.227 1.612 1.6-2.652 3.657.568 5.99 1.151-2.271 3.336-3.259 4.219-5.637a10.7 10.7 0 0 0 .131-2.9c-.072-1.224-1.035-2.205-1.748-3.23-1.3-1.875-1.844-4.118-2.633-6.235a27.781 27.781 0 0 0-3.876-7.042 3.534 3.534 0 0 0-.966-.964 3.97 3.97 0 0 0-1.629-.412 43.149 43.149 0 0 0-8.387-.27 16.436 16.436 0 0 0-7.837 2.585 9.684 9.684 0 0 0-2.308 2.181 15.706 15.706 0 0 0-1.645 3.092 12.385 12.385 0 0 0-1.251 4.053 11.67 11.67 0 0 0 .447 3.467c.246 1.035.232 2.35 1.095 3 5.404 4.038 6.384-.27 7.96-2.958z" class="cls-10" transform="translate(-1056.97 -712.307)"/>
                <path id="Path_19075" d="M1322.266 932.906a1.083 1.083 0 1 0-1.228.916 1.083 1.083 0 0 0 1.228-.916z" class="cls-7" transform="translate(-1292.042 -910.679)"/>
                <path id="Path_19076" d="M1198.062 940.834a1.083 1.083 0 1 0-1.228.916 1.083 1.083 0 0 0 1.228-.916z" class="cls-7" transform="translate(-1178.104 -917.952)"/>
                <path id="Path_19078" d="M1238.792 1036.474a6.41 6.41 0 0 0-4.588 1.2.152.152 0 1 0 .185.243c.148-.113 3.666-2.737 6.261-.032a.153.153 0 0 0 .22-.211 4.046 4.046 0 0 0-2.078-1.2z" class="cls-7" transform="translate(-1213.179 -1006.737)"/>
                <path id="Path_19079" d="M1175.329 916.024a.451.451 0 0 1-.207-.821 5.407 5.407 0 0 1 3.54-.722.451.451 0 0 1 .381.51.461.461 0 0 1-.51.381 4.5 4.5 0 0 0-2.907.577.449.449 0 0 1-.297.075z" class="cls-7" transform="translate(-1158.854 -894.863)"/>
                <path id="Path_19080" d="M1310.474 904.212a.45.45 0 0 1-.056-.845 5.348 5.348 0 0 1 3.612-.076.45.45 0 1 1-.287.854 4.482 4.482 0 0 0-2.963.047.45.45 0 0 1-.306.02z" class="cls-7" transform="translate(-1282.903 -884.395)"/>
                <path id="Path_19081" fill="#ea6868" d="M1270.114 944.615a2.666 2.666 0 0 1-1.087.092.159.159 0 1 1 .031-.317c1.533.15 1.844-.836 1.9-1.093a6.075 6.075 0 0 1-.924-3.845.159.159 0 0 1 .316.037 5.823 5.823 0 0 0 .9 3.674.158.158 0 0 1 .03.114 1.719 1.719 0 0 1-1.166 1.338z" transform="translate(-1245.048 -917.691)"/>
            </g>
        </g>
        <g id="Group_8937" opacity="0.8" transform="translate(165.733 140.263)">
            <g id="Group_8923" transform="translate(9.598 23.552)">
                <path id="Path_19082" d="M1246.635 1086.723l.608-2.547 5.248-.073.711 2.565h-.07zm.694-2.44l-.557 2.331 6.29-.052-.652-2.349z" class="cls-9" transform="translate(-1246.635 -1084.103)"/>
            </g>
            <g id="Group_8924" transform="translate(6.669 5.461)">
                <path id="Path_19083" d="M1214.9 869.21l-3.708-2.67 8.338-1.328-1.926 3.852zm-3.433-2.6l3.465 2.495 2.6-.141 1.8-3.609z" class="cls-9" transform="translate(-1211.193 -865.212)"/>
            </g>
            <g id="Group_8925" transform="translate(10.338 9.205)">
                <path id="Path_19084" d="M1255.623 912.383l-.038-1.724 2.742-.148.73 1.536zm.071-1.622l.033 1.5 3.166-.31-.633-1.333z" class="cls-9" transform="translate(-1255.585 -910.511)"/>
            </g>
            <g id="Group_8926" transform="translate(10.354 10.636)">
                <path id="Path_19085" d="M1257.542 932.938l-1.762-4.771 3.422-.335.513 4.656zm-1.613-4.678l1.681 4.554 1.987-.411-.491-4.453z" class="cls-9" transform="translate(-1255.78 -927.832)"/>
            </g>
            <g id="Group_8927" transform="translate(11.265 15.183)">
                <path id="Path_19086" d="M1266.8 984.723l.851-1.431 2.172-.45-.115 1.805zm.919-1.335l-.719 1.222 2.615-.068.1-1.566z" class="cls-9" transform="translate(-1266.803 -982.842)"/>
            </g>
            <g id="Group_8928" transform="translate(9.011 16.881)">
                <path id="Path_19087" d="M1239.535 1005.938l2.326-2.476 2.812-.073 1.838 2.442zm2.374-2.37l-2.121 2.258 6.51-.1-1.677-2.229z" class="cls-9" transform="translate(-1239.535 -1003.389)"/>
            </g>
            <g id="Group_8929" transform="translate(5.904 14.347)">
                <path id="Path_19088" d="M1202.142 978.6l-.027-.1 2.977-.771-3.148-4.994 6.257 1.281-.022.105-6.01-1.23 3.092 4.905z" class="cls-9" transform="translate(-1201.944 -972.728)"/>
            </g>
            <g id="Group_8930" transform="translate(1.375 .201)">
                <path id="Path_19089" d="M1165.732 814.8l-.1-.036 1.229-3.473-2.554-4.31-3.65-.036-.016-.016-5.11-5.18c-.308.681-2.708 5.989-2.908 6.455l-.012.029-3.654.43-1.711 5.633-.1-.031 1.732-5.7 3.662-.431c.288-.661 2.9-6.441 2.929-6.5l.032-.071 5.2 5.276 3.666.036.015.026 2.6 4.379z" class="cls-9" transform="translate(-1147.141 -801.566)"/>
            </g>
            <g id="Group_8931" transform="translate(14.214 13.321)">
                <path id="Path_19090" d="M1306.687 968.125l-2.627-1.876 3.988-5.737-5.533 1.78-.033-.1 5.836-1.878-4.109 5.911 2.457 1.755 3.71-4.663-1.969-2.926.089-.06 2.013 2.992-.025.031z" class="cls-9" transform="translate(-1302.482 -960.313)"/>
            </g>
            <g id="Group_8932" transform="translate(.211 10.975)">
                <path id="Path_19091" d="M1138.738 946.073l.145-4.928-5.823-5.1 1.189-2.229 4.607 1.512 4.389-3.39.066.085-4.434 3.425-4.575-1.5-1.106 2.074 5.8 5.082-.142 4.827 4.185-1.325-.459-2.076 2.746 1.05 2.976-1.15.018 2.093 2.624.345.264-2.85.107.01-.274 2.961-2.828-.372-.017-2.031-2.87 1.109-.02-.007-2.579-.987.438 1.977z" class="cls-9" transform="translate(-1133.06 -931.933)"/>
            </g>
            <g id="Group_8933" transform="translate(16.057 16.301)">
                <path id="Path_19092" d="M1324.857 1006.167l-.077-.075 2.039-2.093 4.031-7.633.1.05-4.039 7.646-.005.005z" class="cls-9" transform="translate(-1324.78 -996.367)"/>
            </g>
            <g id="Group_8934" transform="translate(.232 15.044)">
                <path id="Path_19093" d="M1142.731 992.286l-3.742-1.082-.011-.019-5.667-9.97.094-.053 5.656 9.952 3.7 1.07z" class="cls-9" transform="translate(-1133.312 -981.162)"/>
            </g>
            <path id="Path_19094" d="M1144 951.856a.4.4 0 1 1 .477.31.4.4 0 0 1-.477-.31z" class="cls-9" transform="translate(-1142.872 -938.789)"/>
            <path id="Path_19095" d="M1368.034 956.915a.4.4 0 1 1 .33.462.4.4 0 0 1-.33-.462z" class="cls-9" transform="translate(-1348.398 -943.567)"/>
            <path id="Path_19096" d="M1272.187 983.6a.4.4 0 1 1 .33.462.4.4 0 0 1-.33-.462z" class="cls-9" transform="translate(-1260.472 -968.048)"/>
            <path id="Path_19097" d="M1210.133 876.283a.4.4 0 1 1 .33.462.4.4 0 0 1-.33-.462z" class="cls-9" transform="translate(-1203.547 -869.599)"/>
            <path id="Path_19098" d="M1305.6 862.83a.4.4 0 1 1 .33.462.4.4 0 0 1-.33-.462z" class="cls-9" transform="translate(-1291.124 -857.258)"/>
            <path id="Path_19099" d="M1244.849 799.475a.4.4 0 1 1 .33.462.4.4 0 0 1-.33-.462z" class="cls-9" transform="translate(-1235.393 -799.139)"/>
            <path id="Path_19100" d="M1299.561 979.344a.4.4 0 1 1 .33.462.4.4 0 0 1-.33-.462z" class="cls-9" transform="translate(-1285.583 -964.142)"/>
            <path id="Path_19101" d="M1249.622 1081.086a.4.4 0 1 1 .239.515.4.4 0 0 1-.239-.515z" class="cls-9" transform="translate(-1239.755 -1057.541)"/>
            <path id="Path_19102" d="M1200.315 1037.963a.4.4 0 1 1 .239.515.4.4 0 0 1-.239-.515z" class="cls-9" transform="translate(-1194.523 -1017.982)"/>
            <path id="Path_19103" d="M1348.4 1048.377a.4.4 0 1 1 .239.515.4.4 0 0 1-.239-.515z" class="cls-9" transform="translate(-1330.367 -1027.535)"/>
            <path id="Path_19104" d="M1312.11 1081.086a.4.4 0 1 1 .239.515.4.4 0 0 1-.239-.515z" class="cls-9" transform="translate(-1297.078 -1057.541)"/>
            <path id="Path_19105" d="M1199.323 968.373a.4.4 0 1 1 .476.31.4.4 0 0 1-.476-.31z" class="cls-9" transform="translate(-1193.627 -953.941)"/>
            <path id="Path_19106" d="M1130.516 976.862a.4.4 0 1 1 .476.31.4.4 0 0 1-.476-.31z" class="cls-9" transform="translate(-1130.507 -961.728)"/>
            <path id="Path_19107" d="M1393.622 992.81a.4.4 0 1 1 .476.31.4.4 0 0 1-.476-.31z" class="cls-9" transform="translate(-1371.867 -976.358)"/>
            <g id="Group_8935" transform="translate(5.882 19.939)">
                <path id="Path_19108" d="M1206.006 1044.172l-4.327-3.784 3.939 1.663-.042.1-3.323-1.4 3.824 3.344z" class="cls-9" transform="translate(-1201.679 -1040.388)"/>
            </g>
            <g id="Group_8936" transform="translate(15.327 19.234)">
                <path id="Path_19109" d="M1316.071 1036.342l-.072-.08 2.857-2.575-2.9.544.487-2.378.106.022-.455 2.221 3.122-.585z" class="cls-9" transform="translate(-1315.953 -1031.853)"/>
            </g>
        </g>
        <g id="Group_8942" transform="translate(154.761 129.736)">
            <g id="Group_8938">
                <path id="Path_19110" d="M998.338 679.252h-.586v-7.477h7.184v.586h-6.6z" class="cls-14" transform="translate(-997.752 -671.774)"/>
            </g>
            <g id="Group_8939" transform="translate(36.946 .147)">
                <path id="Path_19111" d="M1452.249 680.732h-.586v-6.6h-6.891v-.586h7.477z" class="cls-14" transform="translate(-1444.771 -673.548)"/>
            </g>
            <g id="Group_8940" transform="translate(37.239 38.999)">
                <path id="Path_19112" d="M1455.5 1151.105h-7.184v-.587h6.6v-6.891h.587z" class="cls-14" transform="translate(-1448.319 -1143.628)"/>
            </g>
            <g id="Group_8941" transform="translate(0 39.145)">
                <path id="Path_19113" d="M1005.229 1152.586h-7.477v-7.186h.586v6.6h6.891z" class="cls-14" transform="translate(-997.752 -1145.402)"/>
            </g>
        </g>
        <g id="Group_8950" transform="translate(159.852 125.125)">
            <path id="Path_19115" d="M1167.706 660.2h-1.492l-.746 1.292.746 1.292h1.492l.746-1.292z" class="cls-9" transform="translate(-1156.697 -656.543)"/>
            <path id="Path_19116" d="M1277.332 615.989h-.745l-.373.645.373.645h.745l.372-.645z" class="cls-9" transform="translate(-1258.291 -615.989)"/>
            <path id="Path_19117" d="M1234.757 668.518h-.745l-.372.645.372.645h.745l.373-.645z" class="cls-9" transform="translate(-1219.234 -664.177)"/>
            <path id="Path_19118" d="M1094.169 711.192h-.745l-.373.645.373.645h.745l.372-.645z" class="cls-9" transform="translate(-1090.266 -703.323)"/>
            <path id="Path_19119" d="M1060.464 638.459h-.745l-.373.645.373.645h.745l.372-.645z" class="cls-9" transform="translate(-1059.346 -636.602)"/>
            <g id="Group_8946" transform="translate(10.964 .542)">
                <path id="Path_19120" d="M1192.091 625.693l-.09-.059 2.007-3.082h5.259v.108h-5.2z" class="cls-9" transform="translate(-1192.001 -622.552)"/>
            </g>
            <g id="Group_8947" transform="translate(3.811 4.892)">
                <path id="Path_19121" d="M1105.559 678.286l-.1-.043 1.334-3.062h3.626v.108h-3.556z" class="cls-9" transform="translate(-1105.46 -675.18)"/>
            </g>
            <g id="Group_8948" transform="translate(.782 2.449)">
                <path id="Path_19122" d="M1073.158 648.143l-1.743-2.421h-2.615v-.107h2.667l1.776 2.466z" class="cls-9" transform="translate(-1068.803 -645.614)"/>
            </g>
            <g id="Group_8949" transform="translate(11.755 4.892)">
                <path id="Rectangle_2533" d="M0 0H3.053V0.108H0z" class="cls-9"/>
            </g>
        </g>
        <g id="Group_8955" transform="translate(152.114 139.231)">
            <g id="Group_8951" transform="translate(.353 .712)">
                <path id="Path_19123" d="M972.093 800.073l-2.1-2.1v-2.694h.108v2.649l2.068 2.072z" class="cls-9" transform="translate(-969.992 -795.278)"/>
            </g>
            <path id="Path_19124" d="M991.158 851.415h-.745l-.372.645.372.645h.745l.372-.645z" class="cls-9" transform="translate(-988.031 -846.063)"/>
            <path id="Path_19125" d="M999.62 801.74h-.42l-.21.364.21.364h.421l.21-.364z" class="cls-9" transform="translate(-996.24 -800.494)"/>
            <path id="Path_19126" d="M966.358 786.662h-.421l-.21.364.21.364h.421l.21-.364z" class="cls-9" transform="translate(-965.727 -786.662)"/>
            <path id="Path_19127" d="M966.358 909.657h-.421l-.21.365.21.364h.421l.21-.364z" class="cls-9" transform="translate(-965.727 -899.492)"/>
            <g id="Group_8952" transform="translate(.353 6.601)">
                <path id="Path_19128" d="M970.1 870.417h-.108v-2.175l1.994-1.711.07.082-1.957 1.678z" class="cls-9" transform="translate(-969.992 -866.531)"/>
            </g>
            <g id="Group_8953" transform="translate(.38 1.838)">
                <path id="Rectangle_2534" d="M0 0H3.035V0.108H0z" class="cls-9" transform="rotate(-29.621 2.837 .75)"/>
            </g>
            <g id="Group_8954" transform="translate(.383 .273)">
                <path id="Rectangle_2535" d="M0 0H0.108V3.097H0z" class="cls-9" transform="rotate(-64.8 .076 .048)"/>
            </g>
        </g>
        <g id="Group_8958" transform="translate(195.382 134.415)">
            <g id="Group_8956" transform="translate(.581 .348)">
                <path id="Path_19129" d="M1502.2 746.918h-.108v-2.411l-2.786-1.466v-.032c0-1.144-.011-2.874-.041-3.049l-2.989-2.989V732.6h.108v4.327l2.954 2.954c.049.025.059.21.07 1.589.005.677.006 1.354.006 1.507l2.786 1.466z" class="cls-9" transform="translate(-1496.272 -732.598)"/>
            </g>
            <path id="Path_19130" d="M1526.231 814.871h-.745l-.372.645.372.645h.745l.373-.645z" class="cls-9" transform="translate(-1522.148 -807.724)"/>
            <path id="Path_19131" d="M1490.358 777.026h-.745l-.372.645.372.645h.745l.372-.645z" class="cls-9" transform="translate(-1489.24 -773.007)"/>
            <path id="Path_19132" d="M1550.377 757.217h-.745l-.372.645.372.645h.745l.372-.645z" class="cls-9" transform="translate(-1544.299 -754.834)"/>
            <path id="Path_19133" d="M1559.345 867.3h-.745l-.372.645.372.645h.745l.372-.645z" class="cls-9" transform="translate(-1552.526 -855.821)"/>
            <path id="Path_19134" d="M1562.985 906.379h-.4l-.2.348.2.348h.4l.2-.348z" class="cls-9" transform="translate(-1556.338 -891.669)"/>
            <path id="Path_19135" d="M1493.385 728.391h-.4l-.2.348.2.348h.4l.2-.348z" class="cls-9" transform="translate(-1492.49 -728.391)"/>
            <g id="Group_8957" transform="translate(3.576 3.476)">
                <path id="Path_19136" d="M1532.59 774.682l-.08-.072 2.12-2.363v-1.8h.108v1.845l-.014.015z" class="cls-9" transform="translate(-1532.51 -770.443)"/>
            </g>
        </g>
        <g id="Group_8969" transform="translate(1232.647 -313.49)">
            <path id="Path_18979" d="M19.885 35.819l-8.174-14.51a1.9 1.9 0 0 0-3.295 0L.242 35.819a1.915 1.915 0 0 0 1.648 2.852h16.284a1.934 1.934 0 0 0 1.711-2.852z" class="cls-15" transform="translate(-1066 480.206)"/>
            <path id="Path_18980" d="M50.587 63.025l8.174 14.51H42.413l8.174-14.51z" class="cls-6" transform="translate(-1106.523 439.44)"/>
            <g id="Group_8908" transform="translate(-1057.418 507.174)">
                <path id="Path_18981" d="M195.91 179.912l.562 3.724a.914.914 0 0 0 .913.773.973.973 0 0 0 .913-.773l.562-3.724a1.461 1.461 0 0 0-1.475-1.686 1.5 1.5 0 0 0-1.475 1.686z" class="cls-15" transform="translate(-195.905 -178.226)"/>
                <circle id="Ellipse_507" cx=".843" cy=".843" r=".843" class="cls-15" transform="translate(.638 6.956)"/>
            </g>
        </g>
    </g>
</svg>
