<svg xmlns="http://www.w3.org/2000/svg" width="84" height="84" viewBox="0 0 84 84">
    <defs>
        <clipPath id="clip-path">
            <circle id="Mask" cx="35.652" cy="35.652" r="35.652" class="cls-1"/>
        </clipPath>
        <clipPath id="clip-path-2">
            <path id="Clip_36" d="M0 0h6.877v5.072H0z" class="cls-2"/>
        </clipPath>
        <clipPath id="clip-path-3">
            <path id="Clip_49" d="M0 0h11.81v8.03H0z" class="cls-2"/>
        </clipPath>
        <clipPath id="clip-path-4">
            <path id="Clip_56" d="M0 0h5.666v16.624H0z" class="cls-2"/>
        </clipPath>
        <linearGradient id="linear-gradient" x1=".5" x2=".5" y2="1" gradientUnits="objectBoundingBox">
            <stop offset="0" stop-color="#fff"/>
            <stop offset="1" stop-color="#eaf5ff"/>
        </linearGradient>
        <style>
            .cls-1{fill:url(#linear-gradient)}.cls-2{fill:none}.cls-5{fill:#ffbd95}.cls-6{fill:#ffa47c}.cls-7{fill:#d5e4ff}.cls-9{fill:#00233f}.cls-11{fill:#191919}.cls-13{fill:#002d56}
        </style>
    </defs>
    <g id="Group_9125" transform="translate(-17 -83)">
        <circle id="Ellipse_541" cx="42" cy="42" r="42" fill="#fff" transform="translate(17 83)"/>
        <g id="Group_60" transform="translate(23.176 89.176)">
            <circle id="Mask-2" cx="35.652" cy="35.652" r="35.652" class="cls-1"/>
            <g id="Group_60-2" clip-path="url(#clip-path)">
                <g id="Group_60-3" transform="translate(16.013 10.881)">
                    <path id="Fill_1" d="M16.763 6.431c.425-1.157-1.988-3.2-5.787-4.215C6.6 1.048.352-.728.027.317c-.446 1.425 4.807 3.317 8.766 5.461 4.01 2.171 7.091 3.047 7.97.653" class="cls-5" transform="translate(14.599 18.339)"/>
                    <path id="Fill_3" d="M20.484 16.692c1.5-4.579 5.369-12.429 3.111-13.8C20.652 1.106 12.182 0 12.182 0v.145S3.635.848.687 2.626c-2.262 1.364 1.658 9.6 3.142 14.186.356 1.1.31 6.03.166 10.4-.036 1.078-.918 6.035-.772 8.085.044.611 6.959 4.409 8.9 4.509v-.145c1.94-.094 8.867-3.871 8.912-4.482.153-2.049-.716-7.01-.748-8.088-.13-4.371-.162-9.3.2-10.4" class="cls-5" transform="translate(7.649 17.531)"/>
                    <path id="Fill_5" d="M10.885.234C9.336-.542 7.2.624 5.8 3.533s-2.039 5.045-2.384 5.81c-.356.79-2.76 5.211-3.21 6.494a2.591 2.591 0 0 0 1.057 3.342c1.036.5 3.19-.743 4.594-2.62S15.046 2.322 10.885.234" class="cls-6" transform="translate(.006 19.717)"/>
                    <path id="Fill_7" d="M2.357.032C.649.323-.406 2.413.149 5.4s1.282 4.948 1.451 5.719c.17.8.793 5.486 1.173 6.707a2.508 2.508 0 0 0 2.8 1.919c1.131-.211 2.154-2.365 2.2-4.573S6.945-.751 2.357.032" class="cls-5" transform="translate(27.883 20.422)"/>
                    <path id="Fill_9" d="M3.622 0A13.257 13.257 0 0 1 5.45 3.647c.523 1.87 1.94 7.088 1.94 7.088a5.684 5.684 0 0 1-2.89 2.716c-2.211 1.009-2.7 1.177-2.7 1.177S.079 10.025 0 9.361 1.043 1.164 3.622 0" class="cls-7" transform="translate(28.345 20.442)"/>
                    <path id="Fill_11" fill="#cee0ff" d="M8.555 0a5.834 5.834 0 0 0-3.409 1.556C3.936 2.918 0 12.242 0 12.242s4.936 3.907 5.224 4.012 3.423-5.659 3.423-5.659S10.955 1.347 8.555 0" transform="translate(1.316 19.575)"/>
                    <path id="Fill_13" d="M9.631 5.193C9.438 4.319 8.96 0 8.96 0H6.1v.145L3.238.14s-.491 4.315-.686 5.187S0 7.514 0 7.514l6.088.008v-.146l6.088.01s-2.352-1.32-2.545-2.193" class="cls-5" transform="translate(13.741 10.987)"/>
                    <path id="Fill_15" d="M9.439 3.975c-.179-1.322-.394-3.2-.46-3.79L8.8 0H6.1v.145H3.24s-.492 4.315-.686 5.188S0 7.514 0 7.514h.287c2.719-.72 5.42-1.438 5.784-1.542a24.878 24.878 0 0 0 3.367-2" class="cls-6" transform="translate(13.742 10.987)"/>
                    <path id="Fill_17" d="M4.77 0C1.278-.016-.083 2.417 0 9.884s1.187 15.566 1.67 16.73 5.43 1.2 5.916.519S9.311 10.964 9.314 8.54 8.572.018 4.77 0" class="cls-5" transform="translate(10.458 48.022)"/>
                    <path id="Fill_19" d="M3.378 8.167l-.921-.023A2.53 2.53 0 0 1 0 5.558l.079-3.1A2.529 2.529 0 0 1 2.665 0l.921.023a2.529 2.529 0 0 1 2.456 2.586l-.079 3.1a2.529 2.529 0 0 1-2.585 2.458" class="cls-5" transform="translate(12.064 72.447)"/>
                    <path id="Fill_21" d="M3.555 0C2.489 0-.13.348.005 7.309s3.078 16.5 3.078 16.5h2.521s1.25-12.883 1.26-15.354C6.886 2.83 6.925.005 3.555 0" class="cls-5" transform="translate(11.387 76.043)"/>
                    <path id="Fill_23" d="M3.723.039C7.194-.337 8.8 1.944 9.482 9.38s.421 15.6.061 16.812-5.278 1.749-5.831 1.125S.336 11.412.082 9-.057.447 3.723.039" class="cls-5" transform="translate(20.713 48.045)"/>
                    <path id="Fill_25" d="M3.233 8.22l.926-.12a2.533 2.533 0 0 0 2.173-2.832L5.935 2.2A2.526 2.526 0 0 0 3.12.021l-.926.12A2.532 2.532 0 0 0 .021 2.973l.4 3.067a2.526 2.526 0 0 0 2.812 2.18" class="cls-5" transform="translate(24.336 72.307)"/>
                    <path id="Fill_27" d="M2.806.021c1.06-.112 3.7-.033 4.284 6.9S5.726 23.654 5.726 23.654l-2.507.263S.649 11.229.385 8.771c-.6-5.592-.931-8.4 2.42-8.75" class="cls-5" transform="translate(24.798 75.906)"/>
                    <path id="Fill_29" d="M1.48 0A91.519 91.519 0 0 0 .017 9.494c-.2 3.345 1.416 17.97 1.419 19.58s-.112 6.555-.017 11.4 1.333 14.399 1.333 14.399l6.206-.145S9 34.231 9 31.008s.806-20.19.806-20.19L9.825.272z" class="cls-9" transform="translate(9.962 46.52)"/>
                    <path id="Fill_31" d="M24.355 2.953c-.324-.67-2.444-1.167-4.342-1.758C18.339.674 16.841.014 16.841.014l-4.652 2.655L7.546 0A33.82 33.82 0 0 1 4.37 1.172C2.47 1.756.349 2.246.023 2.917S3.078 16.65 3.458 17.761s-.61 8.875.356 11.2l8.326.271h.018l8.328-.246c.765-2.661-.005-10.234.378-11.344s3.82-14.007 3.491-14.688" class="cls-7" transform="translate(7.628 17.561)"/>
                    <path id="Fill_33" d="M8.317 0a91.794 91.794 0 0 1 2.433 9.293c.542 3.308.441 18.021.6 19.622s.786 6.509 1.191 11.342.138 14.458.138 14.458l-6.188.494s-2.128-20.386-2.465-23.59S0 11.086 0 11.086L.06.444z" class="cls-9" transform="translate(19.727 46.347)"/>
                    <g id="Group_37" transform="translate(11.351 101.264)">
                        <path id="Clip_36-2" d="M0 0h6.877v5.072H0z" class="cls-2"/>
                        <g id="Group_37-2" clip-path="url(#clip-path-2)">
                            <path id="Fill_35" d="M2.014.114S-.107 2.591 0 3.246a3 3 0 0 0 2.587 1.822c1.235.076 3.25-1.051 3.565-1.083C6.879 3.911 6.877 0 6.877 0z" class="cls-11"/>
                        </g>
                    </g>
                    <path id="Fill_38" d="M4.849 0s2.365 2.246 2.322 2.909a3 3 0 0 1-2.382 2.077c-1.221.2-3.342-.71-3.657-.71C.4 4.278 0 .387 0 .387z" class="cls-11" transform="translate(26.693 101.137)"/>
                    <path id="Fill_40" fill="#b8d1ff" d="M13.852 24.672c-.8-.5-2-1-2.727-1.456s-.02-2-.028-2.8 2.214-2.3 3.716-2.847 4.1-.345 4.706-1.393-1-2.054-1.7-2.055-5.2-1.308-5.9-1.21-6.006.642-6.856-.009S0 0 0 0c.944 4.114 3.549 13.607 3.79 14.313.381 1.11-.61 8.875.355 11.2l8.327.272h.018l8.327-.246a25.3 25.3 0 0 1-2.562-.485c-.751-.229-3.6.121-4.4-.38" transform="translate(7.296 21.008)"/>
                    <path id="Fill_42" d="M3.364 12.538c.349 2.191.745 16.92.8 17.756.058.817 2.154 23.534 2.25 24.583l2.038-.162s.266-9.625-.138-14.457-1.029-9.74-1.191-11.342-.058-16.316-.6-19.623A91.794 91.794 0 0 0 4.09 0L.188.534 0 .692s3.014 9.654 3.364 11.846" class="cls-13" transform="translate(23.954 46.347)"/>
                    <path id="Fill_44" d="M4.612 1.2a2.375 2.375 0 0 0-4.43.979 21.243 21.243 0 0 0-.049 5.145c.525 2.769 1.277 16.307 1.176 16.662S1.279 49.2 1.279 49.2l.11.065 3.343-.077s.04-20.5.045-23.721.806-20.19.806-20.19v-.921l.066-1.326z" class="cls-13" transform="translate(14.188 52.058)"/>
                    <path id="Fill_46" d="M10.282 6.67c-.005 3.68-2.791 7.341-5.152 7.336C2.875 14-.005 10.333 0 6.654S2.312 0 5.151 0s5.136 2.99 5.131 6.67" class="cls-5" transform="translate(14.761 .343)"/>
                    <g id="Group_50" transform="translate(13.912)">
                        <path id="Clip_49-2" d="M0 0h11.81v8.03H0z" class="cls-2"/>
                        <g id="Group_50-2" clip-path="url(#clip-path-3)">
                            <path id="Fill_48" fill="#8d3b26" d="M.848 7.736a6.248 6.248 0 0 1-.824-2.872A15.006 15.006 0 0 1 1.4 1.929 10.9 10.9 0 0 1 4.77.066a10.4 10.4 0 0 1 2.3 0c.834.135 2.3.7 2.634 1.372s1.159 1.437 1.429 1.972a7.289 7.289 0 0 1 .668 2.1c-.067.2-.436 1.868-.469 2a3.4 3.4 0 0 1-.275.512s-1.38-3.507-1.413-3.841-7.044-.445-7.475-.212S.848 7.736.848 7.736"/>
                        </g>
                    </g>
                    <path id="Fill_51" d="M.043 2.26c-.208 1.394.238 2.635 3.5 3.331a109.876 109.876 0 0 0 11.067 1.15l.336-2.256a79.47 79.47 0 0 0-7.88-3.65C5.311.364.588-1.389.043 2.26" class="cls-5" transform="translate(0 34.41)"/>
                    <path id="Fill_53" d="M2.99.15s-.849.517-.96.627A7.852 7.852 0 0 1 .742 2.119c-.378.176-.654.17-.713.235s-.093.868.61.711 1.3-.658 1.521-.6.164 1.582.023 1.881S.836 6.474.785 6.568s-.14.386-.063.472A1.239 1.239 0 0 0 1.471 7c.111-.071.174.21.3.2s.568-.087.568-.087a2.005 2.005 0 0 0 .716-.066 8.325 8.325 0 0 0 1.056-.716 12.769 12.769 0 0 0 1.3-2.15C5.5 3.733 5.776 1.1 5.107.2 4.791-.221 2.99.15 2.99.15" class="cls-5" transform="translate(28.957 49.576)"/>
                    <g id="Group_57" transform="translate(30.354 34.411)">
                        <path id="Clip_56-2" d="M0 0h5.666v16.624H0z" class="cls-2"/>
                        <g id="Group_57-2" clip-path="url(#clip-path-4)">
                            <path id="Fill_55" d="M3.468.027C4.866.208 5.921 1.1 5.611 5.081a107.62 107.62 0 0 1-2.07 11.543L1.28 16.33S-.07 9.871 0 7.7-.191-.449 3.468.027" class="cls-5"/>
                        </g>
                    </g>
                    <path id="Fill_58" d="M1.08 1.38S1.963.924 2.116.887a7.753 7.753 0 0 0 1.815-.4C4.278.258 4.417.017 4.5 0s.79.375.289.892-1.24.767-1.308.984 1.266.967 1.594 1 2.52-.039 2.628-.034.4.08.436.191-.307.562-.425.619.088.258.017.363-.369.438-.369.438a2 2 0 0 1-.429.577 8.463 8.463 0 0 1-1.161.528 12.78 12.78 0 0 1-2.511-.008C2.827 5.389.44 4.253.021 3.214-.176 2.723 1.08 1.38 1.08 1.38" class="cls-5" transform="translate(12.94 37.395)"/>
                </g>
            </g>
        </g>
    </g>
</svg>
