<svg xmlns="http://www.w3.org/2000/svg" width="20.015" height="19.589" viewBox="0 0 20.015 19.589">
    <defs>
        <style>
            .cls-2{fill:#fff}
        </style>
    </defs>
    <g id="Group_8790" transform="translate(-31 -504.035)">
        <g id="Group_1736" transform="translate(0 86.642)">
            <path id="Fill_1" fill="#e4e3e5" d="M20.015 1.692c0 .935-4.481 1.692-10.008 1.692S0 2.627 0 1.692 4.481 0 10.007 0s10.008.758 10.008 1.692" transform="translate(31 433.598)"/>
            <g id="outline" transform="translate(31.92 417.393)">
                <path id="Path_18641" d="M24.31 65.347h17.348a.31.31 0 0 0 .307-.354l-.138-.963a2.634 2.634 0 0 0-1.427-1.982l-5.558-2.778v-.746a3.053 3.053 0 0 0 .978-1.293 7.955 7.955 0 0 0 .485-1.8h.2a1.115 1.115 0 0 0 1-.62 1.127 1.127 0 0 0 .118-.5v-.546a1.117 1.117 0 0 0-.31-.772v-2.515a.31.31 0 0 0-.052-.172l-.1-.156a2.042 2.042 0 0 0-1.514-.9 2.536 2.536 0 0 0-2.19-1.25h-1.713a2.535 2.535 0 0 0-1.8.747l-.546.546a2.535 2.535 0 0 0-.747 1.8v1.9a1.117 1.117 0 0 0-.31.772v.546a1.127 1.127 0 0 0 .118.5 1.115 1.115 0 0 0 1 .62h.2a7.955 7.955 0 0 0 .485 1.8 3.053 3.053 0 0 0 .978 1.293v.746l-5.552 2.778a2.634 2.634 0 0 0-1.429 1.983l-.141.963a.31.31 0 0 0 .307.354zm12.84-4.231l2.97 1.484a2.014 2.014 0 0 1 1.093 1.516l.087.61h-1.191V63.8a.31.31 0 0 0-.62 0v.929h-2.978l.793-2.38a.31.31 0 0 0-.172-.383l-.336-.144zm-1.291 3.612h-.706V61.79l1.475.632zm.737-3.889l-.369.737-1.074-.46v-.77c0-.015-.086-.273-.086-.273zm-2.063 3.889h-3.1v-3.589l1.33 1.33a.31.31 0 0 0 .438 0l1.33-1.33zm-.3-5.212a.313.313 0 0 0 .011.044l.249.748-1.5 1.5-1.5-1.5.249-.748c0-.014.012-.049.012-.051v-.616a3.082 3.082 0 0 0 2.478 0l-.004.623zm2.783-5.749v.546a.5.5 0 0 1-.053.224.5.5 0 0 1-.448.277h-.118v-1.548h.118a.5.5 0 0 1 .5.5zm-7.435.5v.548h-.118a.5.5 0 0 1-.448-.277.5.5 0 0 1-.053-.224v-.546a.5.5 0 0 1 .5-.5h.118zm.043-2.4a.31.31 0 0 0-.043.157v.62h-.118a1.123 1.123 0 0 0-.191.017V51.1a1.919 1.919 0 0 1 .566-1.366l.546-.546a1.919 1.919 0 0 1 1.366-.566h1.713a1.921 1.921 0 0 1 1.728 1.068.31.31 0 0 0 .277.171 1.424 1.424 0 0 1 1.187.635l.052.078v2.091a1.123 1.123 0 0 0-.191-.017h-.118v-.62a.31.31 0 0 0-.043-.157l-.929-1.577a.31.31 0 0 0-.267-.152h-4.344a.31.31 0 0 0-.267.153zM30.722 57a7.332 7.332 0 0 1-.527-2.735v-2.154l.8-1.352h3.983l.8 1.352v2.155A7.332 7.332 0 0 1 35.245 57a2.432 2.432 0 0 1-.858 1.089.31.31 0 0 0-.055.038 2.448 2.448 0 0 1-2.7 0 .309.309 0 0 0-.056-.038A2.432 2.432 0 0 1 30.722 57zm.182 3.072l-.086.273v.77l-1.074.46-.369-.737zm-.089 1.717v2.938h-.706l-.769-2.306zm-6.061 2.328a2.014 2.014 0 0 1 1.093-1.517l2.971-1.486.352.7-.336.144a.31.31 0 0 0-.172.383l.793 2.38h-2.977V63.8a.31.31 0 0 0-.62 0v.929h-1.191z" transform="translate(-24 -48)"/>
            </g>
            <path id="Path_18642" d="M5886.277 10206.217h1.892l.132-4.7-2.832 1.394z" class="cls-2" transform="translate(-5849.436 -9772.045)"/>
            <path id="Path_18643" d="M5887.731 10206.217h-1.649v-4.707l2.463 1.23z" class="cls-2" transform="translate(-5843.042 -9772.045)"/>
        </g>
    </g>
</svg>
