<svg xmlns="http://www.w3.org/2000/svg" width="20" height="19.998" viewBox="0 0 20 19.998">
    <g>
        <g>
            <path fill="#00b3b5" d="M19.988 19.558c.019-.089.013.457.013-12.033a.589.589 0 0 0-.187-.43c.011 0-.142-.109-2.976-2.167V3.033a1.76 1.76 0 0 0-1.758-1.758h-.817A1.761 1.761 0 0 0 12.579.026H4.924a1.76 1.76 0 0 0-1.758 1.758v3.144C.014 7.219.21 7.066.14 7.148a.587.587 0 0 0-.122.244C-.006 7.5 0 6.776 0 19.436a.586.586 0 0 0 .51.582c.063.008 18.946.005 18.9.005a.587.587 0 0 0 .573-.465zM1.174 8.678l6.558 4.786-6.558 4.816zM10 13.251l7.625 5.6H2.376zm8.827-4.573v9.6l-6.557-4.814zm-.409-1.152l-1.581 1.155v-2.3zm-2.753-4.493v6.5l-1.328.969V2.448h.742a.587.587 0 0 1 .586.586zm-2.5 8.327l-1.885 1.376-.585-.429a1.167 1.167 0 0 0-1.387 0l-.585.429-4.385-3.2 4.385 3.2h2.557zm-10-4.984v2.3l-1.581-1.15 1.583-1.15z" transform="translate(-.001 -.026) translate(.001 .026) translate(-.001 -.026)"/>
        </g>
        <g>
            <g>
                <path fill="#e0ffff" d="M139.424 161.332h-.477a2.281 2.281 0 0 0-.165-.413h.642a.459.459 0 1 0 0-.917h-3.083a.459.459 0 1 0 0 .917h.881a.913.913 0 0 1 .734.413h-1.615a.459.459 0 0 0 0 .917h1.615c-.037.055-.078.105-.119.156a.853.853 0 0 1-.615.257h-.881a.452.452 0 0 0-.459.45.457.457 0 0 0 .142.335l2.206 2.083a.458.458 0 1 0 .628-.665l-1.385-1.312a1.77 1.77 0 0 0 1.009-.5 1.7 1.7 0 0 0 .463-.8h.477a.459.459 0 0 0 0-.917z" transform="translate(-.001 -.026) translate(7.001 3.526) translate(-135.883 -160.002)"/>
            </g>
        </g>
    </g>
</svg>
