<svg xmlns="http://www.w3.org/2000/svg" width="66.787" height="49.149" viewBox="0 0 66.787 49.149">
    <defs>
        <style>
            .cls-3{fill:#fff}.cls-4{fill:#00b3b5}.cls-5{fill:#168794}
        </style>
    </defs>
    <g id="Group_9147" transform="translate(-43.754 -208.034)">
        <ellipse id="Ellipse_242" cx="30.074" cy="4.01" fill="#dfefef" rx="30.074" ry="4.01" transform="translate(46.328 249.164)"/>
        <path id="Path_1460" fill="rgba(0,179,180,0.24)" d="M.229 1.967C.955-.714 5.479.124 5.479.124s3.072 4.691 3.965 4.8S7.6.4 7.6.4c1.731-.168 6.143 1.955 6.143 1.955s-.279 5.473.614 5.362 0-4.859 0-4.859a8.316 8.316 0 0 1 3.243 2.46c1.955 3.183-2.234 5.529-2.234 5.529a8.911 8.911 0 0 0 1.117 4.077 6.462 6.462 0 0 1 .534 1.086h-.457q-.056-.184-.124-.355l-.132-.293c-.14-.273-.234-.475-.293-.621a7.011 7.011 0 0 0-1.422-2.209.885.885 0 0 0 .1-.209l-.1.209C13.8 14.2 9.891 14.477 7.713 14.03s-1.229-1.061-.056-2.058 3.63-.734 4.356-1.125-.335-.782-1.787-.67-2.178 1.564-4.526 1.787-4.131-4.189-4.131-4.189c1.62.5 4.524-.391 4.635-.949s-4.189-.5-4.859-.67S-.5 4.648.229 1.967" transform="rotate(10 -1288.326 380.693)"/>
        <g id="bank" transform="translate(54 208.035)">
            <path id="Path_19235" d="M75.035 175.3h32.075v23.335H75.035zm0 0" class="cls-3" transform="translate(-68.424 -159.859)"/>
            <path id="Path_19236" d="M406.07 190.754h5.445v20.353h-5.445zm0 0" class="cls-4" transform="translate(-370.29 -173.947)"/>
            <path id="Path_19237" d="M49.581 218.118h-5.444V198.84h5.445zm0 0" class="cls-4" transform="translate(-40.248 -181.32)"/>
            <g id="Group_9139" transform="translate(2.334 15.057)">
                <path id="Path_19238" d="M388.414 170.891h8.556v1.945a1.555 1.555 0 0 1-1.555 1.555h-5.445a1.555 1.555 0 0 1-1.556-1.555zm0 0" class="cls-5" transform="translate(-356.523 -170.891)"/>
                <path id="Path_19239" d="M389.97 404.82h5.445a1.556 1.556 0 0 1 1.555 1.556v1.945h-8.556v-1.945a1.556 1.556 0 0 1 1.556-1.556zm0 0" class="cls-5" transform="translate(-356.523 -384.208)"/>
                <path id="Path_19240" d="M33.485 174.391H28.04a1.555 1.555 0 0 1-1.555-1.555v-1.945h8.555v1.945a1.555 1.555 0 0 1-1.555 1.555zm0 0" class="cls-5" transform="translate(-26.484 -170.891)"/>
                <path id="Path_19241" d="M35.04 408.321h-8.556v-1.945a1.556 1.556 0 0 1 1.555-1.556h5.445a1.556 1.556 0 0 1 1.556 1.556zm0 0" class="cls-5" transform="translate(-26.484 -384.208)"/>
            </g>
            <path id="Path_19242" d="M17.656 128.52h42.78v3.344a.778.778 0 0 1-.778.778H18.434a.778.778 0 0 1-.778-.778zm0 0" class="cls-5" transform="translate(-16.101 -117.196)"/>
            <path id="Path_19243" d="M18.434 440.133h41.225a.778.778 0 0 1 .778.778v3.889H17.656v-3.889a.778.778 0 0 1 .778-.778zm0 0" class="cls-5" transform="translate(-16.101 -401.352)"/>
            <path id="Path_19244" d="M44.336 12.335H.778A.778.778 0 0 1 0 11.557V7.463a.778.778 0 0 1 .545-.743L21.865.1a2.328 2.328 0 0 1 1.383 0l21.321 6.62a.778.778 0 0 1 .545.743v4.094a.778.778 0 0 1-.778.778zm0 0" class="cls-4"/>
            <path id="Path_19245" d="M35.309 42.179v-.041l19.212-5.963a.778.778 0 0 1 .461 0L74.2 42.138v.041zm0 0" class="cls-5" transform="translate(-32.197 -32.956)"/>
            <path id="Path_19246" fill="#fec10d" d="M176.01 219.17a8.556 8.556 0 1 1-8.556-8.556 8.556 8.556 0 0 1 8.556 8.556zm0 0" transform="translate(-144.897 -192.056)"/>
            <g id="Group_9140" transform="translate(-.829)">
                <path id="Path_19247" d="M224.631 252.148c-2.176 0-3.94-1.393-3.94-3.111s1.764-3.111 3.94-3.111 3.94 1.393 3.94 3.111a1.012 1.012 0 0 1-1.97 0 2.025 2.025 0 1 0-1.97 1.556.8.8 0 1 1 0 1.556zm0 0" class="cls-3" transform="translate(-201.246 -224.257)"/>
                <path id="Path_19248" d="M224.631 305.113c-2.176 0-3.94-1.393-3.94-3.111a1.012 1.012 0 0 1 1.97 0 2.025 2.025 0 1 0 1.97-1.556.8.8 0 1 1 0-1.556c2.176 0 3.94 1.393 3.94 3.112s-1.764 3.111-3.94 3.111zm0 0" class="cls-3" transform="translate(-201.246 -272.555)"/>
                <path id="Path_19249" d="M247.95 249.543a.778.778 0 0 1-.778-.778v-10.889a.778.778 0 0 1 1.556 0v10.889a.778.778 0 0 1-.778.778zm0 0" class="cls-3" transform="translate(-224.564 -216.207)"/>
            </g>
            <path id="Path_19250" d="M.778 475.441h43.558a.778.778 0 0 1 .778.778v1.556a.778.778 0 0 1-.778.778H.778a.778.778 0 0 1-.778-.778v-1.556a.778.778 0 0 1 .778-.778zm0 0" class="cls-4" transform="translate(0 -433.55)"/>
        </g>
        <g id="insurance" transform="translate(93.189 229.499)">
            <g id="Group_1764">
                <g id="Group_1763">
                    <path id="Path_18675" fill="#fec10d" stroke="#fff" stroke-linecap="round" stroke-width="1.5px" d="M76.963 3.475c-3.534 0-7.2-3.276-7.233-3.309a.639.639 0 0 0-.858 0c-.036.033-3.69 3.309-7.233 3.309a.639.639 0 0 0-.639.638v7.647c0 6.195 4.607 8.67 8.073 9.993a.639.639 0 0 0 .455 0C74.388 19.9 77.6 17 77.6 11.76V4.113a.639.639 0 0 0-.637-.638z" transform="translate(-61)"/>
                </g>
            </g>
            <g id="Group_1766" transform="translate(3.831 6.428)">
                <g id="Group_1765">
                    <path id="Path_18676" d="M155.47 151a4.47 4.47 0 1 0 4.47 4.47 4.475 4.475 0 0 0-4.47-4.47zm1.729 4.283l-1.916 1.916a.638.638 0 0 1-.9 0l-.639-.639a.639.639 0 1 1 .9-.9l.187.187 1.464-1.464a.638.638 0 1 1 .9.9z" class="cls-3" transform="translate(-151 -151)"/>
                </g>
            </g>
        </g>
    </g>
</svg>
