<svg xmlns="http://www.w3.org/2000/svg" width="66.548" height="68.028" viewBox="0 0 66.548 68.028">
    <defs>
        <style>
            .cls-5{fill:#fec10d}
        </style>
    </defs>
    <g id="Group_8882" transform="translate(0 1.48)">
        <g id="Group_8881">
            <path id="Path_18930" fill="#282c47" d="M62.39 53.335H51.3v2.773h11.09a1.386 1.386 0 0 1 1.386 1.386V97.7a1.386 1.386 0 0 1-1.386 1.386H4.16A1.386 1.386 0 0 1 2.774 97.7V57.494a1.386 1.386 0 0 1 1.386-1.386h11.091v-2.773H4.16A4.159 4.159 0 0 0 0 57.494V97.7a4.159 4.159 0 0 0 4.159 4.159h18.553l-4.159 8.318h-3.3v2.773H51.3v-2.773H48l-4.159-8.318h18.548a4.159 4.159 0 0 0 4.16-4.159V57.494a4.159 4.159 0 0 0-4.159-4.159zM44.9 110.178H21.653l4.159-8.318h14.924z" transform="translate(-.001 -46.403)"/>
        </g>
        <g id="Group_8893" transform="translate(20 -1.48)">
            <g id="Group_8889">
                <path id="Path_18945" fill="#00b3b5" d="M208.125 178.7a13.447 13.447 0 1 1-13.447-13.447 13.384 13.384 0 0 1 13.447 13.447z" transform="translate(-181.232 -165.258)"/>
                <path id="Path_18946" fill="#168794" d="M235.884 180.922a13.446 13.446 0 0 1-20.806 11.253 13.448 13.448 0 0 0 10.952-24.214 13.45 13.45 0 0 1 9.854 12.961z" transform="translate(-208.991 -167.475)"/>
            </g>
            <path id="Path_18947" fill="#fff" d="M221.39 223.018a1.385 1.385 0 0 1-.982-.407l-3.852-3.852a1.39 1.39 0 0 1 1.965-1.965l2.869 2.869 6.721-6.721a1.39 1.39 0 0 1 1.965 1.965l-7.7 7.7a1.385 1.385 0 0 1-.986.411z" transform="translate(-209.869 -204.033)"/>
        </g>
        <g id="Group_8891" transform="translate(6.804 33.076)">
            <path id="Path_18949" d="M220.786 388.3h-37.717a1.509 1.509 0 0 1 0-3.018h37.717a1.509 1.509 0 1 1 0 3.018z" class="cls-5" transform="translate(-169.903 -385.285)"/>
            <path id="Path_18950" d="M128.917 388.3h-5.53a1.509 1.509 0 0 1 0-3.018h5.53a1.509 1.509 0 0 1 0 3.018z" class="cls-5" transform="translate(-121.878 -385.285)"/>
            <path id="Path_18951" d="M326.543 411.83H314.5a1.509 1.509 0 0 1 0-3.018h12.048a1.509 1.509 0 0 1 0 3.018z" class="cls-5" transform="translate(-275.66 -404.217)"/>
            <path id="Path_18952" d="M154.989 411.83h-31.6a1.509 1.509 0 1 1 0-3.018h31.6a1.509 1.509 0 1 1 0 3.018z" class="cls-5" transform="translate(-121.878 -404.217)"/>
        </g>
    </g>
</svg>
