<svg xmlns="http://www.w3.org/2000/svg" xmlns:xlink="http://www.w3.org/1999/xlink" width="176.862" height="197.792" viewBox="0 0 176.862 197.792">
    <defs>
        <linearGradient id="linear-gradient" x1="117.679" x2="118.679" y1=".5" y2=".5" gradientUnits="objectBoundingBox">
            <stop offset="0" stop-color="#febbba"/>
            <stop offset="1" stop-color="#ff928e"/>
        </linearGradient>
        <linearGradient id="linear-gradient-2" x1="136.292" x2="137.292" y1=".5" y2=".5" xlink:href="#linear-gradient"/>
        <linearGradient id="linear-gradient-3" x1="-119.468" x2="-121.344" y1="1.716" y2="-.451" xlink:href="#linear-gradient"/>
        <linearGradient id="linear-gradient-4" x1="18.202" x2="19.202" y1=".5" y2=".5" xlink:href="#linear-gradient"/>
        <linearGradient id="linear-gradient-5" x1="58.424" x2="59.424" y1=".5" y2=".5" xlink:href="#linear-gradient"/>
        <linearGradient id="linear-gradient-6" x1="46.037" x2="47.037" y1=".5" y2=".5" xlink:href="#linear-gradient"/>
        <linearGradient id="linear-gradient-7" x1="-3.408" x2="-3.203" y1="8.144" y2="9.323" gradientUnits="objectBoundingBox">
            <stop offset="0" stop-color="#282c47"/>
            <stop offset="1" stop-color="#1a0f91"/>
        </linearGradient>
        <style>
            .cls-2{fill:#00b3b4}.cls-3{fill:#008793}.cls-4,.cls-7,.cls-9{fill:#fff}.cls-4{opacity:.47}.cls-5{fill:#f36f21}.cls-6{fill:#ff9f67}.cls-7{opacity:.63}.cls-10{fill:#282c47}.cls-13{fill:#fec10d}.cls-14{fill:#febbba}
        </style>
    </defs>
    <g id="Group_9196" transform="translate(-30.182 -11.019)">
        <g id="Illustration" transform="translate(30.182 29.189)">
            <g id="Group_9195">
                <path id="Path_20172" fill="#f5f9fc" d="M626.845 637.83a63.955 63.955 0 0 1-9.783 8.237c-31.914 22.9-69.676 16.224-77.7 14.594-11.851-2.407-34.76-7.06-51.322-26.537-25.057-29.467-21.156-75.891-1.719-106.537 3.555-5.606 22.335-36.718 60.5-41.707 23.1-3.02 50.026 3.071 69.526 19.407 40.933 34.292 38.02 103.569 10.498 132.543z" transform="translate(-470.484 -483.201)"/>
                <g id="Group_9174" transform="translate(110.55 69.44)">
                    <path id="Path_20173" d="M2204.12 1641.629a1.145 1.145 0 0 1-.768-.453c-2.694-3.63-22.28-32.039 3.787-58.008 24.746-24.652 35.963-29.714 37.454-44.2a1.7 1.7 0 0 1 3.213-.573c5.623 11.4 14.383 37.99-14.608 55.444-31.98 19.254-29.359 40.361-27.812 46.359a1.148 1.148 0 0 1-1.267 1.428z" class="cls-2" transform="translate(-2193.762 -1537.45)"/>
                    <path id="Path_20174" d="M2388.5 2698.808a1.655 1.655 0 0 1-1.416-1.386c-.763-4.94-2.638-23.4 10.961-28.3 14.971-5.389 27.058 8.554 38.063-2.359a.835.835 0 0 1 1.414.73c-.98 5.7-5.342 18.9-24.753 21.562-20.776 2.844-23.114 5.227-22.695 8.184a1.394 1.394 0 0 1-1.574 1.565z" class="cls-3" transform="translate(-2374.176 -2594.089)"/>
                    <path id="Path_20175" d="M2292.987 1784.708a21.325 21.325 0 0 1-.994 3.084 31.212 31.212 0 0 1-1.347 2.929 38.428 38.428 0 0 1-3.454 5.451 45.188 45.188 0 0 1-9.214 9.029 58.993 58.993 0 0 1-5.406 3.5 49.118 49.118 0 0 0-5.131 3.437 54.059 54.059 0 0 0-8.886 8.584 46.088 46.088 0 0 0-10.175 22.235 43.249 43.249 0 0 0-.069 12.376 51.181 51.181 0 0 0 3.279 12.047.405.405 0 0 1-.742.324 48.454 48.454 0 0 1-3.914-12.153 42.137 42.137 0 0 1-.364-12.844 44.112 44.112 0 0 1 3.467-12.423 50.078 50.078 0 0 1 6.74-11 54 54 0 0 1 9.226-9.019 51.5 51.5 0 0 1 5.365-3.622 59.141 59.141 0 0 0 5.242-3.327 49.707 49.707 0 0 0 9.119-8.317 43.438 43.438 0 0 0 3.689-4.984 32.789 32.789 0 0 0 2.854-5.5l.01-.025a.37.37 0 0 1 .7.218z" class="cls-4" transform="translate(-2242.88 -1768.421)"/>
                    <path id="Path_20176" d="M2403.313 2749.164a1.313 1.313 0 0 0 .038-.516l-.016-.509-.012-1.018q0-1.018.045-2.034c.061-1.355.176-2.709.357-4.056a30.4 30.4 0 0 1 2.065-7.9 14.417 14.417 0 0 1 5.059-6.472 11.159 11.159 0 0 1 3.876-1.594 14.2 14.2 0 0 1 4.164-.211c5.408.627 10.709 1.664 16.024 2.506a28.289 28.289 0 0 0 7.931.392 11.814 11.814 0 0 0 1.9-.434 10 10 0 0 0 1.774-.793 12.513 12.513 0 0 0 3.012-2.507.33.33 0 0 1 .493.438 13.21 13.21 0 0 1-3.13 2.715 10.769 10.769 0 0 1-1.9.9 12.615 12.615 0 0 1-2.031.51 29.014 29.014 0 0 1-8.19-.306c-2.686-.382-5.337-.88-8-1.311s-5.336-.849-7.978-1.159a13.264 13.264 0 0 0-3.894.161 10.252 10.252 0 0 0-3.58 1.435 13.625 13.625 0 0 0-4.871 6.032 29.749 29.749 0 0 0-2.157 7.685c-.2 1.325-.342 2.661-.426 4q-.062 1-.082 2.012l-.007 1.007.006.5a1.09 1.09 0 0 0 .079.5.306.306 0 1 1-.561.04z" class="cls-4" transform="translate(-2389.852 -2647.796)"/>
                </g>
                <g id="Group_9177" transform="translate(37.462)">
                    <g id="Group_9175" transform="translate(7.742 2.037)">
                        <path id="Path_20177" d="M1225.69 486.763a60.907 60.907 0 0 0-23.639 4.245c-16.927 7.023-31.293 25.607-25.671 44.589 1.826 6.166.867 12.969 7.01 15.649 3.324 1.45 12.375 2.313 15.817 1.17 9.147-3.037 15.16-11.349 10.185-20.566-1.593-2.952-3.655-5.648-5.031-8.707s-2-6.69-.6-9.737c2.753-5.981 11.9-7.883 17.83-7.7a20.754 20.754 0 0 1 17.111 9.614c4.7 7.4 5.884 16.407 5.2 25-.735 9.195-4.612 16.217-10.422 23.27-5 6.073-10.511 11.9-13.836 19.033-3.052 6.546-4.05 13.8-4.187 20.962-.027 1.388-6.93 14.47-6.9 18.466 0 .565 7.83 2.435 8.394 2.441l14.363.161a1.145 1.145 0 0 0 1.16-1.129c.219-19.444 6.2-37.981 21.339-51.04 5.509-4.752 11.442-8.621 15.725-14.618 6.105-8.548 9.117-16.961 8.248-27.51-.794-9.635-3.967-19.276-10.247-26.751-6.75-8.035-16.63-13.053-26.9-15.218a75.766 75.766 0 0 0-14.949-1.624z" class="cls-5" transform="translate(-1175.141 -486.76)"/>
                        <path id="Path_20178" d="M1754.289 2749.351c0 8.941-4.956 16.851-13.9 16.851-1.931 0-8.5.018-10.218-.6-6.233-2.252-6.255-7.04-6.255-14.05 0-8.941 3.019-17.735 11.96-17.735s18.413 6.593 18.413 15.534z" class="cls-5" transform="translate(-1688.713 -2589.664)"/>
                    </g>
                    <g id="Group_9176">
                        <path id="Path_20179" d="M1105 455a60.908 60.908 0 0 0-23.639 4.245c-16.927 7.023-31.293 25.607-25.671 44.589 1.826 6.166 6.049 13.929 12.192 16.608a15.023 15.023 0 0 0 10.635.211c9.147-3.037 15.16-11.349 10.185-20.566-1.593-2.952-3.655-5.648-5.031-8.707s-2-6.69-.6-9.737c2.753-5.981 11.9-7.883 17.83-7.7a20.755 20.755 0 0 1 17.111 9.614c4.7 7.4 5.884 16.407 5.2 25-.735 9.195-4.612 16.216-10.422 23.27-5 6.073-10.511 11.9-13.836 19.033-3.052 6.546-4.05 13.8-4.187 20.962-.027 1.388.441 15.884.47 19.881a1.034 1.034 0 0 0 1.024 1.027l14.363.161a1.145 1.145 0 0 0 1.159-1.129c.219-19.444 6.2-37.981 21.339-51.04 5.509-4.752 11.442-8.621 15.725-14.618 6.105-8.548 9.117-16.961 8.248-27.51-.794-9.635-3.967-19.276-10.247-26.751-6.75-8.035-16.63-13.053-26.9-15.218A75.765 75.765 0 0 0 1105 455z" class="cls-6" transform="translate(-1054.451 -455)"/>
                        <circle id="Ellipse_548" cx="16.189" cy="16.189" r="16.189" class="cls-6" transform="translate(35.205 145.696)"/>
                    </g>
                    <path id="Path_20180" d="M1145.114 574.169a.208.208 0 0 1-.2-.163c-1.135-5.123-1.3-13.145 4.348-22.27a39.425 39.425 0 0 1 22.989-17.714c10.412-3.043 22.774-2.392 36.743 1.937a.208.208 0 0 1-.123.4c-26.837-8.316-47.881-2.776-59.256 15.6-5.576 9.007-5.414 16.914-4.3 21.962a.208.208 0 0 1-.2.253z" class="cls-7" transform="translate(-1138.516 -527.191)"/>
                    <path id="Path_20181" d="M1174.177 1244.505a.207.207 0 0 1-.168-.085 20.852 20.852 0 0 1-2.3-4.518.208.208 0 0 1 .388-.148 20.863 20.863 0 0 0 2.248 4.422.208.208 0 0 1-.168.33z" class="cls-7" transform="translate(-1164.173 -1189.286)"/>
                    <path id="Path_20182" d="M1857.977 2790.049a.208.208 0 0 1-.094-.022 11.659 11.659 0 0 0-5.323-1.268.208.208 0 0 1 0-.416 12.071 12.071 0 0 1 5.511 1.313.208.208 0 0 1-.094.393z" class="cls-7" transform="translate(-1801.166 -2638.657)"/>
                    <path id="Path_20183" d="M1670.923 2831.438a.207.207 0 0 1-.116-.036 12.2 12.2 0 0 1 1.053-20.868.208.208 0 0 1 .2.366 11.787 11.787 0 0 0-1.017 20.157.208.208 0 0 1-.116.38z" class="cls-7" transform="translate(-1626.234 -2659.402)"/>
                </g>
                <g id="Group_9189" transform="translate(104.453 -18.169)">
                    <path id="Path_20199" d="M2154.284 1312.776l-8.8 9 10.555-2.82z" class="cls-2" transform="translate(-2145.484 -1290.58)"/>
                    <path id="Path_20200" d="M2335.014 992.7l-50 2.427a2.25 2.25 0 0 1-2.359-2.248V972.3a4.139 4.139 0 0 1 4.01-4.136l45.063-1.394a6.076 6.076 0 0 1 6.076 6.076v16.917a2.933 2.933 0 0 1-2.79 2.937z" class="cls-2" transform="translate(-2273.854 -966.774)"/>
                    <path id="Path_20201" fill="#fff" d="M2297.712 1002.421a3.092 3.092 0 0 1-3.087-3.092v-18.54a4.046 4.046 0 0 1 3.988-4.017l43.632-1.318a5.929 5.929 0 0 1 5.995 5.849v15.984a2.907 2.907 0 0 1-2.805 2.876l-47.572 2.253c-.051.004-.101.005-.151.005zm44.536-26.749l-43.628 1.318a3.83 3.83 0 0 0-3.778 3.8v18.54a2.874 2.874 0 0 0 3.011 2.872l47.571-2.253a2.69 2.69 0 0 0 2.6-2.659V981.3a5.711 5.711 0 0 0-5.776-5.628z" opacity="0.85" transform="translate(-2285.057 -974.898)"/>
                    <path id="Path_20202" d="M2441.4 1037.286l-39.981 1.5a.645.645 0 0 0-.689.58l.015.351a.642.642 0 0 0 .725.519l39.983-1.46a.646.646 0 0 0 .689-.58l-.017-.388a.643.643 0 0 0-.725-.522z" class="cls-9" transform="translate(-2384.356 -1032.762)"/>
                    <path id="Path_20203" d="M2385.636 1195.068l-39.981 1.489a.651.651 0 0 0-.688.6l.016.364a.649.649 0 0 0 .726.539l39.983-1.451a.652.652 0 0 0 .689-.6l-.017-.4a.649.649 0 0 0-.728-.541z" class="cls-9" transform="translate(-2332.169 -1180.422)"/>
                    <path id="Path_20204" d="M2390.31 1261.069l-44.571 1.683c-.438.016-.783.29-.77.609l.016.368c.013.316.374.557.807.541l44.572-1.645c.438-.016.784-.289.77-.609l-.017-.406c-.017-.315-.373-.557-.807-.541z" class="cls-9" transform="translate(-2332.173 -1242.189)"/>
                    <path id="Path_20205" d="M2369.886 1130.317l-21.792.635c-.214.006-.374.3-.356.654l.02.409c.017.351.2.629.414.623l21.793-.593c.214-.006.375-.3.357-.654l-.022-.451c-.017-.35-.2-.629-.414-.623z" class="cls-9" transform="translate(-2334.762 -1119.826)"/>
                    <path id="Path_20206" d="M2761.913 1118.577l-20.6.59c-.2.006-.353.3-.335.654l.02.409c.017.351.193.629.393.624l20.6-.548c.2-.005.353-.3.335-.654l-.022-.451c-.015-.351-.191-.63-.391-.624z" class="cls-9" transform="translate(-2702.777 -1108.838)"/>
                </g>
                <g id="Group_9194" transform="translate(7.023 55.389)">
                    <path id="Path_20207" d="M1090.141 3139.451s-.412 2.333-.614 4.643a1.591 1.591 0 0 0 1.522 1.724c3.076.128 9.655.377 12.016.272a.518.518 0 0 0 .456-.709 1.159 1.159 0 0 0-.593-.625l-10.867-4.995z" class="cls-10" transform="translate(-1064.832 -3027.63)"/>
                    <path id="Path_20208" fill="url(#linear-gradient)" d="M1093.928 3111.793l.331 2.791s1.9.886 3.2-.112l-.788-3.11z" transform="translate(-1068.957 -3001.343)"/>
                    <path id="Path_20209" d="M971.9 2300.176c-.143.729-.768 36.369 3.042 52.341a.542.542 0 0 1-.318.631 9.446 9.446 0 0 1-3.1.63.934.934 0 0 1-.926-.67c-1.089-3.706-6.307-22.272-6.988-40.008-.761-19.818 0-.675 0-.675l.446-12.25z" class="cls-10" transform="translate(-946.677 -2242.194)"/>
                    <path id="Path_20210" d="M885.194 3158.424a16.786 16.786 0 0 0-1.291 4.308.971.971 0 0 0 .854 1.163c1.016.1 2.579.228 3.831.219a.968.968 0 0 0 .958-1.08 8.164 8.164 0 0 0-1.906-4.478z" class="cls-10" transform="translate(-872.386 -3045.386)"/>
                    <path id="Path_20211" fill="url(#linear-gradient-2)" d="M895.337 3100.077l.774 4.22a2.729 2.729 0 0 0 2.278.156l-.369-4.541z" transform="translate(-883.106 -2990.629)"/>
                    <path id="Path_20212" d="M845.258 2288.471c-3.116 18.8.676 46.476 1.955 51.892a.845.845 0 0 0 .682.641 5.67 5.67 0 0 0 2.437-.1.774.774 0 0 0 .556-.713c.172-4.379-.137-31.26 2.766-41.883a2.414 2.414 0 0 1 .931-1.331l5.635-4.006.432-6.475z" class="cls-10" transform="translate(-835.117 -2229.395)"/>
                    <g id="Group_9190" transform="translate(8.978 8.984)">
                        <path id="Path_20213" d="M865.637 1739.568A87.777 87.777 0 0 0 846 1742.02c-2.783 16.24-.487 34.973-.487 34.973 7.229 1.9 15.383-1.159 15.383-1.159 1.2-6.788 6.807-25.892 6.807-25.892a30.758 30.758 0 0 0 11.416-3.623 20.02 20.02 0 0 1-3.957-8.277 31.332 31.332 0 0 1-9.525 1.526z" class="cls-13" transform="translate(-844.619 -1725.107)"/>
                        <path id="Path_20214" d="M1338.734 1537.12a1.787 1.787 0 0 0-2.078-.584c-1.374 5.8-8.579 10.51-15.981 12.811a20.02 20.02 0 0 0 3.957 8.277c12.285-6.907 14.102-20.504 14.102-20.504z" class="cls-13" transform="translate(-1290.136 -1536.412)"/>
                    </g>
                    <g id="Group_9191" transform="translate(55.498)">
                        <path id="Path_20215" d="M1571.646 1406.337c.1.305-1.015.77-1.67-.478-.023-.6-.387-3.16-.029-3.648a47.717 47.717 0 0 1 5.594-5.848.878.878 0 0 1 .11 1.22l-1.79 1.865a8.66 8.66 0 0 1 1.045 2.066 2.508 2.508 0 0 1-.25 1.846c-.314.566-.743 1.3-1.148 1.878a2.477 2.477 0 0 1-1.862 1.099z" class="cls-14" transform="translate(-1569.791 -1396.363)"/>
                        <path id="Path_20216" fill="url(#linear-gradient-3)" d="M1589.754 1463.313l-1.631 1.383-.512 1.377 1.455 1.614a18.766 18.766 0 0 1 .852-3.323c.363-.592.174-.878-.164-1.051z" transform="translate(-1586.467 -1459.018)"/>
                    </g>
                    <path id="Path_20217" d="M721.509 1809.1l-3.581-9.041s-8.722 5.926-10.156 13.439a20.644 20.644 0 0 1 7.582 2.032c.646-3.551 6.155-6.43 6.155-6.43z" class="cls-13" transform="translate(-707.573 -1774.158)"/>
                    <path id="Path_20218" fill="url(#linear-gradient-4)" d="M726.231 2013.663s-9.792 5.534-13.1.809a3.714 3.714 0 0 1-.681-2.886 20.644 20.644 0 0 0-7.582-2.032 10.371 10.371 0 0 0 1.127 7.109c5.788 10.587 21.528-.585 21.528-.585z" transform="translate(-704.672 -1970.216)"/>
                    <g id="Group_9192" transform="translate(20.36 28.421)">
                        <path id="Path_20219" d="M1022.072 1887.863l5.344-18.663a.544.544 0 0 1 .46-.392c.968-.113 3.774-.43 7.013-.7a79.62 79.62 0 0 1 11.141-.37.546.546 0 0 1 .446.786c-1.54 3.115-7.874 15.788-11.046 19.939a.548.548 0 0 1-.441.216l-12.4-.115a.546.546 0 0 1-.517-.701z" class="cls-3" transform="translate(-1022.051 -1865.836)"/>
                        <path id="Path_20220" d="M1223.98 1840.038l3.875-.646a.278.278 0 0 1 .31.361l-.384 1.162a.278.278 0 0 1-.227.188l-3.729.5a.278.278 0 0 1-.307-.339l.237-1.015a.278.278 0 0 1 .225-.211z" class="cls-9" transform="translate(-1210.586 -1839.389)"/>
                        <path id="Path_20221" d="M1185.509 1860.257l.319-1.663a.384.384 0 0 1 .339-.31l7.826-.794a.384.384 0 0 1 .412.472l-.5 2.072a.384.384 0 0 1-.354.294l-7.647.385a.384.384 0 0 1-.395-.456z" class="cls-9" transform="translate(-1175.016 -1856.327)"/>
                        <path id="Path_20222" fill="url(#linear-gradient-5)" d="M1034.991 2019.633s-.744-3.061-.444-4.147.882-2.482 2.822-2.172a28.374 28.374 0 0 1 4.227 1.127 1.11 1.11 0 0 1-1.589.958l.914.707s-.131 1.133-1.376.527l.85.938a.991.991 0 0 1-1.451.334c-.916-.597-1.355 2.095-3.953 1.728z" transform="translate(-1033.679 -2002.115)"/>
                    </g>
                    <path id="Path_20223" fill="url(#linear-gradient-6)" d="M981.215 1643.669l-2.971 8.592a.31.31 0 0 0 .141.373 6.984 6.984 0 0 0 7.244-.487 1.458 1.458 0 0 0 .671-1.041l.962-7.436z" transform="translate(-960.678 -1627.804)"/>
                    <g id="Group_9193" transform="translate(14.898 3.443)">
                        <path id="Path_20224" d="M1014.485 1519.642s3.263 6.141 2.844 8.622-4.462 2.3-7.992.288l-2.467-6.631z" class="cls-14" transform="translate(-1002.382 -1515.177)"/>
                        <path id="Path_20225" fill="url(#linear-gradient-7)" d="M944.022 1460.155a.253.253 0 0 0 .111-.37 6.606 6.606 0 0 1-.908-1.927s-.586-.376 1.493-.873 5.18-1.27 5.832-3.04c.635-1.726-1.034-6.065-3.7-2.607a.253.253 0 0 1-.4 0 2.61 2.61 0 0 0-3.179-1.033 2.394 2.394 0 0 0-1.639 2.313.252.252 0 0 1-.3.258 2.919 2.919 0 0 0-3.408 1.589c-.7 1.529-.244 2.395.168 2.818a.252.252 0 0 1-.108.419 1.519 1.519 0 0 0-1.072 1.733c.089 1.605 1.883 1.464 2.394 1.391a.254.254 0 0 1 .225.08c.438.485 2.412 2.544 4.549 2.792a.255.255 0 0 0 .268-.337l-.925-2.688a.254.254 0 0 1 .137-.315z" transform="translate(-936.911 -1450.036)"/>
                        <path id="Path_20226" d="M1017.062 1602.2s-2.323-1.594-2.493-.252 2.092 1.944 3.212 1.444z" class="cls-14" transform="translate(-1009.579 -1591.702)"/>
                    </g>
                </g>
            </g>
        </g>
    </g>
</svg>
