<svg xmlns="http://www.w3.org/2000/svg" width="14.379" height="19.884" viewBox="0 0 14.379 19.884">
    <defs>
        <style>
            .cls-1{fill:#2b2a2c}
        </style>
    </defs>
    <g id="Group_9061" transform="translate(-176.223 -109.238)">
        <g id="notification-bell" transform="translate(176.223 109.238)">
            <path id="Path_916" d="M62.106 7.2v5.928a1.326 1.326 0 0 1-.391.944A2.425 2.425 0 0 0 61 15.8v.877h4.48a2.765 2.765 0 0 0 5.419 0h4.48V15.8a2.425 2.425 0 0 0-.715-1.726 1.326 1.326 0 0 1-.391-.944V7.2a6.092 6.092 0 0 0-5.53-6.058V-1h-1.107v2.139a6.091 6.091 0 0 0-5.53 6.061zm6.083 10.581a1.662 1.662 0 0 1-1.564-1.106h3.128a1.661 1.661 0 0 1-1.564 1.103zM73.167 7.2v5.928a2.425 2.425 0 0 0 .715 1.726 1.325 1.325 0 0 1 .372.715H62.126a1.325 1.325 0 0 1 .372-.715 2.425 2.425 0 0 0 .715-1.726V7.2a4.977 4.977 0 1 1 9.955 0z" class="cls-1" transform="translate(-61 1)"/>
        </g>
        <path id="Path_917" d="M-1477.106 3763.992h3.942l-.7 1.761h-2.224z" class="cls-1" transform="translate(1658.503 -3637.446)"/>
    </g>
</svg>
