<svg xmlns="http://www.w3.org/2000/svg" width="45" height="45.002" viewBox="0 0 45 45.002">
    <defs>
        <style>
            .cls-1{fill:#e8ffff}.cls-2{fill:#282c47}.cls-3{fill:#fff}.cls-7{fill:#168794}.cls-8{fill:#ffc30a}
        </style>
    </defs>
    <g id="online-payment" transform="translate(-1.003 .001)">
        <circle id="Ellipse_545" cx="22.5" cy="22.5" r="22.5" class="cls-1" transform="translate(1.003 -.001)"/>
        <path id="Path_19257" d="M71.707 44.766A4.207 4.207 0 0 0 74.52 40.8V4.2A4.2 4.2 0 0 0 70.327 0H54.586a4.2 4.2 0 0 0-4.193 4.2v31.626a22.373 22.373 0 0 0 21.314 8.94z" class="cls-2" transform="translate(-45.05)"/>
        <path id="Path_19258" d="M50.393 4.2v31.628a22.573 22.573 0 0 0 2.323 2.693V4.2A4.2 4.2 0 0 1 56.909 0h-2.323a4.2 4.2 0 0 0-4.193 4.2z" class="cls-2" transform="translate(-45.05 -.002)"/>
        <path id="Path_19259" d="M94.434 26.483h-2.16a.5.5 0 0 0-.5.5v.643a1.087 1.087 0 0 1-1.082 1.085h-8.255a1.087 1.087 0 0 1-1.082-1.085v-.445a.7.7 0 0 0-.7-.7h-1.962a1.872 1.872 0 0 0-1.87 1.873v34.32a22.479 22.479 0 0 0 5.628 4.065h11.983a1.872 1.872 0 0 0 1.87-1.873v-36.51a1.872 1.872 0 0 0-1.87-1.873z" class="cls-3" transform="translate(-69.157 -24.156)"/>
        <path id="Path_19260" fill="#f4fafa" d="M78.694 26.477a1.872 1.872 0 0 0-1.87 1.873v34.32a22.558 22.558 0 0 0 2.231 1.936V28.35a1.872 1.872 0 0 1 1.7-1.865c-.105-.016.01-.005-2.061-.008z" transform="translate(-69.158 -24.15)"/>
        <g id="Group_9161" transform="translate(13.794 1.648)">
            <path id="Path_19261" d="M174.944 20.127h-3.532a.678.678 0 0 1 0-1.356h3.532a.678.678 0 0 1 0 1.356z" class="cls-3" transform="translate(-168.609 -18.77)"/>
            <path id="Path_19262" d="M146.841 20.006a.676.676 0 1 1 .507.1 1.086 1.086 0 0 1-.507-.1z" class="cls-3" transform="translate(-146.541 -18.764)"/>
        </g>
        <path id="SVGCleanerId_0" fill="#0eb0ff" d="M178.568 152.8V135.484a.909.909 0 0 0-.906-.906h-30.214a.909.909 0 0 0-.906.906V152.8a.909.909 0 0 0 .906.906h30.213a.909.909 0 0 0 .907-.906z" transform="translate(-132.748 -122.75)"/>
        <g id="Group_9162" transform="translate(13.794 11.827)">
            <path id="SVGCleanerId_0_1_" fill="#00b3b5" d="M178.568 152.8V135.484a.909.909 0 0 0-.906-.906h-30.214a.909.909 0 0 0-.906.906V152.8a.909.909 0 0 0 .906.906h30.213a.909.909 0 0 0 .907-.906z" transform="translate(-146.542 -134.577)"/>
        </g>
        <path id="Path_19267" d="M151.308 152.8v-17.316a.909.909 0 0 1 .906-.906h-4.767a.909.909 0 0 0-.906.906V152.8a.909.909 0 0 0 .906.906h4.767a.909.909 0 0 1-.906-.906z" class="cls-7" transform="translate(-132.747 -122.75)"/>
        <path id="Path_19268" d="M387.338 264.066a2.763 2.763 0 0 1 .712-3.574 2.766 2.766 0 1 0 0 4.385 2.751 2.751 0 0 1-.712-.811z" class="cls-1" transform="translate(-348.975 -237.077)"/>
        <path id="Path_19269" d="M385.382 263.729a2.763 2.763 0 0 1 1.011-3.774l.032-.017a2.762 2.762 0 1 0 1.291 5.172 2.761 2.761 0 0 1-2.334-1.381z" class="cls-1" transform="translate(-348.975 -237.092)"/>
        <path id="Path_19270" d="M438.232 261.3a2.759 2.759 0 0 0-4.073-.811 2.763 2.763 0 0 1 0 4.385 2.763 2.763 0 0 0 4.074-3.574z" class="cls-1" transform="translate(-395.084 -237.076)"/>
        <path id="Path_19271" d="M423.694 267.245a2.006 2.006 0 0 0-.73 3.66 2.822 2.822 0 0 0 .73-3.66z" class="cls-7" transform="translate(-383.891 -243.054)"/>
        <path id="Path_19272" d="M179.684 283.188h2.036a.871.871 0 1 0 0-1.743h-2.036a.871.871 0 0 0 0 1.743z" class="cls-8" transform="translate(-162.183 -256.709)"/>
        <path id="Path_19273" d="M180.316 282.316a.874.874 0 0 1 .871-.871h-1.5a.871.871 0 0 0 0 1.743h1.5a.874.874 0 0 1-.871-.872z" class="cls-7" transform="translate(-162.183 -256.709)"/>
        <path id="Path_19274" d="M239.508 283.188h2.037a.871.871 0 0 0 0-1.743h-2.037a.871.871 0 0 0 0 1.743z" class="cls-8" transform="translate(-216.748 -256.709)"/>
        <path id="Path_19275" d="M240.139 282.316a.874.874 0 0 1 .871-.871h-1.5a.871.871 0 1 0 0 1.743h1.5a.874.874 0 0 1-.871-.872z" class="cls-7" transform="translate(-216.748 -256.709)"/>
        <path id="Path_19276" d="M299.332 283.188h2.036a.871.871 0 0 0 0-1.743h-2.036a.871.871 0 0 0 0 1.743z" class="cls-8" transform="translate(-271.314 -256.709)"/>
        <path id="Path_19277" d="M299.963 282.316a.874.874 0 0 1 .871-.871h-1.5a.871.871 0 0 0 0 1.743h1.5a.874.874 0 0 1-.871-.872z" class="cls-7" transform="translate(-271.314 -256.709)"/>
        <path id="Path_19278" d="M183.342 180.467h-3.672a.859.859 0 0 1-.857-.857v-1.827a.859.859 0 0 1 .857-.857h3.672a.859.859 0 0 1 .857.857v1.827a.859.859 0 0 1-.857.857z" class="cls-8" transform="translate(-162.183 -161.377)"/>
        <path id="Path_19279" fill="#ffa01a" d="M181.187 179.61v-1.827a.859.859 0 0 1 .857-.857h-2.373a.859.859 0 0 0-.857.857v1.827a.859.859 0 0 0 .857.857h2.373a.859.859 0 0 1-.857-.857z" transform="translate(-162.183 -161.377)"/>
        <path id="Path_19280" d="M478.574 157.067c-.326 0-.593.178-.593.4v4.068c0 .217.267.4.593.4s.593-.178.593-.4v-4.068c0-.222-.267-.4-.593-.4z" class="cls-1" transform="translate(-435.056 -142.044)"/>
    </g>
</svg>
