<svg xmlns="http://www.w3.org/2000/svg" width="17.699" height="15.625" viewBox="0 0 17.699 15.625">
    <g>
        <g>
            <g>
                <g>
                    <path d="M17.587 98.131c-.158-.216-3.926-5.3-8.737-5.3s-8.58 5.084-8.738 5.3a.584.584 0 0 0 0 .689c.158.216 3.926 5.3 8.737 5.3s8.579-5.08 8.737-5.3a.583.583 0 0 0 .001-.689zm-8.737 4.818c-3.544 0-6.614-3.372-7.523-4.474C2.234 97.372 5.3 94 8.85 94s6.614 3.371 7.523 4.474c-.908 1.105-3.973 4.475-7.523 4.475z" transform="translate(-316.778 -319.188) translate(316.778 228.213) translate(0 92.835) translate(0 -92.835)"/>
                </g>
            </g>
            <g>
                <g>
                    <path d="M157.83 154.725a3.108 3.108 0 1 0 3.108 3.108 3.112 3.112 0 0 0-3.108-3.108zm0 5.181a2.072 2.072 0 1 1 2.072-2.072 2.075 2.075 0 0 1-2.072 2.072z" transform="translate(-316.778 -319.188) translate(316.778 228.213) translate(5.741 95.367) translate(-154.722 -154.725)"/>
                </g>
            </g>
        </g>
        
        
    </g>
</svg>