<svg xmlns="http://www.w3.org/2000/svg" width="13.146" height="17.527" viewBox="0 0 13.146 17.527">
    <defs>
        <style>
            .cls-1{fill:#363954}
        </style>
    </defs>
    <g id="padlock" transform="translate(-3)">
        <path id="Path_18772" d="M14.5 19.955H4.643A1.645 1.645 0 0 1 3 18.311v-7.668A1.645 1.645 0 0 1 4.643 9H14.5a1.645 1.645 0 0 1 1.643 1.643v7.668a1.645 1.645 0 0 1-1.643 1.644zM4.643 10.1a.548.548 0 0 0-.548.548v7.668a.548.548 0 0 0 .548.548H14.5a.548.548 0 0 0 .548-.548v-7.673a.548.548 0 0 0-.548-.543z" class="cls-1" transform="translate(0 -2.427)"/>
        <path id="Path_18773" d="M14.216 7.668a.548.548 0 0 1-.548-.548V4.382a3.286 3.286 0 0 0-6.573 0V7.12a.548.548 0 1 1-1.1 0V4.382a4.382 4.382 0 1 1 8.764 0V7.12a.548.548 0 0 1-.543.548z" class="cls-1" transform="translate(-.809)"/>
        <path id="Path_18774" d="M11.461 15.921a1.461 1.461 0 1 1 1.461-1.461 1.462 1.462 0 0 1-1.461 1.461zm0-1.826a.365.365 0 1 0 .365.365.366.366 0 0 0-.365-.36z" class="cls-1" transform="translate(-1.888 -3.506)"/>
        <path id="Path_18775" d="M11.8 18.854a.548.548 0 0 1-.548-.548V16.3a.548.548 0 1 1 1.1 0v2.008a.548.548 0 0 1-.552.546z" class="cls-1" transform="translate(-2.225 -4.248)"/>
    </g>
</svg>
