<svg xmlns="http://www.w3.org/2000/svg" width="17.809" height="18.703" viewBox="0 0 17.809 18.703">
    <g>
        <path fill="#e4e3e5" d="M15 1.5C15 2.328 11.642 3 7.5 3S0 2.328 0 1.5 3.358 0 7.5 0 15 .672 15 1.5" transform="translate(-28.3 -420.297) translate(30 436)"/>
        <path fill="#363954" stroke="#363954" stroke-width="0.4px" d="M69.481 97.658a1.131 1.131 0 0 1-1.13-1.13V86.163a1.131 1.131 0 0 1 1.13-1.13h4.385a.333.333 0 1 1 0 .665h-4.385a.465.465 0 0 0-.465.465v10.365a.465.465 0 0 0 .465.465H84.63a.465.465 0 0 0 .465-.465V86.163a.465.465 0 0 0-.465-.465h-4.385a.333.333 0 1 1 0-.665h4.385a1.131 1.131 0 0 1 1.13 1.13v10.365a1.131 1.131 0 0 1-1.13 1.13zm1.2-1.993a.333.333 0 0 1-.333-.333v-.8a1.929 1.929 0 0 1 1.927-1.927h1.595a1.929 1.929 0 0 1 1.927 1.927v.8a.333.333 0 0 1-.333.333zm1.595-2.392a1.264 1.264 0 0 0-1.262 1.262V95h4.119v-.465a1.264 1.264 0 0 0-1.262-1.262zm5.182.4a.333.333 0 1 1 0-.665h3.189a.333.333 0 1 1 0 .665zm3.987-1.595a.333.333 0 1 1 0-.665h1.993a.333.333 0 0 1 0 .665zm-3.987 0a.333.333 0 0 1 0-.665h2.392a.333.333 0 1 1 0 .665zm-4.385 0a1.53 1.53 0 0 1-1.529-1.529v-.8a1.131 1.131 0 0 1 1.13-1.13h.8a1.131 1.131 0 0 1 1.13 1.13v.8a1.53 1.53 0 0 1-1.535 1.528zm-.4-2.791a.465.465 0 0 0-.465.465v.8a.863.863 0 1 0 1.727 0v-.8a.465.465 0 0 0-.465-.465zm9.966 1.2a.333.333 0 1 1 0-.665h.8a.333.333 0 0 1 0 .665zm-5.183 0a.333.333 0 1 1 0-.665h3.588a.333.333 0 1 1 0 .665h-3.59zm-3.189-3.189a.333.333 0 1 1 0-.665h.863v-3.659a1.131 1.131 0 0 1 1.13-1.13h1.595a1.131 1.131 0 0 1 1.13 1.13v2.392a.333.333 0 0 1-.665 0v-2.392a.465.465 0 0 0-.465-.465h-1.597a.465.465 0 0 0-.465.465v3.654h4.053a.333.333 0 0 1 0 .665zm2.788-3.198a.333.333 0 1 1 .333-.333.333.333 0 0 1-.333.333z" transform="translate(-28.3 -420.297) translate(-39.851 338.653)"/>
    </g>
</svg>
