<svg xmlns="http://www.w3.org/2000/svg" width="39.793" height="45.476" viewBox="0 0 39.793 45.476">
    <defs>
        <style>
            .cls-4{fill:#fff}
        </style>
    </defs>
    <g id="Group_9153" transform="translate(-12505.437 -1961.791)">
        <path id="Path_19251" fill="#fec10d" d="M130.943 93.791a2.526 2.526 0 0 0-2.526 2.526v40.424a2.526 2.526 0 0 0 2.526 2.526H160a2.526 2.526 0 0 0 2.526-2.526v-31.25l-12.178-11.7z" transform="translate(12382.706 1868)"/>
        <g id="Group_9151" transform="translate(12505.437 1961.791)">
            <path id="Path_19252" fill="#e6b218" d="M279.332 105.491h-9.652a2.526 2.526 0 0 1-2.526-2.526v-9.174z" transform="translate(-239.539 -93.791)"/>
            <path id="Path_19253" fill="#168794" d="M119.548 208.8a2.915 2.915 0 0 1-2.914 2.916H95.351a2.914 2.914 0 0 1-2.914-2.916v-8.907a2.914 2.914 0 0 1 2.914-2.915h21.282a2.915 2.915 0 0 1 2.914 2.915z" transform="translate(-92.437 -180.669)"/>
        </g>
        <g id="Group_9152" transform="translate(12510.747 1982.708)">
            <path id="Path_19254" d="M128.917 226.133a3.166 3.166 0 0 1 1.583.374 2.416 2.416 0 0 1 1 1.063 3.63 3.63 0 0 1 .34 1.619 3.951 3.951 0 0 1-.186 1.249 2.706 2.706 0 0 1-.558.974 2.446 2.446 0 0 1-.914.63 3.3 3.3 0 0 1-1.241.218 3.267 3.267 0 0 1-1.245-.224 2.469 2.469 0 0 1-.918-.633 2.7 2.7 0 0 1-.556-.982 3.98 3.98 0 0 1-.187-1.241 3.831 3.831 0 0 1 .2-1.253 2.7 2.7 0 0 1 .568-.97 2.458 2.458 0 0 1 .906-.613 3.238 3.238 0 0 1 1.208-.211zm1.706 3.048a2.781 2.781 0 0 0-.21-1.128 1.568 1.568 0 0 0-.6-.722 1.647 1.647 0 0 0-.9-.245 1.62 1.62 0 0 0-.665.135 1.464 1.464 0 0 0-.526.395 1.9 1.9 0 0 0-.348.661 3 3 0 0 0-.127.9 3.074 3.074 0 0 0 .127.914 1.887 1.887 0 0 0 .36.677 1.51 1.51 0 0 0 .533.4 1.682 1.682 0 0 0 1.508-.1 1.591 1.591 0 0 0 .615-.711 2.745 2.745 0 0 0 .232-1.176z" class="cls-4" transform="translate(-126.035 -226.133)"/>
            <path id="Path_19255" d="M168.053 227.761h-1.31v4.305a.8.8 0 0 1-.166.552.555.555 0 0 1-.429.18.562.562 0 0 1-.434-.182.788.788 0 0 1-.168-.55v-4.305h-1.31a.66.66 0 0 1-.457-.135.461.461 0 0 1-.15-.358.454.454 0 0 1 .156-.364.677.677 0 0 1 .451-.134h3.816a.672.672 0 0 1 .462.137.461.461 0 0 1 .152.36.456.456 0 0 1-.154.358.679.679 0 0 1-.459.136z" class="cls-4" transform="translate(-157.688 -226.669)"/>
            <path id="Path_19256" d="M202.3 230.391h-1.1v1.678a.785.785 0 0 1-.17.546.6.6 0 0 1-.865 0 .785.785 0 0 1-.166-.54v-4.568a.747.747 0 0 1 .182-.566.829.829 0 0 1 .578-.17h1.54a4.021 4.021 0 0 1 1.051.105 1.568 1.568 0 0 1 .629.335 1.517 1.517 0 0 1 .4.574 2.007 2.007 0 0 1 .137.764 1.689 1.689 0 0 1-.558 1.373 2.538 2.538 0 0 1-1.658.469zm-.291-2.717h-.809v1.811h.808a2.414 2.414 0 0 0 .709-.089.825.825 0 0 0 .435-.291.867.867 0 0 0 .15-.53.9.9 0 0 0-.231-.639 1.529 1.529 0 0 0-1.058-.262z" class="cls-4" transform="translate(-188.313 -226.672)"/>
        </g>
    </g>
</svg>
