<svg xmlns="http://www.w3.org/2000/svg" width="327.577" height="178.61" viewBox="0 0 327.577 178.61">
    <defs>
        <style>
            .cls-3{fill:#ffb27d}.cls-6{fill:#191c2f}.cls-7{fill:#300b39}.cls-8{fill:#168794}.cls-11{fill:#282c47}.cls-13{fill:#2b2a2c}.cls-14{fill:#233862}.cls-17{fill:#fec10d}.cls-21{fill:#13213c}.cls-22{fill:#e8ae00}
        </style>
    </defs>
    <g id="Group_8977" transform="translate(-18 -107.896)">
        <path id="Path_19190" fill="#f5f9fc" d="M153.322 177.9l93.264-.48 24.86-.007h8.236l24.908-.007 113.793-.031s26.028-33.11-1.774-64.557c-28.826-32.6-42.842-6.051-51.7-51.946-22.3-115.524-242.814-48.286-184.976 50.02 20.826 35.4-40.994 16.583-26.608 67.012" transform="translate(-109.126 107.895)"/>
        <path id="Path_19191" fill="#d6e2eb" d="M327.176 1644.576H.4a.478.478 0 0 1-.4-.526v-.28a.478.478 0 0 1 .4-.526h326.776a.478.478 0 0 1 .4.526v.28a.478.478 0 0 1-.4.526" transform="translate(18 -1358.07)"/>
        <g id="Group_8975" transform="translate(-42.393 -10.314)">
            <path id="Path_19138" d="M867.141 702.715c-.643 1.729-1.758 3.736-2.928 4.235a4.534 4.534 0 0 0-1.879 1.365l-1.071-.622-1.279-.743s.03-.142.093-.373.158-.551.287-.907a1.237 1.237 0 0 0 .152-1.138 2.643 2.643 0 0 1 .218-2.208c.41-.6.806-2.065 1.053-2.021.6.1-.294 2.122-.038 2.5a.442.442 0 0 0 .575.2l.01-.006c1.678-.738 3.713-4.715 4.614-4.179.336.2.467 3.167.193 3.9" class="cls-3" transform="translate(-656.25 -524.851)"/>
            <path id="Path_19139" fill="#e09200" d="M869.7 692l2.1 1.477a.331.331 0 0 0 .46-.08l5.385-7.662a.331.331 0 0 0-.08-.46l-2.1-1.477a.331.331 0 0 0-.46.08l-5.385 7.662a.331.331 0 0 0 .08.46" transform="translate(-664.619 -511.726)"/>
            <path id="Path_19140" fill="#c78201" d="M885.15 702.789l1.232.866a.252.252 0 0 0 .35-.061l5.475-7.791a.252.252 0 0 0-.061-.35l-1.232-.866a.252.252 0 0 0-.35.061l-5.475 7.791a.252.252 0 0 0 .061.35" transform="translate(-678.14 -521.165)"/>
            <path id="Path_19141" d="M592.061 662.13s10.7 18.656 14.576 22.088l14.228-10.608a5.193 5.193 0 0 1 2.969 2.706s-8.64 17.6-17.147 18.349-20.447-21.1-20.447-21.1z" class="cls-6" transform="translate(-417.13 -492.852)"/>
            <path id="Path_19142" d="M365.28 1578.68h-6.18a3.746 3.746 0 0 1-1.69-2.832c-.3-1.991-2.533-3.077-3.016-4.706s1.991-3.919 1.991-3.919l.414-.533.43-.553 4.1.966s.1.977.163 2.221a28.371 28.371 0 0 1 .018 2.845c-.121 2.171.607 4.51 2.537 4.933 1.427.312 1.363 1.158 1.232 1.578" class="cls-7" transform="translate(-214.555 -1282.516)"/>
            <path id="Path_19143" d="M623.69 1615.395h-14.133c-.68-.829-.429-3.89-.326-4.89.021-.2.036-.319.036-.319s4.826-3.86 5.489-.9c.02.093.045.183.071.273.835 2.765 4.581 4.021 6.745 4.371a2.45 2.45 0 0 1 2.119 1.469" class="cls-7" transform="translate(-437.099 -1319.231)"/>
            <path id="Path_19144" d="M561.756 1032.851s-.733 9.143-1.594 20.134c-1.171 14.93-2.578 33.268-2.718 36.743-.241 6.033-1.207 15.682-1.207 15.682s-2.291 2.293-6.876 1.327a157.869 157.869 0 0 1-5.253-28.351l-.054-.72c-1.086-14.838-2.774-46.082-2.774-46.082z" class="cls-8" transform="translate(-377.857 -815.576)"/>
            <path id="Path_19145" fill="#0b717c" d="M561.756 1032.851s-.733 9.143-1.594 20.134l-16.053 25.4-.054-.72c-1.086-14.838-2.774-46.082-2.774-46.082z" transform="translate(-377.857 -815.576)"/>
            <path id="Path_19146" d="M409.285 1008.945s-13.209 33.113-21.894 48.674-11.4 19.9-11.4 19.9-4.976-1.99-5.428-3.347c0 0 3.321-30.042 9.138-37.365 3.287-4.138 7.147-16.557 7.328-20.9s1.176-12.937 1.176-12.937z" class="cls-8" transform="translate(-228.733 -790.585)"/>
            <path id="Path_19147" d="M553.382 573.477c-5.162 1.629-14.093-2.767-14.093-2.767a13.441 13.441 0 0 0 4.51-11l3.991 3.216 2.711 2.184a32.45 32.45 0 0 1-.307 3.545c-.078.594-.175 1.255-.3 1.979a12.348 12.348 0 0 1 3.487 2.841" class="cls-3" transform="translate(-376.118 -403.389)"/>
            <path id="Path_19148" fill="#ed975d" d="M581.53 586.789a32.477 32.477 0 0 1-.308 3.545c-3-.515-6.411-5.371-6.411-5.371a9.572 9.572 0 0 1 4.008-.359z" transform="translate(-407.147 -425.065)"/>
            <path id="Path_19149" d="M569.982 504.033s-8.526 1.416-9.326-3.907-2.44-8.725 2.97-9.855 6.775.742 7.475 2.454 1.079 10.8-1.118 11.307" class="cls-3" transform="translate(-394.02 -342.431)"/>
            <path id="Path_19150" d="M528.085 683.193a.834.834 0 0 1-.542.207c-1.938-.026-7.591 1.05-12.373.559a35.63 35.63 0 0 1-11.433-3.3c-.509-.228-1.68-.853-1.654-1.422.017-.623.079-1.526.157-2.664a142.479 142.479 0 0 0 .283-18.609c-.083-1.462-.126-2.912-.132-4.339-.039-10.638 2.07-20 6.309-23.163.362-.259 2.585.827 4.627 1.834a8.452 8.452 0 0 0 5.557.673l1.783 1.576a17.818 17.818 0 0 1 5.583 8.917c.88 3.541 1.4 9.926 1.68 16.543.129 3 .233 6.023.26 8.892v.1c.025.284.025.6.025.88.1 7.366 0 13.208-.129 13.311" class="cls-11" transform="translate(-343.616 -465.157)"/>
            <path id="Path_19151" d="M503.324 785.769a142.494 142.494 0 0 0 .283-18.609c-.083-1.462-.126-2.911-.132-4.339 1.766-4.284 3.209-7.39 3.209-7.39h4.451s3.263 22.288-7.811 30.338" class="cls-6" transform="translate(-344.702 -574.352)"/>
            <path id="Path_19152" fill="#1c1b1d" d="M296.16 1075.827l18.982 2.7a4.55 4.55 0 0 0 5.132-3.852l1.172-8.226a4.55 4.55 0 0 0-3.852-5.132l-18.982-2.7a4.55 4.55 0 0 0-5.132 3.852l-1.172 8.226a4.551 4.551 0 0 0 3.852 5.132" transform="translate(-160.337 -839.151)"/>
            <path id="Path_19153" d="M301.3 1046.739a4.571 4.571 0 0 0-3.145-2.747c-.143-.035-.288-.064-.438-.085l-3.78-.538.253-1.775a1.5 1.5 0 0 0-1.276-1.7l-.986-.141-3.969-.566-.716-.1a1.5 1.5 0 0 0-1.7 1.276l-.253 1.775-6.524-.93a4.569 4.569 0 0 0-5.151 3.866l-1.185 8.322a4.567 4.567 0 0 0 3.866 5.15l18.948 2.7a4.443 4.443 0 0 0 .988.031 4.476 4.476 0 0 0 1.479-.374 4.562 4.562 0 0 0 2.681-3.525l1.186-8.321a4.515 4.515 0 0 0-.278-2.317m-14.827-6.246a.562.562 0 0 1 .466-.474.574.574 0 0 1 .169 0l.843.12 3.124.446 1.7.243a.562.562 0 0 1 .476.634l-.253 1.775-6.78-.967z" class="cls-13" transform="translate(-142.968 -822.114)"/>
            <path id="Path_19154" d="M397.4 992.38a6.592 6.592 0 0 0-1.036 1.858c-.268 3.6 1.375 4.094-2.879 6.091 0 0-1.816.693-1.847-.717s1.26-1.433 1.024-3.407c-.272-2.277-.245-2.3 1.25-3.487l.99-1.635z" class="cls-3" transform="translate(-247.137 -780.197)"/>
            <path id="Path_19155" d="M401.938 683.512a14.581 14.581 0 0 0 3.34.186s4.758-14.7 5.371-16.042 14.133-17.235 14.133-17.235l-5.633-14.1s-14.624 24.428-16.109 27.861c-2.454 5.672-3.305 18.389-3.305 18.389a6.118 6.118 0 0 0 2.2.937" class="cls-11" transform="translate(-254.215 -470.311)"/>
            <path id="Path_19156" d="M552.295 473.1s.875-.146.734-1.351-.14-2.78.84-2.487 1.029 1.078 1.431.62.41-2.388 3.325-2.523 4.1.88 5.456.284 1.428-2.643 1.428-2.643a2.333 2.333 0 0 1-.968.966s2.262-3.094-.357-5.215-5.289-.733-6.8-.641c-3.339.2-5.5.4-6.587 2.6s-.641 8.286 1.5 10.4" class="cls-7" transform="translate(-385.667 -315.918)"/>
            <path id="Path_19157" d="M424.172 1013.843s.96 1 1.021 1.417c.195 1.336.641 1.914.417 2.059-.465.3-1.08-.687-1.374-1.575a4.057 4.057 0 0 1-.064-1.9" class="cls-3" transform="translate(-275.486 -800.079)"/>
        </g>
        <g id="Group_8976" transform="translate(-30 -6.154)">
            <path id="Path_19158" d="M2164.98 497.2a10.357 10.357 0 0 1 5.06 1.643c2.022 1.291 6.6 7.822 8.1 11.708s-1.634 5.569.61 7.8c2.218 2.2 5.249 8.421.107 11.473-2.906 1.725-8.075-3.607-11.4-4.361s-12.206 6.093-14.543 3.94-4.678-5.85 2.344-10.531c1.813-1.209-6.175-1.965-2.756-10.632 2.356-5.974 6.548-11.21 12.468-11.04" class="cls-14" transform="translate(-1916.418 -349.472)"/>
            <path id="Path_19159" d="M2060.067 779.219c0-.087 1.28-2.734.873-2.938s-1.137-.173-1.221.291a16.206 16.206 0 0 0 .349 2.647" class="cls-3" transform="translate(-1836.764 -593.984)"/>
            <path id="Path_19160" d="M2217.318 513.5s6.265-6.31 10.239-.539c0 0 2.454-.714 3.526 4.333 1.095 5.148-.577 8.3-2.348 7.329-1.136-.62-1.995 1.367-1.995 1.367z" class="cls-14" transform="translate(-1974.907 -361.159)"/>
            <path id="Path_19161" d="M2058.822 730.671c-5.968-2.2-11.715-12.411-11.715-12.411l1.882-1.317c1.568 2.293 8.62 6.7 8.62 6.7.161-1.932.395-3.685.683-5.273 1.958-10.792 6.437-13.989 7.639-14.668a2.711 2.711 0 0 1 .3-.153s0 .079-.013.23c-.018.325-.056.979-.119 1.876-.466 6.682-2.293 26.86-7.28 25.021" class="cls-3" transform="translate(-1825.719 -530.336)"/>
            <path id="Path_19162" d="M2204.393 673.948c-2.948-6.612-4.358-8.481-4.407-10.561-.039-1.645.772-3.42 2.347-7.772a16.224 16.224 0 0 0 .785-3.146c1.246-8.391-3.627-17.572-6.642-18.19-1.3-.315-2.24-3.141-2.223-8.025l-.377.074-6.35 1.257s.144 2 .149 3.881c0 1.569.266 3.22-.446 3.243-.457.041-.727.069-.727.069s-5.295 7.353-5.74 14.192 4.24 9.809-.036 23.475c-4.365 13.957 25.3 5.156 23.667 1.5" class="cls-3" transform="translate(-1942.45 -462.593)"/>
            <path id="Path_19163" fill="#e8945b" d="M2238.884 628.115s.144 2 .149 3.881c3.553-.1 5.431-3.342 6.2-5.138z" transform="translate(-1993.809 -463.121)"/>
            <path id="Path_19164" d="M2217.514 528.68a18.676 18.676 0 0 0 2.308-5.458c.32-1.8-.6-8.454-7.286-7.5a9.089 9.089 0 0 0-3.77 1.425c-1.452.981-3.549 3.1-1.2 8.909l.608 1.963z" class="cls-14" transform="translate(-1965.433 -365.636)"/>
            <path id="Path_19165" d="M2209.409 550.807s8.407.139 8.413-5.1 1.094-8.746-4.272-9.056-6.413 1.687-6.84 3.435.513 10.548 2.7 10.719" class="cls-3" transform="translate(-1965.521 -384.031)"/>
            <path id="Path_19166" d="M2231.8 528.289s2.3 6.144 5.835 7.052 5.065-.038 5.065-.038a10.006 10.006 0 0 1-3.272-5.91s-5.891-4.028-7.627-1.1" class="cls-14" transform="translate(-1987.596 -375.796)"/>
            <path id="Path_19167" d="M2206.21 532.771a7.422 7.422 0 0 0-2.128 2.171 6.443 6.443 0 0 0-1.417 4.52s-1.734-4.176.215-6.538c2.066-2.5 3.331-.152 3.331-.152" class="cls-14" transform="translate(-1961.44 -379.779)"/>
            <path id="Path_19168" fill="#1f1e21" d="M2194.2 1088.244a83.058 83.058 0 0 1-5.3 14.864l-2.772-.192a78.382 78.382 0 0 0 1.281-15.207 63.654 63.654 0 0 0-3.225-20.224c-8.3-23.691-6.955-40.933-6.955-40.933l15.6 1.825.727.085c.065 7.164.25 16.891.412 24.5.143 6.84.269 11.965.269 11.965 3 6.459 1.91 15.576-.037 23.32" transform="translate(-1939.703 -813.446)"/>
            <path id="Path_19169" d="M2327.337 737.582l-2.523.757s-8.326-13.814-9.083-17.409c-.247-1.17-.852-3.512-1.559-6.135-1.462-5.434-3.349-12.082-3.349-12.082l-.622-2.692-2.119-9.178a28.762 28.762 0 0 1 6.432 1.407 2.948 2.948 0 0 1 1.595 1.179c1.744 3.834 3.485 13.511 4.709 20.413.682 3.847 1.2 6.833 1.474 7.466.757 1.765 3.07 11.479 5.046 16.273" class="cls-3" transform="translate(-2054.46 -519.205)"/>
            <path id="Path_19170" d="M2257.12 1063.589a38.387 38.387 0 0 1-4.846 15.762l-1.324.963s-1.253-6.744-2.14-14.768c-.845-7.627-2-15.7-3.314-18.16-5.2-9.769-6.769-46.647-6.769-46.647l15.816-.785c1.59 2.674 2.284 7.06 2.448 12.047.416 12.586-2.542 29-2.984 31.371a.009.009 0 0 1 0 .006.829.829 0 0 0 .1.53c3.147 6.229 3.6 13.356 3.011 19.679" class="cls-13" transform="translate(-1993.671 -790.135)"/>
            <path id="Path_19171" d="M2185.87 737.014a3.747 3.747 0 0 1-.1 1.264c-.337 1.059-1.492 1.542-4.286 1.253-1.708-.178-2.469-3.04-2.809-5.481q-1.538 5.24-4.318 5.865c-2.709.6-16.373 2.264-17.267-4.231-.983-7.144 1.962-19.794 2.124-26.614a33.758 33.758 0 0 1-.5-6.32c.114-4.859 1.68-7.681 2.776-8.778a20.5 20.5 0 0 1 5-.939 10.7 10.7 0 0 0-.884 4.028c.4 3.793 4.317 3.384 7.759 1.09 2.542-1.695 3.98-5.388 3.98-5.388s5.077.414 6.267 2.358c2.277 3.721 4.054 13.607 5.478 20.559a10.122 10.122 0 0 1-7.405 1.085c1.224 8.006 4 16.6 4.181 20.25" class="cls-17" transform="translate(-1921.944 -520.886)"/>
            <path id="Path_19172" d="M2029.629 764.618c0-.26.218-4.015-.451-4.8s-2.033-1.911-2.462-1.876a4.224 4.224 0 0 0-1.6 3.975 14.039 14.039 0 0 0 2.635 4.023z" class="cls-3" transform="translate(-1806.36 -578.01)"/>
            <path id="Path_19173" fill="#f1a34f" d="M2041.536 718.787l-3.892 1.166a.244.244 0 0 1-.3-.164l-2.224-7.42a.244.244 0 0 1 .164-.3l3.891-1.166a.244.244 0 0 1 .3.164l2.224 7.42a.244.244 0 0 1-.164.3" transform="translate(-1815.201 -536.774)"/>
            <path id="Path_19174" fill="#f36f21" d="M2034.961 721.184l-3.53 1.058a.432.432 0 0 1-.539-.29l-2.116-7.059a.433.433 0 0 1 .29-.539l3.53-1.058a.433.433 0 0 1 .539.29l2.116 7.059a.433.433 0 0 1-.291.539" transform="translate(-1809.638 -538.867)"/>
            <path id="Path_19175" fill="#1a2d4c" d="M2196.813 1619.636h-1.77c-.593-.093-1.031-.265-1.639-.344a1.639 1.639 0 0 0-1.433.344l-.017.018h-7.518c-.189-.27-.008-.9.17-1.356a1.07 1.07 0 0 1 .7-.643 8.106 8.106 0 0 0 3.809-1.74c.81-.732 3.911-2.691 3.911-2.691h.016c.068 0 .392.1 1.8 1.292.729.614 1.972-.868 1.972-.868a1.774 1.774 0 0 1 .407.552 1.867 1.867 0 0 1 .162 1.154 7.481 7.481 0 0 0 .539 2.788c.175.516.323.882.323.882s.084.425-1.438.615" transform="translate(-1946.017 -1327.649)"/>
            <path id="Path_19176" d="M2258.775 1614.2a5.607 5.607 0 0 1-1.906.961c-.8.1-2.292-1.934-2.292-1.934h.016c.068 0 .392.1 1.8 1.292.729.614 1.971-.868 1.971-.868a1.769 1.769 0 0 1 .407.552" class="cls-21" transform="translate(-2007.564 -1327.649)"/>
            <path id="Path_19177" d="M2196.813 1654.538h-1.77c-.593-.093-1.031-.265-1.639-.344a1.64 1.64 0 0 0-1.433.344.211.211 0 0 0-.017.018h-7.518c-.189-.27-.008-.9.17-1.356.228-.2.292.882.419 1.054a33.514 33.514 0 0 0 6.48-.189 3.631 3.631 0 0 1 2.839-.347 6.836 6.836 0 0 0 3.584-.677c.175.516.323.882.323.882s.084.425-1.438.615" class="cls-21" transform="translate(-1946.017 -1362.551)"/>
            <path id="Path_19178" d="M2273.279 1619.636h-1.77c-.593-.093-1.031-.265-1.639-.344a1.639 1.639 0 0 0-1.433.344.188.188 0 0 0-.017.018h-7.52c-.189-.27-.008-.9.17-1.356a1.069 1.069 0 0 1 .7-.643 8.106 8.106 0 0 0 3.808-1.74c.81-.732 3.911-2.691 3.911-2.691h.017c.068 0 .392.1 1.8 1.292.729.614 1.972-.868 1.972-.868a1.775 1.775 0 0 1 .407.552 1.872 1.872 0 0 1 .161 1.154 7.481 7.481 0 0 0 .539 2.788c.176.516.323.882.323.882s.084.425-1.438.615" class="cls-14" transform="translate(-2013.037 -1327.649)"/>
            <path id="Path_19179" d="M2335.241 1614.2a5.608 5.608 0 0 1-1.906.961c-.8.1-2.292-1.934-2.292-1.934h.017c.068 0 .392.1 1.8 1.292.729.614 1.972-.868 1.972-.868a1.769 1.769 0 0 1 .407.552" class="cls-21" transform="translate(-2074.584 -1327.649)"/>
            <path id="Path_19180" d="M2273.279 1654.538h-1.77c-.593-.093-1.031-.265-1.639-.344a1.639 1.639 0 0 0-1.433.344.168.168 0 0 0-.017.018h-7.52c-.189-.27-.008-.9.17-1.356.228-.2.293.882.419 1.054a33.516 33.516 0 0 0 6.48-.189 3.629 3.629 0 0 1 2.838-.347 6.836 6.836 0 0 0 3.584-.677c.176.516.323.882.323.882s.084.425-1.438.615" class="cls-21" transform="translate(-2013.037 -1362.551)"/>
            <path id="Path_19181" d="M2337.687 853.908c-1.918-3.022-3.042-6.68-4.545-10.869-3.869-10.791-3.282-16.688-2.344-16.9s2.708 7.524 2.708 7.524c1.223 8.006 4 16.6 4.181 20.25" class="cls-22" transform="translate(-2073.762 -637.78)"/>
            <path id="Path_19182" d="M2141.093 718.949a4.819 4.819 0 0 1-.884-.133c-.064-.016-.13-.033-.194-.052a6.759 6.759 0 0 1-2.047-1.027 20.826 20.826 0 0 1-2.705-2.492c2.5-11.142 7.276-12.692 7.276-12.692s1.523 16.554-1.446 16.4" class="cls-17" transform="translate(-1902.988 -529.468)"/>
            <path id="Path_19183" d="M2035.507 743.529s1.62-2.493 2.016-2.354c.565.2-1.469 3.362-1.469 3.362s1.508-2.364 1.743-2.187c.536.405-.318 1.891-1.165 3.03 0 0 1.516-1.388 1.565-1.138.173.876-1.664 3-1.664 3l-1.027-2.345z" class="cls-3" transform="translate(-1815.554 -563.314)"/>
            <path id="Path_19184" d="M2025.666 738.344c.078-.3.474-6.259.643-5.694s.572 3.687.572 3.687z" class="cls-3" transform="translate(-1806.928 -555.813)"/>
            <path id="Path_19185" d="M2323.054 797.752l3.1 11.254s6.449.445 8.583-1.808l-3.9-10.019z" class="cls-22" transform="translate(-2067.583 -612.405)"/>
            <path id="Path_19186" d="M2159.406 795c-.064-.016-.13-.033-.194-.051a6.772 6.772 0 0 1-2.047-1.027 3.436 3.436 0 0 1 .762-1.1c.755-.7 1.381-3.572 1.642-3.337s-.163 5.514-.163 5.514" class="cls-22" transform="translate(-1922.184 -605.648)"/>
            <path id="Path_19187" d="M2446.056 1069.231s3.045 2.024 3.511 2.877 1.551 3.995 1.551 3.995-.776.116-1.551-1.241-3.336-1.241-4.189-1.978a11.556 11.556 0 0 1-1.845-2.9z" class="cls-3" transform="translate(-2173.179 -850.854)"/>
            <path id="Path_19188" d="M2446.212 1080.766a10.124 10.124 0 0 0 1.127 3.082c.62.7 1.474 1.862 1.823 1.551s-.388-2.909-.388-2.909z" class="cls-3" transform="translate(-2175.528 -860.964)"/>
            <path id="Path_19189" d="M2488.931 1094.724c.077.116 2.753 2.96 2.753 2.96s-.97.439-1.241 0-1.512-2.96-1.512-2.96" class="cls-3" transform="translate(-2212.971 -873.198)"/>
        </g>
    </g>
</svg>
