<svg xmlns="http://www.w3.org/2000/svg" width="18.492" height="19.938" viewBox="0 0 18.492 19.938">
    <g>
        <path fill="#e4e3e5" d="M18.492 1.5c0 .828-4.14 1.5-9.246 1.5S0 2.328 0 1.5 4.14 0 9.246 0s9.246.672 9.246 1.5" transform="translate(-28 -343.062) translate(28 360)"/>
        <g>
            <g transform="translate(-28 -343.062) translate(-17.2 343.062) translate(47.2)">
                <path d="M54.548 0A7.358 7.358 0 0 0 47.2 7.348a7.233 7.233 0 0 0 .131 1.38c0 .027.019.108.05.246a7.237 7.237 0 0 0 .492 1.449 20.6 20.6 0 0 0 6.353 7.794.52.52 0 0 0 .653 0 20.639 20.639 0 0 0 6.353-7.794 7.156 7.156 0 0 0 .492-1.449c.031-.138.046-.219.05-.246a7.558 7.558 0 0 0 .131-1.38A7.37 7.37 0 0 0 54.548 0zm6.2 8.548v.023c0 .008-.015.077-.035.165v.008A6.1 6.1 0 0 1 60.279 10s0 .012-.008.015a19.225 19.225 0 0 1-5.723 7.133 19.225 19.225 0 0 1-5.723-7.133s0-.012-.008-.015a6.508 6.508 0 0 1-.427-1.253v-.011c-.023-.088-.031-.146-.035-.165s0-.015 0-.027a6.31 6.31 0 1 1 12.391 0z" transform="translate(-47.2)"/>
                <circle cx="3.5" cy="3.5" r="3.5" fill="#9ba9b8" transform="translate(4 3.939)"/>
                <circle cx="2.5" cy="2.5" r="2.5" fill="#fff" transform="translate(5 4.939)"/>
            </g>
        </g>
    </g>
</svg>
