<svg xmlns="http://www.w3.org/2000/svg" width="46.091" height="34.009" viewBox="0 0 46.091 34.009">
    <defs>
        <style>
            .cls-2{fill:#fec10d}.cls-7{fill:#fff}
        </style>
    </defs>
    <g id="Plan_artwork" transform="translate(-5986.027 -10674)">
        <path id="Path_1425" fill="#f4fafa" d="M.712 23.55S-1.639 12 2.2 8.1c3.707-3.764 7.347-.462 8.68-4.895.6-2 3.251-3.912 5.722-2.87a5.772 5.772 0 0 1 2.807 3.151c2.632 5.814 4.9 5.784 6.711 4.709 2.083-1.233 3.164-5.415 6.424-4.63 3.768.907 3.529 6.258 5.874 5.919 4.265-.617 7.872 8.034 3.067 14.138z" transform="translate(5986.23 10684.173)"/>
        <path id="Path_1435" d="M9.923 6.784S8.5 10.012 7.911 9.709s1.85-3.483 1.85-3.483-1.778-3.1-2.89-3.72c0 0-.271 3.924-.763 3.487s-.4-4.534-.4-4.534S3.332-.918 1.785.4.389 3 .723 3.38 3.67 5.506 3.371 5.8.954 5.421.187 4.448c0 0-.751 3.4.754 4.233s2.543.263 3.464.8 1.4 1.209.8 1.143S3.234 9.381 2.115 9.5.17 9.587 1.3 10.758s3.6 2.621 4.761 1.936l.146-.086a.647.647 0 0 1-.146.086A5.125 5.125 0 0 1 6 14.614c-.025.113-.051.273-.081.5l-.042.234a9.858 9.858 0 0 1-1.951 3.3l.228.268a5.652 5.652 0 0 0 2.053-3.989 6.511 6.511 0 0 1 1.015-2.917s3.493.322 3.634-2.4a6.077 6.077 0 0 0-.933-2.821" class="cls-2" transform="rotate(-34 20473.278 -4447.085)"/>
        <path id="Path_1459" d="M9.4 1039.274a5.353 5.353 0 0 0-1.473-2.164s-.428 3.08-1 2.965.724-3.4.724-3.4-2.258-2.2-3.348-2.452c0 0 .72 3.39.2 3.139s-1.435-3.744-1.435-3.744-1.905-1.059-3.073-.42v3.554c.894.354 2.277.872 2.143 1.105s-1.223.269-2.143.018v2.475a1.412 1.412 0 0 0 .783.539c1.477.344 2.218-.393 3.127-.163s1.476.685.953.775-1.969-.574-2.889-.206-1.626.548-.388 1.267 3.681 1.35 4.5.488l.1-.108a.572.572 0 0 1-.1.109 4.516 4.516 0 0 1 .415 1.641c.006.1.023.243.052.438.01.09.017.164.021.214a4.6 4.6 0 0 1-.148 1.275h.394a4.917 4.917 0 0 0-.068-1.712 5.736 5.736 0 0 1 .154-2.717c.007 0 3.036-.576 2.5-2.916" class="cls-2" transform="translate(5988.682 9661.08)"/>
        <path id="Path_1460" d="M1155.936 1147.135c-.473-1.747-3.42-1.2-3.42-1.2s-2 3.057-2.583 3.129 1.2-2.947 1.2-2.947c-1.128-.109-4 1.274-4 1.274s.182 3.566-.4 3.493 0-3.166 0-3.166a5.417 5.417 0 0 0-2.11 1.6c-1.274 2.074 1.455 3.6 1.455 3.6a5.8 5.8 0 0 1-.728 2.656 4.206 4.206 0 0 0-.348.707h.3c.024-.08.051-.157.081-.231l.086-.191c.091-.178.152-.309.191-.4a4.57 4.57 0 0 1 .927-1.439.574.574 0 0 1-.064-.136l.064.136c.509 1.092 3.056 1.274 4.476.983s.8-.691.037-1.341-2.365-.478-2.838-.733.218-.509 1.164-.437 1.419 1.019 2.948 1.164 2.693-2.729 2.693-2.729c-1.055.327-2.947-.255-3.02-.619s2.729-.328 3.166-.437 1.2-.982.728-2.729" class="cls-2" transform="translate(4874.401 9551.414)"/>
        <g id="clipboard" transform="translate(5998.069 10674)">
            <g id="Group_1756">
                <g id="Group_1744">
                    <g id="Group_1743">
                        <g id="Group_1742">
                            <g id="Group_1741">
                                <g id="Group_1740">
                                    <g id="Group_1739">
                                        <g id="Group_1738">
                                            <g id="Group_1737">
                                                <path id="Path_18654" fill="#2db3ac" d="M89.288 28.666h-21.7a1.7 1.7 0 0 0-1.7 1.7v28.505a1.7 1.7 0 0 0 1.7 1.7h21.7a1.7 1.7 0 0 0 1.7-1.7V30.365a1.7 1.7 0 0 0-1.7-1.699z" transform="translate(-65.889 -26.774)"/>
                                                <path id="Path_18655" fill="#239690" d="M393.71 28.666h-1.884v31.9h1.884a1.7 1.7 0 0 0 1.7-1.7V30.365a1.7 1.7 0 0 0-1.7-1.699z" transform="translate(-370.311 -26.774)"/>
                                                <path id="Path_18656" fill="#333755" d="M183.715 3.784H174.9a1.01 1.01 0 0 1-1.01-1.01V1.01A1.01 1.01 0 0 1 174.9 0h8.82a1.01 1.01 0 0 1 1.01 1.01v1.764a1.01 1.01 0 0 1-1.015 1.01z" transform="translate(-166.756)"/>
                                                <path id="Path_18657" fill="#12152f" d="M286.4 0h-2.57v3.784h2.57a1.01 1.01 0 0 0 1.01-1.01V1.01A1.01 1.01 0 0 0 286.4 0z" transform="translate(-269.444)"/>
                                            </g>
                                        </g>
                                    </g>
                                </g>
                            </g>
                        </g>
                    </g>
                </g>
                <g id="Group_1755" transform="translate(3.093 7.305)">
                    <g id="Group_1745">
                        <path id="Path_18658" d="M115.878 114.651h-2.267a.859.859 0 0 1-.859-.859v-2.267a.859.859 0 0 1 .859-.859h2.267a.859.859 0 0 1 .859.859v2.267a.859.859 0 0 1-.859.859z" class="cls-7" transform="translate(-112.752 -110.666)"/>
                        <path id="Path_18659" d="M115.878 244.132h-2.267a.859.859 0 0 1-.859-.859v-2.267a.859.859 0 0 1 .859-.859h2.267a.859.859 0 0 1 .859.859v2.267a.859.859 0 0 1-.859.859z" class="cls-7" transform="translate(-112.752 -231.6)"/>
                        <path id="Path_18660" d="M115.878 373.612h-2.267a.859.859 0 0 1-.859-.859v-2.267a.859.859 0 0 1 .859-.859h2.267a.859.859 0 0 1 .859.859v2.267a.859.859 0 0 1-.859.859z" class="cls-7" transform="translate(-112.752 -352.533)"/>
                    </g>
                    <g id="Group_1748" transform="translate(7.324 .174)">
                        <g id="Group_1746" transform="translate(0 2.618)">
                            <path id="Path_18661" d="M229.76 153.976h-5.538a.51.51 0 0 1 0-1.02h5.538a.51.51 0 1 1 0 1.02z" class="cls-7" transform="translate(-223.712 -152.956)"/>
                        </g>
                        <g id="Group_1747">
                            <path id="Path_18662" d="M235.3 114.317h-11.078a.51.51 0 0 1 0-1.02H235.3a.51.51 0 1 1 0 1.02z" class="cls-7" transform="translate(-223.712 -113.297)"/>
                        </g>
                    </g>
                    <g id="Group_1751" transform="translate(7.324 8.72)">
                        <g id="Group_1749" transform="translate(0 2.618)">
                            <path id="Path_18663" d="M229.76 283.457h-5.538a.51.51 0 0 1 0-1.02h5.538a.51.51 0 1 1 0 1.02z" class="cls-7" transform="translate(-223.712 -282.437)"/>
                        </g>
                        <g id="Group_1750">
                            <path id="Path_18664" d="M235.3 243.8h-11.078a.51.51 0 0 1 0-1.02H235.3a.51.51 0 1 1 0 1.02z" class="cls-7" transform="translate(-223.712 -242.777)"/>
                        </g>
                    </g>
                    <g id="Group_1754" transform="translate(7.324 17.267)">
                        <g id="Group_1752" transform="translate(0 2.618)">
                            <path id="Path_18665" d="M229.76 412.937h-5.538a.51.51 0 1 1 0-1.02h5.538a.51.51 0 1 1 0 1.02z" class="cls-7" transform="translate(-223.712 -411.917)"/>
                        </g>
                        <g id="Group_1753">
                            <path id="Path_18666" d="M235.3 373.277h-11.078a.51.51 0 1 1 0-1.02H235.3a.51.51 0 1 1 0 1.02z" class="cls-7" transform="translate(-223.712 -372.257)"/>
                        </g>
                    </g>
                </g>
            </g>
        </g>
        <path id="Line_36" fill="none" stroke="#282c47" stroke-linecap="round" d="M0 0L45.091 0" transform="translate(5986.527 10707.509)"/>
    </g>
</svg>
