<svg xmlns="http://www.w3.org/2000/svg" width="16" height="14.75" viewBox="0 0 16 14.75">
    <defs>
        <style>
            .cls-1{fill:#363954}
        </style>
    </defs>
    <g id="XMLID_491_" transform="translate(0 -20)">
        <g id="XMLID_138_" transform="translate(0 20)">
            <path id="XMLID_141_" d="M14.188 23h-2v-1.19A1.815 1.815 0 0 0 10.375 20h-4.75a1.815 1.815 0 0 0-1.812 1.813V23h-2A1.815 1.815 0 0 0 0 24.815v8.122a1.815 1.815 0 0 0 1.813 1.813h12.375A1.815 1.815 0 0 0 16 32.938v-8.123A1.815 1.815 0 0 0 14.188 23zm-8.563-2.375h4.75a1.189 1.189 0 0 1 1.145.875H4.48a1.189 1.189 0 0 1 1.145-.875zm-5 4.19a1.189 1.189 0 0 1 1.188-1.187H6.6a.313.313 0 0 0 0-.628H4.438v-.878h7.125V23H9.41a.313.313 0 0 0 0 .625h4.777a1.189 1.189 0 0 1 1.188 1.188v1A2.682 2.682 0 0 1 12.7 28.49H9.5v-.664a.712.712 0 0 0-.712-.712H7.216a.712.712 0 0 0-.712.712v.664H3.3a2.682 2.682 0 0 1-2.675-2.678zm6.5 4.3h1.75v.447a.875.875 0 0 1-1.75 0zm0-.625v-.664a.087.087 0 0 1 .087-.087h1.58a.087.087 0 0 1 .087.087v.664zm8.246 4.447a1.189 1.189 0 0 1-1.187 1.188H1.813a1.189 1.189 0 0 1-1.188-1.187v-5.195A3.3 3.3 0 0 0 3.3 29.115h3.2v.447a1.5 1.5 0 0 0 3 0v-.447h3.2a3.3 3.3 0 0 0 2.679-1.372z" class="cls-1" transform="translate(0 -20)"/>
            <path id="XMLID_148_" d="M246.443 116.705a.312.312 0 1 0-.221-.092.314.314 0 0 0 .221.092z" class="cls-1" transform="translate(-238.438 -113.077)"/>
        </g>
    </g>
</svg>
