<svg xmlns="http://www.w3.org/2000/svg" width="13.322" height="15" viewBox="0 0 13.322 15">
    <defs>
        <style>
            .cls-3{stroke:none}
        </style>
    </defs>
    <g id="Group_9169" fill="none" transform="translate(-7 -204.895)">
        <g id="Ellipse_547" stroke="#282c47" stroke-width="1.3px" transform="translate(10 204.895)">
            <circle cx="3.5" cy="3.5" r="3.5" class="cls-3"/>
            <circle cx="3.5" cy="3.5" r="2.85"/>
        </g>
        <g id="Path_20170">
            <path d="M6.661 0c3.679 0 6.661 2.33 6.661 5.2S0 8.079 0 5.2 2.982 0 6.661 0z" class="cls-3" transform="translate(7 212.534)"/>
            <path fill="#282c47" d="M6.661 1.3c-1.49 0-2.879.444-3.91 1.249-.893.698-1.403 1.59-1.448 2.522.16.135.636.404 1.647.63 1.032.232 2.35.36 3.711.36 1.361 0 2.679-.128 3.711-.36 1.011-.226 1.487-.495 1.647-.63-.044-.933-.555-1.824-1.448-2.522C9.54 1.744 8.15 1.3 6.66 1.3m0-1.3c3.679 0 6.661 2.33 6.661 5.205 0 1.437-3.33 2.156-6.66 2.156C3.33 7.36 0 6.642 0 5.205 0 2.33 2.982 0 6.661 0z" transform="translate(7 212.534)"/>
        </g>
    </g>
</svg>
