<svg xmlns="http://www.w3.org/2000/svg" width="102.084" height="79.635" viewBox="0 0 102.084 79.635">
    <defs>
        <clipPath id="clip-path">
            <path id="Rectangle_4024" fill="none" d="M0 0H32.991V58.077H0z"/>
        </clipPath>
        <style>
            .cls-4{fill:#282c47}.cls-8{fill:#fff}.cls-12{fill:#88add8}.cls-13{fill:#afcdfb}.cls-14{fill:#98b9ea}.cls-17{fill:#ffb27d}.cls-18{fill:#1c1f38}.cls-20{fill:#f99746}.cls-24{fill:#233862}.cls-25{fill:#466aa5}
        </style>
    </defs>
    <g id="Group_9469" transform="translate(-83.104 -131.853)">
        <path id="Path_18986" fill="rgba(177,215,221,0.2)" d="M246.278 168.873c-3.01 2.107-76.443 1.522-79.548.761-14.254-3.5-12.792-21.085-10.576-32.7 3.023-15.845 6.6-32.38 19.528-36.442 52.924-16.629 71.849 9.568 76.113 24.273 6.132 21.135 9.044 33.917-5.517 44.108z" transform="translate(-71.64 36.704)"/>
        <path id="Path_18987" fill="#9dc9d0" d="M394.821 1694.784c0 2.137-16.726 3.922-39.043 4.354-3.376.065-6.88.1-10.474.1-2.439 0-4.836-.016-7.18-.046-23.944-.313-42.336-2.167-42.336-4.408 0-2.213 17.959-4.05 41.488-4.4l.978-.014q2.746-.035 5.582-.043h1.468c4.634 0 9.119.057 13.373.165 20.851.528 36.144 2.25 36.144 4.292z" transform="translate(-209.633 -1487.75)"/>
        <g id="Group_9467" transform="translate(109.155 134.99)">
            <g id="Group_9463" transform="translate(0 3.005)">
                <g id="Group_9401">
                    <path id="Path_20640" d="M1254.185 530.921v66.624a1.912 1.912 0 0 1-1.913 1.9h-33.548a1.911 1.911 0 0 1-1.912-1.9v-66.624a1.911 1.911 0 0 1 1.912-1.9h33.548a1.912 1.912 0 0 1 1.913 1.9z" class="cls-4" transform="translate(-1216.811 -529.021)"/>
                    <path id="Path_20643" fill="#52577b" d="M1515.242 1664.941a2.525 2.525 0 1 1-2.525-2.524 2.518 2.518 0 0 1 2.525 2.524z" transform="translate(-1493.571 -1598.576)"/>
                    <path id="Rectangle_4021" fill="#e0ecff" d="M0 0H32.991V58.077H0z" transform="translate(2.317 4.523)"/>
                    <path id="Path_20644" fill="#14162c" d="M1514.51 1672.993a2.524 2.524 0 1 1-3.146-3.908 5.658 5.658 0 0 0 3.146 3.908z" transform="translate(-1493.556 -1604.851)"/>
                    <path id="Path_20641" d="M1474.283 563.66h-10.06a.392.392 0 0 1-.391-.391.392.392 0 0 1 .391-.391h10.06a.392.392 0 0 1 .391.391.392.392 0 0 1-.391.391z" class="cls-8" transform="translate(-1449.956 -560.88)"/>
                    <path id="Path_20642" d="M1433.931 563.66a.392.392 0 0 1-.391-.391.393.393 0 0 1 .391-.391.393.393 0 0 1 .391.391.393.393 0 0 1-.391.391z" class="cls-8" transform="translate(-1421.203 -560.88)"/>
                </g>
                <path id="Rectangle_4023" fill="#168794" d="M0 0H32.925V23.081H0z" transform="translate(2.317 4.523)"/>
                <g id="Group_9410" transform="translate(6.054 8.606)">
                    <path id="Path_20678" fill="#ebf3fa" d="M1355.459 690.25h-23.623a.936.936 0 0 1-.935-.935v-13.432a.936.936 0 0 1 .935-.935h23.623a.936.936 0 0 1 .935.935v13.433a.936.936 0 0 1-.935.934zm-23.623-15.126a.759.759 0 0 0-.758.758v13.433a.759.759 0 0 0 .758.758h23.623a.759.759 0 0 0 .758-.758v-13.432a.759.759 0 0 0-.758-.758z" transform="translate(-1330.901 -674.948)"/>
                </g>
                <g id="Group_9419" transform="translate(8.113 9.972)">
                    <path id="Path_20679" d="M1373.291 867.865l-5.447.042a.42.42 0 0 1-.422-.416v-.052a.42.42 0 0 1 .416-.422l5.447-.042a.42.42 0 0 1 .422.416v.052a.42.42 0 0 1-.416.422z" class="cls-8" transform="translate(-1367.35 -857.015)"/>
                    <path id="Path_20680" d="M1494.994 866.918l-5.447.042a.42.42 0 0 1-.422-.416v-.052a.42.42 0 0 1 .416-.422l5.447-.042a.42.42 0 0 1 .423.416v.052a.42.42 0 0 1-.417.422z" class="cls-8" transform="translate(-1481.876 -856.123)"/>
                    <g id="Group_9411" transform="translate(.032 4.572)">
                        <path id="Path_20681" d="M1367.779 778.77a1.013 1.013 0 0 1-.1.489.459.459 0 0 1-.807.006 1.206 1.206 0 0 1-.009-.974.462.462 0 0 1 .811-.006 1.02 1.02 0 0 1 .105.485zm-.25 0a1.006 1.006 0 0 0-.045-.314c-.045-.127-.116-.19-.215-.189s-.173.064-.214.19a.964.964 0 0 0-.042.316q0 .508.263.506.151 0 .212-.194a1.022 1.022 0 0 0 .041-.314z" class="cls-8" transform="translate(-1366.764 -777.904)"/>
                        <path id="Path_20682" d="M1386.741 778.623a1.011 1.011 0 0 1-.1.489.459.459 0 0 1-.807.006 1.2 1.2 0 0 1-.01-.974.462.462 0 0 1 .811-.006 1.016 1.016 0 0 1 .106.485zm-.25 0a1 1 0 0 0-.045-.313c-.044-.127-.116-.19-.215-.189s-.172.064-.214.19a.985.985 0 0 0-.042.316q0 .508.263.506c.1 0 .171-.065.211-.194a1 1 0 0 0 .042-.315z" class="cls-8" transform="translate(-1384.608 -777.765)"/>
                        <path id="Path_20683" d="M1405.7 778.475a1.014 1.014 0 0 1-.1.489.459.459 0 0 1-.807.006 1.207 1.207 0 0 1-.009-.974.462.462 0 0 1 .811-.006 1.016 1.016 0 0 1 .105.485zm-.25 0a.991.991 0 0 0-.045-.313c-.044-.127-.116-.19-.214-.189s-.173.064-.214.19a.961.961 0 0 0-.042.316q0 .508.263.506.15 0 .211-.194a.982.982 0 0 0 .045-.315z" class="cls-8" transform="translate(-1402.452 -777.626)"/>
                        <path id="Path_20684" d="M1424.667 778.328a1.012 1.012 0 0 1-.1.489.459.459 0 0 1-.807.006 1.2 1.2 0 0 1-.009-.974.462.462 0 0 1 .811-.006 1.017 1.017 0 0 1 .105.485zm-.25 0a1 1 0 0 0-.045-.313q-.067-.19-.215-.189t-.214.19a.97.97 0 0 0-.042.316q0 .508.263.506.15 0 .212-.194a1 1 0 0 0 .041-.315z" class="cls-8" transform="translate(-1420.297 -777.488)"/>
                        <path id="Path_20685" d="M1453.4 778.1a1.014 1.014 0 0 1-.1.489.459.459 0 0 1-.807.006 1.209 1.209 0 0 1-.01-.974.462.462 0 0 1 .811-.006 1.016 1.016 0 0 1 .106.485zm-.25 0a1 1 0 0 0-.045-.313q-.067-.19-.215-.189t-.214.19a.972.972 0 0 0-.042.316q0 .508.263.506.15 0 .212-.194a.991.991 0 0 0 .045-.311z" class="cls-8" transform="translate(-1447.34 -777.277)"/>
                        <path id="Path_20686" d="M1472.367 777.956a1.009 1.009 0 0 1-.1.489.459.459 0 0 1-.807.006 1.205 1.205 0 0 1-.01-.974.462.462 0 0 1 .811-.006 1.018 1.018 0 0 1 .106.485zm-.25 0a1.017 1.017 0 0 0-.045-.314q-.067-.19-.215-.189c-.1 0-.172.064-.214.19a.974.974 0 0 0-.042.316q0 .508.264.506.15 0 .211-.194a1 1 0 0 0 .041-.314z" class="cls-8" transform="translate(-1465.184 -777.138)"/>
                        <path id="Path_20687" d="M1491.33 777.809a1.018 1.018 0 0 1-.1.489.459.459 0 0 1-.807.006 1.209 1.209 0 0 1-.01-.974.462.462 0 0 1 .811-.006 1.019 1.019 0 0 1 .106.485zm-.25 0a.983.983 0 0 0-.045-.313c-.044-.127-.116-.19-.214-.189s-.172.064-.214.19a.968.968 0 0 0-.042.316q0 .508.264.506c.1 0 .17-.066.211-.194a1.006 1.006 0 0 0 .04-.315z" class="cls-8" transform="translate(-1483.029 -776.999)"/>
                        <path id="Path_20688" d="M1510.293 777.662a1.011 1.011 0 0 1-.1.489.459.459 0 0 1-.807.006 1.2 1.2 0 0 1-.009-.974.462.462 0 0 1 .811-.006 1.013 1.013 0 0 1 .105.485zm-.25 0a1 1 0 0 0-.045-.313c-.045-.127-.116-.19-.215-.189s-.173.064-.214.19a.957.957 0 0 0-.042.316q0 .508.263.506.15 0 .212-.194a.979.979 0 0 0 .041-.315z" class="cls-8" transform="translate(-1500.873 -776.861)"/>
                        <path id="Path_20689" d="M1539.03 777.438a1.015 1.015 0 0 1-.1.489.459.459 0 0 1-.807.006 1.2 1.2 0 0 1-.01-.974.462.462 0 0 1 .811-.006 1.022 1.022 0 0 1 .106.485zm-.25 0a1 1 0 0 0-.045-.313q-.066-.19-.215-.189t-.214.19a.974.974 0 0 0-.042.316q0 .508.263.506.15 0 .212-.194a1 1 0 0 0 .041-.315z" class="cls-8" transform="translate(-1527.915 -776.65)"/>
                        <path id="Path_20690" d="M1557.993 777.29a1.012 1.012 0 0 1-.1.489.459.459 0 0 1-.807.006 1.2 1.2 0 0 1-.01-.974.462.462 0 0 1 .811-.006 1.017 1.017 0 0 1 .106.485zm-.25 0a1.009 1.009 0 0 0-.045-.313q-.067-.19-.215-.189t-.214.19a.959.959 0 0 0-.042.316q0 .508.263.506.15 0 .212-.194a1.006 1.006 0 0 0 .041-.315z" class="cls-8" transform="translate(-1545.759 -776.511)"/>
                        <path id="Path_20691" d="M1576.955 777.142a1.017 1.017 0 0 1-.1.489.459.459 0 0 1-.807.006 1.2 1.2 0 0 1-.01-.974.462.462 0 0 1 .811-.006 1.02 1.02 0 0 1 .106.485zm-.25 0a1 1 0 0 0-.045-.314q-.067-.19-.215-.189t-.214.19a.978.978 0 0 0-.042.316q0 .508.264.506.15 0 .212-.194a1 1 0 0 0 .04-.314z" class="cls-8" transform="translate(-1563.603 -776.372)"/>
                        <path id="Path_20692" d="M1595.918 777a1.012 1.012 0 0 1-.1.489.459.459 0 0 1-.807.006 1.205 1.205 0 0 1-.009-.974.462.462 0 0 1 .811-.006 1.015 1.015 0 0 1 .105.485zm-.25 0a1.013 1.013 0 0 0-.045-.313c-.045-.127-.116-.19-.215-.189s-.172.064-.214.19a.968.968 0 0 0-.042.316q0 .508.263.506c.1 0 .171-.065.212-.194a1.007 1.007 0 0 0 .041-.316z" class="cls-8" transform="translate(-1581.448 -776.233)"/>
                        <path id="Path_20693" d="M1624.656 776.771a1.01 1.01 0 0 1-.1.489.459.459 0 0 1-.807.006 1.008 1.008 0 0 1-.108-.487 1.018 1.018 0 0 1 .1-.487.462.462 0 0 1 .811-.006 1.016 1.016 0 0 1 .104.485zm-.25 0a1 1 0 0 0-.045-.313c-.044-.127-.116-.19-.215-.189s-.173.064-.214.19a.974.974 0 0 0-.042.316q0 .508.263.506.15 0 .212-.194a1 1 0 0 0 .041-.315z" class="cls-8" transform="translate(-1608.491 -776.023)"/>
                        <path id="Path_20694" d="M1643.618 776.623a1.012 1.012 0 0 1-.1.489.459.459 0 0 1-.807.006 1.207 1.207 0 0 1-.009-.974.462.462 0 0 1 .811-.006 1.022 1.022 0 0 1 .105.485zm-.25 0a1 1 0 0 0-.044-.313c-.045-.127-.116-.19-.215-.189s-.173.065-.214.191a.968.968 0 0 0-.041.316q0 .508.263.506c.1 0 .17-.066.212-.194a1.011 1.011 0 0 0 .039-.316z" class="cls-8" transform="translate(-1626.335 -775.883)"/>
                        <path id="Path_20695" d="M1662.581 776.476a1.02 1.02 0 0 1-.1.489.459.459 0 0 1-.807.006 1.2 1.2 0 0 1-.01-.974.462.462 0 0 1 .811-.006 1.023 1.023 0 0 1 .106.485zm-.25 0a1 1 0 0 0-.045-.313q-.067-.19-.215-.189t-.213.19a.967.967 0 0 0-.042.316q0 .508.263.506.15 0 .212-.194a1 1 0 0 0 .04-.315z" class="cls-8" transform="translate(-1644.179 -775.745)"/>
                        <path id="Path_20696" d="M1681.544 776.328a1.017 1.017 0 0 1-.1.489.459.459 0 0 1-.807.006 1.2 1.2 0 0 1-.01-.974.462.462 0 0 1 .811-.006 1.022 1.022 0 0 1 .106.485zm-.25 0a1 1 0 0 0-.045-.313q-.067-.19-.215-.189t-.214.19a.971.971 0 0 0-.042.316q0 .508.263.506.15 0 .212-.194a1.01 1.01 0 0 0 .041-.315z" class="cls-8" transform="translate(-1662.024 -775.606)"/>
                    </g>
                    <path id="Path_20697" d="M1371.969 712.971l-5.331.042a.421.421 0 0 1-.422-.416.42.42 0 0 1 .416-.422l5.33-.042a.42.42 0 0 1 .422.416.42.42 0 0 1-.415.422z" class="cls-8" transform="translate(-1366.216 -711.305)"/>
                    <g id="Group_9416" transform="translate(20.72)">
                        <g id="Group_9412" transform="translate(0 .703)">
                            <path id="Path_20698" d="M1717.824 710.435a.64.64 0 0 0-.144-.4.069.069 0 0 0-.1 0l-.025.026a.068.068 0 0 0 0 .09.469.469 0 0 1 0 .585.069.069 0 0 0 .006.09l.025.025a.069.069 0 0 0 .1-.006.64.64 0 0 0 .138-.41z" class="cls-8" transform="translate(-1717.533 -710.008)"/>
                        </g>
                        <g id="Group_9413" transform="translate(.252 .454)">
                            <path id="Path_20699" d="M1722.188 706.456a.982.982 0 0 0-.252-.651.068.068 0 0 0-.1 0l-.014.015a.069.069 0 0 0 0 .094.83.83 0 0 1 .008 1.094.069.069 0 0 0 0 .094l.014.014a.068.068 0 0 0 .1 0 .982.982 0 0 0 .244-.66z" class="cls-8" transform="translate(-1721.803 -705.783)"/>
                        </g>
                        <g id="Group_9414" transform="translate(.477 .236)">
                            <path id="Path_20700" d="M1726.076 702.975a1.285 1.285 0 0 0-.344-.867.068.068 0 0 0-.1 0 .068.068 0 0 0 0 .094 1.153 1.153 0 0 1 .012 1.555.068.068 0 0 0 0 .094.069.069 0 0 0 .1 0 1.288 1.288 0 0 0 .332-.876z" class="cls-8" transform="translate(-1725.614 -702.086)"/>
                        </g>
                        <g id="Group_9415" transform="translate(.68)">
                            <path id="Path_20701" d="M1729.654 699.213a1.613 1.613 0 0 0-.444-1.1.069.069 0 0 0-.1 0l-.024.025a.069.069 0 0 0 0 .094 1.446 1.446 0 0 1 .015 1.972.069.069 0 0 0 0 .094l.025.025a.069.069 0 0 0 .1 0 1.612 1.612 0 0 0 .428-1.11z" class="cls-8" transform="translate(-1729.067 -698.091)"/>
                        </g>
                    </g>
                    <g id="Group_9418" transform="translate(.082 11.482)">
                        <g id="Group_9417">
                            <path id="Path_20702" d="M1368.1 893.531a.487.487 0 0 1-.048.236.222.222 0 0 1-.39 0 .583.583 0 0 1 0-.47.223.223 0 0 1 .391 0 .491.491 0 0 1 .047.234zm-.12 0a.487.487 0 0 0-.022-.151c-.021-.061-.056-.092-.1-.091s-.083.031-.1.092a.463.463 0 0 0-.02.152c0 .163.044.245.127.244q.073 0 .1-.094a.486.486 0 0 0 .014-.152z" class="cls-8" transform="translate(-1367.611 -893.158)"/>
                            <path id="Path_20703" d="M1377.246 893.458a.49.49 0 0 1-.048.236.221.221 0 0 1-.389 0 .582.582 0 0 1 0-.47.223.223 0 0 1 .391 0 .491.491 0 0 1 .046.234zm-.12 0a.485.485 0 0 0-.021-.151q-.032-.092-.1-.091c-.049 0-.083.031-.1.092a.469.469 0 0 0-.02.153c0 .163.044.245.127.244.048 0 .082-.032.1-.094a.479.479 0 0 0 .013-.152z" class="cls-8" transform="translate(-1376.217 -893.09)"/>
                            <path id="Path_20704" d="M1385.7 893.063a.075.075 0 0 1-.01.032l-.277.584c-.013.028-.031.043-.053.043a.048.048 0 0 1-.035-.013.046.046 0 0 1-.015-.034.074.074 0 0 1 .008-.033l.278-.583c.014-.028.031-.042.052-.042a.051.051 0 0 1 .036.013.043.043 0 0 1 .016.033z" class="cls-8" transform="translate(-1384.271 -893.002)"/>
                            <path id="Path_20705" d="M1392.646 893.338a.492.492 0 0 1-.048.236.221.221 0 0 1-.389 0 .489.489 0 0 1-.052-.235.5.5 0 0 1 .047-.235.223.223 0 0 1 .391 0 .5.5 0 0 1 .051.234zm-.121 0a.484.484 0 0 0-.022-.151c-.021-.061-.056-.092-.1-.091s-.083.031-.1.092a.472.472 0 0 0-.02.152q0 .245.127.244.072 0 .1-.094a.488.488 0 0 0 .016-.151z" class="cls-8" transform="translate(-1390.709 -892.977)"/>
                            <path id="Path_20706" d="M1401.793 893.267a.486.486 0 0 1-.048.236.221.221 0 0 1-.389 0 .58.58 0 0 1 0-.47.223.223 0 0 1 .391 0 .49.49 0 0 1 .046.234zm-.12 0a.489.489 0 0 0-.021-.151q-.032-.092-.1-.091t-.1.092a.471.471 0 0 0-.02.152q0 .245.127.244.073 0 .1-.094a.485.485 0 0 0 .013-.151z" class="cls-8" transform="translate(-1399.316 -892.911)"/>
                            <path id="Path_20707" d="M1410.939 893.2a.486.486 0 0 1-.048.236.221.221 0 0 1-.389 0 .584.584 0 0 1 0-.47.223.223 0 0 1 .391 0 .492.492 0 0 1 .046.234zm-.12 0a.5.5 0 0 0-.022-.151c-.021-.061-.056-.091-.1-.091s-.084.031-.1.092a.451.451 0 0 0-.02.152q0 .245.127.244c.048 0 .082-.032.1-.094a.487.487 0 0 0 .015-.152z" class="cls-8" transform="translate(-1407.923 -892.844)"/>
                            <path id="Path_20708" d="M1420.084 893.125a.493.493 0 0 1-.048.236.221.221 0 0 1-.389 0 .491.491 0 0 1-.052-.235.5.5 0 0 1 .047-.235.223.223 0 0 1 .391 0 .49.49 0 0 1 .051.234zm-.121 0a.482.482 0 0 0-.021-.151c-.021-.061-.056-.092-.1-.091s-.083.031-.1.092a.464.464 0 0 0-.02.153q0 .245.127.244c.048 0 .082-.031.1-.094a.486.486 0 0 0 .014-.152z" class="cls-8" transform="translate(-1416.529 -892.777)"/>
                        </g>
                    </g>
                </g>
                <g id="Group_9440" transform="translate(2.317 4.523)">
                    <g id="Group_9439" clip-path="url(#clip-path)">
                        <g id="Group_9422" transform="translate(26.618 23.683)">
                            <path id="Path_20709" d="M1725.6 1031.008a.478.478 0 0 1 .066-.1.467.467 0 0 1 .064-.064l.1-.1.025.019a3.166 3.166 0 0 1 2.557.683c1.253.809 2.057 1.922 1.825 2.514l.036.026-.139.137-.021.02a.579.579 0 0 1-.121.083 3.117 3.117 0 0 1-2.573-.675c-1.287-.82-2.098-1.96-1.819-2.543z" class="cls-12" transform="translate(-1725.543 -1030.525)"/>
                            <path id="Path_20710" d="M1731.035 1028.816c-1.276-.824-2.534-1.019-2.81-.437s.535 1.723 1.811 2.547 2.534 1.019 2.81.437-.535-1.723-1.811-2.547z" class="cls-13" transform="translate(-1728.022 -1028.044)"/>
                            <g id="Group_9420" transform="translate(.443 .212)">
                                <path id="Path_20711" d="M1735 1034.334a5.009 5.009 0 0 1-1.3-1.174c-.308-.421-.415-.79-.3-1.038a.486.486 0 0 1 .328-.259 3.1 3.1 0 0 1 2.126.654 5.013 5.013 0 0 1 1.3 1.174c.308.421.415.789.3 1.037a.485.485 0 0 1-.328.259 1.033 1.033 0 0 1-.281.035 3.776 3.776 0 0 1-1.845-.688zm-1.242-2.381a.4.4 0 0 0-.269.208c-.1.214.007.558.291.945a4.918 4.918 0 0 0 1.271 1.151 3.726 3.726 0 0 0 1.8.673.926.926 0 0 0 .252-.031.4.4 0 0 0 .269-.209c.1-.213-.007-.557-.291-.944a4.912 4.912 0 0 0-1.271-1.151 3.73 3.73 0 0 0-1.8-.673.914.914 0 0 0-.249.031z" class="cls-14" transform="translate(-1733.362 -1031.828)"/>
                            </g>
                            <g id="Group_9421" transform="translate(1.169 .991)">
                                <path id="Path_20712" d="M1748.108 1046.879a.153.153 0 0 0 .073 0 .075.075 0 0 0 .045-.037.129.129 0 0 0 .011-.075.312.312 0 0 0-.025-.088.354.354 0 0 0-.063-.095.634.634 0 0 0-.112-.1.983.983 0 0 0-.168-.091l-.028-.289a1.627 1.627 0 0 1 .293.162 1.289 1.289 0 0 1 .21.183.915.915 0 0 1 .135.191.784.784 0 0 1 .071.185l.278.121.016.16-.28-.122a.27.27 0 0 1-.04.139.187.187 0 0 1-.1.076.363.363 0 0 1-.162.007.9.9 0 0 1-.219-.068 1.264 1.264 0 0 1-.24-.134 1.164 1.164 0 0 1-.184-.165 1.416 1.416 0 0 1-.146-.194c-.043-.07-.087-.145-.13-.226a1.494 1.494 0 0 0-.075-.129.634.634 0 0 0-.074-.094.445.445 0 0 0-.081-.068.623.623 0 0 0-.1-.051.526.526 0 0 0-.1-.032.184.184 0 0 0-.075 0 .07.07 0 0 0-.047.031.105.105 0 0 0-.011.069.281.281 0 0 0 .1.169.863.863 0 0 0 .257.159l.029.289a1.709 1.709 0 0 1-.257-.137 1.4 1.4 0 0 1-.2-.161.975.975 0 0 1-.147-.178.678.678 0 0 1-.084-.186l-.3-.132-.016-.16.3.131a.243.243 0 0 1 .042-.137.2.2 0 0 1 .107-.073.373.373 0 0 1 .164-.006.906.906 0 0 1 .215.067 1.279 1.279 0 0 1 .241.135 1.178 1.178 0 0 1 .183.165 1.376 1.376 0 0 1 .145.194q.065.105.126.226a1.306 1.306 0 0 0 .07.123.677.677 0 0 0 .074.094.481.481 0 0 0 .085.071.655.655 0 0 0 .105.057.411.411 0 0 0 .089.024z" class="cls-14" transform="translate(-1746.155 -1045.712)"/>
                            </g>
                        </g>
                        <g id="Group_9425" transform="translate(.951 26.237)">
                            <path id="Path_20713" d="M1280.347 1088.7a.493.493 0 0 1 .066-.1.486.486 0 0 1 .064-.064l.1-.1.026.019a3.166 3.166 0 0 1 2.557.684c1.253.809 2.057 1.922 1.825 2.514l.035.026-.139.137-.021.02a.575.575 0 0 1-.121.083 3.118 3.118 0 0 1-2.573-.676c-1.285-.822-2.095-1.962-1.819-2.543z" class="cls-12" transform="translate(-1279.872 -1087.534)"/>
                            <path id="Path_20798" d="M1.155.006c.638 0 1.162 1.24 1.17 2.761s-.5 2.753-1.141 2.749S.022 4.277.014 2.755.517 0 1.155.006z" class="cls-13" transform="rotate(-55.108 1.81 .944)"/>
                            <g id="Group_9423" transform="translate(.864 .893)">
                                <path id="Path_20714" d="M1289.752 1092.025a5.016 5.016 0 0 1-1.3-1.174c-.309-.421-.415-.789-.3-1.037a.485.485 0 0 1 .328-.259 3.1 3.1 0 0 1 2.126.654 5.006 5.006 0 0 1 1.3 1.174c.308.421.415.789.3 1.037a.485.485 0 0 1-.328.259 1.038 1.038 0 0 1-.281.035 3.779 3.779 0 0 1-1.845-.689zm-1.242-2.381a.4.4 0 0 0-.269.208c-.1.213.007.558.291.945a4.912 4.912 0 0 0 1.271 1.151 3.725 3.725 0 0 0 1.8.674.921.921 0 0 0 .252-.031.4.4 0 0 0 .269-.208c.1-.213-.007-.557-.291-.944a4.908 4.908 0 0 0-1.271-1.151 3.723 3.723 0 0 0-1.8-.674.924.924 0 0 0-.252.03z" class="cls-14" transform="translate(-1288.111 -1089.519)"/>
                            </g>
                            <g id="Group_9424" transform="translate(1.589 1.672)">
                                <path id="Path_20715" d="M1302.858 1104.569a.149.149 0 0 0 .073 0 .075.075 0 0 0 .045-.038.13.13 0 0 0 .01-.074.309.309 0 0 0-.024-.088.372.372 0 0 0-.063-.1.642.642 0 0 0-.112-.1.988.988 0 0 0-.168-.091l-.028-.29a1.619 1.619 0 0 1 .293.162 1.269 1.269 0 0 1 .21.183.921.921 0 0 1 .135.191.794.794 0 0 1 .071.185l.278.121.016.159-.28-.121a.27.27 0 0 1-.04.139.185.185 0 0 1-.1.076.365.365 0 0 1-.162.007.893.893 0 0 1-.219-.068 1.267 1.267 0 0 1-.24-.134 1.184 1.184 0 0 1-.184-.165 1.392 1.392 0 0 1-.146-.194c-.044-.07-.087-.145-.13-.226-.026-.05-.051-.093-.075-.129a.669.669 0 0 0-.074-.094.487.487 0 0 0-.081-.069.652.652 0 0 0-.1-.051.533.533 0 0 0-.1-.032.187.187 0 0 0-.075 0 .072.072 0 0 0-.047.031.108.108 0 0 0-.011.069.283.283 0 0 0 .1.169.864.864 0 0 0 .257.16l.029.289a1.725 1.725 0 0 1-.257-.137 1.366 1.366 0 0 1-.2-.161.981.981 0 0 1-.146-.178.675.675 0 0 1-.084-.186l-.305-.133-.016-.16.3.13a.249.249 0 0 1 .043-.137.2.2 0 0 1 .107-.073.375.375 0 0 1 .164-.006.885.885 0 0 1 .215.067 1.272 1.272 0 0 1 .241.135 1.148 1.148 0 0 1 .183.165 1.374 1.374 0 0 1 .145.194q.065.1.127.226a1.23 1.23 0 0 0 .07.123.688.688 0 0 0 .074.094.5.5 0 0 0 .085.071.67.67 0 0 0 .105.057.4.4 0 0 0 .091.032z" class="cls-14" transform="translate(-1300.904 -1103.403)"/>
                            </g>
                        </g>
                        <g id="Group_9428" transform="translate(27.153 46.045)">
                            <path id="Path_20716" d="M1735.033 1429.948a.522.522 0 0 1 .07-.109.565.565 0 0 1 .068-.068l.1-.1.027.02a3.334 3.334 0 0 1 2.693.72c1.319.852 2.166 2.025 1.922 2.648l.037.027-.147.144-.022.021a.607.607 0 0 1-.127.087 3.282 3.282 0 0 1-2.71-.711c-1.344-.864-2.202-2.065-1.911-2.679z" class="cls-12" transform="translate(-1734.976 -1429.44)"/>
                            <path id="Path_20717" d="M1740.759 1427.64c-1.344-.868-2.669-1.073-2.959-.46s.563 1.815 1.907 2.682 2.669 1.073 2.959.46-.566-1.814-1.907-2.682z" class="cls-13" transform="translate(-1737.586 -1426.827)"/>
                            <g id="Group_9426" transform="translate(.467 .223)">
                                <path id="Path_20718" d="M1744.939 1433.451a5.264 5.264 0 0 1-1.365-1.236c-.325-.443-.437-.831-.316-1.092a.51.51 0 0 1 .345-.273 3.263 3.263 0 0 1 2.238.689 5.254 5.254 0 0 1 1.365 1.236c.325.443.437.831.316 1.092a.511.511 0 0 1-.346.273 1.083 1.083 0 0 1-.3.037 3.979 3.979 0 0 1-1.937-.726zm-1.308-2.508a.416.416 0 0 0-.284.22c-.1.224.007.587.306.994a5.184 5.184 0 0 0 1.339 1.212 3.923 3.923 0 0 0 1.892.709.976.976 0 0 0 .266-.033.418.418 0 0 0 .283-.22c.1-.225-.007-.587-.306-.994a5.172 5.172 0 0 0-1.339-1.212 3.924 3.924 0 0 0-1.892-.709.964.964 0 0 0-.265.033z" class="cls-14" transform="translate(-1743.211 -1430.813)"/>
                            </g>
                            <g id="Group_9427" transform="translate(1.231 1.043)">
                                <path id="Path_20719" d="M1758.742 1446.664a.164.164 0 0 0 .077 0 .081.081 0 0 0 .047-.04.142.142 0 0 0 .011-.079.3.3 0 0 0-.026-.092.38.38 0 0 0-.066-.1.658.658 0 0 0-.118-.1 1.043 1.043 0 0 0-.178-.1l-.03-.3a1.715 1.715 0 0 1 .309.171 1.371 1.371 0 0 1 .221.193.984.984 0 0 1 .142.2.831.831 0 0 1 .074.194l.293.127.017.168-.3-.128a.281.281 0 0 1-.042.147.2.2 0 0 1-.109.08.384.384 0 0 1-.171.007.931.931 0 0 1-.231-.071 1.326 1.326 0 0 1-.252-.141 1.251 1.251 0 0 1-.194-.173 1.5 1.5 0 0 1-.154-.2c-.046-.074-.092-.153-.136-.238-.028-.052-.054-.1-.079-.136a.684.684 0 0 0-.078-.1.47.47 0 0 0-.085-.072.657.657 0 0 0-.1-.054.563.563 0 0 0-.1-.034.188.188 0 0 0-.079 0 .073.073 0 0 0-.049.032.113.113 0 0 0-.012.073.3.3 0 0 0 .1.178.909.909 0 0 0 .271.168l.03.305a1.838 1.838 0 0 1-.27-.144 1.468 1.468 0 0 1-.214-.17 1.039 1.039 0 0 1-.155-.187.7.7 0 0 1-.089-.2l-.321-.14-.016-.169.317.138a.262.262 0 0 1 .045-.145.207.207 0 0 1 .112-.077.391.391 0 0 1 .172-.006.923.923 0 0 1 .227.07 1.308 1.308 0 0 1 .254.142 1.221 1.221 0 0 1 .193.173 1.423 1.423 0 0 1 .153.2c.046.074.09.153.133.238a1.306 1.306 0 0 0 .074.13.71.71 0 0 0 .078.1.542.542 0 0 0 .09.075.705.705 0 0 0 .111.059.463.463 0 0 0 .103.028z" class="cls-14" transform="translate(-1756.684 -1445.435)"/>
                            </g>
                        </g>
                        <g id="Group_9431" transform="translate(10.489 51.479)">
                            <path id="Path_20720" d="M1441.167 1528.029a.713.713 0 0 1 .1-.151.759.759 0 0 1 .093-.094l.141-.141.037.027c.72-.349 2.207.021 3.711.992 1.818 1.174 2.985 2.79 2.649 3.649l.052.038-.2.2-.03.029-.006.006a.812.812 0 0 1-.175.12c-.711.369-2.214 0-3.734-.98-1.862-1.194-3.039-2.849-2.638-3.695z" class="cls-12" transform="translate(-1441.088 -1527.328)"/>
                            <path id="Path_20721" d="M1449.06 1524.848c-1.852-1.2-3.678-1.48-4.078-.634s.776 2.5 2.628 3.7 3.678 1.48 4.079.634-.777-2.504-2.629-3.7z" class="cls-13" transform="translate(-1444.687 -1523.727)"/>
                            <g id="Group_9429" transform="translate(.644 .308)">
                                <path id="Path_20722" d="M1454.82 1532.856a7.265 7.265 0 0 1-1.881-1.7c-.448-.611-.6-1.145-.436-1.505a.7.7 0 0 1 .477-.376 4.5 4.5 0 0 1 3.085.949 7.262 7.262 0 0 1 1.881 1.7c.448.611.6 1.145.436 1.505a.7.7 0 0 1-.476.376 1.488 1.488 0 0 1-.407.051 5.478 5.478 0 0 1-2.679-1zm-1.8-3.456a.574.574 0 0 0-.391.3c-.144.31.01.809.422 1.371a7.127 7.127 0 0 0 1.845 1.67 5.408 5.408 0 0 0 2.607.978 1.346 1.346 0 0 0 .365-.045.575.575 0 0 0 .391-.3c.143-.31-.01-.809-.422-1.371a7.13 7.13 0 0 0-1.845-1.67 5.4 5.4 0 0 0-2.607-.978 1.339 1.339 0 0 0-.367.045z" class="cls-14" transform="translate(-1452.438 -1529.219)"/>
                            </g>
                            <g id="Group_9430" transform="translate(1.696 1.438)">
                                <path id="Path_20723" d="M1473.841 1551.064a.217.217 0 0 0 .106 0 .112.112 0 0 0 .065-.055.19.19 0 0 0 .015-.108.438.438 0 0 0-.035-.127.523.523 0 0 0-.092-.138.92.92 0 0 0-.162-.139 1.475 1.475 0 0 0-.245-.132l-.041-.42a2.348 2.348 0 0 1 .426.235 1.842 1.842 0 0 1 .3.266 1.336 1.336 0 0 1 .2.277 1.156 1.156 0 0 1 .1.268l.4.176.023.231-.406-.177a.4.4 0 0 1-.059.2.271.271 0 0 1-.15.11.531.531 0 0 1-.236.01 1.3 1.3 0 0 1-.318-.1 1.844 1.844 0 0 1-.348-.195 1.711 1.711 0 0 1-.266-.239 2.042 2.042 0 0 1-.213-.282q-.095-.152-.189-.328c-.038-.073-.075-.135-.109-.187a1.023 1.023 0 0 0-.107-.137.671.671 0 0 0-.118-.1.915.915 0 0 0-.138-.074.739.739 0 0 0-.139-.047.26.26 0 0 0-.109 0 .1.1 0 0 0-.068.045.158.158 0 0 0-.017.1.412.412 0 0 0 .14.245 1.264 1.264 0 0 0 .374.231l.041.42a2.5 2.5 0 0 1-.372-.2 2 2 0 0 1-.3-.233 1.454 1.454 0 0 1-.213-.258.994.994 0 0 1-.122-.27l-.443-.192-.023-.233.437.19a.357.357 0 0 1 .062-.2.287.287 0 0 1 .155-.106.546.546 0 0 1 .238-.008 1.3 1.3 0 0 1 .312.1 1.834 1.834 0 0 1 .35.2 1.688 1.688 0 0 1 .266.239 2.027 2.027 0 0 1 .211.282q.094.152.183.328a1.808 1.808 0 0 0 .1.179.989.989 0 0 0 .107.136.724.724 0 0 0 .123.1 1 1 0 0 0 .153.082.606.606 0 0 0 .151.035z" class="cls-14" transform="translate(-1471.005 -1549.37)"/>
                            </g>
                        </g>
                        <g id="Group_9433" transform="translate(30.18 41.747)">
                            <path id="Path_20724" d="M1788.448 1355.045a.8.8 0 0 1 .108-.17.838.838 0 0 1 .105-.106l.159-.16.042.031c.814-.394 2.5.024 4.2 1.122 2.056 1.327 3.376 3.155 2.995 4.127l.058.042-.229.225-.034.033-.006.006a.935.935 0 0 1-.2.136c-.8.417-2.5 0-4.224-1.109-2.097-1.349-3.427-3.222-2.974-4.177z" class="cls-12" transform="translate(-1788.359 -1354.252)"/>
                            <path id="Path_20725" d="M1797.373 1351.447c-2.094-1.352-4.159-1.673-4.612-.717s.878 2.828 2.972 4.18 4.16 1.673 4.613.717-.878-2.827-2.973-4.18z" class="cls-13" transform="translate(-1792.428 -1350.18)"/>
                            <g id="Group_9432" transform="translate(.728 .348)">
                                <path id="Path_20726" d="M1803.888 1360.5a8.21 8.21 0 0 1-2.127-1.927c-.506-.691-.682-1.3-.492-1.7a.8.8 0 0 1 .539-.425 5.087 5.087 0 0 1 3.489 1.073 8.216 8.216 0 0 1 2.127 1.927c.506.691.682 1.3.493 1.7a.8.8 0 0 1-.539.425 1.682 1.682 0 0 1-.461.058 6.2 6.2 0 0 1-3.029-1.131zm-2.038-3.908a.65.65 0 0 0-.442.342c-.162.35.012.915.477 1.55a8.057 8.057 0 0 0 2.087 1.889 6.115 6.115 0 0 0 2.948 1.105 1.522 1.522 0 0 0 .414-.051.65.65 0 0 0 .442-.342c.162-.35-.012-.915-.477-1.55a8.061 8.061 0 0 0-2.087-1.889 6.117 6.117 0 0 0-2.949-1.105 1.516 1.516 0 0 0-.413.059z" class="cls-14" transform="translate(-1801.194 -1356.391)"/>
                            </g>
                        </g>
                        <g id="Group_9435" transform="translate(-3.891 34.103)">
                            <path id="Path_20727" d="M1187.564 1218.734a.793.793 0 0 1 .109-.17.827.827 0 0 1 .105-.105l.159-.16.042.03c.814-.394 2.5.024 4.2 1.122 2.056 1.328 3.376 3.156 3 4.127l.058.042-.229.225-.034.033-.007.006a.947.947 0 0 1-.2.136c-.8.417-2.5 0-4.223-1.109-2.103-1.349-3.433-3.22-2.98-4.177z" class="cls-12" transform="translate(-1187.475 -1217.942)"/>
                            <path id="Path_20728" d="M1196.49 1215.138c-2.094-1.352-4.159-1.673-4.612-.717s.878 2.828 2.972 4.181 4.159 1.673 4.612.717-.878-2.829-2.972-4.181z" class="cls-13" transform="translate(-1191.544 -1213.87)"/>
                            <g id="Group_9434" transform="translate(.728 .348)">
                                <path id="Path_20729" d="M1203 1224.193a8.228 8.228 0 0 1-2.127-1.927c-.506-.691-.681-1.3-.492-1.7a.8.8 0 0 1 .539-.425 5.087 5.087 0 0 1 3.489 1.073 8.214 8.214 0 0 1 2.127 1.927c.507.691.681 1.3.493 1.7a.8.8 0 0 1-.539.425 1.69 1.69 0 0 1-.461.058 6.2 6.2 0 0 1-3.029-1.131zm-2.038-3.909a.65.65 0 0 0-.442.342c-.162.35.012.915.478 1.55a8.058 8.058 0 0 0 2.086 1.889 6.117 6.117 0 0 0 2.949 1.105 1.51 1.51 0 0 0 .413-.051.652.652 0 0 0 .442-.342c.162-.35-.012-.915-.477-1.55a8.065 8.065 0 0 0-2.087-1.889 6.115 6.115 0 0 0-2.948-1.105 1.531 1.531 0 0 0-.41.052z" class="cls-14" transform="translate(-1200.31 -1220.081)"/>
                            </g>
                        </g>
                        <g id="Group_9438" transform="translate(.284 50.29)">
                            <path id="Path_20730" d="M1280.9 1519.764a.551.551 0 0 0-.075-.118.552.552 0 0 0-.073-.074l-.11-.111-.029.021c-.566-.274-1.735.016-2.918.78-1.429.922-2.347 2.193-2.082 2.869l-.041.03.159.156.024.023a.66.66 0 0 0 .138.094c.559.29 1.741 0 2.936-.771 1.465-.932 2.39-2.233 2.071-2.899z" class="cls-12" transform="translate(-1274.75 -1518.436)"/>
                            <path id="Path_20799" d="M3.144.016C4.881.025 6.292.623 6.3 1.351s-1.4 1.311-3.137 1.3S.011 2.047.007 1.318 1.408.007 3.144.016z" class="cls-13" transform="rotate(-34.91 5.679 1.787)"/>
                            <g id="Group_9436" transform="translate(.986 1.019)">
                                <path id="Path_20731" d="M1279.24 1524.346a1.175 1.175 0 0 1-.321-.04.554.554 0 0 1-.374-.3c-.131-.283-.01-.7.342-1.184a5.717 5.717 0 0 1 1.479-1.34 3.539 3.539 0 0 1 2.426-.746.555.555 0 0 1 .375.3c.131.283.01.7-.343 1.184a5.712 5.712 0 0 1-1.479 1.34 4.308 4.308 0 0 1-2.105.786zm3.235-3.539a4.251 4.251 0 0 0-2.05.768 5.61 5.61 0 0 0-1.451 1.313c-.324.442-.445.834-.332 1.078a.453.453 0 0 0 .307.238 1.058 1.058 0 0 0 .287.036 4.256 4.256 0 0 0 2.05-.769 5.608 5.608 0 0 0 1.451-1.313c.324-.441.445-.834.332-1.078a.452.452 0 0 0-.307-.238 1.045 1.045 0 0 0-.287-.035z" class="cls-14" transform="translate(-1278.493 -1520.7)"/>
                            </g>
                            <g id="Group_9437" transform="translate(1.814 1.908)">
                                <path id="Path_20732" d="M1294.039 1537.843a.767.767 0 0 0 .12-.064.582.582 0 0 0 .1-.082.784.784 0 0 0 .084-.107 1.327 1.327 0 0 0 .08-.14q.071-.138.145-.258a1.564 1.564 0 0 1 .165-.222 1.348 1.348 0 0 1 .209-.188 1.417 1.417 0 0 1 .275-.154 1.013 1.013 0 0 1 .245-.076.429.429 0 0 1 .187.006.227.227 0 0 1 .122.083.282.282 0 0 1 .048.157l.344-.149-.018.183-.348.151a.768.768 0 0 1-.1.213 1.121 1.121 0 0 1-.167.2 1.585 1.585 0 0 1-.232.184 1.951 1.951 0 0 1-.293.156l.033-.33a.986.986 0 0 0 .294-.182.324.324 0 0 0 .11-.193.124.124 0 0 0-.013-.079.083.083 0 0 0-.054-.035.208.208 0 0 0-.086 0 .586.586 0 0 0-.109.037.714.714 0 0 0-.109.058.519.519 0 0 0-.093.078.732.732 0 0 0-.084.108c-.027.042-.056.091-.086.147q-.074.138-.148.258a1.607 1.607 0 0 1-.167.222 1.363 1.363 0 0 1-.21.188 1.417 1.417 0 0 1-.273.153 1.027 1.027 0 0 1-.25.078.419.419 0 0 1-.185-.008.21.21 0 0 1-.117-.086.309.309 0 0 1-.046-.159l-.319.139.018-.182.318-.138a.911.911 0 0 1 .081-.21 1.045 1.045 0 0 1 .154-.218 1.457 1.457 0 0 1 .24-.209 1.833 1.833 0 0 1 .335-.185l-.032.331a1.113 1.113 0 0 0-.193.1.718.718 0 0 0-.127.11.413.413 0 0 0-.072.109.333.333 0 0 0-.028.1.149.149 0 0 0 .012.085.087.087 0 0 0 .051.043.172.172 0 0 0 .083 0 .485.485 0 0 0 .106-.023z" class="cls-14" transform="translate(-1293.091 -1536.545)"/>
                            </g>
                        </g>
                    </g>
                </g>
                <g id="Group_9444" transform="translate(9.925 29.163)">
                    <path id="Path_20733" d="M1414.908 1056.818v25.841l-.884-.414-1 .414-.405-.391-1.241.391-.841-.248-1.478.248-1.367-.248-1.562.248-1.041-.391-1.442.391-1.161-.248-1.322.248-1.4-.248-.921.248-1-.248-1.13.248v-25.841z" class="cls-8" transform="translate(-1396.71 -1056.818)"/>
                    <g id="Group_9441" transform="translate(2.574 3.363)">
                        <path id="Path_20734" d="M1452.735 1114.26h-12.168a.211.211 0 0 1-.21-.211.211.211 0 0 1 .21-.21h12.168a.211.211 0 0 1 .211.21.211.211 0 0 1-.211.211z" class="cls-4" transform="translate(-1440.357 -1113.839)"/>
                        <path id="Path_20735" d="M1452.735 1144.357h-12.168a.211.211 0 0 1-.21-.21.211.211 0 0 1 .21-.211h12.168a.211.211 0 0 1 .211.211.211.211 0 0 1-.211.21z" class="cls-4" transform="translate(-1440.357 -1142.161)"/>
                        <path id="Rectangle_4025" d="M.21 0h7.151a.21.21 0 0 1 .21.21.21.21 0 0 1-.21.21H.21A.21.21 0 0 1 0 .21.21.21 0 0 1 .21 0z" class="cls-4" transform="translate(2.509 3.55)"/>
                        <path id="Rectangle_4026" d="M.21 0h7.151a.21.21 0 0 1 .21.21.21.21 0 0 1-.21.21H.21A.21.21 0 0 1 0 .21.21.21 0 0 1 .21 0z" class="cls-4" transform="translate(2.509 5.325)"/>
                        <path id="Rectangle_4027" d="M.21 0h7.151a.21.21 0 0 1 .21.21.21.21 0 0 1-.21.21H.21A.21.21 0 0 1 0 .21.21.21 0 0 1 .21 0z" class="cls-4" transform="translate(2.509 7.101)"/>
                    </g>
                </g>
                <g id="Group_9466" transform="translate(14.984 43.849)">
                    <circle id="Ellipse_559" cx="3.84" cy="3.84" r="3.84" fill="#24b700"/>
                    <path id="Path_20797" fill="none" stroke="#fff" stroke-linecap="round" stroke-linejoin="round" d="M0 .832l.963 1.192L3.7 0" transform="rotate(-5.13 36.328 -21.629)"/>
                </g>
            </g>
            <g id="Group_9465" transform="translate(32.179 10.94)">
                <g id="Group_9450">
                    <g id="Group_9449">
                        <g id="Group_9448">
                            <path id="Path_20738" d="M2348.452 1072.729c0-.038.546-1.167.373-1.254s-.486-.074-.521.124a6.872 6.872 0 0 0 .148 1.13z" class="cls-17" transform="translate(-2346.47 -1055.618)"/>
                            <path id="Path_20739" d="M2473.455 848.517s3.2-3.851 4.9-1.387a3.547 3.547 0 0 1 1.723 2.679c.467 2.2-.994 3.869-1.751 3.456-.485-.265-.851.583-.851.583z" class="cls-18" transform="translate(-2463.315 -845.451)"/>
                            <path id="Path_20740" d="M2343.294 1025.34c-2.547-.938-5-5.3-5-5.3l.8-.562c.669.979 3.679 2.858 3.679 2.858.069-.825.169-1.573.292-2.251.836-4.607 2.749-5.972 3.261-6.262a1.093 1.093 0 0 1 .13-.065s0 .034-.006.1c-.008.139-.024.418-.051.8-.199 2.853-.976 11.467-3.105 10.682z" class="cls-17" transform="translate(-2337.128 -1001.783)"/>
                            <path id="Path_20741" d="M2541.982 834.7s.431-1.723 2.963-1.185c0 0-1.212-.153-1.544.314a1.987 1.987 0 0 1 1.562-.072c.6.368.7 1.607.61 1.984s-.754 1.5-1.193 1.5a2.022 2.022 0 0 1-.96-.386z" class="cls-18" transform="translate(-2527.291 -833.415)"/>
                            <path id="Path_20742" d="M2454.34 972.746c-1.259-2.823-1.861-3.621-1.882-4.509-.017-.7.329-1.46 1-3.318a6.889 6.889 0 0 0 .335-1.343c.532-3.582-1.539-7.454-2.826-7.718-.359-.095-.965-1.388-.958-3.473l-.161.032-2.71.537s.062.853.063 1.657c0 .67-.039 1.3-.19 1.384l-.31.029s-2.26 3.139-2.45 6.059 1.811 4.188-.015 10.022c-1.864 5.958 10.799 2.201 10.104.641z" class="cls-17" transform="translate(-2435.86 -944.485)"/>
                            <path id="Path_20743" fill="#e8945b" d="M2490.579 953.4s.062.853.063 1.657a3.214 3.214 0 0 0 2.647-2.194z" transform="translate(-2479.302 -944.932)"/>
                            <path id="Path_20744" d="M2469.569 870.114a7.974 7.974 0 0 0 .986-2.33c.136-.767-.254-3.609-3.111-3.2a3.88 3.88 0 0 0-1.609.608c-.62.419-1.515 1.323-.514 3.8l.26.838z" class="cls-18" transform="translate(-2455.3 -862.476)"/>
                            <path id="Path_20745" d="M2466.146 887.266s3.589.059 3.592-2.176.467-3.734-1.824-3.866-2.738.72-2.92 1.466.218 4.503 1.152 4.576z" class="cls-17" transform="translate(-2455.374 -878.036)"/>
                            <path id="Path_20746" d="M2484.95 874.2s.983 2.623 2.491 3.011a2.97 2.97 0 0 0 2.162-.016 4.27 4.27 0 0 1-1.4-2.523s-2.511-1.717-3.253-.472z" class="cls-18" transform="translate(-2474.047 -871.07)"/>
                            <path id="Path_20747" d="M2463.07 877.785a3.175 3.175 0 0 0-.913 1.155c-.179.569-.26 1.741-.6 1.7 0 0-.74-1.783.092-2.791.881-1.069 1.421-.064 1.421-.064z" class="cls-18" transform="translate(-2451.922 -874.439)"/>
                            <path id="Path_20748" d="M2448.838 1296.589a35.438 35.438 0 0 1-2.262 6.346l-1.184-.082a33.458 33.458 0 0 0 .547-6.492 27.179 27.179 0 0 0-1.377-8.634c-3.542-10.114-2.969-17.475-2.969-17.475l6.66.779.31.036c.028 3.059.107 7.212.176 10.459.061 2.92.115 5.108.115 5.108 1.281 2.757.816 6.65-.016 9.955z" class="cls-18" transform="translate(-2433.536 -1241.243)"/>
                            <path id="Path_20749" d="M2553.748 1023.628l-1.077.323s-3.555-5.9-3.878-7.432c-.1-.5-.364-1.5-.666-2.62-.624-2.319-1.43-5.158-1.43-5.158l-.265-1.149-.9-3.918a12.279 12.279 0 0 1 2.746.6 1.255 1.255 0 0 1 .681.5c.745 1.637 1.488 5.768 2.011 8.715.291 1.642.513 2.917.629 3.187.318.758 1.301 4.905 2.149 6.952z" class="cls-17" transform="translate(-2530.601 -992.368)"/>
                            <path id="Path_20750" d="M2498.3 1276.3a16.389 16.389 0 0 1-2.069 6.729l-.566.411s-.535-2.879-.914-6.3c-.361-3.256-.855-6.7-1.415-7.753-2.221-4.17-2.89-19.915-2.89-19.915l6.753-.335a11.561 11.561 0 0 1 1.046 5.143 73.327 73.327 0 0 1-1.274 13.393.353.353 0 0 0 .045.226 15.5 15.5 0 0 1 1.284 8.401z" class="cls-4" transform="translate(-2479.182 -1221.525)"/>
                            <path id="Path_20751" d="M2486.565 875.092s.7 2.747 2.6 3.626c0 0-1.9-1.687-2.064-3.5s-.536-.126-.536-.126z" class="cls-18" transform="translate(-2475.554 -871.658)"/>
                            <path id="Path_20752" d="M2437.841 1024.089a1.6 1.6 0 0 1-.042.539c-.144.452-.637.658-1.83.535-.729-.076-1.054-1.3-1.2-2.34q-.657 2.237-1.843 2.5c-1.156.257-6.99.966-7.372-1.807-.42-3.05.838-8.45.906-11.362a14.408 14.408 0 0 1-.211-2.7 5.515 5.515 0 0 1 1.125-3.7 1.6 1.6 0 0 1 .8-.257c.272-.046.649-.1 1.183-.17a1.978 1.978 0 0 1 .213-.017c-.1.176-1.42 2.177-1.317 2.691.107.538 4.793.054 5.117-.242a11.186 11.186 0 0 0 .834-2.565 6.494 6.494 0 0 1 2.471.772l-.009.01a.685.685 0 0 1 .213.224c.866 1.648 1.731 5.809 2.339 8.777a4.321 4.321 0 0 1-3.162.463c.523 3.422 1.708 7.091 1.785 8.649z" class="cls-20" transform="translate(-2418.516 -993.789)"/>
                            <path id="Path_20753" d="M2322.721 1059.8c0-.111.093-1.714-.193-2.051s-.868-.816-1.051-.8a1.8 1.8 0 0 0-.685 1.7 5.994 5.994 0 0 0 1.125 1.717z" class="cls-17" transform="translate(-2320.753 -1042.106)"/>
                            <g id="Group_9445" transform="translate(.197 12.363)">
                                <path id="Path_20754" fill="#f1a34f" d="M2331.509 1022.962l-1.661.5a.1.1 0 0 1-.13-.07l-.949-3.168a.1.1 0 0 1 .07-.13l1.661-.5a.1.1 0 0 1 .13.07l.95 3.168a.1.1 0 0 1-.071.13z" transform="translate(-2328.429 -1019.591)"/>
                                <path id="Path_20755" fill="#d86713" d="M2326.371 1024.863l-1.507.452a.185.185 0 0 1-.23-.124l-.9-3.013a.185.185 0 0 1 .125-.23l1.506-.452a.185.185 0 0 1 .23.124l.9 3.013a.185.185 0 0 1-.124.23z" transform="translate(-2323.723 -1021.362)"/>
                            </g>
                            <path id="Path_20756" d="M2558.818 1658.216a16.4 16.4 0 0 1-2.068 6.729l-.576.524s-.525-2.992-.9-6.418a6.058 6.058 0 0 0 3.544-.835z" class="cls-17" transform="translate(-2539.697 -1603.443)"/>
                            <path id="Path_20757" fill="#d9935c" d="M2502.721 1663.646a35.521 35.521 0 0 1-2.262 6.346l-1.184-.082a33.482 33.482 0 0 0 .547-6.492 5.385 5.385 0 0 0 2.899.228z" transform="translate(-2487.42 -1608.299)"/>
                            <g id="Group_9446" transform="translate(8.402 59.946)">
                                <path id="Path_20758" d="M2452.6 1738.849h-.755c-.254-.04-.441-.113-.7-.147a.7.7 0 0 0-.612.147l-.007.008h-3.21c-.08-.115 0-.382.073-.579a.453.453 0 0 1 .3-.275 3.462 3.462 0 0 0 1.625-.743c.345-.312 1.669-1.149 1.669-1.149h.007c.029 0 .168.043.769.552.312.262.843-.371.843-.371a.762.762 0 0 1 .174.236.8.8 0 0 1 .069.493 3.193 3.193 0 0 0 .23 1.19c.074.22.137.376.137.376s.035.181-.612.262z" class="cls-24" transform="translate(-2447.279 -1736.11)"/>
                                <path id="Path_20759" d="M2504.833 1736.527a2.387 2.387 0 0 1-.813.41c-.342.045-.979-.825-.979-.825h.007c.029 0 .167.043.769.552.312.262.842-.371.842-.371a.759.759 0 0 1 .174.234z" class="cls-25" transform="translate(-2499.338 -1736.11)"/>
                                <path id="Path_20760" d="M2452.6 1768.369h-.755c-.254-.04-.441-.113-.7-.147a.7.7 0 0 0-.612.147l-.007.008h-3.21c-.08-.116 0-.382.073-.579.1-.087.124.376.178.45a14.366 14.366 0 0 0 2.767-.081 1.546 1.546 0 0 1 1.211-.148 2.928 2.928 0 0 0 1.531-.289c.074.22.137.376.137.376s.034.182-.613.263z" class="cls-25" transform="translate(-2447.279 -1765.63)"/>
                            </g>
                            <g id="Group_9447" transform="translate(12.435 59.946)">
                                <path id="Path_20761" d="M2513.317 1738.849h-.756c-.253-.04-.44-.113-.7-.147a.7.7 0 0 0-.612.147l-.007.008h-3.209c-.081-.115 0-.382.073-.579a.455.455 0 0 1 .3-.275 3.461 3.461 0 0 0 1.626-.743c.346-.312 1.67-1.149 1.67-1.149h.007c.03 0 .168.043.77.552.311.262.842-.371.842-.371a.759.759 0 0 1 .174.236.8.8 0 0 1 .069.493 3.2 3.2 0 0 0 .23 1.19c.075.22.138.376.138.376s.035.181-.615.262z" class="cls-24" transform="translate(-2507.999 -1736.11)"/>
                                <path id="Path_20762" d="M2565.552 1736.527a2.388 2.388 0 0 1-.814.41c-.341.045-.979-.825-.979-.825h.007c.029 0 .168.043.77.552.311.262.842-.371.842-.371a.758.758 0 0 1 .174.234z" class="cls-25" transform="translate(-2560.056 -1736.11)"/>
                                <path id="Path_20763" d="M2513.317 1768.369h-.756c-.253-.04-.44-.113-.7-.147a.7.7 0 0 0-.612.147l-.007.008h-3.209c-.081-.116 0-.382.073-.579.1-.087.125.376.178.45a14.367 14.367 0 0 0 2.767-.081 1.546 1.546 0 0 1 1.211-.148 2.927 2.927 0 0 0 1.531-.289c.075.22.138.376.138.376s.036.182-.614.263z" class="cls-25" transform="translate(-2507.999 -1765.63)"/>
                            </g>
                            <path id="Path_20764" fill="#ef7e29" d="M2547.441 1122.96a7.036 7.036 0 0 1-3.064-2.575c-3.269-4.225-.278-9.19.123-9.282s1.156 3.212 1.156 3.212c.522 3.418 1.707 7.085 1.785 8.645z" transform="translate(-2528.116 -1092.661)"/>
                            <path id="Path_20765" d="M2415.244 1012.184s-2.239 1.126-2.984 5.672a3.867 3.867 0 0 0 1.766 1.3 2.042 2.042 0 0 0 .459.079c1.269.065.759-7.051.759-7.051z" class="cls-20" transform="translate(-2406.184 -1000.312)"/>
                            <path id="Path_20766" d="M2329.082 1044.644s.692-1.064.861-1.005c.241.084-.628 1.435-.628 1.435s.644-1.009.744-.933c.229.173-.135.807-.5 1.293 0 0 .647-.593.668-.486.074.374-.711 1.28-.711 1.28l-.438-1z" class="cls-17" transform="translate(-2328.529 -1029.676)"/>
                            <path id="Path_20767" d="M2321.269 1039.288c.033-.13.2-2.672.274-2.431s.244 1.574.244 1.574z" class="cls-17" transform="translate(-2321.234 -1023.332)"/>
                        </g>
                    </g>
                    <path id="Path_20768" d="M2475.919 950.054s-.063.263-.718.223c0 0-.55-.034-.533-.323a1.769 1.769 0 0 1 1.251.1z" class="cls-8" transform="translate(-2464.447 -942.151)"/>
                </g>
                <g id="Group_9464" transform="translate(22.069 31.259)">
                    <path id="Path_20794" d="M2654.163 1304.142a7.875 7.875 0 0 1 1.5 1.228c.2.364.662 1.705.662 1.705s-.331.05-.662-.53-1.424-.53-1.788-.844a4.949 4.949 0 0 1-.788-1.236z" class="cls-17" transform="translate(-2653.085 -1304.142)"/>
                    <path id="Path_20795" d="M2655.213 1313.3a4.318 4.318 0 0 0 .481 1.316c.264.3.629.795.777.662s-.165-1.242-.165-1.242z" class="cls-17" transform="translate(-2655.072 -1312.693)"/>
                    <path id="Path_20796" d="M2689.136 1324.385c.033.05 1.176 1.264 1.176 1.264s-.414.188-.53 0-.646-1.264-.646-1.264z" class="cls-17" transform="translate(-2686.742 -1323.041)"/>
                </g>
            </g>
        </g>
    </g>
</svg>
