<svg xmlns="http://www.w3.org/2000/svg" width="124.3" height="128.109" viewBox="0 0 124.3 128.109">
    <defs>
        <style>
            .cls-3{fill:#168794}.cls-6{fill:rgba(0,179,180,.1)}.cls-8{fill:#fff}.cls-9{fill:#fec10d}.cls-13,.cls-24{fill:none}.cls-13,.cls-21,.cls-24{stroke-miterlimit:10}.cls-12{fill:#343434}.cls-13{stroke:#168794;stroke-width:2.394px}.cls-13,.cls-21{stroke-linecap:round}.cls-14{fill:#d0e7e9}.cls-15{fill:#bbdbde}.cls-16{fill:#f36f21}.cls-18{fill:#ffa6ba}.cls-19,.cls-21{fill:#414042}.cls-20{fill:#ff85a0}.cls-21{stroke:#ff4f75;stroke-width:.722px}.cls-23{fill:#7c3992}.cls-24{stroke:#fff;stroke-width:.636px}
        </style>
    </defs>
    <g id="Group_8882" transform="translate(-5.803 175)">
        <g id="Group_8881" transform="translate(7 -175)">
            <circle id="Ellipse_506" cx="56.051" cy="56.051" r="56.051" fill="#edf8f8" transform="translate(11.002)"/>
            <circle id="Ellipse_507" cx="8.838" cy="8.838" r="8.838" fill="#168794" opacity="0.2" transform="translate(15.688 8.16)"/>
            <circle id="Ellipse_508" cx="8.194" cy="8.194" r="8.194" class="cls-3" transform="translate(15.688 8.16)"/>
            <g id="Group_8875" transform="translate(47.985 16.769)">
                <g id="Group_8869">
                    <rect id="Rectangle_2510" width="57.747" height="109.144" fill="rgba(0,179,180,0.1)" opacity="0.1" rx="28.874"/>
                    <rect id="Rectangle_2511" width="55.134" height="109.144" class="cls-3" rx="7"/>
                    <path id="Path_18898" fill="rgba(255,255,255,0.8)" d="M407.467 131.051h-5.762l-.827 2.565a2.444 2.444 0 0 1-2.32 1.7h-23.273a2.444 2.444 0 0 1-2.32-1.7l-.827-2.565h-5.762a5.008 5.008 0 0 0-4.971 5.034v94.921a5.008 5.008 0 0 0 4.971 5.034h41.091a5.009 5.009 0 0 0 4.971-5.034v-94.921a5.008 5.008 0 0 0-4.971-5.034z" transform="translate(-359.355 -128.832)"/>
                    <g id="Group_8868" transform="translate(16.533 2.669)">
                        <rect id="Rectangle_2512" width="19.81" height="1.066" class="cls-6" rx=".533" transform="translate(0 .182)"/>
                        <rect id="Rectangle_2513" width="1.412" height="1.43" class="cls-6" rx=".706" transform="translate(20.836)"/>
                    </g>
                </g>
                <circle id="Ellipse_509" cx="20.091" cy="20.091" r="20.091" fill="#00b3b4" transform="translate(7.476 14.39)"/>
                <circle id="Ellipse_510" cx="18.497" cy="18.497" r="18.497" class="cls-8" transform="translate(9.071 15.985)"/>
                <g id="Group_8871" transform="translate(20.96 26.179)">
                    <rect id="Rectangle_2514" width="13.214" height="10.757" class="cls-9" rx="5.179" transform="translate(0 5.848)"/>
                    <path id="Rectangle_2515" fill="none" stroke="#fec10d" stroke-miterlimit="10" stroke-width="2px" d="M3.754 0a3.754 3.754 0 0 1 3.753 3.754v5.272H0V3.754A3.754 3.754 0 0 1 3.754 0z" transform="translate(2.853)"/>
                    <g id="Group_8870" transform="translate(5.033 8.558)">
                        <circle id="Ellipse_511" cx="1.574" cy="1.574" r="1.574" class="cls-8"/>
                        <rect id="Rectangle_2516" width="1.352" height="3.584" class="cls-8" rx=".676" transform="translate(.897 1.754)"/>
                    </g>
                </g>
                <path id="Rectangle_2517" fill="#00b3b5" d="M0 0H36.993V11.544H0z" transform="translate(9.071 66.805)"/>
                <path id="Rectangle_2518" d="M0 0H34.581V8.378H0z" class="cls-8" transform="translate(10.276 68.388)"/>
                <g id="Group_8872" transform="translate(13.27 70.54)">
                    <path id="Path_18899" d="M418.465 466.5h1.293l-.074 1.253 1.169-.459.4 1.228-1.219.316.8.972-1.051.765-.676-1.066-.676 1.066-1.046-.765.8-.972-1.219-.311.4-1.233 1.174.459z" class="cls-12" transform="translate(-416.97 -466.499)"/>
                    <path id="Path_18900" d="M448.569 466.5h1.293l-.074 1.253 1.169-.459.4 1.228-1.219.316.8.972-1.051.765-.676-1.066-.676 1.066-1.046-.765.8-.972-1.219-.311.4-1.233 1.174.459z" class="cls-12" transform="translate(-440.996 -466.499)"/>
                    <path id="Path_18901" d="M478.673 466.5h1.293l-.074 1.253 1.169-.459.4 1.228-1.219.316.8.972-1.051.765-.676-1.066-.676 1.066-1.046-.765.8-.972-1.219-.311.4-1.233 1.174.459z" class="cls-12" transform="translate(-465.022 -466.499)"/>
                    <path id="Path_18902" d="M508.777 466.5h1.293l-.07 1.252 1.169-.459.4 1.228-1.219.316.8.972-1.051.765-.676-1.066-.676 1.066-1.046-.765.8-.972-1.218-.311.4-1.233 1.174.459z" class="cls-12" transform="translate(-489.048 -466.499)"/>
                    <path id="Path_18903" d="M538.881 466.5h1.293l-.074 1.253 1.169-.459.4 1.228-1.219.316.8.972-1.051.765-.676-1.066-.676 1.066-1.046-.765.8-.972-1.219-.311.4-1.233 1.174.459z" class="cls-12" transform="translate(-513.073 -466.499)"/>
                </g>
                <circle id="Ellipse_512" cx="3.753" cy="3.753" r="3.753" class="cls-9" transform="translate(42.311 63.912)"/>
                <g id="Group_8873" transform="translate(45.538 65.806)">
                    <path id="Path_18904" d="M577.84 446.251a.488.488 0 0 1-.157.366.524.524 0 0 1-.895-.373.526.526 0 0 1 .9-.371.514.514 0 0 1 .152.378zm-.056-.773h-.915v-2.426h.915z" class="cls-8" transform="translate(-576.788 -443.052)"/>
                </g>
                <path id="Rectangle_2519" d="M0 0H27.84V7.279H0z" class="cls-3" transform="translate(13.647 85.885)"/>
                <g id="Group_8874" transform="translate(21.146 87.694)">
                    <path id="Path_18905" d="M456.812 554.532h-.83v-3.072h1.467v.722h-.637v.448h.593v.695h-.593z" class="cls-8" transform="translate(-455.982 -551.46)"/>
                    <path id="Path_18906" d="M467.864 556.95a1.115 1.115 0 0 1-.275.792.958.958 0 0 1-.736.294.921.921 0 0 1-.722-.3 1.366 1.366 0 0 1 .006-1.63.906.906 0 0 1 .718-.31.931.931 0 0 1 .74.308 1.245 1.245 0 0 1 .269.846zm-.774-.026a1.351 1.351 0 0 0-.016-.216.719.719 0 0 0-.046-.165.307.307 0 0 0-.072-.106.136.136 0 0 0-.094-.038q-.1 0-.163.143a.885.885 0 0 0-.062.376.9.9 0 0 0 .062.376q.062.143.165.143t.161-.141a.991.991 0 0 0 .065-.372z" class="cls-8" transform="translate(-463.869 -554.921)"/>
                    <path id="Path_18907" d="M479.609 557.97h-.8v-2.151h.8l-.042.42a.625.625 0 0 1 .6-.472v.9a.49.49 0 0 0-.223-.072.29.29 0 0 0-.248.116.562.562 0 0 0-.087.339z" class="cls-8" transform="translate(-474.202 -554.897)"/>
                    <path id="Path_18908" d="M490.016 555.842v2.213a1.242 1.242 0 0 1-.07.438.7.7 0 0 1-.227.293 1.065 1.065 0 0 1-.673.2 1.053 1.053 0 0 1-.675-.189.876.876 0 0 1-.291-.589h.816q.008.175.167.175a.153.153 0 0 0 .143-.071.484.484 0 0 0 .042-.234v-.34a.62.62 0 0 1-.5.278.58.58 0 0 1-.506-.3 1.489 1.489 0 0 1-.191-.8 1.537 1.537 0 0 1 .191-.808.573.573 0 0 1 .5-.312.429.429 0 0 1 .247.072.984.984 0 0 1 .237.257l-.016-.283zm-.774 1.069q0-.466-.171-.466-.193 0-.193.454t.187.468q.177-.001.177-.456z" class="cls-8" transform="translate(-481.577 -554.921)"/>
                    <path id="Path_18909" d="M502.812 556.95a1.115 1.115 0 0 1-.275.792.959.959 0 0 1-.736.294.921.921 0 0 1-.722-.3 1.367 1.367 0 0 1 .006-1.63.906.906 0 0 1 .718-.31.931.931 0 0 1 .74.308 1.245 1.245 0 0 1 .269.846zm-.774-.026a1.329 1.329 0 0 0-.016-.216.708.708 0 0 0-.046-.165.307.307 0 0 0-.072-.106.136.136 0 0 0-.093-.038q-.1 0-.163.143a.888.888 0 0 0-.062.376.9.9 0 0 0 .062.376q.062.143.165.143t.161-.141a.989.989 0 0 0 .064-.372z" class="cls-8" transform="translate(-491.761 -554.921)"/>
                    <path id="Path_18910" d="M514.214 555.673h-.8v-1.508h-.227v-.643h.227v-.633h.8v.633h.265v.643h-.265z" class="cls-8" transform="translate(-501.637 -552.6)"/>
                </g>
            </g>
            <g id="Group_8876" transform="translate(18.34 13.77)">
                <path id="Path_18911" d="M207 97.324a2.584 2.584 0 1 0 2.584 2.584A2.584 2.584 0 0 0 207 97.324zm-1.459 3.35a.766.766 0 1 1 .766-.766.766.766 0 0 1-.763.766z" class="cls-8" transform="translate(-204.419 -97.324)"/>
                <path id="Path_18912" d="M216.952 105.763v1.76h4.28l.589-.589.589.589h.04l.6-.6.528.528a.112.112 0 0 0 .155 0l1.769-1.607v-.081z" class="cls-8" transform="translate(-214.422 -104.059)"/>
            </g>
            <path id="Line_136" d="M0 0L104.784 0" class="cls-13" transform="translate(6.245 126.912)"/>
            <path id="Line_137" d="M0 0L6.03 0" class="cls-13" transform="translate(113.496 126.912)"/>
            <g id="Group_8879" transform="translate(1.106 83.914)">
                <g id="Group_8878">
                    <path id="Path_18913" d="M196.314 507.943a21.608 21.608 0 0 0 .168 6.3h4.234a17.273 17.273 0 0 0 6.526-6.041c-2.271.173-3.952.085-3.991-.247-.044-.38 2.088-.944 4.857-1.3a21.07 21.07 0 0 0 1.874-6.043c-2.68.263-4.778.2-4.821-.174-.045-.387 2.17-.966 5.017-1.323a43.437 43.437 0 0 0-.053-7.6c-5.725 1.945-9.152 5.1-11.176 8.454 1.329 1.881 2.128 3.391 1.862 3.6-.242.186-1.3-.76-2.59-2.265a19.525 19.525 0 0 0-1.637 4.9c1.146 1.676 1.807 2.975 1.561 3.163-.194.138-.9-.429-1.831-1.424zm7.575-5.027c0-.278.583-.5 1.3-.5s1.3.225 1.3.5-.583.5-1.3.5-1.299-.222-1.299-.5z" class="cls-14" transform="translate(-180.6 -482.062)"/>
                    <path id="Path_18914" d="M178.868 476.909s-2.935-18.3 4.936-32.176c-2.668 9.6-2.736 32.176-2.736 32.176z" class="cls-14" transform="translate(-166.365 -444.733)"/>
                    <path id="Path_18915" d="M131.249 509.358c-.246-.188.415-1.487 1.561-3.163a19.524 19.524 0 0 0-1.637-4.9c-1.293 1.506-2.347 2.451-2.59 2.265-.267-.2.532-1.714 1.862-3.6-2.024-3.352-5.451-6.51-11.176-8.454a43.439 43.439 0 0 0-.053 7.6c2.846.357 5.062.936 5.017 1.323-.043.37-2.141.437-4.821.174a21.077 21.077 0 0 0 1.874 6.043c2.769.358 4.9.923 4.857 1.3-.039.331-1.72.42-3.991.247a17.273 17.273 0 0 0 6.526 6.041h4.234a21.609 21.609 0 0 0 .168-6.3c-.933 1.004-1.638 1.571-1.831 1.424zm-7.048-5.939c-.719 0-1.3-.225-1.3-.5s.583-.5 1.3-.5 1.3.225 1.3.5-.581.5-1.301.5z" class="cls-14" transform="translate(-119.061 -482.062)"/>
                    <path id="Path_18916" d="M187.655 480.375s.422-18.337 10.688-30.015c-2.951 6.545-10.045 27.816-9.835 31.04-.853 0-.853-1.025-.853-1.025z" class="cls-14" transform="translate(-173.806 -449.224)"/>
                    <g id="Group_8877" transform="translate(13.849 15.162)">
                        <path id="Path_18917" d="M190.479 536.842l4.994-16.6a.582.582 0 0 1 .557-.414h2.67a.582.582 0 0 1 .536.808l-6.815 16.143z" class="cls-15" transform="translate(-189.909 -519.827)"/>
                        <path id="Path_18918" d="M187.655 536.842l4.994-16.6a.582.582 0 0 1 .557-.414h2.666a.582.582 0 0 1 .536.808l-6.816 16.143z" class="cls-15" transform="translate(-187.655 -519.827)"/>
                        <path id="Path_18919" d="M212.886 520.178c.373 1.211 1.736 5.226 3.873 6.874 1.356-.452.29-5.858.047-7.01a.271.271 0 0 0-.266-.215h-3.393a.272.272 0 0 0-.261.351z" class="cls-15" transform="translate(-207.782 -519.827)"/>
                    </g>
                </g>
                <path id="Path_18920" d="M172.874 613.73h-9.258l1.263 8.763h9.213l1.263-8.763z" class="cls-16" transform="translate(-154.62 -579.609)"/>
                <path id="Path_18921" fill="#e35f11" d="M164.478 615l11.045 2.266.51-3.54h-7.105c-2.168.576-3.924 1.046-4.463 1.19z" transform="translate(-155.299 -579.609)"/>
                <path id="Rectangle_2520" d="M0 0H14.119V3.181H0z" class="cls-16" transform="translate(7.806 32.176)"/>
            </g>
            <g id="Group_8880" transform="translate(13.567 26.593)">
                <path id="Path_18922" d="M275.038 616.85l-.815 6.557c1.955 1.635 4.851 1.062 7.381-.4-2.706-.5-3.394-1.715-3.049-6.161z" class="cls-18" transform="translate(-255.357 -524.778)"/>
                <path id="Path_18923" d="M273.026 646.327c-.436.758-.251 1.285-.367 2.3h10.728a2.289 2.289 0 0 0-1.649-1.974c-1.575-.49-1.772-.147-4.763.758a3.81 3.81 0 0 1-3.949-1.084z" class="cls-12" transform="translate(-254.109 -548.303)"/>
                <path id="Path_18924" d="M222.685 616.85l.447 6.974c-2.1 1.635-4.915.645-7.629-.813 3.815.458 3.529-2.911 3.435-6.161z" class="cls-18" transform="translate(-208.492 -524.778)"/>
                <path id="Path_18925" d="M238.483 176.116s1.428.329.9 3.514c-.12 1.832 1.2 9.15 1.2 9.15-4.81 3.269-10.047 4.372-14.857 1.1a27.981 27.981 0 0 1 5.55-11.756z" class="cls-12" transform="translate(-216.652 -173.03)"/>
                <path id="Path_18926" d="M184.792 244.446l3.4 2.792 10.072-9.54a5.263 5.263 0 0 0-7.438.172z" class="cls-19" transform="translate(-183.982 -221.018)"/>
                <path id="Path_18927" d="M293.825 242.4l-.1.22a3.865 3.865 0 0 1-5.518 1.764l-8.467-5.048.071-.739a5.041 5.041 0 0 1 7.045-.941z" class="cls-19" transform="translate(-259.762 -221.34)"/>
                <path id="Path_18928" d="M254.955 205.741a3.158 3.158 0 0 0 4.352 0v-8.016h-4.352z" class="cls-18" transform="translate(-239.979 -190.276)"/>
                <path id="Path_18929" d="M259.307 204.023a3.084 3.084 0 0 1-.844.118 4.057 4.057 0 0 1-3.507-2.659v-3.757h4.352z" class="cls-20" transform="translate(-239.979 -190.276)"/>
                <ellipse id="Ellipse_513" cx="3.934" cy="5.384" class="cls-18" rx="3.934" ry="5.384" transform="translate(14.318 1.664)"/>
                <path id="Path_18930" d="M269.363 213.693s1.392-.153 1.65.182" class="cls-21" transform="translate(-251.478 -202.992)"/>
                <path id="Path_18931" d="M246.048 163.917a7.118 7.118 0 0 1-6.695 2.4c-.555.283-.819 2.069-.819 2.069l-1.057 4.5s-3.671-4.769-1.681-8.11c1.991-3.909 9.186-6.081 10.252-.859z" class="cls-12" transform="translate(-224.217 -160.831)"/>
                <circle id="Ellipse_514" cx=".947" cy=".947" r=".947" class="cls-18" transform="translate(13.414 6.348)"/>
                <path id="Path_18932" d="M282.084 192.069c.214-.05-.956-.8-1.754-.627a.683.683 0 0 0-.193.5 2.684 2.684 0 0 1 1.947.127z" class="cls-12" transform="translate(-260.077 -185.241)"/>
                <ellipse id="Ellipse_515" cx=".232" cy=".45" class="cls-12" rx=".232" ry=".45" transform="translate(20.732 7.048)"/>
                <path id="Path_18933" d="M261.508 192.028c-.221-.143 1.442-.827 1.864-.627.208.162.132.328.083.5a2.685 2.685 0 0 0-1.947.127z" class="cls-12" transform="translate(-245.193 -185.2)"/>
                <ellipse id="Ellipse_516" cx=".232" cy=".45" class="cls-12" rx=".232" ry=".45" transform="translate(17.057 7.048)"/>
                <path id="Path_18934" d="M274.7 200.2s-.039 1.3.24 1.4-.114.8-.7.219" class="cls-21" transform="translate(-255.375 -192.25)"/>
                <circle id="Ellipse_517" cx=".329" cy=".329" r=".329" class="cls-20" transform="translate(13.925 6.948)"/>
                <path id="Path_18935" d="M227.414 236.648h2.052a4.723 4.723 0 0 0 8.118 0h1.167a3.3 3.3 0 0 1 3.3 3.3v4.9a6.276 6.276 0 0 1-.341 2.041l-2.838 8.252h-10.6l-2.838-8.252a6.275 6.275 0 0 1-.341-2.041v-5.875a2.319 2.319 0 0 1 2.321-2.325z" class="cls-19" transform="translate(-216.147 -221.34)"/>
                <path id="Path_18936" fill="#2c292e" d="M234.377 265.306c-.965 1.1.109 3.934-5.314 2.556-1.814-.582-4.687 1.383-6.309.647-2.266-.459-4.857-4.664-5.332-4.312-.214.159-1.173.329-1.941 2.681l1.941-1.838v1.773a6.275 6.275 0 0 0 .341 2.041l1.153 3.354c9.74-2.6 10.051-.852 14.309-1l.094-.274.715-2.08a6.267 6.267 0 0 0 .341-2.041z" transform="translate(-208.476 -243.31)"/>
                <path id="Rectangle_2521" d="M0 0H10.517V1.211H0z" class="cls-12" transform="rotate(-180 11.361 17.503)"/>
                <path id="Path_18937" d="M224.572 340.555l2.32-6.34h10.517l1.421 3.882a34.178 34.178 0 0 1 2.026 13.69l-.942 16.531a2.683 2.683 0 0 1-.1.6 3.592 3.592 0 0 0-.11 1.672 2.359 2.359 0 0 1 .038.553l-1.09 21.8a4.654 4.654 0 0 1-4.753 0l-.739-18.543a9.707 9.707 0 0 1 .067-1.073 64.348 64.348 0 0 0 .3-11.453l-1-14.346h-.756l-1.344 20.787a2.69 2.69 0 0 1-.117.644l-.936 23.951a4.655 4.655 0 0 1-4.8.025l-1.066-17.209a24.277 24.277 0 0 1 .084-4.177 63.484 63.484 0 0 0 .335-11.493l-.633-10.885a21.451 21.451 0 0 1 1.278-8.616z" class="cls-3" transform="translate(-214.687 -299.208)"/>
                <path id="Path_18938" d="M232.612 338.969c.9-.32 4.384-.6 2.8-4.754h-1.059z" class="cls-23" transform="translate(-222.147 -299.208)"/>
                <path id="Path_18939" d="M269.419 402.409l-.271-4.61 2.571-.6z" class="cls-23" transform="translate(-251.306 -349.476)"/>
                <path id="Path_18940" d="M232.7 391.708l-.995-15.98a24.28 24.28 0 0 1 .084-4.177 63.487 63.487 0 0 0 .335-11.493l-.633-10.885a21.451 21.451 0 0 1 1.271-8.618l2.32-6.34" class="cls-24" transform="translate(-221.221 -299.208)"/>
                <path id="Path_18941" d="M276.018 443.284l-.691-17.306a9.665 9.665 0 0 1 .067-1.073 64.352 64.352 0 0 0 .3-11.453l-.85-14.613" class="cls-24" transform="translate(-255.852 -350.784)"/>
                <path id="Path_18942" d="M251.6 236.648a5.446 5.446 0 0 1-9.25 0z" class="cls-18" transform="translate(-229.921 -221.34)"/>
                <path id="Path_18943" d="M211.894 646.327c.613.651.532 1.22.367 2.3h-10.728c-.3-.18.428-1.765 2.35-2.121 1.767-.327 2.129.193 3.519.782a5.253 5.253 0 0 0 4.492-.961z" class="cls-12" transform="translate(-197.29 -548.303)"/>
                <rect id="Rectangle_2522" width="3.894" height="2" class="cls-8" rx="1" transform="rotate(-180 9.93 17.672)"/>
                <path id="Path_18944" d="M229.383 341.872l-1.694-1.45a1.7 1.7 0 0 1 1.239-1.963c1.509-.347.455 3.413.455 3.413z" class="cls-20" transform="translate(-218.203 -302.577)"/>
                <path id="Path_18945" d="M227.8 329.309l1.751 1.371a1.562 1.562 0 0 1 .6 1.319 2.524 2.524 0 0 1-2.068 2.589l-2.04-3.6z" class="cls-18" transform="translate(-216.908 -295.293)"/>
                <path id="Path_18946" d="M181.162 275.967l9.073 10.07a3.182 3.182 0 0 0 2.483-1.766l-7.118-11.458a2.55 2.55 0 0 0-3.57-.325 2.55 2.55 0 0 0-.868 3.479z" class="cls-19" transform="translate(-180.782 -249.49)"/>
                <path id="Path_18947" d="M293.571 189.942l-1.819-3.657s-3.161-1.546-3.144-1.218 1.8 1.326 1.8 1.326-1.525 1.948-.913 2.78a11.53 11.53 0 0 0 2.9 1.976z" class="cls-18" transform="translate(-266.837 -180.137)"/>
                <path id="Path_18948" d="M309.628 218.573l-7.776-12.093a2.743 2.743 0 0 0-2.582 1.307l5.747 13.12a2.533 2.533 0 0 0 3.425 1.045 2.533 2.533 0 0 0 1.186-3.379z" class="cls-19" transform="translate(-275.347 -197.263)"/>
            </g>
            <path id="Line_138" d="M0 0L3.64 0" class="cls-13" transform="translate(0 126.912)"/>
        </g>
    </g>
</svg>
