<svg xmlns="http://www.w3.org/2000/svg" width="20.015" height="19.16" viewBox="0 0 20.015 19.16">
    <defs>
        <style>
            .cls-2{fill:#363954}
        </style>
    </defs>
    <g id="Group_8840" transform="translate(-27 -597.464)">
        <path id="Fill_1" fill="#e4e3e5" d="M20.015 1.692c0 .935-4.481 1.692-10.008 1.692S0 2.627 0 1.692 4.481 0 10.007 0s10.008.758 10.008 1.692" transform="translate(27 613.239)"/>
        <g id="school_3_" transform="translate(29 597.112)">
            <path id="Path_18833" d="M195.817 175.606a1.664 1.664 0 1 0-1.664-1.664 1.666 1.666 0 0 0 1.664 1.664zm0-2.515a.851.851 0 1 1-.851.851.852.852 0 0 1 .851-.851z" class="cls-2" transform="translate(-188.213 -165.856)"/>
            <path id="Path_18834" d="M63.645 262.121h-.526a.149.149 0 0 0-.149.149v1.739a.149.149 0 0 0 .149.149h.526a.149.149 0 0 0 .149-.149v-1.739a.149.149 0 0 0-.149-.149z" class="cls-2" transform="translate(-61.263 -252.76)"/>
            <path id="Path_18835" d="M63.645 372.009h-.526a.149.149 0 0 0-.149.149v1.742a.149.149 0 0 0 .149.149h.526a.149.149 0 0 0 .149-.149v-1.739a.149.149 0 0 0-.149-.152z" class="cls-2" transform="translate(-61.263 -358.391)"/>
            <path id="Path_18836" d="M419.354 264.16h.526a.149.149 0 0 0 .149-.149v-1.739a.149.149 0 0 0-.149-.149h-.526a.149.149 0 0 0-.149.149v1.739a.149.149 0 0 0 .149.149z" class="cls-2" transform="translate(-406.482 -252.761)"/>
            <path id="Path_18837" d="M419.354 374.048h.526a.149.149 0 0 0 .149-.149v-1.739a.149.149 0 0 0-.149-.149h-.526a.149.149 0 0 0-.149.149v1.74a.149.149 0 0 0 .149.148z" class="cls-2" transform="translate(-406.482 -358.392)"/>
            <path id="Path_18838" d="M14.809 6.913h-3.314V4.807l.873.292c.58.161.8-.76.255-.958L8.1 2.628V1.352h2.436a.476.476 0 0 0 .446-.5.476.476 0 0 0-.446-.5H7.655a.476.476 0 0 0-.446.5v1.776L2.686 4.141c-.563.228-.3 1.121.255.958l.819-.274v2.088H.446a.476.476 0 0 0-.446.5v9.507a.476.476 0 0 0 .446.5h14.363a.476.476 0 0 0 .446-.5V7.413a.476.476 0 0 0-.446-.5zm-7.154-3.39l2.947.986V16.42h-.994v-3.243a2.118 2.118 0 0 0-1.986-2.225 2.118 2.118 0 0 0-1.986 2.225v3.243h-.983V4.527zM.893 7.914h2.868v8.506H.893zm5.635 8.506v-3.243a1.166 1.166 0 0 1 1.093-1.225 1.166 1.166 0 0 1 1.093 1.225v3.243H6.528zm7.834 0h-2.867V7.914h2.868z" class="cls-2"/>
        </g>
    </g>
</svg>
