<svg xmlns="http://www.w3.org/2000/svg" width="132.241" height="72.109" viewBox="0 0 132.241 72.109">
    <defs>
        <style>
            .cls-2{fill:#fec10d}.cls-3{fill:#efa26f}.cls-4{fill:#2db3ac}.cls-5{fill:#ffb27d}.cls-6{fill:#d38254}.cls-7{fill:#ffc197}.cls-8{fill:#282c47}.cls-11{fill:#ffd3b6}.cls-15{fill:#f9f9ff}.cls-16{fill:#168794}
        </style>
    </defs>
    <g id="Group_1596" transform="translate(-15.7 -139.533)">
        <path id="Path_1425" fill="#f4fafa" d="M2.133 48.3s-7.047-23.7 4.475-31.711c11.112-7.725 22.025-.949 26.02-10.048 1.8-4.108 9.745-8.03 17.154-5.892A15.115 15.115 0 0 1 58.2 7.112c7.891 11.933 14.675 11.873 20.119 9.666 6.244-2.532 9.485-11.114 19.259-9.5 11.3 1.862 10.579 12.846 17.61 12.15 12.785-1.266 23.6 16.491 9.195 29.021z" transform="translate(16 162.799)"/>
        <g id="Group_1589" transform="translate(44.409 139.533)">
            <g id="Group_1591">
                <path id="Path_1435" d="M328.737 457.029s-3.271 7.4-4.61 6.7 4.239-7.981 4.239-7.981-4.075-7.115-6.623-8.526c0 0-.622 8.993-1.749 7.991s-.915-10.39-.915-10.39-5.447-5.448-8.993-2.438-3.2 5.973-2.433 6.84 6.753 4.87 6.069 5.535-5.539-.858-7.3-3.088c0 0-1.72 7.784 1.729 9.7s5.828.6 7.938 1.826 3.2 2.77 1.83 2.62-4.514-2.844-7.079-2.581-4.457.21-1.876 2.893 8.241 6.007 10.91 4.437l.334-.2a1.48 1.48 0 0 1-.334.2c.332.7.1 2.819-.134 4.4-.056.258-.118.626-.185 1.137-.039.225-.073.408-.1.535-.763 3.379-4.472 7.571-4.472 7.571l.523.614a12.954 12.954 0 0 0 4.705-9.141 14.921 14.921 0 0 1 2.335-6.683s8.005.737 8.329-5.51c0 0-.3-4.181-2.138-6.464" class="cls-2" transform="translate(-293.445 -423.374)"/>
                <path id="Path_1436" d="M744.407 160.825a109.248 109.248 0 0 1-7.874 13.209 16.838 16.838 0 0 1-4.523 4.645 10.808 10.808 0 0 0-3.38 3.077 24.686 24.686 0 0 0-3.519 7.224l-10.146-15.35s.346-15 1.564-17.515c1.776-3.658 2.633-11.048 3.315-12.519.506-1.091 1.951-6.729 2.09-7.144A1.377 1.377 0 0 1 723.1 136a1.817 1.817 0 0 1 1.566 1.48 16.863 16.863 0 0 1-.206 8.5c.383 3.866-.768 6.736.039 7.5.03.028.086.015.165-.035 1.4-.9 10.08-13.555 11.149-13.828 1.13-.288 8.595 21.216 8.595 21.216" class="cls-3" transform="translate(-685.638 -130.422)"/>
                <path id="Path_1437" d="M425.909 1190.673s-.138 6.821-.534 16.009h-25.593c5.85-12.475 10.936-22.975 10.936-22.975s14.572.445 15.191 6.967" class="cls-4" transform="translate(-383.384 -1135.153)"/>
                <path id="Path_1438" d="M1412.681 10.147l-3.142 4.606-3.083 4.52a.706.706 0 0 1-.641.283c-.74-.07-1.655-1.137-2.369-1.728l-.073-.059a2.226 2.226 0 0 1-.3-3.125l4.713-5.7 1.4-1.689a2.225 2.225 0 0 1 3.125-.3l.073.059a2.226 2.226 0 0 1 .3 3.125" class="cls-5" transform="translate(-1345.04 -6.191)"/>
                <path id="Path_1439" d="M1485.367 73.019l-3.083 4.52a.706.706 0 0 1-.641.283l1.976-10.609c0 .059.34 4.82 1.748 5.806" class="cls-3" transform="translate(-1420.869 -64.456)"/>
                <path id="Path_1440" d="M948.471 1041.157a16.84 16.84 0 0 1-4.523 4.646 10.807 10.807 0 0 0-3.38 3.076c-1.069-.5-2.288-1.083-3.48-1.662a1.984 1.984 0 0 1-.085-3.529l.041-.023c1.332-.762 2.7-3.453 2.7-3.453z" class="cls-6" transform="translate(-897.575 -997.546)"/>
                <path id="Path_1441" d="M863.934 152.7l-.822 3.319a1.744 1.744 0 0 0 1.18.066c.462-.228.838-3.206-.358-3.385" class="cls-7" transform="translate(-827.709 -146.44)"/>
                <path id="Path_1442" d="M972.32 45.18h-17.678a3.171 3.171 0 0 1-3.162-3.162V3.162A3.171 3.171 0 0 1 954.642 0h17.678a3.171 3.171 0 0 1 3.161 3.162v38.857a3.171 3.171 0 0 1-3.161 3.162" class="cls-8" transform="translate(-912.453)"/>
                <path id="Path_1443" fill="#f5f6fa" d="M1002.109 29.643V67.6a2.339 2.339 0 0 1-2.324 2.341h-16.974a2.339 2.339 0 0 1-2.323-2.341V29.643a2.339 2.339 0 0 1 2.323-2.341h16.974a2.339 2.339 0 0 1 2.324 2.341" transform="translate(-940.269 -26.182)"/>
                <path id="Path_1444" fill="#fff" d="M999.785 27.3l-16.764 42.639h-.21a2.339 2.339 0 0 1-2.323-2.341V29.642a2.339 2.339 0 0 1 2.323-2.341z" transform="translate(-940.269 -26.181)"/>
                <path id="Path_1445" d="M1140.1 8.723h-7.094a1.054 1.054 0 0 1-1.051-1.051v-.165a1.054 1.054 0 0 1 1.051-1.051h7.094a1.054 1.054 0 0 1 1.051 1.051v.165a1.054 1.054 0 0 1-1.051 1.051" class="cls-8" transform="translate(-1085.526 -6.191)"/>
                <path id="Path_1446" d="M1457.24 420.638l-.468.178-3.151 1.2a2.014 2.014 0 0 1-.223.071 2.152 2.152 0 0 1-2.545-1.314l-.046-.121a2.152 2.152 0 0 1 1.244-2.768l2.937-1.116.214-.081.469-.178a2.152 2.152 0 0 1 2.768 1.244l.046.121a2.152 2.152 0 0 1-1.244 2.768" class="cls-5" transform="translate(-1391.164 -399.287)"/>
                <path id="Path_1447" d="M1474.659 461.739a12.567 12.567 0 0 1-1.987.626.839.839 0 0 1-.657-.329 1.941 1.941 0 0 1-.4-.715 2.274 2.274 0 0 1-.108-.456 1.924 1.924 0 0 1 .017-.543.542.542 0 0 1 .3-.387 12.425 12.425 0 0 1 1.911-.749.83.83 0 0 1 1.03.46l.066.181.338.926a.793.793 0 0 1-.517.987" class="cls-11" transform="translate(-1411.141 -440.316)"/>
                <path id="Path_1448" d="M1482.2 473.854a12.561 12.561 0 0 1-1.987.626.839.839 0 0 1-.657-.329c-.026-.062-.051-.127-.074-.2a2.275 2.275 0 0 1-.108-.456 1.924 1.924 0 0 1 .017-.543.541.541 0 0 1 .3-.387 12.421 12.421 0 0 1 1.911-.749.906.906 0 0 1 .773.123l.338.926a.793.793 0 0 1-.517.986" class="cls-7" transform="translate(-1418.682 -452.431)"/>
                <path id="Path_1449" d="M1476.427 558.184l-2.43.661a1.4 1.4 0 0 1-1.708-.977l-.075-.275a1.4 1.4 0 0 1 .977-1.708l2.43-.661a1.4 1.4 0 0 1 1.708.977l.075.275a1.4 1.4 0 0 1-.977 1.708" class="cls-5" transform="translate(-1411.781 -532.403)"/>
                <path id="Path_1450" d="M1485.158 578.07a10.958 10.958 0 0 1-1.676.352.819.819 0 0 1-.663-.526 1.837 1.837 0 0 1-.178-.7 1.389 1.389 0 0 1 .054-.416.431.431 0 0 1 .275-.278 10.855 10.855 0 0 1 1.623-.453.688.688 0 0 1 .811.42l.063.219.187.657a.616.616 0 0 1-.5.725" class="cls-11" transform="translate(-1421.826 -552.408)"/>
                <path id="Path_1451" d="M1488.188 586.6a10.97 10.97 0 0 1-1.676.352.819.819 0 0 1-.663-.526 1.579 1.579 0 0 1-.049-.335 1.4 1.4 0 0 1 .054-.416.432.432 0 0 1 .275-.278 10.79 10.79 0 0 1 1.623-.452.734.734 0 0 1 .744.274l.187.657a.616.616 0 0 1-.5.724" class="cls-7" transform="translate(-1424.855 -560.942)"/>
                <path id="Path_1452" fill="#239690" d="M605.655 1149.673s5 4.79 8.373 6.639l2.553-1.81v2.671s5.02.888 6.6 0v-7.284l-14.1-7.069z" transform="translate(-580.812 -1095.944)"/>
                <path id="Path_1453" fill="#f3f8ff" d="M566.918 1040.214s-3.176 4.751-6.333 9.831c0 0 6.652 4.576 10.259 5.918l4.73-5.418-.675 6.522s4.187 1.526 6.129 1.128c0 0-.123-5.917-.121-9.793 0 0-11.509-3.226-13.989-8.188" transform="translate(-537.591 -997.547)"/>
                <path id="Path_1454" d="M734.013 1315.93a.787.787 0 1 1 .78.795.788.788 0 0 1-.78-.795" class="cls-4" transform="translate(-703.905 -1261.205)"/>
                <path id="Path_1455" d="M1451.617 281.7l-.052.018-3.185.818a2.633 2.633 0 0 1-3.219-1.684l-.189-.659a2.442 2.442 0 0 1 1.71-2.945l1.051-.27 2.134-.548a2.633 2.633 0 0 1 3.219 1.684l.189.659a2.437 2.437 0 0 1-1.658 2.927" class="cls-5" transform="translate(-1385.617 -265.005)"/>
                <path id="Path_1456" d="M1503.582 309.818l-1.548.7h-.01a1.658 1.658 0 0 1-.187.039l-.078.01h-.033a.246.246 0 0 1-.214-.348 1.538 1.538 0 0 0 .088-1.049l-.037-.135-.12-.439a1.648 1.648 0 0 0-.561-.855c-.032-.026-.065-.05-.1-.073a.445.445 0 0 1 .13-.791h.01l1.7-.257a.808.808 0 0 1 .939.629l.137.5.29 1.067c.114.42.014.9-.406 1.01" class="cls-11" transform="translate(-1439.042 -294.013)"/>
                <path id="Path_1457" d="M1510.313 325.975l-1.547.7h-.01c-.036.007-.15.026-.3.049a.246.246 0 0 1-.214-.348 1.538 1.538 0 0 0 .088-1.049l-.037-.135-.12-.439a1.646 1.646 0 0 0-.561-.855.432.432 0 0 1 .244-.173h.01l1.7-.257a.772.772 0 0 1 .864.438l.29 1.067c.114.42.015.9-.406 1.01" class="cls-7" transform="translate(-1445.774 -310.17)"/>
                <path id="Path_1458" d="M902.971 396.922s-.695-6.066-1.336-7.249a6 6 0 0 1-.2-5.312 17 17 0 0 0 1.327-5.148c.383 3.866-.768 6.736.039 7.5.03.028.086.015.165-.036z" class="cls-6" transform="translate(-863.944 -363.658)"/>
                <path id="Path_1459" d="M20.127 1046.432s-1.185-3.239-3.153-4.63c0 0-.915 6.592-2.131 6.346s1.549-7.272 1.549-7.272-4.832-4.707-7.166-5.248c0 0 1.541 7.255.423 6.717s-3.072-8.012-3.072-8.012-4.077-2.266-6.577-.9v7.605c1.914.757 4.873 1.866 4.586 2.366s-2.617.575-4.586.039v5.3a3.02 3.02 0 0 0 1.676 1.154c3.162.737 4.747-.841 6.692-.35s3.16 1.467 2.04 1.659-4.214-1.229-6.183-.441-3.479 1.174-.83 2.712 7.877 2.889 9.633 1.044l.22-.231a1.224 1.224 0 0 1-.221.233 9.666 9.666 0 0 1 .889 3.511c.014.216.048.52.111.937.021.193.036.35.046.458a9.846 9.846 0 0 1-.318 2.729h.845a10.524 10.524 0 0 0-.145-3.664 12.275 12.275 0 0 1 .329-5.815c.014 0 6.5-1.232 5.343-6.241" class="cls-2" transform="translate(0 -990.624)"/>
                <path id="Path_1460" d="M1171.688 1148.868c-1.112-4.107-8.043-2.824-8.043-2.824s-4.706 7.188-6.075 7.359 2.824-6.931 2.824-6.931c-2.652-.257-9.412 2.995-9.412 2.995s.428 8.385-.941 8.214 0-7.444 0-7.444c-2.567.77-4.963 3.765-4.963 3.765-2.995 4.877 3.423 8.471 3.423 8.471a13.65 13.65 0 0 1-1.711 6.246 9.9 9.9 0 0 0-.818 1.663h.7q.086-.281.19-.543v-.007l.2-.449c.214-.418.358-.728.449-.951.641-1.314 1.563-3.026 2.179-3.385a1.357 1.357 0 0 1-.15-.321l.15.321c1.2 2.567 7.187 2.995 10.524 2.31s1.882-1.626.086-3.153-5.562-1.125-6.674-1.724.513-1.2 2.738-1.027 3.337 2.4 6.931 2.738 6.332-6.417 6.332-6.417c-2.481.77-6.931-.6-7.1-1.455s6.417-.77 7.444-1.027 2.824-2.31 1.711-6.417" class="cls-2" transform="translate(-1097.345 -1098.853)"/>
            </g>
        </g>
        <path id="Line_36" fill="none" stroke="#282c47" stroke-linecap="round" d="M0 0L131.241 0" transform="translate(16.2 211.142)"/>
        <ellipse id="Ellipse_226" cx="5.141" cy="5.608" class="cls-15" rx="5.141" ry="5.608" transform="translate(21.943 153.827)"/>
        <circle id="Ellipse_227" cx="5.141" cy="5.141" r="5.141" class="cls-15" transform="translate(131.297 141.677)"/>
        <ellipse id="Ellipse_228" cx="2.337" cy="1.869" class="cls-15" rx="2.337" ry="1.869" transform="translate(116.343 139.807)"/>
        <g id="padlock" transform="translate(87.973 153.026)">
            <g id="Group_1593">
                <g id="Group_1592">
                    <path id="Path_1461" d="M64.371 6.683H63.09V3.76a3.84 3.84 0 0 0-7.679 0v2.923h-1.278A2.135 2.135 0 0 0 52 8.816v7.252a2.135 2.135 0 0 0 2.133 2.132h10.238a2.135 2.135 0 0 0 2.129-2.131V8.816a2.135 2.135 0 0 0-2.129-2.133zM56.834 3.76a2.419 2.419 0 0 1 4.835 0v2.923h-4.835V3.76zm8.249 12.309a.712.712 0 0 1-.711.711H54.133a.712.712 0 0 1-.711-.711V8.816a.712.712 0 0 1 .711-.711h10.238a.712.712 0 0 1 .711.711z" class="cls-16" transform="translate(-52)"/>
                </g>
            </g>
            <g id="Group_1595" transform="translate(5.937 10.167)">
                <g id="Group_1594">
                    <path id="Path_1462" d="M220.315 286a1.315 1.315 0 0 0-.712 2.421v1.561a.711.711 0 0 0 1.422 0v-1.559a1.315 1.315 0 0 0-.71-2.423z" class="cls-16" transform="translate(-219 -286)"/>
                </g>
            </g>
        </g>
    </g>
</svg>
