<svg xmlns="http://www.w3.org/2000/svg" width="16.893" height="21" viewBox="0 0 16.893 21">
    <g>
        <path fill="#e4e3e5" d="M16 1.5C16 2.328 12.418 3 8 3s-8-.672-8-1.5S3.582 0 8 0s8 .672 8 1.5" transform="translate(-29 -419.5) translate(29 437.5)"/>
        <path fill="#363954" d="M6.727 0h-.612a1.529 1.529 0 0 0-1.508 1.58v6.789h-3.1A1.586 1.586 0 0 0 0 9.946v4.7a1.529 1.529 0 0 0 1.509 1.58h3.1v1.194A1.529 1.529 0 0 0 6.115 19h.612a1.529 1.529 0 0 0 1.508-1.58v-1.195h4.057a1.5 1.5 0 0 0 1.1-.5l2.1-2.349a1.658 1.658 0 0 0 0-2.166l-2.1-2.349a1.491 1.491 0 0 0-1.1-.5H8.235V1.58A1.529 1.529 0 0 0 6.727 0zM5.585 8.369V1.537a.522.522 0 0 1 .495-.513h.647a.531.531 0 0 1 .53.555v6.79zM1.509 15.2a.531.531 0 0 1-.53-.555v-4.7a.584.584 0 0 1 .535-.555h10.777a.48.48 0 0 1 .365.183l2.123 2.353a.609.609 0 0 1 0 .761l-2.119 2.348a.468.468 0 0 1-.369.165zm4.568 2.775a.526.526 0 0 1-.492-.549v-1.2h1.672v1.194a.531.531 0 0 1-.53.555z" transform="translate(-29 -419.5) rotate(180 22.946 219.25)"/>
    </g>
</svg>
