<svg xmlns="http://www.w3.org/2000/svg" width="25" height="33.235" viewBox="0 0 25 33.235">
    <defs>
        <style>
            .cls-2{fill:rgba(56,85,114,.5)}
        </style>
    </defs>
    <g id="surface1" transform="translate(-.5)">
        <path id="Fill_1" fill="#e4e3e5" d="M23.842 1.441c0 .8-5.337 1.441-11.921 1.441S0 2.237 0 1.441 5.337 0 11.921 0s11.921.645 11.921 1.441" transform="translate(.994 30.353)"/>
        <path id="Path_18934" d="M17.5.244A.763.763 0 0 0 16.956 0H4.646A4.164 4.164 0 0 0 .5 4.139v23.277a4.164 4.164 0 0 0 4.146 4.139h16.708a4.164 4.164 0 0 0 4.146-4.139V8.933a.82.82 0 0 0-.221-.533zm.221 2.447l5.206 5.465h-3.38a1.815 1.815 0 0 1-1.822-1.814zm3.628 27.34H4.646a2.64 2.64 0 0 1-2.622-2.614V4.139a2.64 2.64 0 0 1 2.622-2.615H16.2v4.817a3.334 3.334 0 0 0 3.347 3.339h4.428v17.736a2.635 2.635 0 0 1-2.621 2.615zm0 0"/>
        <path id="Path_18935" d="M102.48 401.934H89.934a.762.762 0 1 0 0 1.524h12.553a.762.762 0 1 0-.008-1.524zm0 0" class="cls-2" transform="translate(-83.207 -377.162)"/>
        <path id="Path_18936" d="M119.714 176.372l3.14-3.377v8.323a.762.762 0 0 0 1.524 0v-8.323l3.14 3.377a.76.76 0 0 0 1.113-1.037l-4.467-4.794a.757.757 0 0 0-1.113 0l-4.467 4.794a.76.76 0 0 0 .038 1.075.778.778 0 0 0 1.092-.038zm0 0" class="cls-2" transform="translate(-110.616 -159.801)"/>
    </g>
</svg>
