<svg xmlns="http://www.w3.org/2000/svg" width="51.824" height="37.614" viewBox="0 0 51.824 37.614">
    <defs>
        <style>
            .cls-1{fill:#0f0f12}.cls-2{fill:#3a3a3b}.cls-3{fill:#ffddce}.cls-4{fill:#ffcbbe}.cls-5{fill:#00b3b5}.cls-6{fill:#fff}.cls-7{fill:#16a1b1}.cls-9{fill:#eab10a}
        </style>
    </defs>
    <g id="team" transform="translate(0 -70.193)">
        <path id="Path_18851" d="M371.613 204.829v.587a6.687 6.687 0 0 0 .343 2.115l1.329 3.986h2.508v-9.195h-1.672a2.508 2.508 0 0 0-2.508 2.507z" class="cls-1" transform="translate(-333.999 -118.754)"/>
        <path id="Path_18852" d="M397.9 199.145l-1.414 4.951-6.687-5.851a1.672 1.672 0 0 1-1.672-1.672 2.508 2.508 0 0 1 2.508-2.508h5.851a1.672 1.672 0 0 1 1.672 1.672v1.571a6.683 6.683 0 0 1-.258 1.837z" class="cls-2" transform="translate(-348.843 -111.334)"/>
        <path id="Rectangle_2507" d="M0 0H5.015V3.699H0z" class="cls-3" transform="translate(40.957 95.269)"/>
        <path id="Path_18853" d="M404.645 319.47a6.632 6.632 0 0 0 5.015 0v-1.535h-5.015v1.535z" class="cls-4" transform="translate(-363.688 -222.666)"/>
        <path id="Path_18854" d="M361.738 339.12l-4.033-1.152-2.507 1.664-2.508-1.664-4.032 1.152a2.508 2.508 0 0 0-1.819 2.411v6.111a.836.836 0 0 0 .836.836h15.045a.836.836 0 0 0 .836-.836v-6.111a2.508 2.508 0 0 0-1.818-2.411z" class="cls-5" transform="translate(-311.733 -240.671)"/>
        <path id="Path_18855" d="M422.833 363.322h-1.672l.418-8.838h.836z" class="cls-6" transform="translate(-378.532 -255.516)"/>
        <path id="Path_18856" d="M384.886 244.64a5.015 5.015 0 0 1-5.015-5.015v-.979a1.672 1.672 0 0 1 .49-1.182l1.516-1.516a1.652 1.652 0 0 1 1.214-.491c2.672.084 5.037.657 6.33 1.919a1.65 1.65 0 0 1 .482 1.184v1.065a5.015 5.015 0 0 1-5.017 5.015z" class="cls-3" transform="translate(-341.421 -148.535)"/>
        <path id="Path_18857" d="M382.379 238.852a1.669 1.669 0 0 1 1.772-1.669 17.638 17.638 0 0 1 5.728 1.129 1.616 1.616 0 0 0-.458-.936c-1.293-1.263-3.658-1.835-6.33-1.919a1.652 1.652 0 0 0-1.213.491l-1.516 1.516a1.671 1.671 0 0 0-.49 1.182v.979a5.014 5.014 0 0 0 3.626 4.816 4.974 4.974 0 0 1-1.118-3.144v-2.444z" class="cls-4" transform="translate(-341.421 -148.534)"/>
        <path id="Path_18858" d="M478.968 362.929a2.507 2.507 0 0 1 .734-1.773l2.152-2.156a2.5 2.5 0 0 1 .457 1.434v6.111a.836.836 0 0 1-.836.836h-2.508v-4.456z" class="cls-7" transform="translate(-430.488 -259.578)"/>
        <path id="Path_18859" d="M422.415 356.156h-.836a.418.418 0 0 1-.418-.418v-1.254h1.672v1.254a.418.418 0 0 1-.418.418z" class="cls-1" transform="translate(-378.532 -255.516)"/>
        <g id="Group_8854" transform="translate(40.033 96.633)">
            <path id="Path_18860" d="M398.944 333.738l-1.417 1.082a.5.5 0 0 1-.744-.158l-1.271-2.321.512-.78a.334.334 0 0 1 .507-.062z" class="cls-6" transform="translate(-395.512 -331.41)"/>
            <path id="Path_18861" d="M429.419 333.739l1.417 1.082a.5.5 0 0 0 .744-.158l1.271-2.321-.512-.78a.334.334 0 0 0-.507-.062z" class="cls-6" transform="translate(-425.987 -331.411)"/>
        </g>
        <path id="Path_18862" d="M16.812 210.054a30.167 30.167 0 0 1-1.4-6.84 6.059 6.059 0 0 0-5.946-5.851 6.059 6.059 0 0 0-5.946 5.851 30.168 30.168 0 0 1-1.4 6.84.833.833 0 0 0 .435 1.063 15.965 15.965 0 0 0 4.366 1.291h5.1a16.107 16.107 0 0 0 4.366-1.291.832.832 0 0 0 .425-1.063z" class="cls-1" transform="translate(-1.85 -114.298)"/>
        <path id="Path_18863" d="M60 211.118a.832.832 0 0 0 .435-1.063 30.166 30.166 0 0 1-1.4-6.84 6.059 6.059 0 0 0-5.946-5.851h-.025a2.551 2.551 0 0 0-1.241 4.729 2.313 2.313 0 0 0 .214.114l1.9 10.2h1.7A16.115 16.115 0 0 0 60 211.118z" class="cls-2" transform="translate(-45.474 -114.299)"/>
        <path id="Path_18864" d="M13.659 315.033l-2.7-1.352a1.672 1.672 0 0 1-.924-1.5v-2.508h-5.02v2.508a1.672 1.672 0 0 1-.924 1.5l-2.7 1.352A2.507 2.507 0 0 0 0 317.276v4.94a.836.836 0 0 0 .836.836H14.21a.836.836 0 0 0 .836-.836v-4.94a2.507 2.507 0 0 0-1.387-2.243z" class="cls-3" transform="translate(0 -215.245)"/>
        <path id="Path_18865" d="M51.655 313.02a6.606 6.606 0 0 0 2.552-.516 1.647 1.647 0 0 1-.045-.32v-2.508h-5.015v2.508a1.645 1.645 0 0 1-.045.321 6.639 6.639 0 0 0 2.553.515z" class="cls-4" transform="translate(-44.132 -215.244)"/>
        <path id="Path_18866" d="M13.659 354.032l-1.927-.964a5.008 5.008 0 0 1-8.419 0l-1.927.964A2.507 2.507 0 0 0 0 356.274v4.94a.836.836 0 0 0 .836.836H14.21a.836.836 0 0 0 .836-.836v-4.94a2.507 2.507 0 0 0-1.387-2.242z" class="cls-5" transform="translate(0 -254.243)"/>
        <path id="Path_18867" d="M30.094 253.189a5.016 5.016 0 0 1-4.974-4.366.843.843 0 0 1 .447-.869 6.976 6.976 0 0 0 1.479-1 4.826 4.826 0 0 0 1.144-1.5.827.827 0 0 1 .942-.458 14.4 14.4 0 0 1 5.674 2.907.809.809 0 0 1 .288.672 5.016 5.016 0 0 1-5 4.614z" class="cls-3" transform="translate(-22.571 -157.084)"/>
        <path id="Path_18868" d="M34.806 247.9a14.4 14.4 0 0 0-5.674-2.907.827.827 0 0 0-.942.458 4.785 4.785 0 0 1-.764 1.115 4.485 4.485 0 0 1-.379.387 6.972 6.972 0 0 1-1.48 1 .843.843 0 0 0-.447.869 5.023 5.023 0 0 0 4.213 4.309 3.659 3.659 0 0 1-1.747-3.286v-1.192c.19-.14.381-.28.573-.451a6.655 6.655 0 0 0 1.2-1.41 12.622 12.622 0 0 1 4.356 2.37c.158.139.552.5 1.011.933a4.977 4.977 0 0 0 .371-1.524.809.809 0 0 0-.291-.671z" class="cls-4" transform="translate(-22.571 -157.083)"/>
        <path id="Path_18869" d="M.51 369.859a2.5 2.5 0 0 0-.51 1.507v4.94a.836.836 0 0 0 .836.836h2.507v-4.212a1.672 1.672 0 0 0-.627-1.305z" class="cls-7" transform="translate(0 -269.334)"/>
        <path id="Path_18870" fill="#fec10d" d="M141.831 328.735l-6.994-2.543-5.015 1.672-5.015-1.672-6.994 2.543a3.343 3.343 0 0 0-2.2 3.142v5.181a.836.836 0 0 0 .836.836H143.2a.836.836 0 0 0 .836-.836v-5.181a3.343 3.343 0 0 0-2.205-3.142z" transform="translate(-103.911 -230.087)"/>
        <path id="Path_18871" d="M240.28 359.226l-.8 8.358h3.343l-.8-8.358z" class="cls-2" transform="translate(-215.244 -259.778)"/>
        <path id="Path_18872" d="M243.889 345.529h-1.755a.585.585 0 0 1-.585-.585v-2.235h2.925v2.235a.585.585 0 0 1-.585.585z" class="cls-1" transform="translate(-217.1 -244.932)"/>
        <path id="Path_18873" d="M350.954 359.855a3.34 3.34 0 0 1 .9 2.278v5.181a.836.836 0 0 1-.836.836h-4.179v-2.794a3.343 3.343 0 0 1 .979-2.364z" class="cls-9" transform="translate(-311.733 -260.343)"/>
        <path id="Path_18874" d="M183.55 78.867v-7a1.672 1.672 0 0 0-1.672-1.672h-10.03a6.687 6.687 0 0 0-6.687 6.687v1.987a8.358 8.358 0 0 0 .429 2.643l.278.835a2.507 2.507 0 0 1 .129.793v.429h16.717v-.429a2.508 2.508 0 0 1 .129-.793l.278-.835a8.356 8.356 0 0 0 .429-2.645z" class="cls-1" transform="translate(-148.444)"/>
        <path id="Path_18875" d="M206.452 73.589a3.4 3.4 0 0 0 3.4 3.4h.47l.227 6.582h9.281v-.429a2.507 2.507 0 0 1 .129-.793l.278-.835a8.358 8.358 0 0 0 .429-2.643v-7a1.672 1.672 0 0 0-1.672-1.672h-9.142a3.4 3.4 0 0 0-3.4 3.39z" class="cls-2" transform="translate(-185.555)"/>
        <path id="Rectangle_2508" d="M0 0H10.031V7.523H0z" class="cls-3" transform="translate(20.896 90.254)"/>
        <path id="Path_18876" d="M206.451 271.212a9.972 9.972 0 0 0 10.03 0v-2.826h-10.03v2.826z" class="cls-4" transform="translate(-185.554 -178.132)"/>
        <g id="Group_8855" transform="translate(19.225 94.713)">
            <path id="Path_18877" d="M196.623 315.507l-2.666 2.666a.836.836 0 0 1-1.257-.086l-2.764-3.642.723-1.524a.836.836 0 0 1 1.194-.353z" class="cls-1" transform="translate(-189.936 -312.443)"/>
            <path id="Path_18878" d="M256 315.507l2.666 2.666a.836.836 0 0 0 1.257-.086l2.764-3.642-.723-1.524a.836.836 0 0 0-1.194-.353z" class="cls-1" transform="translate(-249.313 -312.443)"/>
        </g>
        <path id="Path_18879" d="M181.778 152.936a8.359 8.359 0 0 1-8.359-8.359v-.977a1.672 1.672 0 0 1 .49-1.182l.692-.692a1.672 1.672 0 0 0 .49-1.182v-2a.829.829 0 0 1 .637-.812c1.977-.467 8.129-1.573 12.315 1.506a1.072 1.072 0 0 1 .422.866v.444a1.672 1.672 0 0 0 .49 1.182l.692.692a1.672 1.672 0 0 1 .49 1.182v.979a8.358 8.358 0 0 1-8.359 8.353z" class="cls-3" transform="translate(-155.866 -60.175)"/>
        <path id="Path_18880" d="M188.042 139.245c-2.944-2.166-6.856-2.259-9.608-1.963a22.539 22.539 0 0 0-2.707.457.829.829 0 0 0-.637.812v2a1.672 1.672 0 0 1-.49 1.182l-.692.692a1.672 1.672 0 0 0-.49 1.182v.979a8.356 8.356 0 0 0 7.349 8.292 8.324 8.324 0 0 1-2.333-5.784v-6.11a1.673 1.673 0 0 1 1.47-1.66c2.006-.252 5.68-.4 8.56 1.227v-.444a1.072 1.072 0 0 0-.422-.862z" class="cls-4" transform="translate(-155.866 -60.188)"/>
        <path id="Path_18881" d="M116.513 359.855a3.34 3.34 0 0 0-.9 2.278v5.181a.836.836 0 0 0 .836.836h4.179v-2.794a3.343 3.343 0 0 0-.979-2.364z" class="cls-9" transform="translate(-103.911 -260.343)"/>
    </g>
</svg>
